%TF.GenerationSoftware,KiCad,Pcbnew,(5.1.9-0-10_14)*%
%TF.CreationDate,2021-12-13T14:59:41-05:00*%
%TF.ProjectId,dodecahedron_n4,646f6465-6361-4686-9564-726f6e5f6e34,rev?*%
%TF.SameCoordinates,Original*%
%TF.FileFunction,Copper,L4,Bot*%
%TF.FilePolarity,Positive*%
%FSLAX46Y46*%
G04 Gerber Fmt 4.6, Leading zero omitted, Abs format (unit mm)*
G04 Created by KiCad (PCBNEW (5.1.9-0-10_14)) date 2021-12-13 14:59:41*
%MOMM*%
%LPD*%
G01*
G04 APERTURE LIST*
%TA.AperFunction,SMDPad,CuDef*%
%ADD10R,4.200000X4.200000*%
%TD*%
%TA.AperFunction,ViaPad*%
%ADD11C,0.508000*%
%TD*%
%TA.AperFunction,Conductor*%
%ADD12C,0.152400*%
%TD*%
G04 APERTURE END LIST*
%TO.P,J1,MP*%
%TO.N,N/C*%
%TA.AperFunction,SMDPad,CuDef*%
G36*
G01*
X91180201Y-47558600D02*
X89880199Y-47558600D01*
G75*
G02*
X89630200Y-47308601I0J249999D01*
G01*
X89630200Y-46608599D01*
G75*
G02*
X89880199Y-46358600I249999J0D01*
G01*
X91180201Y-46358600D01*
G75*
G02*
X91430200Y-46608599I0J-249999D01*
G01*
X91430200Y-47308601D01*
G75*
G02*
X91180201Y-47558600I-249999J0D01*
G01*
G37*
%TD.AperFunction*%
%TA.AperFunction,SMDPad,CuDef*%
G36*
G01*
X91180201Y-53158600D02*
X89880199Y-53158600D01*
G75*
G02*
X89630200Y-52908601I0J249999D01*
G01*
X89630200Y-52208599D01*
G75*
G02*
X89880199Y-51958600I249999J0D01*
G01*
X91180201Y-51958600D01*
G75*
G02*
X91430200Y-52208599I0J-249999D01*
G01*
X91430200Y-52908601D01*
G75*
G02*
X91180201Y-53158600I-249999J0D01*
G01*
G37*
%TD.AperFunction*%
%TO.P,J1,4*%
%TO.N,GND*%
%TA.AperFunction,SMDPad,CuDef*%
G36*
G01*
X95030200Y-48558600D02*
X93780200Y-48558600D01*
G75*
G02*
X93630200Y-48408600I0J150000D01*
G01*
X93630200Y-48108600D01*
G75*
G02*
X93780200Y-47958600I150000J0D01*
G01*
X95030200Y-47958600D01*
G75*
G02*
X95180200Y-48108600I0J-150000D01*
G01*
X95180200Y-48408600D01*
G75*
G02*
X95030200Y-48558600I-150000J0D01*
G01*
G37*
%TD.AperFunction*%
%TO.P,J1,3*%
%TO.N,VCC*%
%TA.AperFunction,SMDPad,CuDef*%
G36*
G01*
X95030200Y-49558600D02*
X93780200Y-49558600D01*
G75*
G02*
X93630200Y-49408600I0J150000D01*
G01*
X93630200Y-49108600D01*
G75*
G02*
X93780200Y-48958600I150000J0D01*
G01*
X95030200Y-48958600D01*
G75*
G02*
X95180200Y-49108600I0J-150000D01*
G01*
X95180200Y-49408600D01*
G75*
G02*
X95030200Y-49558600I-150000J0D01*
G01*
G37*
%TD.AperFunction*%
%TO.P,J1,2*%
%TO.N,/sda*%
%TA.AperFunction,SMDPad,CuDef*%
G36*
G01*
X95030200Y-50558600D02*
X93780200Y-50558600D01*
G75*
G02*
X93630200Y-50408600I0J150000D01*
G01*
X93630200Y-50108600D01*
G75*
G02*
X93780200Y-49958600I150000J0D01*
G01*
X95030200Y-49958600D01*
G75*
G02*
X95180200Y-50108600I0J-150000D01*
G01*
X95180200Y-50408600D01*
G75*
G02*
X95030200Y-50558600I-150000J0D01*
G01*
G37*
%TD.AperFunction*%
%TO.P,J1,1*%
%TO.N,/scl*%
%TA.AperFunction,SMDPad,CuDef*%
G36*
G01*
X95030200Y-51558600D02*
X93780200Y-51558600D01*
G75*
G02*
X93630200Y-51408600I0J150000D01*
G01*
X93630200Y-51108600D01*
G75*
G02*
X93780200Y-50958600I150000J0D01*
G01*
X95030200Y-50958600D01*
G75*
G02*
X95180200Y-51108600I0J-150000D01*
G01*
X95180200Y-51408600D01*
G75*
G02*
X95030200Y-51558600I-150000J0D01*
G01*
G37*
%TD.AperFunction*%
%TD*%
%TO.P,U1,1*%
%TO.N,Net-(U1-Pad1)*%
%TA.AperFunction,SMDPad,CuDef*%
G36*
G01*
X86324000Y-54365500D02*
X86224000Y-54365500D01*
G75*
G02*
X86174000Y-54315500I0J50000D01*
G01*
X86174000Y-53565500D01*
G75*
G02*
X86224000Y-53515500I50000J0D01*
G01*
X86324000Y-53515500D01*
G75*
G02*
X86374000Y-53565500I0J-50000D01*
G01*
X86374000Y-54315500D01*
G75*
G02*
X86324000Y-54365500I-50000J0D01*
G01*
G37*
%TD.AperFunction*%
%TO.P,U1,2*%
%TO.N,SW1*%
%TA.AperFunction,SMDPad,CuDef*%
G36*
G01*
X85924000Y-54365500D02*
X85824000Y-54365500D01*
G75*
G02*
X85774000Y-54315500I0J50000D01*
G01*
X85774000Y-53565500D01*
G75*
G02*
X85824000Y-53515500I50000J0D01*
G01*
X85924000Y-53515500D01*
G75*
G02*
X85974000Y-53565500I0J-50000D01*
G01*
X85974000Y-54315500D01*
G75*
G02*
X85924000Y-54365500I-50000J0D01*
G01*
G37*
%TD.AperFunction*%
%TO.P,U1,3*%
%TO.N,SW2*%
%TA.AperFunction,SMDPad,CuDef*%
G36*
G01*
X85524000Y-54365500D02*
X85424000Y-54365500D01*
G75*
G02*
X85374000Y-54315500I0J50000D01*
G01*
X85374000Y-53565500D01*
G75*
G02*
X85424000Y-53515500I50000J0D01*
G01*
X85524000Y-53515500D01*
G75*
G02*
X85574000Y-53565500I0J-50000D01*
G01*
X85574000Y-54315500D01*
G75*
G02*
X85524000Y-54365500I-50000J0D01*
G01*
G37*
%TD.AperFunction*%
%TO.P,U1,4*%
%TO.N,SW3*%
%TA.AperFunction,SMDPad,CuDef*%
G36*
G01*
X85124000Y-54365500D02*
X85024000Y-54365500D01*
G75*
G02*
X84974000Y-54315500I0J50000D01*
G01*
X84974000Y-53565500D01*
G75*
G02*
X85024000Y-53515500I50000J0D01*
G01*
X85124000Y-53515500D01*
G75*
G02*
X85174000Y-53565500I0J-50000D01*
G01*
X85174000Y-54315500D01*
G75*
G02*
X85124000Y-54365500I-50000J0D01*
G01*
G37*
%TD.AperFunction*%
%TO.P,U1,5*%
%TO.N,GND*%
%TA.AperFunction,SMDPad,CuDef*%
G36*
G01*
X84724000Y-54365500D02*
X84624000Y-54365500D01*
G75*
G02*
X84574000Y-54315500I0J50000D01*
G01*
X84574000Y-53565500D01*
G75*
G02*
X84624000Y-53515500I50000J0D01*
G01*
X84724000Y-53515500D01*
G75*
G02*
X84774000Y-53565500I0J-50000D01*
G01*
X84774000Y-54315500D01*
G75*
G02*
X84724000Y-54365500I-50000J0D01*
G01*
G37*
%TD.AperFunction*%
%TO.P,U1,6*%
%TO.N,SW4*%
%TA.AperFunction,SMDPad,CuDef*%
G36*
G01*
X84324000Y-54365500D02*
X84224000Y-54365500D01*
G75*
G02*
X84174000Y-54315500I0J50000D01*
G01*
X84174000Y-53565500D01*
G75*
G02*
X84224000Y-53515500I50000J0D01*
G01*
X84324000Y-53515500D01*
G75*
G02*
X84374000Y-53565500I0J-50000D01*
G01*
X84374000Y-54315500D01*
G75*
G02*
X84324000Y-54365500I-50000J0D01*
G01*
G37*
%TD.AperFunction*%
%TO.P,U1,7*%
%TO.N,SW5*%
%TA.AperFunction,SMDPad,CuDef*%
G36*
G01*
X83924000Y-54365500D02*
X83824000Y-54365500D01*
G75*
G02*
X83774000Y-54315500I0J50000D01*
G01*
X83774000Y-53565500D01*
G75*
G02*
X83824000Y-53515500I50000J0D01*
G01*
X83924000Y-53515500D01*
G75*
G02*
X83974000Y-53565500I0J-50000D01*
G01*
X83974000Y-54315500D01*
G75*
G02*
X83924000Y-54365500I-50000J0D01*
G01*
G37*
%TD.AperFunction*%
%TO.P,U1,8*%
%TO.N,SW6*%
%TA.AperFunction,SMDPad,CuDef*%
G36*
G01*
X83524000Y-54365500D02*
X83424000Y-54365500D01*
G75*
G02*
X83374000Y-54315500I0J50000D01*
G01*
X83374000Y-53565500D01*
G75*
G02*
X83424000Y-53515500I50000J0D01*
G01*
X83524000Y-53515500D01*
G75*
G02*
X83574000Y-53565500I0J-50000D01*
G01*
X83574000Y-54315500D01*
G75*
G02*
X83524000Y-54365500I-50000J0D01*
G01*
G37*
%TD.AperFunction*%
%TO.P,U1,9*%
%TO.N,SW7*%
%TA.AperFunction,SMDPad,CuDef*%
G36*
G01*
X83124000Y-54365500D02*
X83024000Y-54365500D01*
G75*
G02*
X82974000Y-54315500I0J50000D01*
G01*
X82974000Y-53565500D01*
G75*
G02*
X83024000Y-53515500I50000J0D01*
G01*
X83124000Y-53515500D01*
G75*
G02*
X83174000Y-53565500I0J-50000D01*
G01*
X83174000Y-54315500D01*
G75*
G02*
X83124000Y-54365500I-50000J0D01*
G01*
G37*
%TD.AperFunction*%
%TO.P,U1,10*%
%TO.N,SW8*%
%TA.AperFunction,SMDPad,CuDef*%
G36*
G01*
X82724000Y-54365500D02*
X82624000Y-54365500D01*
G75*
G02*
X82574000Y-54315500I0J50000D01*
G01*
X82574000Y-53565500D01*
G75*
G02*
X82624000Y-53515500I50000J0D01*
G01*
X82724000Y-53515500D01*
G75*
G02*
X82774000Y-53565500I0J-50000D01*
G01*
X82774000Y-54315500D01*
G75*
G02*
X82724000Y-54365500I-50000J0D01*
G01*
G37*
%TD.AperFunction*%
%TO.P,U1,11*%
%TO.N,SW9*%
%TA.AperFunction,SMDPad,CuDef*%
G36*
G01*
X82324000Y-54365500D02*
X82224000Y-54365500D01*
G75*
G02*
X82174000Y-54315500I0J50000D01*
G01*
X82174000Y-53565500D01*
G75*
G02*
X82224000Y-53515500I50000J0D01*
G01*
X82324000Y-53515500D01*
G75*
G02*
X82374000Y-53565500I0J-50000D01*
G01*
X82374000Y-54315500D01*
G75*
G02*
X82324000Y-54365500I-50000J0D01*
G01*
G37*
%TD.AperFunction*%
%TO.P,U1,12*%
%TO.N,GND*%
%TA.AperFunction,SMDPad,CuDef*%
G36*
G01*
X81924000Y-54365500D02*
X81824000Y-54365500D01*
G75*
G02*
X81774000Y-54315500I0J50000D01*
G01*
X81774000Y-53565500D01*
G75*
G02*
X81824000Y-53515500I50000J0D01*
G01*
X81924000Y-53515500D01*
G75*
G02*
X81974000Y-53565500I0J-50000D01*
G01*
X81974000Y-54315500D01*
G75*
G02*
X81924000Y-54365500I-50000J0D01*
G01*
G37*
%TD.AperFunction*%
%TO.P,U1,13*%
%TO.N,SW10*%
%TA.AperFunction,SMDPad,CuDef*%
G36*
G01*
X81499000Y-53290500D02*
X80749000Y-53290500D01*
G75*
G02*
X80699000Y-53240500I0J50000D01*
G01*
X80699000Y-53140500D01*
G75*
G02*
X80749000Y-53090500I50000J0D01*
G01*
X81499000Y-53090500D01*
G75*
G02*
X81549000Y-53140500I0J-50000D01*
G01*
X81549000Y-53240500D01*
G75*
G02*
X81499000Y-53290500I-50000J0D01*
G01*
G37*
%TD.AperFunction*%
%TO.P,U1,14*%
%TO.N,SW11*%
%TA.AperFunction,SMDPad,CuDef*%
G36*
G01*
X81499000Y-52890500D02*
X80749000Y-52890500D01*
G75*
G02*
X80699000Y-52840500I0J50000D01*
G01*
X80699000Y-52740500D01*
G75*
G02*
X80749000Y-52690500I50000J0D01*
G01*
X81499000Y-52690500D01*
G75*
G02*
X81549000Y-52740500I0J-50000D01*
G01*
X81549000Y-52840500D01*
G75*
G02*
X81499000Y-52890500I-50000J0D01*
G01*
G37*
%TD.AperFunction*%
%TO.P,U1,15*%
%TO.N,SW12*%
%TA.AperFunction,SMDPad,CuDef*%
G36*
G01*
X81499000Y-52490500D02*
X80749000Y-52490500D01*
G75*
G02*
X80699000Y-52440500I0J50000D01*
G01*
X80699000Y-52340500D01*
G75*
G02*
X80749000Y-52290500I50000J0D01*
G01*
X81499000Y-52290500D01*
G75*
G02*
X81549000Y-52340500I0J-50000D01*
G01*
X81549000Y-52440500D01*
G75*
G02*
X81499000Y-52490500I-50000J0D01*
G01*
G37*
%TD.AperFunction*%
%TO.P,U1,16*%
%TO.N,/CS1*%
%TA.AperFunction,SMDPad,CuDef*%
G36*
G01*
X81499000Y-52090500D02*
X80749000Y-52090500D01*
G75*
G02*
X80699000Y-52040500I0J50000D01*
G01*
X80699000Y-51940500D01*
G75*
G02*
X80749000Y-51890500I50000J0D01*
G01*
X81499000Y-51890500D01*
G75*
G02*
X81549000Y-51940500I0J-50000D01*
G01*
X81549000Y-52040500D01*
G75*
G02*
X81499000Y-52090500I-50000J0D01*
G01*
G37*
%TD.AperFunction*%
%TO.P,U1,17*%
%TO.N,/CS2*%
%TA.AperFunction,SMDPad,CuDef*%
G36*
G01*
X81499000Y-51690500D02*
X80749000Y-51690500D01*
G75*
G02*
X80699000Y-51640500I0J50000D01*
G01*
X80699000Y-51540500D01*
G75*
G02*
X80749000Y-51490500I50000J0D01*
G01*
X81499000Y-51490500D01*
G75*
G02*
X81549000Y-51540500I0J-50000D01*
G01*
X81549000Y-51640500D01*
G75*
G02*
X81499000Y-51690500I-50000J0D01*
G01*
G37*
%TD.AperFunction*%
%TO.P,U1,18*%
%TO.N,/CS3*%
%TA.AperFunction,SMDPad,CuDef*%
G36*
G01*
X81499000Y-51290500D02*
X80749000Y-51290500D01*
G75*
G02*
X80699000Y-51240500I0J50000D01*
G01*
X80699000Y-51140500D01*
G75*
G02*
X80749000Y-51090500I50000J0D01*
G01*
X81499000Y-51090500D01*
G75*
G02*
X81549000Y-51140500I0J-50000D01*
G01*
X81549000Y-51240500D01*
G75*
G02*
X81499000Y-51290500I-50000J0D01*
G01*
G37*
%TD.AperFunction*%
%TO.P,U1,19*%
%TO.N,/CS4*%
%TA.AperFunction,SMDPad,CuDef*%
G36*
G01*
X81499000Y-50890500D02*
X80749000Y-50890500D01*
G75*
G02*
X80699000Y-50840500I0J50000D01*
G01*
X80699000Y-50740500D01*
G75*
G02*
X80749000Y-50690500I50000J0D01*
G01*
X81499000Y-50690500D01*
G75*
G02*
X81549000Y-50740500I0J-50000D01*
G01*
X81549000Y-50840500D01*
G75*
G02*
X81499000Y-50890500I-50000J0D01*
G01*
G37*
%TD.AperFunction*%
%TO.P,U1,20*%
%TO.N,VCC*%
%TA.AperFunction,SMDPad,CuDef*%
G36*
G01*
X81499000Y-50490500D02*
X80749000Y-50490500D01*
G75*
G02*
X80699000Y-50440500I0J50000D01*
G01*
X80699000Y-50340500D01*
G75*
G02*
X80749000Y-50290500I50000J0D01*
G01*
X81499000Y-50290500D01*
G75*
G02*
X81549000Y-50340500I0J-50000D01*
G01*
X81549000Y-50440500D01*
G75*
G02*
X81499000Y-50490500I-50000J0D01*
G01*
G37*
%TD.AperFunction*%
%TO.P,U1,21*%
%TO.N,/CS5*%
%TA.AperFunction,SMDPad,CuDef*%
G36*
G01*
X81499000Y-50090500D02*
X80749000Y-50090500D01*
G75*
G02*
X80699000Y-50040500I0J50000D01*
G01*
X80699000Y-49940500D01*
G75*
G02*
X80749000Y-49890500I50000J0D01*
G01*
X81499000Y-49890500D01*
G75*
G02*
X81549000Y-49940500I0J-50000D01*
G01*
X81549000Y-50040500D01*
G75*
G02*
X81499000Y-50090500I-50000J0D01*
G01*
G37*
%TD.AperFunction*%
%TO.P,U1,22*%
%TO.N,/CS6*%
%TA.AperFunction,SMDPad,CuDef*%
G36*
G01*
X81499000Y-49690500D02*
X80749000Y-49690500D01*
G75*
G02*
X80699000Y-49640500I0J50000D01*
G01*
X80699000Y-49540500D01*
G75*
G02*
X80749000Y-49490500I50000J0D01*
G01*
X81499000Y-49490500D01*
G75*
G02*
X81549000Y-49540500I0J-50000D01*
G01*
X81549000Y-49640500D01*
G75*
G02*
X81499000Y-49690500I-50000J0D01*
G01*
G37*
%TD.AperFunction*%
%TO.P,U1,23*%
%TO.N,/CS7*%
%TA.AperFunction,SMDPad,CuDef*%
G36*
G01*
X81499000Y-49290500D02*
X80749000Y-49290500D01*
G75*
G02*
X80699000Y-49240500I0J50000D01*
G01*
X80699000Y-49140500D01*
G75*
G02*
X80749000Y-49090500I50000J0D01*
G01*
X81499000Y-49090500D01*
G75*
G02*
X81549000Y-49140500I0J-50000D01*
G01*
X81549000Y-49240500D01*
G75*
G02*
X81499000Y-49290500I-50000J0D01*
G01*
G37*
%TD.AperFunction*%
%TO.P,U1,24*%
%TO.N,/CS8*%
%TA.AperFunction,SMDPad,CuDef*%
G36*
G01*
X81499000Y-48890500D02*
X80749000Y-48890500D01*
G75*
G02*
X80699000Y-48840500I0J50000D01*
G01*
X80699000Y-48740500D01*
G75*
G02*
X80749000Y-48690500I50000J0D01*
G01*
X81499000Y-48690500D01*
G75*
G02*
X81549000Y-48740500I0J-50000D01*
G01*
X81549000Y-48840500D01*
G75*
G02*
X81499000Y-48890500I-50000J0D01*
G01*
G37*
%TD.AperFunction*%
%TO.P,U1,25*%
%TO.N,/CS9*%
%TA.AperFunction,SMDPad,CuDef*%
G36*
G01*
X81924000Y-48465500D02*
X81824000Y-48465500D01*
G75*
G02*
X81774000Y-48415500I0J50000D01*
G01*
X81774000Y-47665500D01*
G75*
G02*
X81824000Y-47615500I50000J0D01*
G01*
X81924000Y-47615500D01*
G75*
G02*
X81974000Y-47665500I0J-50000D01*
G01*
X81974000Y-48415500D01*
G75*
G02*
X81924000Y-48465500I-50000J0D01*
G01*
G37*
%TD.AperFunction*%
%TO.P,U1,26*%
%TO.N,/CS10*%
%TA.AperFunction,SMDPad,CuDef*%
G36*
G01*
X82324000Y-48465500D02*
X82224000Y-48465500D01*
G75*
G02*
X82174000Y-48415500I0J50000D01*
G01*
X82174000Y-47665500D01*
G75*
G02*
X82224000Y-47615500I50000J0D01*
G01*
X82324000Y-47615500D01*
G75*
G02*
X82374000Y-47665500I0J-50000D01*
G01*
X82374000Y-48415500D01*
G75*
G02*
X82324000Y-48465500I-50000J0D01*
G01*
G37*
%TD.AperFunction*%
%TO.P,U1,27*%
%TO.N,/CS11*%
%TA.AperFunction,SMDPad,CuDef*%
G36*
G01*
X82724000Y-48465500D02*
X82624000Y-48465500D01*
G75*
G02*
X82574000Y-48415500I0J50000D01*
G01*
X82574000Y-47665500D01*
G75*
G02*
X82624000Y-47615500I50000J0D01*
G01*
X82724000Y-47615500D01*
G75*
G02*
X82774000Y-47665500I0J-50000D01*
G01*
X82774000Y-48415500D01*
G75*
G02*
X82724000Y-48465500I-50000J0D01*
G01*
G37*
%TD.AperFunction*%
%TO.P,U1,28*%
%TO.N,/CS12*%
%TA.AperFunction,SMDPad,CuDef*%
G36*
G01*
X83124000Y-48465500D02*
X83024000Y-48465500D01*
G75*
G02*
X82974000Y-48415500I0J50000D01*
G01*
X82974000Y-47665500D01*
G75*
G02*
X83024000Y-47615500I50000J0D01*
G01*
X83124000Y-47615500D01*
G75*
G02*
X83174000Y-47665500I0J-50000D01*
G01*
X83174000Y-48415500D01*
G75*
G02*
X83124000Y-48465500I-50000J0D01*
G01*
G37*
%TD.AperFunction*%
%TO.P,U1,29*%
%TO.N,VCC*%
%TA.AperFunction,SMDPad,CuDef*%
G36*
G01*
X83524000Y-48465500D02*
X83424000Y-48465500D01*
G75*
G02*
X83374000Y-48415500I0J50000D01*
G01*
X83374000Y-47665500D01*
G75*
G02*
X83424000Y-47615500I50000J0D01*
G01*
X83524000Y-47615500D01*
G75*
G02*
X83574000Y-47665500I0J-50000D01*
G01*
X83574000Y-48415500D01*
G75*
G02*
X83524000Y-48465500I-50000J0D01*
G01*
G37*
%TD.AperFunction*%
%TO.P,U1,30*%
%TO.N,/CS13*%
%TA.AperFunction,SMDPad,CuDef*%
G36*
G01*
X83924000Y-48465500D02*
X83824000Y-48465500D01*
G75*
G02*
X83774000Y-48415500I0J50000D01*
G01*
X83774000Y-47665500D01*
G75*
G02*
X83824000Y-47615500I50000J0D01*
G01*
X83924000Y-47615500D01*
G75*
G02*
X83974000Y-47665500I0J-50000D01*
G01*
X83974000Y-48415500D01*
G75*
G02*
X83924000Y-48465500I-50000J0D01*
G01*
G37*
%TD.AperFunction*%
%TO.P,U1,31*%
%TO.N,/CS14*%
%TA.AperFunction,SMDPad,CuDef*%
G36*
G01*
X84324000Y-48465500D02*
X84224000Y-48465500D01*
G75*
G02*
X84174000Y-48415500I0J50000D01*
G01*
X84174000Y-47665500D01*
G75*
G02*
X84224000Y-47615500I50000J0D01*
G01*
X84324000Y-47615500D01*
G75*
G02*
X84374000Y-47665500I0J-50000D01*
G01*
X84374000Y-48415500D01*
G75*
G02*
X84324000Y-48465500I-50000J0D01*
G01*
G37*
%TD.AperFunction*%
%TO.P,U1,32*%
%TO.N,/CS15*%
%TA.AperFunction,SMDPad,CuDef*%
G36*
G01*
X84724000Y-48465500D02*
X84624000Y-48465500D01*
G75*
G02*
X84574000Y-48415500I0J50000D01*
G01*
X84574000Y-47665500D01*
G75*
G02*
X84624000Y-47615500I50000J0D01*
G01*
X84724000Y-47615500D01*
G75*
G02*
X84774000Y-47665500I0J-50000D01*
G01*
X84774000Y-48415500D01*
G75*
G02*
X84724000Y-48465500I-50000J0D01*
G01*
G37*
%TD.AperFunction*%
%TO.P,U1,33*%
%TO.N,/CS16*%
%TA.AperFunction,SMDPad,CuDef*%
G36*
G01*
X85124000Y-48465500D02*
X85024000Y-48465500D01*
G75*
G02*
X84974000Y-48415500I0J50000D01*
G01*
X84974000Y-47665500D01*
G75*
G02*
X85024000Y-47615500I50000J0D01*
G01*
X85124000Y-47615500D01*
G75*
G02*
X85174000Y-47665500I0J-50000D01*
G01*
X85174000Y-48415500D01*
G75*
G02*
X85124000Y-48465500I-50000J0D01*
G01*
G37*
%TD.AperFunction*%
%TO.P,U1,34*%
%TO.N,GND*%
%TA.AperFunction,SMDPad,CuDef*%
G36*
G01*
X85524000Y-48465500D02*
X85424000Y-48465500D01*
G75*
G02*
X85374000Y-48415500I0J50000D01*
G01*
X85374000Y-47665500D01*
G75*
G02*
X85424000Y-47615500I50000J0D01*
G01*
X85524000Y-47615500D01*
G75*
G02*
X85574000Y-47665500I0J-50000D01*
G01*
X85574000Y-48415500D01*
G75*
G02*
X85524000Y-48465500I-50000J0D01*
G01*
G37*
%TD.AperFunction*%
%TO.P,U1,35*%
%TO.N,Net-(U1-Pad35)*%
%TA.AperFunction,SMDPad,CuDef*%
G36*
G01*
X85924000Y-48465500D02*
X85824000Y-48465500D01*
G75*
G02*
X85774000Y-48415500I0J50000D01*
G01*
X85774000Y-47665500D01*
G75*
G02*
X85824000Y-47615500I50000J0D01*
G01*
X85924000Y-47615500D01*
G75*
G02*
X85974000Y-47665500I0J-50000D01*
G01*
X85974000Y-48415500D01*
G75*
G02*
X85924000Y-48465500I-50000J0D01*
G01*
G37*
%TD.AperFunction*%
%TO.P,U1,36*%
%TO.N,Net-(U1-Pad36)*%
%TA.AperFunction,SMDPad,CuDef*%
G36*
G01*
X86324000Y-48465500D02*
X86224000Y-48465500D01*
G75*
G02*
X86174000Y-48415500I0J50000D01*
G01*
X86174000Y-47665500D01*
G75*
G02*
X86224000Y-47615500I50000J0D01*
G01*
X86324000Y-47615500D01*
G75*
G02*
X86374000Y-47665500I0J-50000D01*
G01*
X86374000Y-48415500D01*
G75*
G02*
X86324000Y-48465500I-50000J0D01*
G01*
G37*
%TD.AperFunction*%
%TO.P,U1,37*%
%TO.N,VCC*%
%TA.AperFunction,SMDPad,CuDef*%
G36*
G01*
X87399000Y-48890500D02*
X86649000Y-48890500D01*
G75*
G02*
X86599000Y-48840500I0J50000D01*
G01*
X86599000Y-48740500D01*
G75*
G02*
X86649000Y-48690500I50000J0D01*
G01*
X87399000Y-48690500D01*
G75*
G02*
X87449000Y-48740500I0J-50000D01*
G01*
X87449000Y-48840500D01*
G75*
G02*
X87399000Y-48890500I-50000J0D01*
G01*
G37*
%TD.AperFunction*%
%TO.P,U1,38*%
%TA.AperFunction,SMDPad,CuDef*%
G36*
G01*
X87399000Y-49290500D02*
X86649000Y-49290500D01*
G75*
G02*
X86599000Y-49240500I0J50000D01*
G01*
X86599000Y-49140500D01*
G75*
G02*
X86649000Y-49090500I50000J0D01*
G01*
X87399000Y-49090500D01*
G75*
G02*
X87449000Y-49140500I0J-50000D01*
G01*
X87449000Y-49240500D01*
G75*
G02*
X87399000Y-49290500I-50000J0D01*
G01*
G37*
%TD.AperFunction*%
%TO.P,U1,39*%
%TO.N,Net-(U1-Pad39)*%
%TA.AperFunction,SMDPad,CuDef*%
G36*
G01*
X87399000Y-49690500D02*
X86649000Y-49690500D01*
G75*
G02*
X86599000Y-49640500I0J50000D01*
G01*
X86599000Y-49540500D01*
G75*
G02*
X86649000Y-49490500I50000J0D01*
G01*
X87399000Y-49490500D01*
G75*
G02*
X87449000Y-49540500I0J-50000D01*
G01*
X87449000Y-49640500D01*
G75*
G02*
X87399000Y-49690500I-50000J0D01*
G01*
G37*
%TD.AperFunction*%
%TO.P,U1,40*%
%TO.N,Net-(U1-Pad40)*%
%TA.AperFunction,SMDPad,CuDef*%
G36*
G01*
X87399000Y-50090500D02*
X86649000Y-50090500D01*
G75*
G02*
X86599000Y-50040500I0J50000D01*
G01*
X86599000Y-49940500D01*
G75*
G02*
X86649000Y-49890500I50000J0D01*
G01*
X87399000Y-49890500D01*
G75*
G02*
X87449000Y-49940500I0J-50000D01*
G01*
X87449000Y-50040500D01*
G75*
G02*
X87399000Y-50090500I-50000J0D01*
G01*
G37*
%TD.AperFunction*%
%TO.P,U1,41*%
%TO.N,/sda*%
%TA.AperFunction,SMDPad,CuDef*%
G36*
G01*
X87399000Y-50490500D02*
X86649000Y-50490500D01*
G75*
G02*
X86599000Y-50440500I0J50000D01*
G01*
X86599000Y-50340500D01*
G75*
G02*
X86649000Y-50290500I50000J0D01*
G01*
X87399000Y-50290500D01*
G75*
G02*
X87449000Y-50340500I0J-50000D01*
G01*
X87449000Y-50440500D01*
G75*
G02*
X87399000Y-50490500I-50000J0D01*
G01*
G37*
%TD.AperFunction*%
%TO.P,U1,42*%
%TO.N,/scl*%
%TA.AperFunction,SMDPad,CuDef*%
G36*
G01*
X87399000Y-50890500D02*
X86649000Y-50890500D01*
G75*
G02*
X86599000Y-50840500I0J50000D01*
G01*
X86599000Y-50740500D01*
G75*
G02*
X86649000Y-50690500I50000J0D01*
G01*
X87399000Y-50690500D01*
G75*
G02*
X87449000Y-50740500I0J-50000D01*
G01*
X87449000Y-50840500D01*
G75*
G02*
X87399000Y-50890500I-50000J0D01*
G01*
G37*
%TD.AperFunction*%
%TO.P,U1,43*%
%TO.N,Net-(U1-Pad43)*%
%TA.AperFunction,SMDPad,CuDef*%
G36*
G01*
X87399000Y-51290500D02*
X86649000Y-51290500D01*
G75*
G02*
X86599000Y-51240500I0J50000D01*
G01*
X86599000Y-51140500D01*
G75*
G02*
X86649000Y-51090500I50000J0D01*
G01*
X87399000Y-51090500D01*
G75*
G02*
X87449000Y-51140500I0J-50000D01*
G01*
X87449000Y-51240500D01*
G75*
G02*
X87399000Y-51290500I-50000J0D01*
G01*
G37*
%TD.AperFunction*%
%TO.P,U1,44*%
%TO.N,Net-(U1-Pad44)*%
%TA.AperFunction,SMDPad,CuDef*%
G36*
G01*
X87399000Y-51690500D02*
X86649000Y-51690500D01*
G75*
G02*
X86599000Y-51640500I0J50000D01*
G01*
X86599000Y-51540500D01*
G75*
G02*
X86649000Y-51490500I50000J0D01*
G01*
X87399000Y-51490500D01*
G75*
G02*
X87449000Y-51540500I0J-50000D01*
G01*
X87449000Y-51640500D01*
G75*
G02*
X87399000Y-51690500I-50000J0D01*
G01*
G37*
%TD.AperFunction*%
%TO.P,U1,45*%
%TO.N,Net-(U1-Pad45)*%
%TA.AperFunction,SMDPad,CuDef*%
G36*
G01*
X87399000Y-52090500D02*
X86649000Y-52090500D01*
G75*
G02*
X86599000Y-52040500I0J50000D01*
G01*
X86599000Y-51940500D01*
G75*
G02*
X86649000Y-51890500I50000J0D01*
G01*
X87399000Y-51890500D01*
G75*
G02*
X87449000Y-51940500I0J-50000D01*
G01*
X87449000Y-52040500D01*
G75*
G02*
X87399000Y-52090500I-50000J0D01*
G01*
G37*
%TD.AperFunction*%
%TO.P,U1,46*%
%TO.N,Net-(U1-Pad46)*%
%TA.AperFunction,SMDPad,CuDef*%
G36*
G01*
X87399000Y-52490500D02*
X86649000Y-52490500D01*
G75*
G02*
X86599000Y-52440500I0J50000D01*
G01*
X86599000Y-52340500D01*
G75*
G02*
X86649000Y-52290500I50000J0D01*
G01*
X87399000Y-52290500D01*
G75*
G02*
X87449000Y-52340500I0J-50000D01*
G01*
X87449000Y-52440500D01*
G75*
G02*
X87399000Y-52490500I-50000J0D01*
G01*
G37*
%TD.AperFunction*%
%TO.P,U1,47*%
%TO.N,Net-(U1-Pad47)*%
%TA.AperFunction,SMDPad,CuDef*%
G36*
G01*
X87399000Y-52890500D02*
X86649000Y-52890500D01*
G75*
G02*
X86599000Y-52840500I0J50000D01*
G01*
X86599000Y-52740500D01*
G75*
G02*
X86649000Y-52690500I50000J0D01*
G01*
X87399000Y-52690500D01*
G75*
G02*
X87449000Y-52740500I0J-50000D01*
G01*
X87449000Y-52840500D01*
G75*
G02*
X87399000Y-52890500I-50000J0D01*
G01*
G37*
%TD.AperFunction*%
%TO.P,U1,48*%
%TO.N,GND*%
%TA.AperFunction,SMDPad,CuDef*%
G36*
G01*
X87399000Y-53290500D02*
X86649000Y-53290500D01*
G75*
G02*
X86599000Y-53240500I0J50000D01*
G01*
X86599000Y-53140500D01*
G75*
G02*
X86649000Y-53090500I50000J0D01*
G01*
X87399000Y-53090500D01*
G75*
G02*
X87449000Y-53140500I0J-50000D01*
G01*
X87449000Y-53240500D01*
G75*
G02*
X87399000Y-53290500I-50000J0D01*
G01*
G37*
%TD.AperFunction*%
D10*
%TO.P,U1,49*%
X84074000Y-50990500D03*
%TD*%
D11*
%TO.N,SW2*%
X87731600Y-56896000D03*
X89983780Y-50159866D03*
X85864710Y-56146700D03*
%TO.N,SW3*%
X79554411Y-48182624D03*
X81263865Y-48269265D03*
X85382100Y-55638700D03*
X79603600Y-57810400D03*
%TO.N,SW1*%
X76990378Y-53767219D03*
X78705810Y-55194200D03*
X83845400Y-43637200D03*
X90340600Y-48308121D03*
X86182200Y-55016400D03*
X81896947Y-56305890D03*
X80900787Y-55159624D03*
%TO.N,SW5*%
X84199242Y-59205878D03*
%TO.N,SW6*%
X83573622Y-58245071D03*
%TO.N,SW4*%
X83413600Y-39370000D03*
X86207600Y-41732200D03*
X92907159Y-50319088D03*
X91413862Y-50443439D03*
X85699600Y-58699400D03*
%TO.N,SW8*%
X83667600Y-62534800D03*
X87680800Y-62534800D03*
X91643200Y-62509400D03*
X79468687Y-62255370D03*
%TO.N,SW9*%
X93535500Y-61404500D03*
X89662000Y-61404500D03*
X81407000Y-61404500D03*
X85572600Y-61417200D03*
%TO.N,SW7*%
X83769200Y-61468000D03*
%TO.N,SW11*%
X70421500Y-48387000D03*
X70421500Y-50355500D03*
X82296000Y-38608000D03*
X84264500Y-38735000D03*
X92684600Y-45669200D03*
X96240600Y-48234588D03*
X75862588Y-61771089D03*
%TO.N,SW12*%
X76657200Y-60680600D03*
%TO.N,SW10*%
X85661500Y-37782500D03*
X83058000Y-35877500D03*
X74574432Y-60557921D03*
%TO.N,GND*%
X95885000Y-48818800D03*
X97307400Y-44577000D03*
X99085400Y-45948600D03*
X98323400Y-48488600D03*
X94056200Y-42214800D03*
X93319600Y-63855600D03*
X94335600Y-60807600D03*
X72517000Y-58674000D03*
X71678800Y-55778400D03*
X70205600Y-51866800D03*
X69443600Y-49276000D03*
X68859400Y-45948600D03*
X71501000Y-43713400D03*
X74142600Y-41859200D03*
X87858600Y-37719000D03*
X91135200Y-40106600D03*
X79654400Y-37820600D03*
X76403200Y-40259000D03*
X74244200Y-63677800D03*
X89331800Y-54635400D03*
X87102098Y-46177200D03*
X89212757Y-55139962D03*
X87508402Y-58470800D03*
X81807049Y-55627294D03*
X86207600Y-57277000D03*
%TO.N,VCC*%
X77386598Y-49784000D03*
X83845400Y-45720000D03*
X87502245Y-48668146D03*
X88163400Y-48666400D03*
X77698600Y-50266600D03*
X96778798Y-49303096D03*
%TO.N,/CS16*%
X91973400Y-59664600D03*
X83411821Y-59791590D03*
X87102122Y-45516789D03*
X84296316Y-55158260D03*
%TO.N,/CS15*%
X87934800Y-57708800D03*
X87366275Y-54219659D03*
X94488000Y-56261000D03*
X85411677Y-46433263D03*
%TO.N,/CS10*%
X88823800Y-40284400D03*
X88655674Y-44227784D03*
X85445600Y-57277000D03*
%TO.N,/CS9*%
X85039200Y-38735000D03*
X88798400Y-57835800D03*
X87790185Y-43632701D03*
%TO.N,/CS14*%
X95785043Y-52351043D03*
X89306379Y-51460400D03*
X84429600Y-46126400D03*
%TO.N,/CS4*%
X73355200Y-52171600D03*
X76225400Y-53009800D03*
X80688251Y-63351129D03*
X78769979Y-50404512D03*
%TO.N,/CS3*%
X74523600Y-55880000D03*
X84658200Y-63195200D03*
X78618528Y-51176009D03*
X77571610Y-56743600D03*
%TO.N,/CS2*%
X75869800Y-59766200D03*
X79378158Y-59809710D03*
X88671400Y-63220600D03*
X78666556Y-53238989D03*
%TO.N,/CS1*%
X77800200Y-61290200D03*
X80137010Y-57073800D03*
%TO.N,/CS8*%
X81858787Y-41122600D03*
X89814400Y-54127400D03*
X85344000Y-42900600D03*
%TO.N,/CS7*%
X78536800Y-43484800D03*
X81353359Y-44245626D03*
X92100400Y-49733210D03*
%TO.N,/CS13*%
X91897200Y-56692800D03*
X96565733Y-53595048D03*
X83851534Y-47130765D03*
%TO.N,/CS12*%
X95122076Y-45775837D03*
X95123000Y-44715423D03*
X92977895Y-52901194D03*
X78663800Y-53949600D03*
%TO.N,/CS11*%
X91897200Y-42570400D03*
X93460505Y-46659790D03*
X81746201Y-57351114D03*
%TO.N,/CS6*%
X75361800Y-45694600D03*
X78231991Y-46674167D03*
X88581388Y-47353207D03*
%TO.N,/CS5*%
X72186800Y-48361600D03*
X74955400Y-49225200D03*
X85420200Y-44221400D03*
X83642177Y-42671988D03*
%TD*%
D12*
%TO.N,SW2*%
X85474000Y-54435200D02*
X85474000Y-53940500D01*
X85699600Y-54660800D02*
X85474000Y-54435200D01*
X85699600Y-55241948D02*
X85699600Y-54660800D01*
X85864710Y-55407058D02*
X85699600Y-55241948D01*
X85864710Y-56146700D02*
X85864710Y-55407058D01*
%TO.N,SW3*%
X79554411Y-48182624D02*
X81177224Y-48182624D01*
X81177224Y-48182624D02*
X81263865Y-48269265D01*
X85382100Y-55098727D02*
X85382100Y-55638700D01*
X85074000Y-54790627D02*
X85382100Y-55098727D01*
X85074000Y-53940500D02*
X85074000Y-54790627D01*
%TO.N,SW1*%
X76990378Y-53767219D02*
X78417359Y-55194200D01*
X78417359Y-55194200D02*
X78705810Y-55194200D01*
X86182200Y-55016400D02*
X86182200Y-54686200D01*
X86182200Y-54686200D02*
X85874000Y-54365500D01*
X85874000Y-54365500D02*
X85874000Y-53940500D01*
X81896947Y-56305890D02*
X81537737Y-56305890D01*
X80900787Y-55668940D02*
X80900787Y-55159624D01*
X81537737Y-56305890D02*
X80900787Y-55668940D01*
%TO.N,SW5*%
X83508895Y-54786755D02*
X83508895Y-55517981D01*
X83874000Y-53940500D02*
X83874000Y-54421650D01*
X83870778Y-55879864D02*
X83870778Y-57859712D01*
X84199242Y-58188176D02*
X84199242Y-59205878D01*
X83508895Y-55517981D02*
X83870778Y-55879864D01*
X83870778Y-57859712D02*
X84199242Y-58188176D01*
X83874000Y-54421650D02*
X83508895Y-54786755D01*
%TO.N,SW6*%
X83474000Y-53940500D02*
X83474000Y-54390583D01*
X83204084Y-54660499D02*
X83204084Y-55644237D01*
X83204084Y-55644237D02*
X83402350Y-55842503D01*
X83402350Y-55842503D02*
X83402350Y-58073799D01*
X83402350Y-58073799D02*
X83573622Y-58245071D01*
X83474000Y-54390583D02*
X83204084Y-54660499D01*
%TO.N,SW4*%
X85775800Y-41732200D02*
X86207600Y-41732200D01*
X83413600Y-39370000D02*
X85775800Y-41732200D01*
X91538213Y-50319088D02*
X91413862Y-50443439D01*
X92907159Y-50319088D02*
X91538213Y-50319088D01*
X84274000Y-53940500D02*
X84274000Y-54466052D01*
X83813706Y-55391725D02*
X84175589Y-55753608D01*
X85141533Y-58699400D02*
X85699600Y-58699400D01*
X83813706Y-54926346D02*
X83813706Y-55391725D01*
X84274000Y-54466052D02*
X83813706Y-54926346D01*
X84175589Y-55753608D02*
X84175589Y-57733456D01*
X84175589Y-57733456D02*
X85141533Y-58699400D01*
%TO.N,SW8*%
X87706200Y-62509400D02*
X87680800Y-62534800D01*
X91643200Y-62509400D02*
X87706200Y-62509400D01*
X82600787Y-61467987D02*
X83667600Y-62534800D01*
X83134198Y-62001398D02*
X83667600Y-62534800D01*
X83667600Y-62534800D02*
X83921599Y-62280801D01*
X83921599Y-62280801D02*
X87426801Y-62280801D01*
X87426801Y-62280801D02*
X87680800Y-62534800D01*
X82600787Y-56758770D02*
X82600787Y-61467987D01*
X82674000Y-54328449D02*
X82594462Y-54407987D01*
X82674000Y-53940500D02*
X82674000Y-54328449D01*
X82792728Y-56566829D02*
X82600787Y-56758770D01*
X82792728Y-56095015D02*
X82792728Y-56566829D01*
X82594462Y-55896749D02*
X82792728Y-56095015D01*
X82594462Y-54407987D02*
X82594462Y-55896749D01*
X82067403Y-62001371D02*
X79722686Y-62001371D01*
X79722686Y-62001371D02*
X79468687Y-62255370D01*
X82600787Y-61467987D02*
X82067403Y-62001371D01*
%TO.N,SW9*%
X89662000Y-61404500D02*
X93535500Y-61404500D01*
X85572600Y-61417200D02*
X89662000Y-61404500D01*
X82289651Y-56023005D02*
X82487917Y-56221271D01*
X82487917Y-56221271D02*
X82487917Y-56415173D01*
X82228802Y-60582698D02*
X81407000Y-61404500D01*
X82289651Y-53956151D02*
X82289651Y-56023005D01*
X82274000Y-53940500D02*
X82289651Y-53956151D01*
X82487917Y-56415173D02*
X82228802Y-56674288D01*
X82228802Y-56674288D02*
X82228802Y-60582698D01*
%TO.N,SW7*%
X83097539Y-55968759D02*
X83097539Y-58006902D01*
X82899273Y-55770493D02*
X83097539Y-55968759D01*
X82905598Y-58198843D02*
X82905598Y-60604398D01*
X82905598Y-60604398D02*
X83769200Y-61468000D01*
X83074000Y-54359516D02*
X82899273Y-54534243D01*
X83074000Y-53940500D02*
X83074000Y-54359516D01*
X83097539Y-58006902D02*
X82905598Y-58198843D01*
X82899273Y-54534243D02*
X82899273Y-55770493D01*
%TO.N,SW11*%
X70421500Y-48387000D02*
X70421500Y-50355500D01*
X84137500Y-38608000D02*
X84264500Y-38735000D01*
X82296000Y-38608000D02*
X84137500Y-38608000D01*
X93155767Y-45198033D02*
X95363919Y-45198033D01*
X95363919Y-45198033D02*
X96240600Y-46074714D01*
X96240600Y-46074714D02*
X96240600Y-48234588D01*
X92684600Y-45669200D02*
X93155767Y-45198033D01*
X81124000Y-52790500D02*
X80699000Y-52790500D01*
X80924423Y-56715894D02*
X80924423Y-59868511D01*
X80924423Y-59868511D02*
X79324977Y-61467957D01*
X80113375Y-55904846D02*
X80924423Y-56715894D01*
X80699000Y-52790500D02*
X80113375Y-53376125D01*
X78500900Y-62077838D02*
X76169337Y-62077838D01*
X80113375Y-53376125D02*
X80113375Y-55904846D01*
X76169337Y-62077838D02*
X75862588Y-61771089D01*
X79324977Y-61467957D02*
X79110781Y-61467957D01*
X79110781Y-61467957D02*
X78500900Y-62077838D01*
%TO.N,SW12*%
X77390192Y-61772802D02*
X76657200Y-61039810D01*
X79198722Y-61163146D02*
X78984525Y-61163146D01*
X78374869Y-61772802D02*
X77390192Y-61772802D01*
X79808564Y-53249869D02*
X79808564Y-56031102D01*
X76657200Y-61039810D02*
X76657200Y-60680600D01*
X80619612Y-56842150D02*
X80619612Y-59742256D01*
X79808564Y-56031102D02*
X80619612Y-56842150D01*
X81124000Y-52390500D02*
X80667933Y-52390500D01*
X78984525Y-61163146D02*
X78374869Y-61772802D01*
X80667933Y-52390500D02*
X79808564Y-53249869D01*
X80619612Y-59742256D02*
X79198722Y-61163146D01*
%TO.N,SW10*%
X83756500Y-35877500D02*
X83058000Y-35877500D01*
X85661500Y-37782500D02*
X83756500Y-35877500D01*
X75845694Y-62436696D02*
X74574432Y-61165434D01*
X78573109Y-62436696D02*
X75845694Y-62436696D01*
X81124000Y-53190500D02*
X80418186Y-53896314D01*
X80418186Y-53896314D02*
X80418186Y-55778590D01*
X81229234Y-59994766D02*
X79451232Y-61772768D01*
X80418186Y-55778590D02*
X81229234Y-56589638D01*
X81229234Y-56589638D02*
X81229234Y-59994766D01*
X79451232Y-61772768D02*
X79237037Y-61772768D01*
X79237037Y-61772768D02*
X78573109Y-62436696D01*
X74574432Y-61165434D02*
X74574432Y-60557921D01*
%TO.N,GND*%
X84674000Y-53940500D02*
X84674000Y-52968600D01*
X84674000Y-52968600D02*
X84734400Y-52908200D01*
X87024000Y-53190500D02*
X86286700Y-53190500D01*
X86286700Y-53190500D02*
X85979000Y-52882800D01*
X81874000Y-53940500D02*
X81874000Y-53177800D01*
X81874000Y-53177800D02*
X82194400Y-52857400D01*
X85474000Y-48040500D02*
X85474000Y-49374600D01*
X85474000Y-49374600D02*
X85471000Y-49377600D01*
X95324800Y-48258600D02*
X95885000Y-48818800D01*
X94405200Y-48258600D02*
X95324800Y-48258600D01*
X87024000Y-53190500D02*
X88598100Y-53190500D01*
X88598100Y-53190500D02*
X88801300Y-53190500D01*
X88801300Y-53190500D02*
X89331800Y-53721000D01*
X89331800Y-53721000D02*
X89331800Y-54635400D01*
X85474000Y-48040500D02*
X85474000Y-47495000D01*
X86791800Y-46177200D02*
X87102098Y-46177200D01*
X85474000Y-47495000D02*
X86791800Y-46177200D01*
X84674000Y-53940500D02*
X84674000Y-54821694D01*
X81874000Y-55560343D02*
X81807049Y-55627294D01*
X84674000Y-54821694D02*
X84785270Y-54932964D01*
X81874000Y-53940500D02*
X81874000Y-55560343D01*
X84785270Y-54932964D02*
X84785270Y-56235670D01*
X84785270Y-56235670D02*
X85267800Y-56718200D01*
X85648800Y-56718200D02*
X86207600Y-57277000D01*
X85267800Y-56718200D02*
X85648800Y-56718200D01*
X87401400Y-58470800D02*
X87508402Y-58470800D01*
X86207600Y-57277000D02*
X87401400Y-58470800D01*
%TO.N,VCC*%
X87024000Y-49190500D02*
X87024000Y-48797000D01*
X87024000Y-48797000D02*
X87020400Y-48793400D01*
X83474000Y-48040500D02*
X83474000Y-47431400D01*
X83474000Y-47431400D02*
X83083400Y-47040800D01*
X83083400Y-46482000D02*
X83845400Y-45720000D01*
X83083400Y-47040800D02*
X83083400Y-46482000D01*
X87379891Y-48790500D02*
X87502245Y-48668146D01*
X87024000Y-48790500D02*
X87379891Y-48790500D01*
X88163400Y-48666400D02*
X88747609Y-49250609D01*
X88747609Y-49250609D02*
X92332049Y-49250609D01*
X92332049Y-49250609D02*
X94411791Y-49250609D01*
X94411791Y-49250609D02*
X94411800Y-49250600D01*
X81124000Y-50390500D02*
X79470219Y-50390500D01*
X79470219Y-50390500D02*
X79001629Y-49921910D01*
X79001629Y-49921910D02*
X77524508Y-49921910D01*
X77524508Y-49921910D02*
X77386598Y-49784000D01*
X94705200Y-49558600D02*
X96523294Y-49558600D01*
X94405200Y-49258600D02*
X94705200Y-49558600D01*
X96523294Y-49558600D02*
X96778798Y-49303096D01*
%TO.N,/sda*%
X89351050Y-50390500D02*
X89886591Y-50926041D01*
X92999713Y-50926041D02*
X93684554Y-50241200D01*
X93684554Y-50241200D02*
X94386400Y-50241200D01*
X87024000Y-50390500D02*
X89351050Y-50390500D01*
X89886591Y-50926041D02*
X92999713Y-50926041D01*
%TO.N,/scl*%
X89319983Y-50790500D02*
X89786683Y-51257200D01*
X87024000Y-50790500D02*
X89319983Y-50790500D01*
X89786683Y-51257200D02*
X94411800Y-51257200D01*
%TO.N,/CS16*%
X83538830Y-59918599D02*
X83411821Y-59791590D01*
X86537799Y-59918599D02*
X83538830Y-59918599D01*
X85074000Y-47463934D02*
X87021145Y-45516789D01*
X85074000Y-48040500D02*
X85074000Y-47463934D01*
X87021145Y-45516789D02*
X87102122Y-45516789D01*
X91719401Y-59918599D02*
X86537799Y-59918599D01*
X91973400Y-59664600D02*
X91719401Y-59918599D01*
X84480400Y-57556400D02*
X84480400Y-55342344D01*
X86537799Y-58470799D02*
X86207600Y-58140600D01*
X86537799Y-59918599D02*
X86537799Y-58470799D01*
X84480400Y-55342344D02*
X84296316Y-55158260D01*
X85064600Y-58140600D02*
X84480400Y-57556400D01*
X86207600Y-58140600D02*
X85064600Y-58140600D01*
%TO.N,/CS15*%
X93395801Y-57353199D02*
X88290401Y-57353199D01*
X94488000Y-56261000D02*
X93395801Y-57353199D01*
X88290401Y-57353199D02*
X87934800Y-57708800D01*
X87934800Y-57708800D02*
X87575590Y-57708800D01*
X87575590Y-57708800D02*
X87112276Y-57245486D01*
X87112276Y-54473658D02*
X87366275Y-54219659D01*
X87112276Y-57245486D02*
X87112276Y-54473658D01*
X85411677Y-46692579D02*
X85411677Y-46433263D01*
X84674000Y-48040500D02*
X84674000Y-47430256D01*
X84674000Y-47430256D02*
X85411677Y-46692579D01*
%TO.N,/CS10*%
X88823800Y-44059658D02*
X88655674Y-44227784D01*
X88823800Y-40284400D02*
X88823800Y-44059658D01*
X84329562Y-44627776D02*
X84735954Y-45034169D01*
X82168967Y-47419568D02*
X82168967Y-45820047D01*
X82270600Y-48082200D02*
X82270600Y-47521201D01*
X82270600Y-47521201D02*
X82168967Y-47419568D01*
X86814743Y-44227784D02*
X88655674Y-44227784D01*
X82168967Y-45820047D02*
X83361238Y-44627776D01*
X84735954Y-45034169D02*
X86008358Y-45034169D01*
X83361238Y-44627776D02*
X84329562Y-44627776D01*
X86008358Y-45034169D02*
X86814743Y-44227784D01*
%TO.N,/CS9*%
X87790185Y-41485985D02*
X87790185Y-43632701D01*
X85039200Y-38735000D02*
X87790185Y-41485985D01*
X81774000Y-47940500D02*
X81774000Y-45783947D01*
X84455819Y-44322966D02*
X84862210Y-44729358D01*
X81774000Y-45783947D02*
X83234982Y-44322965D01*
X83234982Y-44322965D02*
X84455819Y-44322966D01*
X81874000Y-48040500D02*
X81774000Y-47940500D01*
X85882102Y-44729358D02*
X86978759Y-43632701D01*
X86978759Y-43632701D02*
X87790185Y-43632701D01*
X84862210Y-44729358D02*
X85882102Y-44729358D01*
%TO.N,/CS14*%
X95785043Y-52351043D02*
X93803109Y-52351043D01*
X93166465Y-51714399D02*
X89560378Y-51714399D01*
X89560378Y-51714399D02*
X89306379Y-51460400D01*
X93803109Y-52351043D02*
X93166465Y-51714399D01*
X84274000Y-47388216D02*
X84274000Y-48040500D01*
X84429590Y-47232626D02*
X84274000Y-47388216D01*
X84429600Y-46126400D02*
X84429590Y-47232626D01*
%TO.N,/CS4*%
X74193400Y-53009800D02*
X76225400Y-53009800D01*
X73355200Y-52171600D02*
X74193400Y-53009800D01*
X76225400Y-53009800D02*
X76225400Y-52428650D01*
X81124000Y-50790500D02*
X79155967Y-50790500D01*
X78249538Y-50404512D02*
X78769979Y-50404512D01*
X79155967Y-50790500D02*
X78769979Y-50404512D01*
X76225400Y-52428650D02*
X78249538Y-50404512D01*
X80688251Y-63351129D02*
X75466929Y-63351129D01*
X75466929Y-63351129D02*
X73482200Y-61366400D01*
X73482200Y-53721000D02*
X74193400Y-53009800D01*
X73482200Y-61366400D02*
X73482200Y-53721000D01*
%TO.N,/CS3*%
X76507776Y-55679766D02*
X77571610Y-56743600D01*
X75387200Y-56743600D02*
X77571610Y-56743600D01*
X74523600Y-55880000D02*
X75387200Y-56743600D01*
X76507776Y-53535569D02*
X76507776Y-55679766D01*
X81124000Y-51190500D02*
X78852845Y-51190500D01*
X78852845Y-51190500D02*
X76507776Y-53535569D01*
X80134216Y-63046318D02*
X80340923Y-62839611D01*
X73787011Y-61240145D02*
X75593184Y-63046318D01*
X80340923Y-62839611D02*
X81001344Y-62839611D01*
X81001344Y-62839611D02*
X81610932Y-63449199D01*
X74523600Y-55880000D02*
X73787011Y-56616589D01*
X73787011Y-56616589D02*
X73787011Y-61240145D01*
X81610932Y-63449199D02*
X84404201Y-63449199D01*
X84404201Y-63449199D02*
X84658200Y-63195200D01*
X75593184Y-63046318D02*
X80134216Y-63046318D01*
%TO.N,/CS2*%
X75869800Y-59766200D02*
X79334648Y-59766200D01*
X79334648Y-59766200D02*
X79378158Y-59809710D01*
X79116096Y-57518956D02*
X79188412Y-57446640D01*
X81124000Y-51590500D02*
X80315045Y-51590500D01*
X79188412Y-57446640D02*
X79188412Y-53760845D01*
X79188412Y-53760845D02*
X78666556Y-53238989D01*
X79116096Y-59547648D02*
X79116096Y-57518956D01*
X79378158Y-59809710D02*
X79116096Y-59547648D01*
X80315045Y-51590500D02*
X78666556Y-53238989D01*
X85013800Y-62661800D02*
X84302600Y-62661800D01*
X85572600Y-63220600D02*
X85013800Y-62661800D01*
X84302600Y-62661800D02*
X83921600Y-63042800D01*
X74244200Y-59766200D02*
X75869800Y-59766200D01*
X88671400Y-63220600D02*
X85572600Y-63220600D01*
X83921600Y-63042800D02*
X83388200Y-63042800D01*
X83388200Y-63042800D02*
X82880200Y-62534800D01*
X82880200Y-62534800D02*
X80214667Y-62534800D01*
X80007960Y-62741507D02*
X75719439Y-62741507D01*
X80214667Y-62534800D02*
X80007960Y-62741507D01*
X74091822Y-59918578D02*
X74244200Y-59766200D01*
X75719439Y-62741507D02*
X74091822Y-61113889D01*
X74091822Y-61113889D02*
X74091822Y-59918578D01*
%TO.N,/CS1*%
X79503753Y-53058847D02*
X79503753Y-56440543D01*
X79503753Y-56440543D02*
X80137010Y-57073800D01*
X81124000Y-51990500D02*
X80572100Y-51990500D01*
X80572100Y-51990500D02*
X79503753Y-53058847D01*
X79072467Y-60858335D02*
X80137010Y-59793792D01*
X80137010Y-57433010D02*
X80137010Y-57073800D01*
X78232065Y-60858335D02*
X79072467Y-60858335D01*
X77800200Y-61290200D02*
X78232065Y-60858335D01*
X80137010Y-59793792D02*
X80137010Y-57433010D01*
%TO.N,/CS8*%
X83566000Y-41122600D02*
X85344000Y-42900600D01*
X81858787Y-41122600D02*
X83566000Y-41122600D01*
X79070200Y-45110400D02*
X79349600Y-44831000D01*
X81124000Y-48790500D02*
X81024000Y-48690500D01*
X79349600Y-44831000D02*
X81559400Y-44831000D01*
X81024000Y-48690500D02*
X79345368Y-48690500D01*
X79070200Y-48415332D02*
X79070200Y-45110400D01*
X79345368Y-48690500D02*
X79070200Y-48415332D01*
X81858787Y-41481810D02*
X81858787Y-41122600D01*
X81858787Y-44531613D02*
X81858787Y-41481810D01*
X81559400Y-44831000D02*
X81858787Y-44531613D01*
%TO.N,/CS7*%
X78536800Y-43484800D02*
X79297626Y-44245626D01*
X79297626Y-44245626D02*
X81353359Y-44245626D01*
X78765400Y-48541599D02*
X79231278Y-49007477D01*
X79231278Y-49007477D02*
X79380397Y-49007477D01*
X79380397Y-49007477D02*
X79572719Y-49199800D01*
X78536800Y-43484800D02*
X78536800Y-46268372D01*
X78536800Y-46268372D02*
X78765400Y-46496972D01*
X78765400Y-46496972D02*
X78765400Y-48541599D01*
X79572719Y-49199800D02*
X81127600Y-49199800D01*
%TO.N,/CS13*%
X91897200Y-56692800D02*
X94994952Y-53595048D01*
X94994952Y-53595048D02*
X96565733Y-53595048D01*
X83870800Y-48056800D02*
X83870800Y-47150031D01*
X83870800Y-47150031D02*
X83851534Y-47130765D01*
%TO.N,/CS12*%
X93365910Y-53289209D02*
X92977895Y-52901194D01*
X97566211Y-48945190D02*
X97566211Y-49661002D01*
X96112857Y-53289209D02*
X93365910Y-53289209D01*
X95123000Y-44715423D02*
X95655148Y-44715423D01*
X95655148Y-44715423D02*
X96799400Y-45859675D01*
X97566211Y-49661002D02*
X96799400Y-50427813D01*
X96799400Y-50427813D02*
X96799400Y-52602666D01*
X96799400Y-48178379D02*
X97566211Y-48945190D01*
X96799400Y-45859675D02*
X96799400Y-48178379D01*
X96799400Y-52602666D02*
X96112857Y-53289209D01*
X92532200Y-47142400D02*
X93755513Y-47142400D01*
X82778589Y-47167056D02*
X82778589Y-46072559D01*
X87917976Y-45643791D02*
X91033591Y-45643791D01*
X83074000Y-48040500D02*
X83074000Y-47462466D01*
X83074000Y-47462466D02*
X82778589Y-47167056D01*
X82778589Y-46072559D02*
X83613750Y-45237398D01*
X94868077Y-46029836D02*
X95122076Y-45775837D01*
X83613750Y-45237398D02*
X84051650Y-45237398D01*
X84458043Y-45643791D02*
X86260870Y-45643791D01*
X87308373Y-45034188D02*
X87917976Y-45643791D01*
X91033591Y-45643791D02*
X92532200Y-47142400D01*
X93755513Y-47142400D02*
X94868077Y-46029836D01*
X84051650Y-45237398D02*
X84458043Y-45643791D01*
X86870473Y-45034188D02*
X87308373Y-45034188D01*
X86260870Y-45643791D02*
X86870473Y-45034188D01*
%TO.N,/CS11*%
X91897200Y-46076334D02*
X92480656Y-46659790D01*
X92480656Y-46659790D02*
X93460505Y-46659790D01*
X91897200Y-42570400D02*
X91897200Y-46076334D01*
X91643201Y-42824399D02*
X91897200Y-42570400D01*
X86744217Y-44729377D02*
X89738223Y-44729377D01*
X86134614Y-45338980D02*
X86744217Y-44729377D01*
X89738223Y-44729377D02*
X91643201Y-42824399D01*
X84609699Y-45338980D02*
X86134614Y-45338980D01*
X84203306Y-44932587D02*
X84609699Y-45338980D01*
X82473778Y-47293312D02*
X82473778Y-45946303D01*
X82473778Y-45946303D02*
X83487494Y-44932587D01*
X82674000Y-47493534D02*
X82473778Y-47293312D01*
X83487494Y-44932587D02*
X84203306Y-44932587D01*
X82674000Y-48040500D02*
X82674000Y-47493534D01*
%TO.N,/CS6*%
X75361800Y-45694600D02*
X76341367Y-46674167D01*
X76341367Y-46674167D02*
X78231991Y-46674167D01*
X81124000Y-49590500D02*
X79532352Y-49590500D01*
X78231991Y-48439257D02*
X78231991Y-46674167D01*
X79532352Y-49590500D02*
X79254141Y-49312288D01*
X79105022Y-49312288D02*
X78231991Y-48439257D01*
X79254141Y-49312288D02*
X79105022Y-49312288D01*
%TO.N,/CS5*%
X72186800Y-48361600D02*
X73050400Y-49225200D01*
X73050400Y-49225200D02*
X74955400Y-49225200D01*
X85420200Y-44221400D02*
X83870788Y-42671988D01*
X83870788Y-42671988D02*
X83642177Y-42671988D01*
X81124000Y-49990500D02*
X79501286Y-49990500D01*
X79127885Y-49617099D02*
X78978766Y-49617099D01*
X78978766Y-49617099D02*
X78586867Y-49225200D01*
X78586867Y-49225200D02*
X74955400Y-49225200D01*
X79501286Y-49990500D02*
X79127885Y-49617099D01*
%TD*%
M02*
