M48
; DRILL file {KiCad (5.1.9-0-10_14)} date Tuesday, December 14, 2021 at 09:11:44 AM
; FORMAT={-:-/ absolute / inch / decimal}
; #@! TF.CreationDate,2021-12-14T09:11:44-05:00
; #@! TF.GenerationSoftware,Kicad,Pcbnew,(5.1.9-0-10_14)
; #@! TF.FileFunction,Plated,1,4,PTH
FMAT,2
INCH
T1C0.0100
%
G90
G05
T1
X2.711Y-1.809
X2.734Y-1.94
X2.764Y-2.042
X2.7725Y-1.905
X2.7725Y-1.9825
X2.815Y-1.721
X2.822Y-2.196
X2.842Y-1.904
X2.855Y-2.31
X2.888Y-2.054
X2.918Y-1.977
X2.919Y-1.648
X2.923Y-2.507
X2.934Y-2.2
X2.936Y-2.3842
X2.951Y-1.938
X2.967Y-1.799
X2.9867Y-2.4319
X2.987Y-2.353
X3.001Y-2.087
X3.008Y-1.585
X3.018Y-2.389
X3.0311Y-2.1168
X3.0467Y-1.96
X3.054Y-2.234
X3.059Y-1.979
X3.063Y-2.413
X3.08Y-1.8376
X3.092Y-1.712
X3.0952Y-2.0148
X3.097Y-2.124
X3.0971Y-2.096
X3.0987Y-2.173
X3.1012Y-1.9844
X3.1251Y-2.3547
X3.1287Y-2.451
X3.1321Y-1.897
X3.134Y-2.276
X3.136Y-1.489
X3.155Y-2.247
X3.1767Y-2.4941
X3.183Y-1.621
X3.1851Y-2.1716
X3.1994Y-1.9004
X3.2029Y-1.742
X3.205Y-2.4175
X3.2184Y-2.2579
X3.2207Y-2.1901
X3.2228Y-1.619
X3.2243Y-2.2168
X3.24Y-1.52
X3.27Y-1.4125
X3.2839Y-2.354
X3.284Y-1.55
X3.2903Y-2.2931
X3.293Y-1.68
X3.294Y-2.462
X3.298Y-2.42
X3.301Y-1.718
X3.301Y-1.8
X3.3012Y-1.8555
X3.3149Y-2.3309
X3.3175Y-1.525
X3.3188Y-2.1716
X3.324Y-1.816
X3.333Y-2.488
X3.348Y-1.525
X3.36Y-1.689
X3.3615Y-2.1905
X3.3627Y-1.8281
X3.363Y-1.741
X3.364Y-2.255
X3.369Y-2.418
X3.3725Y-1.4875
X3.374Y-2.311
X3.3805Y-2.2105
X3.393Y-2.166
X3.394Y-1.643
X3.394Y-2.255
X3.4292Y-1.818
X3.4292Y-1.792
X3.4396Y-2.1346
X3.4452Y-2.302
X3.452Y-2.462
X3.454Y-1.9155
X3.454Y-2.24
X3.4563Y-1.7178
X3.459Y-1.485
X3.4595Y-2.206
X3.462Y-2.272
X3.4626Y-2.0192
X3.4871Y-1.863
X3.4904Y-1.7413
X3.491Y-2.489
X3.496Y-2.277
X3.497Y-1.586
X3.5055Y-2.0159
X3.53Y-2.4175
X3.5389Y-2.3484
X3.5427Y-1.9748
X3.547Y-2.1169
X3.5567Y-1.9019
X3.5645Y-2.2535
X3.583Y-1.974
X3.588Y-1.579
X3.604Y-2.3387
X3.604Y-1.9895
X3.608Y-2.461
X3.6085Y-2.2385
X3.6105Y-1.7075
X3.611Y-2.0995
X3.618Y-1.676
X3.626Y-1.933
X3.6262Y-2.3523
X3.6341Y-2.2339
X3.649Y-1.798
X3.6509Y-1.9751
X3.6657Y-2.091
X3.674Y-2.514
X3.6795Y-1.837
X3.6825Y-2.4175
X3.6841Y-2.2225
X3.6935Y-1.978
X3.703Y-1.662
X3.7221Y-2.2235
X3.7302Y-2.2735
X3.737Y-2.091
X3.745Y-1.8022
X3.745Y-1.7604
X3.7563Y-2.194
X3.775Y-1.922
X3.7815Y-2.0327
X3.789Y-1.899
X3.8018Y-2.11
X3.81Y-1.9411
X3.831Y-1.755
X3.871Y-1.909
X3.881Y-1.865
X3.901Y-1.809
T0
M30
