%TF.GenerationSoftware,KiCad,Pcbnew,(5.1.9-0-10_14)*%
%TF.CreationDate,2021-12-14T09:11:42-05:00*%
%TF.ProjectId,dodecahedron_n4,646f6465-6361-4686-9564-726f6e5f6e34,rev?*%
%TF.SameCoordinates,Original*%
%TF.FileFunction,Legend,Bot*%
%TF.FilePolarity,Positive*%
%FSLAX46Y46*%
G04 Gerber Fmt 4.6, Leading zero omitted, Abs format (unit mm)*
G04 Created by KiCad (PCBNEW (5.1.9-0-10_14)) date 2021-12-14 09:11:42*
%MOMM*%
%LPD*%
G01*
G04 APERTURE LIST*
%ADD10C,0.120000*%
%ADD11C,0.100000*%
%ADD12C,0.150000*%
%ADD13C,0.010000*%
G04 APERTURE END LIST*
D10*
X85324533Y-63734904D02*
X85324533Y-62934904D01*
X84981676Y-63696809D02*
X84867390Y-63734904D01*
X84676914Y-63734904D01*
X84600723Y-63696809D01*
X84562628Y-63658714D01*
X84524533Y-63582523D01*
X84524533Y-63506333D01*
X84562628Y-63430142D01*
X84600723Y-63392047D01*
X84676914Y-63353952D01*
X84829295Y-63315857D01*
X84905485Y-63277761D01*
X84943580Y-63239666D01*
X84981676Y-63163476D01*
X84981676Y-63087285D01*
X84943580Y-63011095D01*
X84905485Y-62973000D01*
X84829295Y-62934904D01*
X84638819Y-62934904D01*
X84524533Y-62973000D01*
X84257866Y-62934904D02*
X83762628Y-62934904D01*
X84029295Y-63239666D01*
X83915009Y-63239666D01*
X83838819Y-63277761D01*
X83800723Y-63315857D01*
X83762628Y-63392047D01*
X83762628Y-63582523D01*
X83800723Y-63658714D01*
X83838819Y-63696809D01*
X83915009Y-63734904D01*
X84143580Y-63734904D01*
X84219771Y-63696809D01*
X84257866Y-63658714D01*
X83000723Y-63734904D02*
X83457866Y-63734904D01*
X83229295Y-63734904D02*
X83229295Y-62934904D01*
X83305485Y-63049190D01*
X83381676Y-63125380D01*
X83457866Y-63163476D01*
X82391200Y-63315857D02*
X82657866Y-63315857D01*
X82657866Y-63734904D02*
X82657866Y-62934904D01*
X82276914Y-62934904D01*
X81591200Y-63734904D02*
X81972152Y-63734904D01*
X81972152Y-62934904D01*
X81400723Y-62934904D02*
X80905485Y-62934904D01*
X81172152Y-63239666D01*
X81057866Y-63239666D01*
X80981676Y-63277761D01*
X80943580Y-63315857D01*
X80905485Y-63392047D01*
X80905485Y-63582523D01*
X80943580Y-63658714D01*
X80981676Y-63696809D01*
X81057866Y-63734904D01*
X81286438Y-63734904D01*
X81362628Y-63696809D01*
X81400723Y-63658714D01*
X80638819Y-62934904D02*
X80105485Y-62934904D01*
X80448342Y-63734904D01*
X79876914Y-62934904D02*
X79381676Y-62934904D01*
X79648342Y-63239666D01*
X79534057Y-63239666D01*
X79457866Y-63277761D01*
X79419771Y-63315857D01*
X79381676Y-63392047D01*
X79381676Y-63582523D01*
X79419771Y-63658714D01*
X79457866Y-63696809D01*
X79534057Y-63734904D01*
X79762628Y-63734904D01*
X79838819Y-63696809D01*
X79876914Y-63658714D01*
X79115009Y-62934904D02*
X78619771Y-62934904D01*
X78886438Y-63239666D01*
X78772152Y-63239666D01*
X78695961Y-63277761D01*
X78657866Y-63315857D01*
X78619771Y-63392047D01*
X78619771Y-63582523D01*
X78657866Y-63658714D01*
X78695961Y-63696809D01*
X78772152Y-63734904D01*
X79000723Y-63734904D01*
X79076914Y-63696809D01*
X79115009Y-63658714D01*
D11*
X87344228Y-61780771D02*
X87315657Y-61752200D01*
X87258514Y-61723628D01*
X87115657Y-61723628D01*
X87058514Y-61752200D01*
X87029942Y-61780771D01*
X87001371Y-61837914D01*
X87001371Y-61895057D01*
X87029942Y-61980771D01*
X87372800Y-62323628D01*
X87001371Y-62323628D01*
X91611471Y-62323628D02*
X91954328Y-62323628D01*
X91782900Y-62323628D02*
X91782900Y-61723628D01*
X91840042Y-61809342D01*
X91897185Y-61866485D01*
X91954328Y-61895057D01*
D10*
X84923166Y-60979404D02*
X84923166Y-60179404D01*
X84923166Y-60941309D02*
X84999357Y-60979404D01*
X85151738Y-60979404D01*
X85227928Y-60941309D01*
X85266023Y-60903214D01*
X85304119Y-60827023D01*
X85304119Y-60598452D01*
X85266023Y-60522261D01*
X85227928Y-60484166D01*
X85151738Y-60446071D01*
X84999357Y-60446071D01*
X84923166Y-60484166D01*
X84427928Y-60979404D02*
X84504119Y-60941309D01*
X84542214Y-60903214D01*
X84580309Y-60827023D01*
X84580309Y-60598452D01*
X84542214Y-60522261D01*
X84504119Y-60484166D01*
X84427928Y-60446071D01*
X84313642Y-60446071D01*
X84237452Y-60484166D01*
X84199357Y-60522261D01*
X84161261Y-60598452D01*
X84161261Y-60827023D01*
X84199357Y-60903214D01*
X84237452Y-60941309D01*
X84313642Y-60979404D01*
X84427928Y-60979404D01*
X83475547Y-60979404D02*
X83475547Y-60179404D01*
X83475547Y-60941309D02*
X83551738Y-60979404D01*
X83704119Y-60979404D01*
X83780309Y-60941309D01*
X83818404Y-60903214D01*
X83856500Y-60827023D01*
X83856500Y-60598452D01*
X83818404Y-60522261D01*
X83780309Y-60484166D01*
X83704119Y-60446071D01*
X83551738Y-60446071D01*
X83475547Y-60484166D01*
X82789833Y-60941309D02*
X82866023Y-60979404D01*
X83018404Y-60979404D01*
X83094595Y-60941309D01*
X83132690Y-60865119D01*
X83132690Y-60560357D01*
X83094595Y-60484166D01*
X83018404Y-60446071D01*
X82866023Y-60446071D01*
X82789833Y-60484166D01*
X82751738Y-60560357D01*
X82751738Y-60636547D01*
X83132690Y-60712738D01*
X82066023Y-60941309D02*
X82142214Y-60979404D01*
X82294595Y-60979404D01*
X82370785Y-60941309D01*
X82408880Y-60903214D01*
X82446976Y-60827023D01*
X82446976Y-60598452D01*
X82408880Y-60522261D01*
X82370785Y-60484166D01*
X82294595Y-60446071D01*
X82142214Y-60446071D01*
X82066023Y-60484166D01*
X81380309Y-60979404D02*
X81380309Y-60560357D01*
X81418404Y-60484166D01*
X81494595Y-60446071D01*
X81646976Y-60446071D01*
X81723166Y-60484166D01*
X81380309Y-60941309D02*
X81456500Y-60979404D01*
X81646976Y-60979404D01*
X81723166Y-60941309D01*
X81761261Y-60865119D01*
X81761261Y-60788928D01*
X81723166Y-60712738D01*
X81646976Y-60674642D01*
X81456500Y-60674642D01*
X81380309Y-60636547D01*
X80999357Y-60979404D02*
X80999357Y-60179404D01*
X80656500Y-60979404D02*
X80656500Y-60560357D01*
X80694595Y-60484166D01*
X80770785Y-60446071D01*
X80885071Y-60446071D01*
X80961261Y-60484166D01*
X80999357Y-60522261D01*
X79970785Y-60941309D02*
X80046976Y-60979404D01*
X80199357Y-60979404D01*
X80275547Y-60941309D01*
X80313642Y-60865119D01*
X80313642Y-60560357D01*
X80275547Y-60484166D01*
X80199357Y-60446071D01*
X80046976Y-60446071D01*
X79970785Y-60484166D01*
X79932690Y-60560357D01*
X79932690Y-60636547D01*
X80313642Y-60712738D01*
X79246976Y-60979404D02*
X79246976Y-60179404D01*
X79246976Y-60941309D02*
X79323166Y-60979404D01*
X79475547Y-60979404D01*
X79551738Y-60941309D01*
X79589833Y-60903214D01*
X79627928Y-60827023D01*
X79627928Y-60598452D01*
X79589833Y-60522261D01*
X79551738Y-60484166D01*
X79475547Y-60446071D01*
X79323166Y-60446071D01*
X79246976Y-60484166D01*
X78866023Y-60979404D02*
X78866023Y-60446071D01*
X78866023Y-60598452D02*
X78827928Y-60522261D01*
X78789833Y-60484166D01*
X78713642Y-60446071D01*
X78637452Y-60446071D01*
X78256500Y-60979404D02*
X78332690Y-60941309D01*
X78370785Y-60903214D01*
X78408880Y-60827023D01*
X78408880Y-60598452D01*
X78370785Y-60522261D01*
X78332690Y-60484166D01*
X78256500Y-60446071D01*
X78142214Y-60446071D01*
X78066023Y-60484166D01*
X78027928Y-60522261D01*
X77989833Y-60598452D01*
X77989833Y-60827023D01*
X78027928Y-60903214D01*
X78066023Y-60941309D01*
X78142214Y-60979404D01*
X78256500Y-60979404D01*
X77646976Y-60446071D02*
X77646976Y-60979404D01*
X77646976Y-60522261D02*
X77608880Y-60484166D01*
X77532690Y-60446071D01*
X77418404Y-60446071D01*
X77342214Y-60484166D01*
X77304119Y-60560357D01*
X77304119Y-60979404D01*
X85304119Y-61575595D02*
X85266023Y-61537500D01*
X85189833Y-61499404D01*
X84999357Y-61499404D01*
X84923166Y-61537500D01*
X84885071Y-61575595D01*
X84846976Y-61651785D01*
X84846976Y-61727976D01*
X84885071Y-61842261D01*
X85342214Y-62299404D01*
X84846976Y-62299404D01*
X84351738Y-61499404D02*
X84275547Y-61499404D01*
X84199357Y-61537500D01*
X84161261Y-61575595D01*
X84123166Y-61651785D01*
X84085071Y-61804166D01*
X84085071Y-61994642D01*
X84123166Y-62147023D01*
X84161261Y-62223214D01*
X84199357Y-62261309D01*
X84275547Y-62299404D01*
X84351738Y-62299404D01*
X84427928Y-62261309D01*
X84466023Y-62223214D01*
X84504119Y-62147023D01*
X84542214Y-61994642D01*
X84542214Y-61804166D01*
X84504119Y-61651785D01*
X84466023Y-61575595D01*
X84427928Y-61537500D01*
X84351738Y-61499404D01*
X83780309Y-61575595D02*
X83742214Y-61537500D01*
X83666023Y-61499404D01*
X83475547Y-61499404D01*
X83399357Y-61537500D01*
X83361261Y-61575595D01*
X83323166Y-61651785D01*
X83323166Y-61727976D01*
X83361261Y-61842261D01*
X83818404Y-62299404D01*
X83323166Y-62299404D01*
X82561261Y-62299404D02*
X83018404Y-62299404D01*
X82789833Y-62299404D02*
X82789833Y-61499404D01*
X82866023Y-61613690D01*
X82942214Y-61689880D01*
X83018404Y-61727976D01*
X81646976Y-61461309D02*
X82332690Y-62489880D01*
X80961261Y-62299404D02*
X81418404Y-62299404D01*
X81189833Y-62299404D02*
X81189833Y-61499404D01*
X81266023Y-61613690D01*
X81342214Y-61689880D01*
X81418404Y-61727976D01*
X80656500Y-61575595D02*
X80618404Y-61537500D01*
X80542214Y-61499404D01*
X80351738Y-61499404D01*
X80275547Y-61537500D01*
X80237452Y-61575595D01*
X80199357Y-61651785D01*
X80199357Y-61727976D01*
X80237452Y-61842261D01*
X80694595Y-62299404D01*
X80199357Y-62299404D01*
D12*
X95486600Y-48566533D02*
X95438980Y-48471295D01*
X95438980Y-48328438D01*
X95486600Y-48185580D01*
X95581838Y-48090342D01*
X95677076Y-48042723D01*
X95867552Y-47995104D01*
X96010409Y-47995104D01*
X96200885Y-48042723D01*
X96296123Y-48090342D01*
X96391361Y-48185580D01*
X96438980Y-48328438D01*
X96438980Y-48423676D01*
X96391361Y-48566533D01*
X96343742Y-48614152D01*
X96010409Y-48614152D01*
X96010409Y-48423676D01*
X95438980Y-48899866D02*
X96438980Y-49233200D01*
X95438980Y-49566533D01*
X96438980Y-49899866D02*
X95438980Y-49899866D01*
X95438980Y-50137961D01*
X95486600Y-50280819D01*
X95581838Y-50376057D01*
X95677076Y-50423676D01*
X95867552Y-50471295D01*
X96010409Y-50471295D01*
X96200885Y-50423676D01*
X96296123Y-50376057D01*
X96391361Y-50280819D01*
X96438980Y-50137961D01*
X96438980Y-49899866D01*
X96343742Y-51471295D02*
X96391361Y-51423676D01*
X96438980Y-51280819D01*
X96438980Y-51185580D01*
X96391361Y-51042723D01*
X96296123Y-50947485D01*
X96200885Y-50899866D01*
X96010409Y-50852247D01*
X95867552Y-50852247D01*
X95677076Y-50899866D01*
X95581838Y-50947485D01*
X95486600Y-51042723D01*
X95438980Y-51185580D01*
X95438980Y-51280819D01*
X95486600Y-51423676D01*
X95534219Y-51471295D01*
D10*
X89509600Y-61417200D02*
X89509600Y-59944000D01*
X89509600Y-63906400D02*
X89509600Y-62636400D01*
X86715600Y-62636400D02*
X92303600Y-62636400D01*
X86715600Y-61417200D02*
X92303600Y-61417200D01*
X86715600Y-63906400D02*
X86715600Y-59944000D01*
X92303600Y-63906400D02*
X86715600Y-63906400D01*
X92303600Y-59944000D02*
X92303600Y-63906400D01*
X86715600Y-59944000D02*
X92303600Y-59944000D01*
X91998666Y-62858704D02*
X91732000Y-63658704D01*
X91465333Y-62858704D01*
X90741523Y-63582514D02*
X90779619Y-63620609D01*
X90893904Y-63658704D01*
X90970095Y-63658704D01*
X91084380Y-63620609D01*
X91160571Y-63544419D01*
X91198666Y-63468228D01*
X91236761Y-63315847D01*
X91236761Y-63201561D01*
X91198666Y-63049180D01*
X91160571Y-62972990D01*
X91084380Y-62896800D01*
X90970095Y-62858704D01*
X90893904Y-62858704D01*
X90779619Y-62896800D01*
X90741523Y-62934895D01*
X89941523Y-63582514D02*
X89979619Y-63620609D01*
X90093904Y-63658704D01*
X90170095Y-63658704D01*
X90284380Y-63620609D01*
X90360571Y-63544419D01*
X90398666Y-63468228D01*
X90436761Y-63315847D01*
X90436761Y-63201561D01*
X90398666Y-63049180D01*
X90360571Y-62972990D01*
X90284380Y-62896800D01*
X90170095Y-62858704D01*
X90093904Y-62858704D01*
X89979619Y-62896800D01*
X89941523Y-62934895D01*
X88696723Y-62896800D02*
X88772914Y-62858704D01*
X88887200Y-62858704D01*
X89001485Y-62896800D01*
X89077676Y-62972990D01*
X89115771Y-63049180D01*
X89153866Y-63201561D01*
X89153866Y-63315847D01*
X89115771Y-63468228D01*
X89077676Y-63544419D01*
X89001485Y-63620609D01*
X88887200Y-63658704D01*
X88811009Y-63658704D01*
X88696723Y-63620609D01*
X88658628Y-63582514D01*
X88658628Y-63315847D01*
X88811009Y-63315847D01*
X88315771Y-63658704D02*
X88315771Y-62858704D01*
X87858628Y-63658704D01*
X87858628Y-62858704D01*
X87477676Y-63658704D02*
X87477676Y-62858704D01*
X87287200Y-62858704D01*
X87172914Y-62896800D01*
X87096723Y-62972990D01*
X87058628Y-63049180D01*
X87020533Y-63201561D01*
X87020533Y-63315847D01*
X87058628Y-63468228D01*
X87096723Y-63544419D01*
X87172914Y-63620609D01*
X87287200Y-63658704D01*
X87477676Y-63658704D01*
X90900076Y-62172833D02*
X90519123Y-62172833D01*
X90976266Y-62401404D02*
X90709600Y-61601404D01*
X90442933Y-62401404D01*
X90176266Y-62401404D02*
X90176266Y-61601404D01*
X89985790Y-61601404D01*
X89871504Y-61639500D01*
X89795314Y-61715690D01*
X89757219Y-61791880D01*
X89719123Y-61944261D01*
X89719123Y-62058547D01*
X89757219Y-62210928D01*
X89795314Y-62287119D01*
X89871504Y-62363309D01*
X89985790Y-62401404D01*
X90176266Y-62401404D01*
X89376266Y-62401404D02*
X89376266Y-61601404D01*
X89185790Y-61601404D01*
X89071504Y-61639500D01*
X88995314Y-61715690D01*
X88957219Y-61791880D01*
X88919123Y-61944261D01*
X88919123Y-62058547D01*
X88957219Y-62210928D01*
X88995314Y-62287119D01*
X89071504Y-62363309D01*
X89185790Y-62401404D01*
X89376266Y-62401404D01*
X88119123Y-62401404D02*
X88385790Y-62020452D01*
X88576266Y-62401404D02*
X88576266Y-61601404D01*
X88271504Y-61601404D01*
X88195314Y-61639500D01*
X88157219Y-61677595D01*
X88119123Y-61753785D01*
X88119123Y-61868071D01*
X88157219Y-61944261D01*
X88195314Y-61982357D01*
X88271504Y-62020452D01*
X88576266Y-62020452D01*
X91985980Y-61029809D02*
X91871695Y-61067904D01*
X91681219Y-61067904D01*
X91605028Y-61029809D01*
X91566933Y-60991714D01*
X91528838Y-60915523D01*
X91528838Y-60839333D01*
X91566933Y-60763142D01*
X91605028Y-60725047D01*
X91681219Y-60686952D01*
X91833600Y-60648857D01*
X91909790Y-60610761D01*
X91947885Y-60572666D01*
X91985980Y-60496476D01*
X91985980Y-60420285D01*
X91947885Y-60344095D01*
X91909790Y-60306000D01*
X91833600Y-60267904D01*
X91643123Y-60267904D01*
X91528838Y-60306000D01*
X90728838Y-60991714D02*
X90766933Y-61029809D01*
X90881219Y-61067904D01*
X90957409Y-61067904D01*
X91071695Y-61029809D01*
X91147885Y-60953619D01*
X91185980Y-60877428D01*
X91224076Y-60725047D01*
X91224076Y-60610761D01*
X91185980Y-60458380D01*
X91147885Y-60382190D01*
X91071695Y-60306000D01*
X90957409Y-60267904D01*
X90881219Y-60267904D01*
X90766933Y-60306000D01*
X90728838Y-60344095D01*
X90005028Y-61067904D02*
X90385980Y-61067904D01*
X90385980Y-60267904D01*
X89109428Y-61029809D02*
X88995142Y-61067904D01*
X88804666Y-61067904D01*
X88728476Y-61029809D01*
X88690380Y-60991714D01*
X88652285Y-60915523D01*
X88652285Y-60839333D01*
X88690380Y-60763142D01*
X88728476Y-60725047D01*
X88804666Y-60686952D01*
X88957047Y-60648857D01*
X89033238Y-60610761D01*
X89071333Y-60572666D01*
X89109428Y-60496476D01*
X89109428Y-60420285D01*
X89071333Y-60344095D01*
X89033238Y-60306000D01*
X88957047Y-60267904D01*
X88766571Y-60267904D01*
X88652285Y-60306000D01*
X88309428Y-61067904D02*
X88309428Y-60267904D01*
X88118952Y-60267904D01*
X88004666Y-60306000D01*
X87928476Y-60382190D01*
X87890380Y-60458380D01*
X87852285Y-60610761D01*
X87852285Y-60725047D01*
X87890380Y-60877428D01*
X87928476Y-60953619D01*
X88004666Y-61029809D01*
X88118952Y-61067904D01*
X88309428Y-61067904D01*
X87547523Y-60839333D02*
X87166571Y-60839333D01*
X87623714Y-61067904D02*
X87357047Y-60267904D01*
X87090380Y-61067904D01*
D12*
X86533000Y-54991000D02*
G75*
G03*
X86533000Y-54991000I-300000J0D01*
G01*
D10*
%TO.C,R2*%
X90931000Y-56073021D02*
X90931000Y-55737779D01*
X90171000Y-56073021D02*
X90171000Y-55737779D01*
D11*
%TO.C,kibuzzard-61B81B90*%
G36*
X74850660Y-61208670D02*
G01*
X74676194Y-61375525D01*
X74610949Y-61174721D01*
X74850660Y-61208670D01*
G37*
G36*
X73896762Y-59495544D02*
G01*
X73825093Y-59413672D01*
X73835687Y-59307575D01*
X73913501Y-59241396D01*
X74016373Y-59247197D01*
X74089798Y-59329333D01*
X74079675Y-59439451D01*
X74000105Y-59505365D01*
X73896762Y-59495544D01*
G37*
G36*
X74190120Y-60398406D02*
G01*
X74118450Y-60316534D01*
X74129045Y-60210437D01*
X74206859Y-60144258D01*
X74309731Y-60150059D01*
X74383156Y-60232195D01*
X74373033Y-60342313D01*
X74293463Y-60408227D01*
X74190120Y-60398406D01*
G37*
G36*
X76019491Y-61441490D02*
G01*
X75291031Y-61063916D01*
X75248348Y-60999332D01*
X75173276Y-60968641D01*
X74674699Y-60275547D01*
X74659636Y-60184091D01*
X74608509Y-60090954D01*
X74527731Y-60034992D01*
X74844789Y-59931973D01*
X74896142Y-59912784D01*
X74930982Y-59886442D01*
X74948932Y-59836376D01*
X74933217Y-59757187D01*
X74899385Y-59683885D01*
X74854680Y-59654178D01*
X74810254Y-59653589D01*
X74757430Y-59668249D01*
X74366278Y-59281230D01*
X74315151Y-59188093D01*
X74234373Y-59132130D01*
X74551432Y-59029112D01*
X74602784Y-59009923D01*
X74637624Y-58983580D01*
X74655574Y-58933514D01*
X74639860Y-58854325D01*
X74606027Y-58781023D01*
X74561322Y-58751316D01*
X74516897Y-58750727D01*
X74464073Y-58765388D01*
X74143109Y-58589250D01*
X74110513Y-58518467D01*
X74071592Y-58487297D01*
X74016372Y-58486879D01*
X74034925Y-58456646D01*
X74055822Y-58382254D01*
X74054753Y-58291631D01*
X74031601Y-58233219D01*
X74001598Y-58184547D01*
X73955195Y-58147045D01*
X73878857Y-58150983D01*
X73782491Y-58214008D01*
X73752100Y-58315689D01*
X73781103Y-58363853D01*
X73814521Y-58425605D01*
X73810608Y-58511171D01*
X73752685Y-58569217D01*
X73435626Y-58672236D01*
X73384274Y-58691425D01*
X73348925Y-58718767D01*
X73242542Y-58282829D01*
X73315705Y-58267194D01*
X73384845Y-58235966D01*
X73417129Y-58199186D01*
X73406777Y-58074857D01*
X73342505Y-57977227D01*
X73292113Y-57969188D01*
X73218949Y-57984823D01*
X73166578Y-58006013D01*
X73130210Y-58035356D01*
X73110310Y-58085847D01*
X73123463Y-58163573D01*
X73155474Y-58237049D01*
X73192149Y-58274791D01*
X73242542Y-58282829D01*
X73348925Y-58718767D01*
X73332729Y-58769099D01*
X73347934Y-58849287D01*
X73407449Y-58945124D01*
X73481202Y-58951206D01*
X73524985Y-58936980D01*
X74054926Y-58764791D01*
X74106279Y-58745602D01*
X74140609Y-58720260D01*
X74158183Y-58670316D01*
X74143109Y-58589250D01*
X74464073Y-58765388D01*
X73562721Y-59058254D01*
X73511369Y-59077443D01*
X73477529Y-59104296D01*
X73460998Y-59157448D01*
X73478217Y-59245120D01*
X73523264Y-59320829D01*
X73590216Y-59338091D01*
X73560514Y-59431619D01*
X73575142Y-59538286D01*
X73616872Y-59621911D01*
X73683196Y-59691610D01*
X73774113Y-59747384D01*
X73877656Y-59782364D01*
X73981854Y-59789681D01*
X74086709Y-59769336D01*
X74183554Y-59724052D01*
X74263721Y-59656552D01*
X74327211Y-59566837D01*
X74368320Y-59467888D01*
X74381342Y-59372685D01*
X74366278Y-59281230D01*
X74757430Y-59668249D01*
X73856079Y-59961116D01*
X73804726Y-59980305D01*
X73770887Y-60007157D01*
X73754356Y-60060310D01*
X73771574Y-60147981D01*
X73816622Y-60223690D01*
X73883574Y-60240953D01*
X73853872Y-60334481D01*
X73868499Y-60441147D01*
X73910230Y-60524773D01*
X73976554Y-60594472D01*
X74067471Y-60650246D01*
X74171014Y-60685225D01*
X74275212Y-60692542D01*
X74380067Y-60672198D01*
X74476911Y-60626914D01*
X74557078Y-60559414D01*
X74620568Y-60469699D01*
X74661677Y-60370749D01*
X74674699Y-60275547D01*
X75173276Y-60968641D01*
X74198354Y-60834730D01*
X74113015Y-60834081D01*
X74068418Y-60872776D01*
X74043330Y-60953537D01*
X74043910Y-61042651D01*
X74073195Y-61086550D01*
X74110712Y-61104406D01*
X74163610Y-61113090D01*
X74352178Y-61138619D01*
X74488064Y-61556834D01*
X74350515Y-61688325D01*
X74314334Y-61725954D01*
X74295233Y-61762206D01*
X74296588Y-61815180D01*
X74348500Y-61887614D01*
X74415134Y-61938573D01*
X74473580Y-61943786D01*
X74542240Y-61893101D01*
X75253767Y-61211228D01*
X75293196Y-61142500D01*
X75291031Y-61063916D01*
X76019491Y-61441490D01*
X76177903Y-61929030D01*
X74020648Y-62629964D01*
X73862236Y-62142424D01*
X72578920Y-58192781D01*
X70126097Y-50643770D01*
X73700577Y-57828333D01*
X73648205Y-57849523D01*
X73611836Y-57878866D01*
X73591937Y-57929357D01*
X73605090Y-58007083D01*
X73637101Y-58080559D01*
X73673776Y-58118301D01*
X73724168Y-58126339D01*
X73797332Y-58110704D01*
X73866473Y-58079476D01*
X73898755Y-58042696D01*
X73888404Y-57918367D01*
X73823377Y-57820982D01*
X73700577Y-57828333D01*
X70126097Y-50643770D01*
X72283352Y-49942836D01*
X74736175Y-57491847D01*
X76019491Y-61441490D01*
G37*
%TO.C,kibuzzard-61B81406*%
G36*
X77860043Y-40943047D02*
G01*
X77854444Y-40935341D01*
X77835276Y-40869795D01*
X77873530Y-40807663D01*
X77953373Y-40787918D01*
X78024435Y-40823609D01*
X78030967Y-40832598D01*
X78047276Y-40898259D01*
X78008731Y-40958640D01*
X77930814Y-40976986D01*
X77860043Y-40943047D01*
G37*
G36*
X74522120Y-43346604D02*
G01*
X74443457Y-43340964D01*
X74431407Y-43277116D01*
X74482560Y-43212480D01*
X74590125Y-43186328D01*
X74683944Y-43229032D01*
X74522120Y-43346604D01*
G37*
G36*
X73225865Y-44355106D02*
G01*
X73247993Y-44455784D01*
X73191808Y-44548604D01*
X73087629Y-44571314D01*
X73000643Y-44517758D01*
X72974371Y-44418129D01*
X73029156Y-44323382D01*
X73137480Y-44299624D01*
X73225865Y-44355106D01*
G37*
G36*
X74010057Y-43903092D02*
G01*
X73954340Y-43996554D01*
X73850160Y-44019264D01*
X73763175Y-43965708D01*
X73736903Y-43866079D01*
X73792330Y-43770866D01*
X73900186Y-43746466D01*
X73987463Y-43801772D01*
X74010057Y-43903092D01*
G37*
G36*
X76314641Y-42110978D02*
G01*
X76336769Y-42211657D01*
X76280584Y-42304476D01*
X76176405Y-42327186D01*
X76089420Y-42273631D01*
X76063148Y-42174002D01*
X76117932Y-42079255D01*
X76226255Y-42055497D01*
X76314641Y-42110978D01*
G37*
G36*
X77098834Y-41658964D02*
G01*
X77043116Y-41752427D01*
X76938937Y-41775136D01*
X76851951Y-41721581D01*
X76825679Y-41621952D01*
X76881106Y-41526738D01*
X76988963Y-41502338D01*
X77076240Y-41557644D01*
X77098834Y-41658964D01*
G37*
G36*
X71208140Y-45961371D02*
G01*
X71147520Y-46053488D01*
X71039428Y-46082966D01*
X70978714Y-46066246D01*
X70927995Y-46018719D01*
X70898058Y-45956583D01*
X70899692Y-45896037D01*
X70963346Y-45802696D01*
X71072724Y-45772285D01*
X71131394Y-45790244D01*
X71181121Y-45837756D01*
X71210503Y-45899805D01*
X71208140Y-45961371D01*
G37*
G36*
X77694506Y-39470126D02*
G01*
X77766271Y-40301275D01*
X77669066Y-40342137D01*
X77578728Y-40397851D01*
X77497502Y-40462206D01*
X77427635Y-40528993D01*
X77369127Y-40598210D01*
X76832244Y-41236068D01*
X76749920Y-41278656D01*
X76677140Y-41356061D01*
X76648880Y-41450179D01*
X76452927Y-41180473D01*
X76418807Y-41137564D01*
X76382988Y-41112570D01*
X76329825Y-41110969D01*
X76259368Y-41150385D01*
X76200109Y-41205212D01*
X76185670Y-41256911D01*
X76198838Y-41299343D01*
X76229104Y-41345052D01*
X75988322Y-41831990D01*
X75919892Y-41905254D01*
X75890798Y-41970542D01*
X75886809Y-42013667D01*
X75818400Y-41980954D01*
X75733094Y-42015461D01*
X75664203Y-42077287D01*
X75649764Y-42128985D01*
X75662931Y-42171417D01*
X75693198Y-42217126D01*
X75638865Y-42344903D01*
X75614163Y-42256888D01*
X75565041Y-42224389D01*
X75484860Y-42219360D01*
X75387273Y-42247092D01*
X75355561Y-42296622D01*
X75359317Y-42373365D01*
X75426216Y-42819249D01*
X75022827Y-42617840D01*
X74975975Y-42597918D01*
X74937636Y-42592413D01*
X74888607Y-42611356D01*
X74837566Y-42689647D01*
X74817336Y-42767137D01*
X74832366Y-42822934D01*
X74909374Y-42874909D01*
X74871643Y-43009484D01*
X74774078Y-42948570D01*
X74663725Y-42918969D01*
X74549025Y-42919997D01*
X74438423Y-42950971D01*
X74331917Y-43011891D01*
X74254313Y-43080292D01*
X74200018Y-43155796D01*
X74169035Y-43238401D01*
X74161362Y-43328108D01*
X74179350Y-43421737D01*
X74223603Y-43505603D01*
X74283317Y-43567199D01*
X74347688Y-43594016D01*
X74461906Y-43568919D01*
X74766288Y-43347772D01*
X74767762Y-43438927D01*
X74700726Y-43524914D01*
X74631463Y-43569349D01*
X74572657Y-43594415D01*
X74554796Y-43599542D01*
X74493159Y-43622739D01*
X74464513Y-43731854D01*
X74490739Y-43803063D01*
X74544170Y-43840649D01*
X74621413Y-43839103D01*
X74722472Y-43798425D01*
X74847345Y-43718614D01*
X74931137Y-43645227D01*
X74992438Y-43563161D01*
X75030455Y-43477408D01*
X75044399Y-43392957D01*
X75036992Y-43288233D01*
X75007665Y-43191151D01*
X74956418Y-43101709D01*
X74871643Y-43009484D01*
X74909374Y-42874909D01*
X75506480Y-43137687D01*
X75576038Y-43147000D01*
X75644502Y-43123748D01*
X75687362Y-43072005D01*
X75702619Y-43018731D01*
X75703914Y-42996206D01*
X75638865Y-42344903D01*
X75693198Y-42217126D01*
X76019786Y-42666636D01*
X76053904Y-42709546D01*
X76089549Y-42735648D01*
X76138729Y-42738181D01*
X76201785Y-42705123D01*
X76282943Y-42619668D01*
X76273698Y-42548875D01*
X76374202Y-42553854D01*
X76481766Y-42501705D01*
X76545854Y-42437918D01*
X76589992Y-42354176D01*
X76614183Y-42250479D01*
X76615194Y-42140839D01*
X76589799Y-42039265D01*
X76537997Y-41945758D01*
X76465054Y-41867718D01*
X76376241Y-41812547D01*
X76271556Y-41780245D01*
X76165005Y-41772083D01*
X76070594Y-41789330D01*
X75988322Y-41831990D01*
X76229104Y-41345052D01*
X76786171Y-42111788D01*
X76820289Y-42154697D01*
X76856285Y-42178582D01*
X76911944Y-42177879D01*
X76990003Y-42134411D01*
X77048086Y-42068173D01*
X77043816Y-41999163D01*
X77141944Y-41998511D01*
X77238869Y-41951637D01*
X77305506Y-41886107D01*
X77351299Y-41801491D01*
X77376247Y-41697788D01*
X77377519Y-41588505D01*
X77352279Y-41487145D01*
X77300528Y-41393709D01*
X77227534Y-41315598D01*
X77138564Y-41260212D01*
X77033621Y-41227554D01*
X76926811Y-41219034D01*
X76832244Y-41236068D01*
X77369127Y-40598210D01*
X77301103Y-40707481D01*
X77255514Y-40824000D01*
X77236649Y-40947592D01*
X77248799Y-41078085D01*
X77273235Y-41164985D01*
X77309669Y-41247093D01*
X77358102Y-41324407D01*
X77441156Y-41422517D01*
X77527026Y-41492091D01*
X77613403Y-41536032D01*
X77697982Y-41557242D01*
X77806267Y-41559238D01*
X77903774Y-41536797D01*
X77990503Y-41489920D01*
X78058873Y-41420623D01*
X78094453Y-41335905D01*
X78092747Y-41244429D01*
X78049254Y-41154859D01*
X78024291Y-41125901D01*
X78099894Y-41123953D01*
X78174756Y-41087223D01*
X78233685Y-41020125D01*
X78261494Y-40927073D01*
X78254349Y-40825075D01*
X78208423Y-40731141D01*
X78146491Y-40665705D01*
X78071425Y-40621805D01*
X77983225Y-40599436D01*
X77856866Y-40600733D01*
X77762089Y-40639423D01*
X77704475Y-40700904D01*
X77689605Y-40770576D01*
X77636100Y-40749600D01*
X77564656Y-40780905D01*
X77515374Y-40837312D01*
X77521716Y-40879799D01*
X77551811Y-40915821D01*
X77834354Y-41212880D01*
X77892798Y-41274417D01*
X77898563Y-41302606D01*
X77872580Y-41330314D01*
X77829034Y-41354103D01*
X77769328Y-41365104D01*
X77694694Y-41355556D01*
X77607763Y-41308828D01*
X77529021Y-41224755D01*
X77469018Y-41124615D01*
X77438310Y-41029681D01*
X77433479Y-40939983D01*
X77451114Y-40855548D01*
X77503096Y-40750192D01*
X77578638Y-40654755D01*
X77677737Y-40569237D01*
X77789244Y-40504247D01*
X77902007Y-40470395D01*
X78016027Y-40467681D01*
X78124630Y-40496373D01*
X78221144Y-40556742D01*
X78305569Y-40648786D01*
X78369744Y-40755870D01*
X78405506Y-40861360D01*
X78412855Y-40965253D01*
X78388446Y-41064748D01*
X78328935Y-41157041D01*
X78234323Y-41242133D01*
X78209921Y-41259862D01*
X78177627Y-41305892D01*
X78205083Y-41369339D01*
X78252386Y-41422292D01*
X78289556Y-41431589D01*
X78352246Y-41401739D01*
X78452998Y-41315233D01*
X78529215Y-41219938D01*
X78580897Y-41115856D01*
X78608043Y-41002987D01*
X78610390Y-40885692D01*
X78587671Y-40768336D01*
X78539889Y-40650915D01*
X78467042Y-40533432D01*
X78385931Y-40439198D01*
X78294383Y-40365409D01*
X78192400Y-40312067D01*
X78085147Y-40279231D01*
X77977794Y-40266964D01*
X77870341Y-40275264D01*
X77766271Y-40301275D01*
X77694506Y-39470126D01*
X78109232Y-39168810D01*
X78210329Y-39102686D01*
X78317421Y-39046788D01*
X78429476Y-39001657D01*
X78545415Y-38967727D01*
X78664122Y-38945324D01*
X78784452Y-38934665D01*
X78905248Y-38935850D01*
X79025347Y-38948870D01*
X79143591Y-38973599D01*
X79258841Y-39009800D01*
X79369989Y-39057122D01*
X79475962Y-39115112D01*
X79575741Y-39183208D01*
X79668366Y-39260757D01*
X79752943Y-39347011D01*
X79828659Y-39441141D01*
X79894784Y-39542239D01*
X79950681Y-39649330D01*
X79995811Y-39761385D01*
X80029742Y-39877324D01*
X80052145Y-39996030D01*
X80062805Y-40116361D01*
X80061620Y-40237157D01*
X80048599Y-40357256D01*
X80023869Y-40475500D01*
X79987669Y-40590750D01*
X79940347Y-40701897D01*
X79882358Y-40807872D01*
X79814262Y-40907651D01*
X79736712Y-41000275D01*
X79650457Y-41084852D01*
X79556329Y-41160568D01*
X79141602Y-41461884D01*
X71371500Y-47107194D01*
X71601133Y-45812221D01*
X71612380Y-45845256D01*
X71712846Y-45899811D01*
X71829096Y-45897766D01*
X71880379Y-45803600D01*
X71886690Y-45785279D01*
X71899878Y-45724433D01*
X71915824Y-45633622D01*
X71932179Y-45542023D01*
X71946595Y-45478814D01*
X72018444Y-45577705D01*
X72052563Y-45620615D01*
X72089491Y-45645785D01*
X72140758Y-45646801D01*
X72212645Y-45607328D01*
X72271524Y-45551303D01*
X72286342Y-45500802D01*
X72272532Y-45458836D01*
X72242266Y-45413128D01*
X71683333Y-44643823D01*
X71649215Y-44600913D01*
X71613571Y-44574811D01*
X71560641Y-44573531D01*
X71488200Y-44612917D01*
X71416730Y-44698202D01*
X71434669Y-44771508D01*
X71459512Y-44808401D01*
X71755307Y-45215529D01*
X71637724Y-45200884D01*
X71520140Y-45186238D01*
X71497263Y-45187161D01*
X71395010Y-45208471D01*
X71358953Y-45314139D01*
X71376465Y-45426020D01*
X71474373Y-45460847D01*
X71679901Y-45476352D01*
X71611730Y-45741730D01*
X71601133Y-45812221D01*
X71371500Y-47107194D01*
X70836368Y-47495990D01*
X70702538Y-46186448D01*
X70789476Y-46277075D01*
X70895397Y-46335761D01*
X71008817Y-46363243D01*
X71118254Y-46360261D01*
X71220028Y-46331204D01*
X71310463Y-46280461D01*
X71386362Y-46209374D01*
X71444530Y-46119283D01*
X71480338Y-46014285D01*
X71489162Y-45898479D01*
X71466998Y-45781884D01*
X71409844Y-45674522D01*
X71327563Y-45586480D01*
X71230017Y-45527842D01*
X71117206Y-45498609D01*
X71001425Y-45497698D01*
X70894968Y-45524025D01*
X70797835Y-45577589D01*
X70716967Y-45653241D01*
X70659304Y-45745827D01*
X70624847Y-45855347D01*
X70618243Y-45970795D01*
X70644140Y-46081162D01*
X70702538Y-46186448D01*
X70836368Y-47495990D01*
X70735271Y-47562114D01*
X70628179Y-47618012D01*
X70516124Y-47663143D01*
X70400185Y-47697073D01*
X70281478Y-47719476D01*
X70161148Y-47730135D01*
X70040352Y-47728950D01*
X69920253Y-47715930D01*
X69802010Y-47691200D01*
X69686759Y-47655000D01*
X69575611Y-47607678D01*
X69469638Y-47549688D01*
X69369859Y-47481592D01*
X69277234Y-47404043D01*
X69192657Y-47317789D01*
X69116941Y-47223659D01*
X69050816Y-47122561D01*
X68994919Y-47015470D01*
X68949789Y-46903415D01*
X68915858Y-46787476D01*
X68893455Y-46668770D01*
X68882795Y-46548439D01*
X68883981Y-46427642D01*
X68897001Y-46307544D01*
X68921731Y-46189300D01*
X73140328Y-43589179D01*
X73697395Y-44355915D01*
X73526418Y-44384967D01*
X73501023Y-44283393D01*
X73449220Y-44189885D01*
X73376277Y-44111846D01*
X73287464Y-44056675D01*
X73182779Y-44024372D01*
X73076229Y-44016210D01*
X72981817Y-44033458D01*
X72899545Y-44076117D01*
X72831115Y-44149382D01*
X72802022Y-44214669D01*
X72798033Y-44257794D01*
X72729624Y-44225081D01*
X72644317Y-44259588D01*
X72575426Y-44321414D01*
X72560987Y-44373113D01*
X72574155Y-44415544D01*
X72604422Y-44461253D01*
X72828265Y-44985412D01*
X72500744Y-44534618D01*
X72466624Y-44491709D01*
X72431914Y-44466890D01*
X72378984Y-44465610D01*
X72306543Y-44504996D01*
X72249298Y-44557870D01*
X72231681Y-44604519D01*
X72248346Y-44657165D01*
X72213861Y-44648862D01*
X72136652Y-44651976D01*
X72050794Y-44680998D01*
X72002396Y-44721066D01*
X71965377Y-44764641D01*
X71944049Y-44820363D01*
X71971386Y-44891747D01*
X72061105Y-44963920D01*
X72167201Y-44961403D01*
X72204044Y-44918937D01*
X72252448Y-44868072D01*
X72335034Y-44845352D01*
X72408139Y-44882502D01*
X72604092Y-45152208D01*
X72638210Y-45195117D01*
X72675139Y-45220287D01*
X72728011Y-45220137D01*
X72799576Y-45180897D01*
X72872331Y-45094678D01*
X72855325Y-45022657D01*
X72828265Y-44985412D01*
X72604422Y-44461253D01*
X72931010Y-44910763D01*
X72965128Y-44953673D01*
X73000773Y-44979776D01*
X73049952Y-44982308D01*
X73113009Y-44949250D01*
X73194167Y-44863795D01*
X73184922Y-44793002D01*
X73285426Y-44797981D01*
X73392989Y-44745832D01*
X73457077Y-44682045D01*
X73501216Y-44598304D01*
X73525406Y-44494607D01*
X73526418Y-44384967D01*
X73697395Y-44355915D01*
X73731513Y-44398824D01*
X73767508Y-44422710D01*
X73823167Y-44422007D01*
X73901227Y-44378538D01*
X73959309Y-44312301D01*
X73955039Y-44243291D01*
X74053168Y-44242638D01*
X74150093Y-44195764D01*
X74216729Y-44130234D01*
X74262523Y-44045618D01*
X74287472Y-43941915D01*
X74288742Y-43832632D01*
X74263503Y-43731272D01*
X74211752Y-43637836D01*
X74138758Y-43559725D01*
X74049788Y-43504339D01*
X73944845Y-43471681D01*
X73838035Y-43463162D01*
X73743468Y-43480195D01*
X73661144Y-43522783D01*
X73588363Y-43600189D01*
X73560103Y-43694307D01*
X73364150Y-43424601D01*
X73330031Y-43381691D01*
X73294211Y-43356697D01*
X73241049Y-43355096D01*
X73170592Y-43394512D01*
X73111333Y-43449340D01*
X73096894Y-43501039D01*
X73110062Y-43543470D01*
X73140328Y-43589179D01*
X68921731Y-46189300D01*
X68957931Y-46074050D01*
X69005253Y-45962903D01*
X69063242Y-45856928D01*
X69131338Y-45757149D01*
X69208888Y-45664525D01*
X69295143Y-45579948D01*
X69389271Y-45504232D01*
X69924403Y-45115436D01*
X77694506Y-39470126D01*
G37*
D10*
%TO.C,U1*%
X87184000Y-53550500D02*
X87184000Y-54100500D01*
X80964000Y-47880500D02*
X81514000Y-47880500D01*
X80964000Y-48430500D02*
X80964000Y-47880500D01*
X80964000Y-54100500D02*
X81514000Y-54100500D01*
X80964000Y-53550500D02*
X80964000Y-54100500D01*
X87184000Y-47880500D02*
X86634000Y-47880500D01*
X87184000Y-48430500D02*
X87184000Y-47880500D01*
D13*
%TO.C,U3*%
G36*
X83129839Y-37719951D02*
G01*
X83084864Y-37751263D01*
X83066996Y-37832344D01*
X83061916Y-37894683D01*
X83048899Y-38074600D01*
X83397302Y-38074600D01*
X83384284Y-37894683D01*
X83371854Y-37781893D01*
X83342315Y-37730031D01*
X83274488Y-37715458D01*
X83223100Y-37714767D01*
X83129839Y-37719951D01*
G37*
X83129839Y-37719951D02*
X83084864Y-37751263D01*
X83066996Y-37832344D01*
X83061916Y-37894683D01*
X83048899Y-38074600D01*
X83397302Y-38074600D01*
X83384284Y-37894683D01*
X83371854Y-37781893D01*
X83342315Y-37730031D01*
X83274488Y-37715458D01*
X83223100Y-37714767D01*
X83129839Y-37719951D01*
G36*
X84956278Y-37742252D02*
G01*
X84887759Y-37822526D01*
X84887477Y-37952316D01*
X84889840Y-37962214D01*
X84919379Y-38035342D01*
X84977132Y-38067504D01*
X85089007Y-38074600D01*
X85259968Y-38074600D01*
X85246951Y-37894683D01*
X85234400Y-37781853D01*
X85204915Y-37729979D01*
X85137930Y-37715432D01*
X85090381Y-37714767D01*
X84956278Y-37742252D01*
G37*
X84956278Y-37742252D02*
X84887759Y-37822526D01*
X84887477Y-37952316D01*
X84889840Y-37962214D01*
X84919379Y-38035342D01*
X84977132Y-38067504D01*
X85089007Y-38074600D01*
X85259968Y-38074600D01*
X85246951Y-37894683D01*
X85234400Y-37781853D01*
X85204915Y-37729979D01*
X85137930Y-37715432D01*
X85090381Y-37714767D01*
X84956278Y-37742252D01*
G36*
X84206186Y-35134834D02*
G01*
X84176463Y-35157969D01*
X84153767Y-35187530D01*
X84137152Y-35234249D01*
X84125669Y-35308861D01*
X84118371Y-35422099D01*
X84114310Y-35584697D01*
X84112539Y-35807389D01*
X84112109Y-36100908D01*
X84112100Y-36200546D01*
X84112100Y-37200358D01*
X84016850Y-37113603D01*
X83876594Y-37007496D01*
X83729292Y-36950971D01*
X83540763Y-36931967D01*
X83501050Y-36931600D01*
X83265433Y-36931600D01*
X83265433Y-36718247D01*
X83232553Y-36465539D01*
X83135448Y-36264209D01*
X82976417Y-36118283D01*
X82899361Y-36077812D01*
X82799899Y-36039686D01*
X82695795Y-36016129D01*
X82565351Y-36004863D01*
X82386866Y-36003609D01*
X82227652Y-36007294D01*
X81984198Y-36018723D01*
X81806409Y-36041180D01*
X81675368Y-36081876D01*
X81572161Y-36148025D01*
X81477872Y-36246839D01*
X81426733Y-36312657D01*
X81369768Y-36438154D01*
X81332982Y-36616787D01*
X81317951Y-36819093D01*
X81326254Y-37015610D01*
X81359466Y-37176876D01*
X81378108Y-37221181D01*
X81496885Y-37366406D01*
X81660843Y-37453717D01*
X81849036Y-37478076D01*
X82040518Y-37434440D01*
X82111850Y-37397730D01*
X82249433Y-37313844D01*
X82249433Y-37822582D01*
X82255753Y-38110564D01*
X82276543Y-38327350D01*
X82314556Y-38485594D01*
X82372542Y-38597953D01*
X82431510Y-38660318D01*
X82471588Y-38705369D01*
X82456486Y-38750649D01*
X82397543Y-38808485D01*
X82328553Y-38902780D01*
X82264630Y-39044336D01*
X82213039Y-39207061D01*
X82181045Y-39364865D01*
X82175912Y-39491658D01*
X82191797Y-39547370D01*
X82245645Y-39601318D01*
X82352209Y-39687087D01*
X82492563Y-39791376D01*
X82647781Y-39900884D01*
X82798939Y-40002309D01*
X82927110Y-40082351D01*
X83013369Y-40127709D01*
X83022017Y-40130859D01*
X83076196Y-40179412D01*
X83095736Y-40288856D01*
X83096100Y-40313740D01*
X83101222Y-40395785D01*
X83123714Y-40466134D01*
X83174267Y-40536429D01*
X83263572Y-40618315D01*
X83402319Y-40723434D01*
X83600156Y-40862706D01*
X83757176Y-40968394D01*
X83871684Y-41033054D01*
X83968800Y-41066594D01*
X84073643Y-41078925D01*
X84151614Y-41080267D01*
X84269451Y-41076363D01*
X84365527Y-41058301D01*
X84463297Y-41016556D01*
X84586221Y-40941601D01*
X84722731Y-40848332D01*
X84916939Y-40711681D01*
X85051775Y-40610709D01*
X85138096Y-40533806D01*
X85186761Y-40469361D01*
X85208626Y-40405765D01*
X85214551Y-40331409D01*
X85214693Y-40322289D01*
X85220045Y-40248568D01*
X85243080Y-40190041D01*
X85297533Y-40132182D01*
X85397141Y-40060464D01*
X85555639Y-39960361D01*
X85558754Y-39958433D01*
X85791121Y-39810821D01*
X85957172Y-39695216D01*
X86065569Y-39604300D01*
X86124974Y-39530751D01*
X86144049Y-39467250D01*
X86144100Y-39463769D01*
X86137066Y-39410166D01*
X85875621Y-39410166D01*
X85848913Y-39461707D01*
X85780235Y-39525143D01*
X85657529Y-39612844D01*
X85563041Y-39675646D01*
X85413021Y-39771092D01*
X85287196Y-39845527D01*
X85203700Y-39888495D01*
X85182785Y-39894933D01*
X85147610Y-39857466D01*
X85107831Y-39761513D01*
X85085767Y-39683267D01*
X85042642Y-39549789D01*
X84995192Y-39478983D01*
X84975711Y-39471600D01*
X84941753Y-39488962D01*
X84923525Y-39548315D01*
X84920577Y-39660557D01*
X84932461Y-39836589D01*
X84952598Y-40032934D01*
X84965137Y-40183460D01*
X84967263Y-40301449D01*
X84958705Y-40360700D01*
X84909222Y-40409536D01*
X84810767Y-40487524D01*
X84683485Y-40580622D01*
X84547521Y-40674789D01*
X84423019Y-40755984D01*
X84330127Y-40810165D01*
X84293092Y-40824636D01*
X84271669Y-40800824D01*
X84255246Y-40722511D01*
X84243056Y-40581663D01*
X84234332Y-40370247D01*
X84229592Y-40160053D01*
X84224170Y-39905817D01*
X84217240Y-39724114D01*
X84207338Y-39602807D01*
X84193003Y-39529762D01*
X84172772Y-39492845D01*
X84147694Y-39480356D01*
X84120708Y-39483184D01*
X84100956Y-39511475D01*
X84086882Y-39577010D01*
X84076932Y-39691573D01*
X84069550Y-39866947D01*
X84063183Y-40114916D01*
X84063028Y-40121952D01*
X84056252Y-40349472D01*
X84047044Y-40546532D01*
X84036380Y-40697856D01*
X84025237Y-40788167D01*
X84019279Y-40806276D01*
X83974634Y-40795893D01*
X83877924Y-40744415D01*
X83745215Y-40661009D01*
X83647287Y-40594035D01*
X83473964Y-40465698D01*
X83368697Y-40371845D01*
X83325213Y-40306416D01*
X83324672Y-40282491D01*
X83336953Y-40209970D01*
X83352355Y-40077196D01*
X83368188Y-39908383D01*
X83373587Y-39842017D01*
X83385667Y-39662250D01*
X83386729Y-39551114D01*
X83375255Y-39493103D01*
X83349726Y-39472716D01*
X83337304Y-39471600D01*
X83281161Y-39510382D01*
X83242237Y-39609183D01*
X83208205Y-39761004D01*
X83175577Y-39853481D01*
X83129509Y-39889487D01*
X83055153Y-39871901D01*
X82937666Y-39803597D01*
X82779352Y-39698856D01*
X82628749Y-39594801D01*
X82509007Y-39504781D01*
X82435140Y-39440520D01*
X82418767Y-39417240D01*
X82432572Y-39333152D01*
X82466327Y-39209850D01*
X82508543Y-39083800D01*
X82547730Y-38991468D01*
X82558362Y-38974183D01*
X82589109Y-38959548D01*
X82661352Y-38947650D01*
X82781652Y-38938269D01*
X82956569Y-38931183D01*
X83192661Y-38926171D01*
X83496489Y-38923014D01*
X83874612Y-38921489D01*
X84130359Y-38921267D01*
X84545944Y-38921422D01*
X84884949Y-38922595D01*
X85155460Y-38925849D01*
X85365563Y-38932247D01*
X85523345Y-38942852D01*
X85636892Y-38958725D01*
X85714290Y-38980929D01*
X85763626Y-39010527D01*
X85792986Y-39048582D01*
X85810456Y-39096156D01*
X85821694Y-39143517D01*
X85851149Y-39270627D01*
X85872412Y-39358146D01*
X85875621Y-39410166D01*
X86137066Y-39410166D01*
X86126063Y-39326318D01*
X86079585Y-39158420D01*
X86016119Y-38991954D01*
X85947118Y-38858798D01*
X85908976Y-38809294D01*
X85849882Y-38731318D01*
X85853906Y-38684669D01*
X85854908Y-38684020D01*
X85932455Y-38592819D01*
X85993555Y-38437318D01*
X86036735Y-38236546D01*
X86060522Y-38009534D01*
X86062377Y-37860845D01*
X85805433Y-37860845D01*
X85799276Y-38133177D01*
X85773394Y-38332551D01*
X85716673Y-38469759D01*
X85617997Y-38555593D01*
X85466252Y-38600843D01*
X85250323Y-38616302D01*
X85029099Y-38614595D01*
X84825949Y-38608802D01*
X84689132Y-38600041D01*
X84600324Y-38584079D01*
X84541201Y-38556683D01*
X84493439Y-38513617D01*
X84468182Y-38484989D01*
X84366100Y-38366212D01*
X84366100Y-37877041D01*
X83942767Y-37877041D01*
X83937712Y-38142490D01*
X83915050Y-38336721D01*
X83863534Y-38470402D01*
X83771918Y-38554203D01*
X83628954Y-38598793D01*
X83423396Y-38614842D01*
X83166432Y-38613508D01*
X82963333Y-38608212D01*
X82826575Y-38599816D01*
X82737840Y-38584124D01*
X82678811Y-38556938D01*
X82631168Y-38514061D01*
X82605515Y-38484989D01*
X82567781Y-38437682D01*
X82540713Y-38387909D01*
X82522541Y-38321499D01*
X82511496Y-38224282D01*
X82505811Y-38082089D01*
X82503715Y-37880749D01*
X82503433Y-37667289D01*
X82501020Y-37427533D01*
X82494349Y-37213579D01*
X82484273Y-37041495D01*
X82471643Y-36927347D01*
X82462276Y-36891464D01*
X82379096Y-36800311D01*
X82280518Y-36780426D01*
X82186352Y-36826081D01*
X82116411Y-36931545D01*
X82098162Y-36996761D01*
X82041279Y-37136600D01*
X81931873Y-37211482D01*
X81810740Y-37227933D01*
X81698122Y-37207683D01*
X81624948Y-37139495D01*
X81585022Y-37012216D01*
X81572148Y-36814690D01*
X81572100Y-36798320D01*
X81575339Y-36636905D01*
X81590451Y-36532579D01*
X81625531Y-36457847D01*
X81688674Y-36385217D01*
X81695844Y-36378010D01*
X81753146Y-36323879D01*
X81808023Y-36288405D01*
X81879244Y-36267647D01*
X81985578Y-36257664D01*
X82145798Y-36254515D01*
X82285262Y-36254267D01*
X82492647Y-36255615D01*
X82634479Y-36261915D01*
X82729857Y-36276546D01*
X82797882Y-36302888D01*
X82857653Y-36344322D01*
X82874970Y-36358633D01*
X82942336Y-36424964D01*
X82984008Y-36500762D01*
X83009621Y-36611818D01*
X83027175Y-36766121D01*
X83043516Y-36919337D01*
X83060083Y-37038090D01*
X83073486Y-37098364D01*
X83074309Y-37099923D01*
X83122626Y-37117643D01*
X83233608Y-37136988D01*
X83385414Y-37154343D01*
X83422769Y-37157588D01*
X83598003Y-37175603D01*
X83711957Y-37199627D01*
X83788005Y-37237129D01*
X83847517Y-37293280D01*
X83889431Y-37348375D01*
X83916922Y-37411461D01*
X83932977Y-37500844D01*
X83940584Y-37634832D01*
X83942730Y-37831733D01*
X83942767Y-37877041D01*
X84366100Y-37877041D01*
X84366100Y-36844573D01*
X84366180Y-36445947D01*
X84366741Y-36123835D01*
X84368262Y-35870082D01*
X84371225Y-35676536D01*
X84376109Y-35535044D01*
X84383395Y-35437451D01*
X84393564Y-35375605D01*
X84407095Y-35341351D01*
X84424469Y-35326538D01*
X84446166Y-35323010D01*
X84455747Y-35322933D01*
X84534867Y-35351611D01*
X84640935Y-35425162D01*
X84709747Y-35487286D01*
X84874100Y-35651639D01*
X84874100Y-36288864D01*
X84876619Y-36520662D01*
X84883548Y-36729130D01*
X84893948Y-36896373D01*
X84906878Y-37004496D01*
X84912940Y-37028244D01*
X84941881Y-37082127D01*
X84991799Y-37116073D01*
X85082989Y-37137513D01*
X85235744Y-37153875D01*
X85262190Y-37156100D01*
X85429588Y-37173558D01*
X85538510Y-37198273D01*
X85615114Y-37239759D01*
X85685560Y-37307534D01*
X85689017Y-37311368D01*
X85742488Y-37375975D01*
X85776466Y-37439654D01*
X85795350Y-37523160D01*
X85803536Y-37647248D01*
X85805422Y-37832674D01*
X85805433Y-37860845D01*
X86062377Y-37860845D01*
X86063445Y-37775313D01*
X86044029Y-37552913D01*
X86000804Y-37361364D01*
X85964183Y-37271785D01*
X85833651Y-37093274D01*
X85656610Y-36981810D01*
X85426990Y-36934027D01*
X85351011Y-36931600D01*
X85128100Y-36931600D01*
X85128100Y-36320522D01*
X85125610Y-36040904D01*
X85115755Y-35830101D01*
X85094956Y-35672345D01*
X85059634Y-35551870D01*
X85006211Y-35452908D01*
X84931107Y-35359692D01*
X84903254Y-35329905D01*
X84714041Y-35169568D01*
X84527768Y-35083467D01*
X84352251Y-35073791D01*
X84206186Y-35134834D01*
G37*
X84206186Y-35134834D02*
X84176463Y-35157969D01*
X84153767Y-35187530D01*
X84137152Y-35234249D01*
X84125669Y-35308861D01*
X84118371Y-35422099D01*
X84114310Y-35584697D01*
X84112539Y-35807389D01*
X84112109Y-36100908D01*
X84112100Y-36200546D01*
X84112100Y-37200358D01*
X84016850Y-37113603D01*
X83876594Y-37007496D01*
X83729292Y-36950971D01*
X83540763Y-36931967D01*
X83501050Y-36931600D01*
X83265433Y-36931600D01*
X83265433Y-36718247D01*
X83232553Y-36465539D01*
X83135448Y-36264209D01*
X82976417Y-36118283D01*
X82899361Y-36077812D01*
X82799899Y-36039686D01*
X82695795Y-36016129D01*
X82565351Y-36004863D01*
X82386866Y-36003609D01*
X82227652Y-36007294D01*
X81984198Y-36018723D01*
X81806409Y-36041180D01*
X81675368Y-36081876D01*
X81572161Y-36148025D01*
X81477872Y-36246839D01*
X81426733Y-36312657D01*
X81369768Y-36438154D01*
X81332982Y-36616787D01*
X81317951Y-36819093D01*
X81326254Y-37015610D01*
X81359466Y-37176876D01*
X81378108Y-37221181D01*
X81496885Y-37366406D01*
X81660843Y-37453717D01*
X81849036Y-37478076D01*
X82040518Y-37434440D01*
X82111850Y-37397730D01*
X82249433Y-37313844D01*
X82249433Y-37822582D01*
X82255753Y-38110564D01*
X82276543Y-38327350D01*
X82314556Y-38485594D01*
X82372542Y-38597953D01*
X82431510Y-38660318D01*
X82471588Y-38705369D01*
X82456486Y-38750649D01*
X82397543Y-38808485D01*
X82328553Y-38902780D01*
X82264630Y-39044336D01*
X82213039Y-39207061D01*
X82181045Y-39364865D01*
X82175912Y-39491658D01*
X82191797Y-39547370D01*
X82245645Y-39601318D01*
X82352209Y-39687087D01*
X82492563Y-39791376D01*
X82647781Y-39900884D01*
X82798939Y-40002309D01*
X82927110Y-40082351D01*
X83013369Y-40127709D01*
X83022017Y-40130859D01*
X83076196Y-40179412D01*
X83095736Y-40288856D01*
X83096100Y-40313740D01*
X83101222Y-40395785D01*
X83123714Y-40466134D01*
X83174267Y-40536429D01*
X83263572Y-40618315D01*
X83402319Y-40723434D01*
X83600156Y-40862706D01*
X83757176Y-40968394D01*
X83871684Y-41033054D01*
X83968800Y-41066594D01*
X84073643Y-41078925D01*
X84151614Y-41080267D01*
X84269451Y-41076363D01*
X84365527Y-41058301D01*
X84463297Y-41016556D01*
X84586221Y-40941601D01*
X84722731Y-40848332D01*
X84916939Y-40711681D01*
X85051775Y-40610709D01*
X85138096Y-40533806D01*
X85186761Y-40469361D01*
X85208626Y-40405765D01*
X85214551Y-40331409D01*
X85214693Y-40322289D01*
X85220045Y-40248568D01*
X85243080Y-40190041D01*
X85297533Y-40132182D01*
X85397141Y-40060464D01*
X85555639Y-39960361D01*
X85558754Y-39958433D01*
X85791121Y-39810821D01*
X85957172Y-39695216D01*
X86065569Y-39604300D01*
X86124974Y-39530751D01*
X86144049Y-39467250D01*
X86144100Y-39463769D01*
X86137066Y-39410166D01*
X85875621Y-39410166D01*
X85848913Y-39461707D01*
X85780235Y-39525143D01*
X85657529Y-39612844D01*
X85563041Y-39675646D01*
X85413021Y-39771092D01*
X85287196Y-39845527D01*
X85203700Y-39888495D01*
X85182785Y-39894933D01*
X85147610Y-39857466D01*
X85107831Y-39761513D01*
X85085767Y-39683267D01*
X85042642Y-39549789D01*
X84995192Y-39478983D01*
X84975711Y-39471600D01*
X84941753Y-39488962D01*
X84923525Y-39548315D01*
X84920577Y-39660557D01*
X84932461Y-39836589D01*
X84952598Y-40032934D01*
X84965137Y-40183460D01*
X84967263Y-40301449D01*
X84958705Y-40360700D01*
X84909222Y-40409536D01*
X84810767Y-40487524D01*
X84683485Y-40580622D01*
X84547521Y-40674789D01*
X84423019Y-40755984D01*
X84330127Y-40810165D01*
X84293092Y-40824636D01*
X84271669Y-40800824D01*
X84255246Y-40722511D01*
X84243056Y-40581663D01*
X84234332Y-40370247D01*
X84229592Y-40160053D01*
X84224170Y-39905817D01*
X84217240Y-39724114D01*
X84207338Y-39602807D01*
X84193003Y-39529762D01*
X84172772Y-39492845D01*
X84147694Y-39480356D01*
X84120708Y-39483184D01*
X84100956Y-39511475D01*
X84086882Y-39577010D01*
X84076932Y-39691573D01*
X84069550Y-39866947D01*
X84063183Y-40114916D01*
X84063028Y-40121952D01*
X84056252Y-40349472D01*
X84047044Y-40546532D01*
X84036380Y-40697856D01*
X84025237Y-40788167D01*
X84019279Y-40806276D01*
X83974634Y-40795893D01*
X83877924Y-40744415D01*
X83745215Y-40661009D01*
X83647287Y-40594035D01*
X83473964Y-40465698D01*
X83368697Y-40371845D01*
X83325213Y-40306416D01*
X83324672Y-40282491D01*
X83336953Y-40209970D01*
X83352355Y-40077196D01*
X83368188Y-39908383D01*
X83373587Y-39842017D01*
X83385667Y-39662250D01*
X83386729Y-39551114D01*
X83375255Y-39493103D01*
X83349726Y-39472716D01*
X83337304Y-39471600D01*
X83281161Y-39510382D01*
X83242237Y-39609183D01*
X83208205Y-39761004D01*
X83175577Y-39853481D01*
X83129509Y-39889487D01*
X83055153Y-39871901D01*
X82937666Y-39803597D01*
X82779352Y-39698856D01*
X82628749Y-39594801D01*
X82509007Y-39504781D01*
X82435140Y-39440520D01*
X82418767Y-39417240D01*
X82432572Y-39333152D01*
X82466327Y-39209850D01*
X82508543Y-39083800D01*
X82547730Y-38991468D01*
X82558362Y-38974183D01*
X82589109Y-38959548D01*
X82661352Y-38947650D01*
X82781652Y-38938269D01*
X82956569Y-38931183D01*
X83192661Y-38926171D01*
X83496489Y-38923014D01*
X83874612Y-38921489D01*
X84130359Y-38921267D01*
X84545944Y-38921422D01*
X84884949Y-38922595D01*
X85155460Y-38925849D01*
X85365563Y-38932247D01*
X85523345Y-38942852D01*
X85636892Y-38958725D01*
X85714290Y-38980929D01*
X85763626Y-39010527D01*
X85792986Y-39048582D01*
X85810456Y-39096156D01*
X85821694Y-39143517D01*
X85851149Y-39270627D01*
X85872412Y-39358146D01*
X85875621Y-39410166D01*
X86137066Y-39410166D01*
X86126063Y-39326318D01*
X86079585Y-39158420D01*
X86016119Y-38991954D01*
X85947118Y-38858798D01*
X85908976Y-38809294D01*
X85849882Y-38731318D01*
X85853906Y-38684669D01*
X85854908Y-38684020D01*
X85932455Y-38592819D01*
X85993555Y-38437318D01*
X86036735Y-38236546D01*
X86060522Y-38009534D01*
X86062377Y-37860845D01*
X85805433Y-37860845D01*
X85799276Y-38133177D01*
X85773394Y-38332551D01*
X85716673Y-38469759D01*
X85617997Y-38555593D01*
X85466252Y-38600843D01*
X85250323Y-38616302D01*
X85029099Y-38614595D01*
X84825949Y-38608802D01*
X84689132Y-38600041D01*
X84600324Y-38584079D01*
X84541201Y-38556683D01*
X84493439Y-38513617D01*
X84468182Y-38484989D01*
X84366100Y-38366212D01*
X84366100Y-37877041D01*
X83942767Y-37877041D01*
X83937712Y-38142490D01*
X83915050Y-38336721D01*
X83863534Y-38470402D01*
X83771918Y-38554203D01*
X83628954Y-38598793D01*
X83423396Y-38614842D01*
X83166432Y-38613508D01*
X82963333Y-38608212D01*
X82826575Y-38599816D01*
X82737840Y-38584124D01*
X82678811Y-38556938D01*
X82631168Y-38514061D01*
X82605515Y-38484989D01*
X82567781Y-38437682D01*
X82540713Y-38387909D01*
X82522541Y-38321499D01*
X82511496Y-38224282D01*
X82505811Y-38082089D01*
X82503715Y-37880749D01*
X82503433Y-37667289D01*
X82501020Y-37427533D01*
X82494349Y-37213579D01*
X82484273Y-37041495D01*
X82471643Y-36927347D01*
X82462276Y-36891464D01*
X82379096Y-36800311D01*
X82280518Y-36780426D01*
X82186352Y-36826081D01*
X82116411Y-36931545D01*
X82098162Y-36996761D01*
X82041279Y-37136600D01*
X81931873Y-37211482D01*
X81810740Y-37227933D01*
X81698122Y-37207683D01*
X81624948Y-37139495D01*
X81585022Y-37012216D01*
X81572148Y-36814690D01*
X81572100Y-36798320D01*
X81575339Y-36636905D01*
X81590451Y-36532579D01*
X81625531Y-36457847D01*
X81688674Y-36385217D01*
X81695844Y-36378010D01*
X81753146Y-36323879D01*
X81808023Y-36288405D01*
X81879244Y-36267647D01*
X81985578Y-36257664D01*
X82145798Y-36254515D01*
X82285262Y-36254267D01*
X82492647Y-36255615D01*
X82634479Y-36261915D01*
X82729857Y-36276546D01*
X82797882Y-36302888D01*
X82857653Y-36344322D01*
X82874970Y-36358633D01*
X82942336Y-36424964D01*
X82984008Y-36500762D01*
X83009621Y-36611818D01*
X83027175Y-36766121D01*
X83043516Y-36919337D01*
X83060083Y-37038090D01*
X83073486Y-37098364D01*
X83074309Y-37099923D01*
X83122626Y-37117643D01*
X83233608Y-37136988D01*
X83385414Y-37154343D01*
X83422769Y-37157588D01*
X83598003Y-37175603D01*
X83711957Y-37199627D01*
X83788005Y-37237129D01*
X83847517Y-37293280D01*
X83889431Y-37348375D01*
X83916922Y-37411461D01*
X83932977Y-37500844D01*
X83940584Y-37634832D01*
X83942730Y-37831733D01*
X83942767Y-37877041D01*
X84366100Y-37877041D01*
X84366100Y-36844573D01*
X84366180Y-36445947D01*
X84366741Y-36123835D01*
X84368262Y-35870082D01*
X84371225Y-35676536D01*
X84376109Y-35535044D01*
X84383395Y-35437451D01*
X84393564Y-35375605D01*
X84407095Y-35341351D01*
X84424469Y-35326538D01*
X84446166Y-35323010D01*
X84455747Y-35322933D01*
X84534867Y-35351611D01*
X84640935Y-35425162D01*
X84709747Y-35487286D01*
X84874100Y-35651639D01*
X84874100Y-36288864D01*
X84876619Y-36520662D01*
X84883548Y-36729130D01*
X84893948Y-36896373D01*
X84906878Y-37004496D01*
X84912940Y-37028244D01*
X84941881Y-37082127D01*
X84991799Y-37116073D01*
X85082989Y-37137513D01*
X85235744Y-37153875D01*
X85262190Y-37156100D01*
X85429588Y-37173558D01*
X85538510Y-37198273D01*
X85615114Y-37239759D01*
X85685560Y-37307534D01*
X85689017Y-37311368D01*
X85742488Y-37375975D01*
X85776466Y-37439654D01*
X85795350Y-37523160D01*
X85803536Y-37647248D01*
X85805422Y-37832674D01*
X85805433Y-37860845D01*
X86062377Y-37860845D01*
X86063445Y-37775313D01*
X86044029Y-37552913D01*
X86000804Y-37361364D01*
X85964183Y-37271785D01*
X85833651Y-37093274D01*
X85656610Y-36981810D01*
X85426990Y-36934027D01*
X85351011Y-36931600D01*
X85128100Y-36931600D01*
X85128100Y-36320522D01*
X85125610Y-36040904D01*
X85115755Y-35830101D01*
X85094956Y-35672345D01*
X85059634Y-35551870D01*
X85006211Y-35452908D01*
X84931107Y-35359692D01*
X84903254Y-35329905D01*
X84714041Y-35169568D01*
X84527768Y-35083467D01*
X84352251Y-35073791D01*
X84206186Y-35134834D01*
D10*
%TO.C,R5*%
X89205800Y-56047621D02*
X89205800Y-55712379D01*
X89965800Y-56047621D02*
X89965800Y-55712379D01*
%TO.C,R4*%
X88253300Y-56047621D02*
X88253300Y-55712379D01*
X89013300Y-56047621D02*
X89013300Y-55712379D01*
%TO.C,R1*%
X91197700Y-44523679D02*
X91197700Y-44858921D01*
X90437700Y-44523679D02*
X90437700Y-44858921D01*
%TO.C,C5*%
X75398365Y-50516200D02*
X75630035Y-50516200D01*
X75398365Y-51236200D02*
X75630035Y-51236200D01*
%TO.C,C4*%
X90485965Y-58110800D02*
X90717635Y-58110800D01*
X90485965Y-58830800D02*
X90717635Y-58830800D01*
%TO.C,C3*%
X97972200Y-46543965D02*
X97972200Y-46775635D01*
X97252200Y-46543965D02*
X97252200Y-46775635D01*
%TO.C,C2*%
X80097365Y-42870800D02*
X80329035Y-42870800D01*
X80097365Y-43590800D02*
X80329035Y-43590800D01*
%TO.C,C1*%
X89006000Y-48855365D02*
X89006000Y-49087035D01*
X88286000Y-48855365D02*
X88286000Y-49087035D01*
%TO.C,J1*%
X89720200Y-51698600D02*
X89720200Y-47818600D01*
X94190200Y-46648600D02*
X94190200Y-47698600D01*
X91690200Y-46648600D02*
X94190200Y-46648600D01*
X94190200Y-51818600D02*
X95180200Y-51818600D01*
X94190200Y-52868600D02*
X94190200Y-51818600D01*
X91690200Y-52868600D02*
X94190200Y-52868600D01*
%TO.C,R2*%
X90735133Y-57778604D02*
X91001800Y-57397652D01*
X91192276Y-57778604D02*
X91192276Y-56978604D01*
X90887514Y-56978604D01*
X90811323Y-57016700D01*
X90773228Y-57054795D01*
X90735133Y-57130985D01*
X90735133Y-57245271D01*
X90773228Y-57321461D01*
X90811323Y-57359557D01*
X90887514Y-57397652D01*
X91192276Y-57397652D01*
X90430371Y-57054795D02*
X90392276Y-57016700D01*
X90316085Y-56978604D01*
X90125609Y-56978604D01*
X90049419Y-57016700D01*
X90011323Y-57054795D01*
X89973228Y-57130985D01*
X89973228Y-57207176D01*
X90011323Y-57321461D01*
X90468466Y-57778604D01*
X89973228Y-57778604D01*
%TO.C,U1*%
X81914923Y-54756104D02*
X81914923Y-55403723D01*
X81876828Y-55479914D01*
X81838733Y-55518009D01*
X81762542Y-55556104D01*
X81610161Y-55556104D01*
X81533971Y-55518009D01*
X81495876Y-55479914D01*
X81457780Y-55403723D01*
X81457780Y-54756104D01*
X80657780Y-55556104D02*
X81114923Y-55556104D01*
X80886352Y-55556104D02*
X80886352Y-54756104D01*
X80962542Y-54870390D01*
X81038733Y-54946580D01*
X81114923Y-54984676D01*
%TO.C,R5*%
X89693733Y-54768704D02*
X89960400Y-54387752D01*
X90150876Y-54768704D02*
X90150876Y-53968704D01*
X89846114Y-53968704D01*
X89769923Y-54006800D01*
X89731828Y-54044895D01*
X89693733Y-54121085D01*
X89693733Y-54235371D01*
X89731828Y-54311561D01*
X89769923Y-54349657D01*
X89846114Y-54387752D01*
X90150876Y-54387752D01*
X88969923Y-53968704D02*
X89350876Y-53968704D01*
X89388971Y-54349657D01*
X89350876Y-54311561D01*
X89274685Y-54273466D01*
X89084209Y-54273466D01*
X89008019Y-54311561D01*
X88969923Y-54349657D01*
X88931828Y-54425847D01*
X88931828Y-54616323D01*
X88969923Y-54692514D01*
X89008019Y-54730609D01*
X89084209Y-54768704D01*
X89274685Y-54768704D01*
X89350876Y-54730609D01*
X89388971Y-54692514D01*
%TO.C,R4*%
X88766633Y-57765904D02*
X89033300Y-57384952D01*
X89223776Y-57765904D02*
X89223776Y-56965904D01*
X88919014Y-56965904D01*
X88842823Y-57004000D01*
X88804728Y-57042095D01*
X88766633Y-57118285D01*
X88766633Y-57232571D01*
X88804728Y-57308761D01*
X88842823Y-57346857D01*
X88919014Y-57384952D01*
X89223776Y-57384952D01*
X88080919Y-57232571D02*
X88080919Y-57765904D01*
X88271395Y-56927809D02*
X88461871Y-57499238D01*
X87966633Y-57499238D01*
%TO.C,R1*%
X90951033Y-43376804D02*
X91217700Y-42995852D01*
X91408176Y-43376804D02*
X91408176Y-42576804D01*
X91103414Y-42576804D01*
X91027223Y-42614900D01*
X90989128Y-42652995D01*
X90951033Y-42729185D01*
X90951033Y-42843471D01*
X90989128Y-42919661D01*
X91027223Y-42957757D01*
X91103414Y-42995852D01*
X91408176Y-42995852D01*
X90189128Y-43376804D02*
X90646271Y-43376804D01*
X90417700Y-43376804D02*
X90417700Y-42576804D01*
X90493890Y-42691090D01*
X90570080Y-42767280D01*
X90646271Y-42805376D01*
%TO.C,C5*%
X75647533Y-52321914D02*
X75685628Y-52360009D01*
X75799914Y-52398104D01*
X75876104Y-52398104D01*
X75990390Y-52360009D01*
X76066580Y-52283819D01*
X76104676Y-52207628D01*
X76142771Y-52055247D01*
X76142771Y-51940961D01*
X76104676Y-51788580D01*
X76066580Y-51712390D01*
X75990390Y-51636200D01*
X75876104Y-51598104D01*
X75799914Y-51598104D01*
X75685628Y-51636200D01*
X75647533Y-51674295D01*
X74923723Y-51598104D02*
X75304676Y-51598104D01*
X75342771Y-51979057D01*
X75304676Y-51940961D01*
X75228485Y-51902866D01*
X75038009Y-51902866D01*
X74961819Y-51940961D01*
X74923723Y-51979057D01*
X74885628Y-52055247D01*
X74885628Y-52245723D01*
X74923723Y-52321914D01*
X74961819Y-52360009D01*
X75038009Y-52398104D01*
X75228485Y-52398104D01*
X75304676Y-52360009D01*
X75342771Y-52321914D01*
%TO.C,C4*%
X92640133Y-58807314D02*
X92678228Y-58845409D01*
X92792514Y-58883504D01*
X92868704Y-58883504D01*
X92982990Y-58845409D01*
X93059180Y-58769219D01*
X93097276Y-58693028D01*
X93135371Y-58540647D01*
X93135371Y-58426361D01*
X93097276Y-58273980D01*
X93059180Y-58197790D01*
X92982990Y-58121600D01*
X92868704Y-58083504D01*
X92792514Y-58083504D01*
X92678228Y-58121600D01*
X92640133Y-58159695D01*
X91954419Y-58350171D02*
X91954419Y-58883504D01*
X92144895Y-58045409D02*
X92335371Y-58616838D01*
X91840133Y-58616838D01*
%TO.C,C3*%
X97720133Y-45472314D02*
X97758228Y-45510409D01*
X97872514Y-45548504D01*
X97948704Y-45548504D01*
X98062990Y-45510409D01*
X98139180Y-45434219D01*
X98177276Y-45358028D01*
X98215371Y-45205647D01*
X98215371Y-45091361D01*
X98177276Y-44938980D01*
X98139180Y-44862790D01*
X98062990Y-44786600D01*
X97948704Y-44748504D01*
X97872514Y-44748504D01*
X97758228Y-44786600D01*
X97720133Y-44824695D01*
X97453466Y-44748504D02*
X96958228Y-44748504D01*
X97224895Y-45053266D01*
X97110609Y-45053266D01*
X97034419Y-45091361D01*
X96996323Y-45129457D01*
X96958228Y-45205647D01*
X96958228Y-45396123D01*
X96996323Y-45472314D01*
X97034419Y-45510409D01*
X97110609Y-45548504D01*
X97339180Y-45548504D01*
X97415371Y-45510409D01*
X97453466Y-45472314D01*
%TO.C,C2*%
X80346533Y-44676514D02*
X80384628Y-44714609D01*
X80498914Y-44752704D01*
X80575104Y-44752704D01*
X80689390Y-44714609D01*
X80765580Y-44638419D01*
X80803676Y-44562228D01*
X80841771Y-44409847D01*
X80841771Y-44295561D01*
X80803676Y-44143180D01*
X80765580Y-44066990D01*
X80689390Y-43990800D01*
X80575104Y-43952704D01*
X80498914Y-43952704D01*
X80384628Y-43990800D01*
X80346533Y-44028895D01*
X80041771Y-44028895D02*
X80003676Y-43990800D01*
X79927485Y-43952704D01*
X79737009Y-43952704D01*
X79660819Y-43990800D01*
X79622723Y-44028895D01*
X79584628Y-44105085D01*
X79584628Y-44181276D01*
X79622723Y-44295561D01*
X80079866Y-44752704D01*
X79584628Y-44752704D01*
%TO.C,C1*%
X88842814Y-47059866D02*
X88880909Y-47021771D01*
X88919004Y-46907485D01*
X88919004Y-46831295D01*
X88880909Y-46717009D01*
X88804719Y-46640819D01*
X88728528Y-46602723D01*
X88576147Y-46564628D01*
X88461861Y-46564628D01*
X88309480Y-46602723D01*
X88233290Y-46640819D01*
X88157100Y-46717009D01*
X88119004Y-46831295D01*
X88119004Y-46907485D01*
X88157100Y-47021771D01*
X88195195Y-47059866D01*
X88919004Y-47821771D02*
X88919004Y-47364628D01*
X88919004Y-47593200D02*
X88119004Y-47593200D01*
X88233290Y-47517009D01*
X88309480Y-47440819D01*
X88347576Y-47364628D01*
%TO.C,J1*%
D12*
X93741833Y-45413680D02*
X93741833Y-46127966D01*
X93789452Y-46270823D01*
X93884690Y-46366061D01*
X94027547Y-46413680D01*
X94122785Y-46413680D01*
X92741833Y-46413680D02*
X93313261Y-46413680D01*
X93027547Y-46413680D02*
X93027547Y-45413680D01*
X93122785Y-45556538D01*
X93218023Y-45651776D01*
X93313261Y-45699395D01*
%TD*%
M02*
