%TF.GenerationSoftware,KiCad,Pcbnew,(5.1.9-0-10_14)*%
%TF.CreationDate,2022-01-13T23:21:40+01:00*%
%TF.ProjectId,tinypico_shield,74696e79-7069-4636-9f5f-736869656c64,rev?*%
%TF.SameCoordinates,Original*%
%TF.FileFunction,Paste,Top*%
%TF.FilePolarity,Positive*%
%FSLAX46Y46*%
G04 Gerber Fmt 4.6, Leading zero omitted, Abs format (unit mm)*
G04 Created by KiCad (PCBNEW (5.1.9-0-10_14)) date 2022-01-13 23:21:40*
%MOMM*%
%LPD*%
G01*
G04 APERTURE LIST*
%ADD10R,1.060000X0.650000*%
G04 APERTURE END LIST*
%TO.C,C4*%
G36*
G01*
X13300000Y-13655000D02*
X13300000Y-13345000D01*
G75*
G02*
X13455000Y-13190000I155000J0D01*
G01*
X13880000Y-13190000D01*
G75*
G02*
X14035000Y-13345000I0J-155000D01*
G01*
X14035000Y-13655000D01*
G75*
G02*
X13880000Y-13810000I-155000J0D01*
G01*
X13455000Y-13810000D01*
G75*
G02*
X13300000Y-13655000I0J155000D01*
G01*
G37*
G36*
G01*
X12165000Y-13655000D02*
X12165000Y-13345000D01*
G75*
G02*
X12320000Y-13190000I155000J0D01*
G01*
X12745000Y-13190000D01*
G75*
G02*
X12900000Y-13345000I0J-155000D01*
G01*
X12900000Y-13655000D01*
G75*
G02*
X12745000Y-13810000I-155000J0D01*
G01*
X12320000Y-13810000D01*
G75*
G02*
X12165000Y-13655000I0J155000D01*
G01*
G37*
%TD*%
%TO.C,J8*%
G36*
G01*
X11400000Y-31150001D02*
X11400000Y-29849999D01*
G75*
G02*
X11649999Y-29600000I249999J0D01*
G01*
X12350001Y-29600000D01*
G75*
G02*
X12600000Y-29849999I0J-249999D01*
G01*
X12600000Y-31150001D01*
G75*
G02*
X12350001Y-31400000I-249999J0D01*
G01*
X11649999Y-31400000D01*
G75*
G02*
X11400000Y-31150001I0J249999D01*
G01*
G37*
G36*
G01*
X5800000Y-31150001D02*
X5800000Y-29849999D01*
G75*
G02*
X6049999Y-29600000I249999J0D01*
G01*
X6750001Y-29600000D01*
G75*
G02*
X7000000Y-29849999I0J-249999D01*
G01*
X7000000Y-31150001D01*
G75*
G02*
X6750001Y-31400000I-249999J0D01*
G01*
X6049999Y-31400000D01*
G75*
G02*
X5800000Y-31150001I0J249999D01*
G01*
G37*
G36*
G01*
X10400000Y-27250000D02*
X10400000Y-26000000D01*
G75*
G02*
X10550000Y-25850000I150000J0D01*
G01*
X10850000Y-25850000D01*
G75*
G02*
X11000000Y-26000000I0J-150000D01*
G01*
X11000000Y-27250000D01*
G75*
G02*
X10850000Y-27400000I-150000J0D01*
G01*
X10550000Y-27400000D01*
G75*
G02*
X10400000Y-27250000I0J150000D01*
G01*
G37*
G36*
G01*
X9400000Y-27250000D02*
X9400000Y-26000000D01*
G75*
G02*
X9550000Y-25850000I150000J0D01*
G01*
X9850000Y-25850000D01*
G75*
G02*
X10000000Y-26000000I0J-150000D01*
G01*
X10000000Y-27250000D01*
G75*
G02*
X9850000Y-27400000I-150000J0D01*
G01*
X9550000Y-27400000D01*
G75*
G02*
X9400000Y-27250000I0J150000D01*
G01*
G37*
G36*
G01*
X8400000Y-27250000D02*
X8400000Y-26000000D01*
G75*
G02*
X8550000Y-25850000I150000J0D01*
G01*
X8850000Y-25850000D01*
G75*
G02*
X9000000Y-26000000I0J-150000D01*
G01*
X9000000Y-27250000D01*
G75*
G02*
X8850000Y-27400000I-150000J0D01*
G01*
X8550000Y-27400000D01*
G75*
G02*
X8400000Y-27250000I0J150000D01*
G01*
G37*
G36*
G01*
X7400000Y-27250000D02*
X7400000Y-26000000D01*
G75*
G02*
X7550000Y-25850000I150000J0D01*
G01*
X7850000Y-25850000D01*
G75*
G02*
X8000000Y-26000000I0J-150000D01*
G01*
X8000000Y-27250000D01*
G75*
G02*
X7850000Y-27400000I-150000J0D01*
G01*
X7550000Y-27400000D01*
G75*
G02*
X7400000Y-27250000I0J150000D01*
G01*
G37*
%TD*%
D10*
%TO.C,U2*%
X10000000Y-22000000D03*
X10000000Y-23900000D03*
X7800000Y-23900000D03*
X7800000Y-22950000D03*
X7800000Y-22000000D03*
%TD*%
%TO.C,R1*%
G36*
G01*
X4857500Y-23535000D02*
X4857500Y-23855000D01*
G75*
G02*
X4697500Y-24015000I-160000J0D01*
G01*
X4302500Y-24015000D01*
G75*
G02*
X4142500Y-23855000I0J160000D01*
G01*
X4142500Y-23535000D01*
G75*
G02*
X4302500Y-23375000I160000J0D01*
G01*
X4697500Y-23375000D01*
G75*
G02*
X4857500Y-23535000I0J-160000D01*
G01*
G37*
G36*
G01*
X6052500Y-23535000D02*
X6052500Y-23855000D01*
G75*
G02*
X5892500Y-24015000I-160000J0D01*
G01*
X5497500Y-24015000D01*
G75*
G02*
X5337500Y-23855000I0J160000D01*
G01*
X5337500Y-23535000D01*
G75*
G02*
X5497500Y-23375000I160000J0D01*
G01*
X5892500Y-23375000D01*
G75*
G02*
X6052500Y-23535000I0J-160000D01*
G01*
G37*
%TD*%
%TO.C,C3*%
G36*
G01*
X10545000Y-20067500D02*
X10855000Y-20067500D01*
G75*
G02*
X11010000Y-20222500I0J-155000D01*
G01*
X11010000Y-20647500D01*
G75*
G02*
X10855000Y-20802500I-155000J0D01*
G01*
X10545000Y-20802500D01*
G75*
G02*
X10390000Y-20647500I0J155000D01*
G01*
X10390000Y-20222500D01*
G75*
G02*
X10545000Y-20067500I155000J0D01*
G01*
G37*
G36*
G01*
X10545000Y-18932500D02*
X10855000Y-18932500D01*
G75*
G02*
X11010000Y-19087500I0J-155000D01*
G01*
X11010000Y-19512500D01*
G75*
G02*
X10855000Y-19667500I-155000J0D01*
G01*
X10545000Y-19667500D01*
G75*
G02*
X10390000Y-19512500I0J155000D01*
G01*
X10390000Y-19087500D01*
G75*
G02*
X10545000Y-18932500I155000J0D01*
G01*
G37*
%TD*%
%TO.C,C2*%
G36*
G01*
X4867500Y-21845000D02*
X4867500Y-22155000D01*
G75*
G02*
X4712500Y-22310000I-155000J0D01*
G01*
X4287500Y-22310000D01*
G75*
G02*
X4132500Y-22155000I0J155000D01*
G01*
X4132500Y-21845000D01*
G75*
G02*
X4287500Y-21690000I155000J0D01*
G01*
X4712500Y-21690000D01*
G75*
G02*
X4867500Y-21845000I0J-155000D01*
G01*
G37*
G36*
G01*
X6002500Y-21845000D02*
X6002500Y-22155000D01*
G75*
G02*
X5847500Y-22310000I-155000J0D01*
G01*
X5422500Y-22310000D01*
G75*
G02*
X5267500Y-22155000I0J155000D01*
G01*
X5267500Y-21845000D01*
G75*
G02*
X5422500Y-21690000I155000J0D01*
G01*
X5847500Y-21690000D01*
G75*
G02*
X6002500Y-21845000I0J-155000D01*
G01*
G37*
%TD*%
%TO.C,C1*%
G36*
G01*
X12767500Y-22155000D02*
X12767500Y-21845000D01*
G75*
G02*
X12922500Y-21690000I155000J0D01*
G01*
X13347500Y-21690000D01*
G75*
G02*
X13502500Y-21845000I0J-155000D01*
G01*
X13502500Y-22155000D01*
G75*
G02*
X13347500Y-22310000I-155000J0D01*
G01*
X12922500Y-22310000D01*
G75*
G02*
X12767500Y-22155000I0J155000D01*
G01*
G37*
G36*
G01*
X11632500Y-22155000D02*
X11632500Y-21845000D01*
G75*
G02*
X11787500Y-21690000I155000J0D01*
G01*
X12212500Y-21690000D01*
G75*
G02*
X12367500Y-21845000I0J-155000D01*
G01*
X12367500Y-22155000D01*
G75*
G02*
X12212500Y-22310000I-155000J0D01*
G01*
X11787500Y-22310000D01*
G75*
G02*
X11632500Y-22155000I0J155000D01*
G01*
G37*
%TD*%
%TO.C,J9*%
G36*
G01*
X6800000Y-6974999D02*
X6800000Y-8275001D01*
G75*
G02*
X6550001Y-8525000I-249999J0D01*
G01*
X5849999Y-8525000D01*
G75*
G02*
X5600000Y-8275001I0J249999D01*
G01*
X5600000Y-6974999D01*
G75*
G02*
X5849999Y-6725000I249999J0D01*
G01*
X6550001Y-6725000D01*
G75*
G02*
X6800000Y-6974999I0J-249999D01*
G01*
G37*
G36*
G01*
X12400000Y-6974999D02*
X12400000Y-8275001D01*
G75*
G02*
X12150001Y-8525000I-249999J0D01*
G01*
X11449999Y-8525000D01*
G75*
G02*
X11200000Y-8275001I0J249999D01*
G01*
X11200000Y-6974999D01*
G75*
G02*
X11449999Y-6725000I249999J0D01*
G01*
X12150001Y-6725000D01*
G75*
G02*
X12400000Y-6974999I0J-249999D01*
G01*
G37*
G36*
G01*
X7800000Y-10875000D02*
X7800000Y-12125000D01*
G75*
G02*
X7650000Y-12275000I-150000J0D01*
G01*
X7350000Y-12275000D01*
G75*
G02*
X7200000Y-12125000I0J150000D01*
G01*
X7200000Y-10875000D01*
G75*
G02*
X7350000Y-10725000I150000J0D01*
G01*
X7650000Y-10725000D01*
G75*
G02*
X7800000Y-10875000I0J-150000D01*
G01*
G37*
G36*
G01*
X8800000Y-10875000D02*
X8800000Y-12125000D01*
G75*
G02*
X8650000Y-12275000I-150000J0D01*
G01*
X8350000Y-12275000D01*
G75*
G02*
X8200000Y-12125000I0J150000D01*
G01*
X8200000Y-10875000D01*
G75*
G02*
X8350000Y-10725000I150000J0D01*
G01*
X8650000Y-10725000D01*
G75*
G02*
X8800000Y-10875000I0J-150000D01*
G01*
G37*
G36*
G01*
X9800000Y-10875000D02*
X9800000Y-12125000D01*
G75*
G02*
X9650000Y-12275000I-150000J0D01*
G01*
X9350000Y-12275000D01*
G75*
G02*
X9200000Y-12125000I0J150000D01*
G01*
X9200000Y-10875000D01*
G75*
G02*
X9350000Y-10725000I150000J0D01*
G01*
X9650000Y-10725000D01*
G75*
G02*
X9800000Y-10875000I0J-150000D01*
G01*
G37*
G36*
G01*
X10800000Y-10875000D02*
X10800000Y-12125000D01*
G75*
G02*
X10650000Y-12275000I-150000J0D01*
G01*
X10350000Y-12275000D01*
G75*
G02*
X10200000Y-12125000I0J150000D01*
G01*
X10200000Y-10875000D01*
G75*
G02*
X10350000Y-10725000I150000J0D01*
G01*
X10650000Y-10725000D01*
G75*
G02*
X10800000Y-10875000I0J-150000D01*
G01*
G37*
%TD*%
%TO.C,U1*%
G36*
G01*
X7825000Y-14475000D02*
X7675000Y-14475000D01*
G75*
G02*
X7600000Y-14400000I0J75000D01*
G01*
X7600000Y-13700000D01*
G75*
G02*
X7675000Y-13625000I75000J0D01*
G01*
X7825000Y-13625000D01*
G75*
G02*
X7900000Y-13700000I0J-75000D01*
G01*
X7900000Y-14400000D01*
G75*
G02*
X7825000Y-14475000I-75000J0D01*
G01*
G37*
G36*
G01*
X8325000Y-14475000D02*
X8175000Y-14475000D01*
G75*
G02*
X8100000Y-14400000I0J75000D01*
G01*
X8100000Y-13700000D01*
G75*
G02*
X8175000Y-13625000I75000J0D01*
G01*
X8325000Y-13625000D01*
G75*
G02*
X8400000Y-13700000I0J-75000D01*
G01*
X8400000Y-14400000D01*
G75*
G02*
X8325000Y-14475000I-75000J0D01*
G01*
G37*
G36*
G01*
X8825000Y-14475000D02*
X8675000Y-14475000D01*
G75*
G02*
X8600000Y-14400000I0J75000D01*
G01*
X8600000Y-13700000D01*
G75*
G02*
X8675000Y-13625000I75000J0D01*
G01*
X8825000Y-13625000D01*
G75*
G02*
X8900000Y-13700000I0J-75000D01*
G01*
X8900000Y-14400000D01*
G75*
G02*
X8825000Y-14475000I-75000J0D01*
G01*
G37*
G36*
G01*
X9325000Y-14475000D02*
X9175000Y-14475000D01*
G75*
G02*
X9100000Y-14400000I0J75000D01*
G01*
X9100000Y-13700000D01*
G75*
G02*
X9175000Y-13625000I75000J0D01*
G01*
X9325000Y-13625000D01*
G75*
G02*
X9400000Y-13700000I0J-75000D01*
G01*
X9400000Y-14400000D01*
G75*
G02*
X9325000Y-14475000I-75000J0D01*
G01*
G37*
G36*
G01*
X9825000Y-14475000D02*
X9675000Y-14475000D01*
G75*
G02*
X9600000Y-14400000I0J75000D01*
G01*
X9600000Y-13700000D01*
G75*
G02*
X9675000Y-13625000I75000J0D01*
G01*
X9825000Y-13625000D01*
G75*
G02*
X9900000Y-13700000I0J-75000D01*
G01*
X9900000Y-14400000D01*
G75*
G02*
X9825000Y-14475000I-75000J0D01*
G01*
G37*
G36*
G01*
X10325000Y-14475000D02*
X10175000Y-14475000D01*
G75*
G02*
X10100000Y-14400000I0J75000D01*
G01*
X10100000Y-13700000D01*
G75*
G02*
X10175000Y-13625000I75000J0D01*
G01*
X10325000Y-13625000D01*
G75*
G02*
X10400000Y-13700000I0J-75000D01*
G01*
X10400000Y-14400000D01*
G75*
G02*
X10325000Y-14475000I-75000J0D01*
G01*
G37*
G36*
G01*
X10525000Y-14825000D02*
X10525000Y-14675000D01*
G75*
G02*
X10600000Y-14600000I75000J0D01*
G01*
X11300000Y-14600000D01*
G75*
G02*
X11375000Y-14675000I0J-75000D01*
G01*
X11375000Y-14825000D01*
G75*
G02*
X11300000Y-14900000I-75000J0D01*
G01*
X10600000Y-14900000D01*
G75*
G02*
X10525000Y-14825000I0J75000D01*
G01*
G37*
G36*
G01*
X10525000Y-15325000D02*
X10525000Y-15175000D01*
G75*
G02*
X10600000Y-15100000I75000J0D01*
G01*
X11300000Y-15100000D01*
G75*
G02*
X11375000Y-15175000I0J-75000D01*
G01*
X11375000Y-15325000D01*
G75*
G02*
X11300000Y-15400000I-75000J0D01*
G01*
X10600000Y-15400000D01*
G75*
G02*
X10525000Y-15325000I0J75000D01*
G01*
G37*
G36*
G01*
X10525000Y-15825000D02*
X10525000Y-15675000D01*
G75*
G02*
X10600000Y-15600000I75000J0D01*
G01*
X11300000Y-15600000D01*
G75*
G02*
X11375000Y-15675000I0J-75000D01*
G01*
X11375000Y-15825000D01*
G75*
G02*
X11300000Y-15900000I-75000J0D01*
G01*
X10600000Y-15900000D01*
G75*
G02*
X10525000Y-15825000I0J75000D01*
G01*
G37*
G36*
G01*
X10525000Y-16325000D02*
X10525000Y-16175000D01*
G75*
G02*
X10600000Y-16100000I75000J0D01*
G01*
X11300000Y-16100000D01*
G75*
G02*
X11375000Y-16175000I0J-75000D01*
G01*
X11375000Y-16325000D01*
G75*
G02*
X11300000Y-16400000I-75000J0D01*
G01*
X10600000Y-16400000D01*
G75*
G02*
X10525000Y-16325000I0J75000D01*
G01*
G37*
G36*
G01*
X10525000Y-16825000D02*
X10525000Y-16675000D01*
G75*
G02*
X10600000Y-16600000I75000J0D01*
G01*
X11300000Y-16600000D01*
G75*
G02*
X11375000Y-16675000I0J-75000D01*
G01*
X11375000Y-16825000D01*
G75*
G02*
X11300000Y-16900000I-75000J0D01*
G01*
X10600000Y-16900000D01*
G75*
G02*
X10525000Y-16825000I0J75000D01*
G01*
G37*
G36*
G01*
X10525000Y-17325000D02*
X10525000Y-17175000D01*
G75*
G02*
X10600000Y-17100000I75000J0D01*
G01*
X11300000Y-17100000D01*
G75*
G02*
X11375000Y-17175000I0J-75000D01*
G01*
X11375000Y-17325000D01*
G75*
G02*
X11300000Y-17400000I-75000J0D01*
G01*
X10600000Y-17400000D01*
G75*
G02*
X10525000Y-17325000I0J75000D01*
G01*
G37*
G36*
G01*
X10325000Y-18375000D02*
X10175000Y-18375000D01*
G75*
G02*
X10100000Y-18300000I0J75000D01*
G01*
X10100000Y-17600000D01*
G75*
G02*
X10175000Y-17525000I75000J0D01*
G01*
X10325000Y-17525000D01*
G75*
G02*
X10400000Y-17600000I0J-75000D01*
G01*
X10400000Y-18300000D01*
G75*
G02*
X10325000Y-18375000I-75000J0D01*
G01*
G37*
G36*
G01*
X9825000Y-18375000D02*
X9675000Y-18375000D01*
G75*
G02*
X9600000Y-18300000I0J75000D01*
G01*
X9600000Y-17600000D01*
G75*
G02*
X9675000Y-17525000I75000J0D01*
G01*
X9825000Y-17525000D01*
G75*
G02*
X9900000Y-17600000I0J-75000D01*
G01*
X9900000Y-18300000D01*
G75*
G02*
X9825000Y-18375000I-75000J0D01*
G01*
G37*
G36*
G01*
X9325000Y-18375000D02*
X9175000Y-18375000D01*
G75*
G02*
X9100000Y-18300000I0J75000D01*
G01*
X9100000Y-17600000D01*
G75*
G02*
X9175000Y-17525000I75000J0D01*
G01*
X9325000Y-17525000D01*
G75*
G02*
X9400000Y-17600000I0J-75000D01*
G01*
X9400000Y-18300000D01*
G75*
G02*
X9325000Y-18375000I-75000J0D01*
G01*
G37*
G36*
G01*
X8825000Y-18375000D02*
X8675000Y-18375000D01*
G75*
G02*
X8600000Y-18300000I0J75000D01*
G01*
X8600000Y-17600000D01*
G75*
G02*
X8675000Y-17525000I75000J0D01*
G01*
X8825000Y-17525000D01*
G75*
G02*
X8900000Y-17600000I0J-75000D01*
G01*
X8900000Y-18300000D01*
G75*
G02*
X8825000Y-18375000I-75000J0D01*
G01*
G37*
G36*
G01*
X8325000Y-18375000D02*
X8175000Y-18375000D01*
G75*
G02*
X8100000Y-18300000I0J75000D01*
G01*
X8100000Y-17600000D01*
G75*
G02*
X8175000Y-17525000I75000J0D01*
G01*
X8325000Y-17525000D01*
G75*
G02*
X8400000Y-17600000I0J-75000D01*
G01*
X8400000Y-18300000D01*
G75*
G02*
X8325000Y-18375000I-75000J0D01*
G01*
G37*
G36*
G01*
X7825000Y-18375000D02*
X7675000Y-18375000D01*
G75*
G02*
X7600000Y-18300000I0J75000D01*
G01*
X7600000Y-17600000D01*
G75*
G02*
X7675000Y-17525000I75000J0D01*
G01*
X7825000Y-17525000D01*
G75*
G02*
X7900000Y-17600000I0J-75000D01*
G01*
X7900000Y-18300000D01*
G75*
G02*
X7825000Y-18375000I-75000J0D01*
G01*
G37*
G36*
G01*
X6625000Y-17325000D02*
X6625000Y-17175000D01*
G75*
G02*
X6700000Y-17100000I75000J0D01*
G01*
X7400000Y-17100000D01*
G75*
G02*
X7475000Y-17175000I0J-75000D01*
G01*
X7475000Y-17325000D01*
G75*
G02*
X7400000Y-17400000I-75000J0D01*
G01*
X6700000Y-17400000D01*
G75*
G02*
X6625000Y-17325000I0J75000D01*
G01*
G37*
G36*
G01*
X6625000Y-16825000D02*
X6625000Y-16675000D01*
G75*
G02*
X6700000Y-16600000I75000J0D01*
G01*
X7400000Y-16600000D01*
G75*
G02*
X7475000Y-16675000I0J-75000D01*
G01*
X7475000Y-16825000D01*
G75*
G02*
X7400000Y-16900000I-75000J0D01*
G01*
X6700000Y-16900000D01*
G75*
G02*
X6625000Y-16825000I0J75000D01*
G01*
G37*
G36*
G01*
X6625000Y-16325000D02*
X6625000Y-16175000D01*
G75*
G02*
X6700000Y-16100000I75000J0D01*
G01*
X7400000Y-16100000D01*
G75*
G02*
X7475000Y-16175000I0J-75000D01*
G01*
X7475000Y-16325000D01*
G75*
G02*
X7400000Y-16400000I-75000J0D01*
G01*
X6700000Y-16400000D01*
G75*
G02*
X6625000Y-16325000I0J75000D01*
G01*
G37*
G36*
G01*
X6625000Y-15825000D02*
X6625000Y-15675000D01*
G75*
G02*
X6700000Y-15600000I75000J0D01*
G01*
X7400000Y-15600000D01*
G75*
G02*
X7475000Y-15675000I0J-75000D01*
G01*
X7475000Y-15825000D01*
G75*
G02*
X7400000Y-15900000I-75000J0D01*
G01*
X6700000Y-15900000D01*
G75*
G02*
X6625000Y-15825000I0J75000D01*
G01*
G37*
G36*
G01*
X6625000Y-15325000D02*
X6625000Y-15175000D01*
G75*
G02*
X6700000Y-15100000I75000J0D01*
G01*
X7400000Y-15100000D01*
G75*
G02*
X7475000Y-15175000I0J-75000D01*
G01*
X7475000Y-15325000D01*
G75*
G02*
X7400000Y-15400000I-75000J0D01*
G01*
X6700000Y-15400000D01*
G75*
G02*
X6625000Y-15325000I0J75000D01*
G01*
G37*
G36*
G01*
X6625000Y-14825000D02*
X6625000Y-14675000D01*
G75*
G02*
X6700000Y-14600000I75000J0D01*
G01*
X7400000Y-14600000D01*
G75*
G02*
X7475000Y-14675000I0J-75000D01*
G01*
X7475000Y-14825000D01*
G75*
G02*
X7400000Y-14900000I-75000J0D01*
G01*
X6700000Y-14900000D01*
G75*
G02*
X6625000Y-14825000I0J75000D01*
G01*
G37*
%TD*%
M02*
