%TF.GenerationSoftware,KiCad,Pcbnew,(5.1.9-0-10_14)*%
%TF.CreationDate,2022-01-13T23:21:40+01:00*%
%TF.ProjectId,tinypico_shield,74696e79-7069-4636-9f5f-736869656c64,rev?*%
%TF.SameCoordinates,Original*%
%TF.FileFunction,Copper,L2,Inr*%
%TF.FilePolarity,Positive*%
%FSLAX46Y46*%
G04 Gerber Fmt 4.6, Leading zero omitted, Abs format (unit mm)*
G04 Created by KiCad (PCBNEW (5.1.9-0-10_14)) date 2022-01-13 23:21:40*
%MOMM*%
%LPD*%
G01*
G04 APERTURE LIST*
%TA.AperFunction,ComponentPad*%
%ADD10C,1.524000*%
%TD*%
%TA.AperFunction,ViaPad*%
%ADD11C,0.800000*%
%TD*%
%TA.AperFunction,Conductor*%
%ADD12C,0.250000*%
%TD*%
%TA.AperFunction,Conductor*%
%ADD13C,0.254000*%
%TD*%
%TA.AperFunction,Conductor*%
%ADD14C,0.100000*%
%TD*%
G04 APERTURE END LIST*
D10*
%TO.N,GND*%
%TO.C,J7*%
X16620000Y-7745000D03*
%TO.N,Net-(J7-Pad19)*%
X16620000Y-10285000D03*
%TO.N,Net-(J7-Pad18)*%
X16620000Y-12825000D03*
%TO.N,Net-(J7-Pad17)*%
X16620000Y-15365000D03*
%TO.N,SDA*%
X16620000Y-17905000D03*
%TO.N,SCL*%
X16620000Y-20445000D03*
%TO.N,Net-(J7-Pad14)*%
X16620000Y-22985000D03*
%TO.N,Net-(J7-Pad13)*%
X16620000Y-25525000D03*
%TO.N,Net-(J7-Pad12)*%
X16620000Y-28065000D03*
%TO.N,Net-(J7-Pad11)*%
X16620000Y-30605000D03*
%TO.N,Net-(C2-Pad1)*%
X1380000Y-30605000D03*
%TO.N,GND*%
X1380000Y-28065000D03*
%TO.N,Net-(J7-Pad8)*%
X1380000Y-25525000D03*
%TO.N,Net-(J7-Pad7)*%
X1380000Y-22985000D03*
%TO.N,Net-(J7-Pad6)*%
X1380000Y-20445000D03*
%TO.N,Net-(J7-Pad5)*%
X1380000Y-17905000D03*
%TO.N,Net-(J7-Pad4)*%
X1380000Y-15365000D03*
%TO.N,Net-(J7-Pad3)*%
X1380000Y-12825000D03*
%TO.N,Net-(J7-Pad2)*%
X1380000Y-10285000D03*
%TO.N,Net-(J7-Pad1)*%
X1380000Y-7745000D03*
%TD*%
D11*
%TO.N,GND*%
X4500000Y-20500000D03*
X6600000Y-23000000D03*
X7900000Y-7800000D03*
X9300000Y-7800000D03*
X10500000Y-7800000D03*
X10500000Y-30900000D03*
X5900000Y-26500000D03*
X13600000Y-10700000D03*
X12600000Y-14700000D03*
X13600000Y-14700000D03*
X12200000Y-20800000D03*
%TO.N,SCL*%
X9200000Y-29500000D03*
X9300000Y-9000000D03*
X9200000Y-13000000D03*
X9200000Y-25000000D03*
X9200000Y-20800000D03*
X14800000Y-17800000D03*
%TO.N,SDA*%
X8474990Y-28456599D03*
X8687340Y-10287340D03*
X8474990Y-19825010D03*
%TO.N,VCC*%
X6000000Y-10000000D03*
X6000000Y-18800000D03*
X12422969Y-23625237D03*
X5900000Y-27500000D03*
X12100000Y-28500000D03*
X12414146Y-9718947D03*
X11900000Y-19674990D03*
X10000000Y-22800000D03*
X7700000Y-25000000D03*
X12020501Y-10707480D03*
X4900000Y-18800000D03*
X14600000Y-15500000D03*
%TD*%
D12*
%TO.N,SCL*%
X9200000Y-9100000D02*
X9300000Y-9000000D01*
X9200000Y-9726998D02*
X9200000Y-9100000D01*
X9412341Y-10635341D02*
X9412341Y-9939339D01*
X9200000Y-10847682D02*
X9412341Y-10635341D01*
X9412341Y-9939339D02*
X9200000Y-9726998D01*
X9200000Y-13000000D02*
X9200000Y-10847682D01*
X9200000Y-29500000D02*
X9200000Y-25000000D01*
X9200000Y-20800000D02*
X9200000Y-13000000D01*
X9200000Y-25000000D02*
X9200000Y-20800000D01*
%TO.N,SDA*%
X8287341Y-13160343D02*
X8287341Y-10687339D01*
X8474990Y-13347992D02*
X8287341Y-13160343D01*
X8474990Y-28456599D02*
X8474990Y-19825010D01*
X8287341Y-10687339D02*
X8687340Y-10287340D01*
X8474990Y-19825010D02*
X8474990Y-13347992D01*
%TD*%
D13*
%TO.N,GND*%
X15834040Y-6779435D02*
X16620000Y-7565395D01*
X16634143Y-7551253D01*
X16813748Y-7730858D01*
X16799605Y-7745000D01*
X16813748Y-7759143D01*
X16634143Y-7938748D01*
X16620000Y-7924605D01*
X15834040Y-8710565D01*
X15901020Y-8950656D01*
X16036760Y-9014485D01*
X15958273Y-9046995D01*
X15729465Y-9199880D01*
X15534880Y-9394465D01*
X15381995Y-9623273D01*
X15276686Y-9877510D01*
X15223000Y-10147408D01*
X15223000Y-10422592D01*
X15276686Y-10692490D01*
X15381995Y-10946727D01*
X15534880Y-11175535D01*
X15729465Y-11370120D01*
X15958273Y-11523005D01*
X16035515Y-11555000D01*
X15958273Y-11586995D01*
X15729465Y-11739880D01*
X15534880Y-11934465D01*
X15381995Y-12163273D01*
X15276686Y-12417510D01*
X15223000Y-12687408D01*
X15223000Y-12962592D01*
X15276686Y-13232490D01*
X15381995Y-13486727D01*
X15534880Y-13715535D01*
X15729465Y-13910120D01*
X15958273Y-14063005D01*
X16035515Y-14095000D01*
X15958273Y-14126995D01*
X15729465Y-14279880D01*
X15534880Y-14474465D01*
X15381995Y-14703273D01*
X15348309Y-14784598D01*
X15259774Y-14696063D01*
X15090256Y-14582795D01*
X14901898Y-14504774D01*
X14701939Y-14465000D01*
X14498061Y-14465000D01*
X14298102Y-14504774D01*
X14109744Y-14582795D01*
X13940226Y-14696063D01*
X13796063Y-14840226D01*
X13682795Y-15009744D01*
X13604774Y-15198102D01*
X13565000Y-15398061D01*
X13565000Y-15601939D01*
X13604774Y-15801898D01*
X13682795Y-15990256D01*
X13796063Y-16159774D01*
X13940226Y-16303937D01*
X14109744Y-16417205D01*
X14298102Y-16495226D01*
X14498061Y-16535000D01*
X14701939Y-16535000D01*
X14901898Y-16495226D01*
X15090256Y-16417205D01*
X15259774Y-16303937D01*
X15403937Y-16159774D01*
X15437416Y-16109670D01*
X15534880Y-16255535D01*
X15729465Y-16450120D01*
X15958273Y-16603005D01*
X16035515Y-16635000D01*
X15958273Y-16666995D01*
X15729465Y-16819880D01*
X15534880Y-17014465D01*
X15512168Y-17048457D01*
X15459774Y-16996063D01*
X15290256Y-16882795D01*
X15101898Y-16804774D01*
X14901939Y-16765000D01*
X14698061Y-16765000D01*
X14498102Y-16804774D01*
X14309744Y-16882795D01*
X14140226Y-16996063D01*
X13996063Y-17140226D01*
X13882795Y-17309744D01*
X13804774Y-17498102D01*
X13765000Y-17698061D01*
X13765000Y-17901939D01*
X13804774Y-18101898D01*
X13882795Y-18290256D01*
X13996063Y-18459774D01*
X14140226Y-18603937D01*
X14309744Y-18717205D01*
X14498102Y-18795226D01*
X14698061Y-18835000D01*
X14901939Y-18835000D01*
X15101898Y-18795226D01*
X15290256Y-18717205D01*
X15423191Y-18628381D01*
X15534880Y-18795535D01*
X15729465Y-18990120D01*
X15958273Y-19143005D01*
X16035515Y-19175000D01*
X15958273Y-19206995D01*
X15729465Y-19359880D01*
X15534880Y-19554465D01*
X15381995Y-19783273D01*
X15276686Y-20037510D01*
X15223000Y-20307408D01*
X15223000Y-20582592D01*
X15276686Y-20852490D01*
X15381995Y-21106727D01*
X15534880Y-21335535D01*
X15729465Y-21530120D01*
X15958273Y-21683005D01*
X16035515Y-21715000D01*
X15958273Y-21746995D01*
X15729465Y-21899880D01*
X15534880Y-22094465D01*
X15381995Y-22323273D01*
X15276686Y-22577510D01*
X15223000Y-22847408D01*
X15223000Y-23122592D01*
X15276686Y-23392490D01*
X15381995Y-23646727D01*
X15534880Y-23875535D01*
X15729465Y-24070120D01*
X15958273Y-24223005D01*
X16035515Y-24255000D01*
X15958273Y-24286995D01*
X15729465Y-24439880D01*
X15534880Y-24634465D01*
X15381995Y-24863273D01*
X15276686Y-25117510D01*
X15223000Y-25387408D01*
X15223000Y-25662592D01*
X15276686Y-25932490D01*
X15381995Y-26186727D01*
X15534880Y-26415535D01*
X15729465Y-26610120D01*
X15958273Y-26763005D01*
X16035515Y-26795000D01*
X15958273Y-26826995D01*
X15729465Y-26979880D01*
X15534880Y-27174465D01*
X15381995Y-27403273D01*
X15276686Y-27657510D01*
X15223000Y-27927408D01*
X15223000Y-28202592D01*
X15276686Y-28472490D01*
X15381995Y-28726727D01*
X15534880Y-28955535D01*
X15729465Y-29150120D01*
X15958273Y-29303005D01*
X16035515Y-29335000D01*
X15958273Y-29366995D01*
X15729465Y-29519880D01*
X15534880Y-29714465D01*
X15381995Y-29943273D01*
X15276686Y-30197510D01*
X15223000Y-30467408D01*
X15223000Y-30742592D01*
X15276686Y-31012490D01*
X15381995Y-31266727D01*
X15430955Y-31340000D01*
X2569045Y-31340000D01*
X2618005Y-31266727D01*
X2723314Y-31012490D01*
X2777000Y-30742592D01*
X2777000Y-30467408D01*
X2723314Y-30197510D01*
X2618005Y-29943273D01*
X2465120Y-29714465D01*
X2270535Y-29519880D01*
X2041727Y-29366995D01*
X1970057Y-29337308D01*
X1983023Y-29332636D01*
X2098980Y-29270656D01*
X2165960Y-29030565D01*
X1380000Y-28244605D01*
X1365858Y-28258748D01*
X1186253Y-28079143D01*
X1200395Y-28065000D01*
X1559605Y-28065000D01*
X2345565Y-28850960D01*
X2585656Y-28783980D01*
X2702756Y-28534952D01*
X2769023Y-28267865D01*
X2781910Y-27992983D01*
X2740922Y-27720867D01*
X2647636Y-27461977D01*
X2613473Y-27398061D01*
X4865000Y-27398061D01*
X4865000Y-27601939D01*
X4904774Y-27801898D01*
X4982795Y-27990256D01*
X5096063Y-28159774D01*
X5240226Y-28303937D01*
X5409744Y-28417205D01*
X5598102Y-28495226D01*
X5798061Y-28535000D01*
X6001939Y-28535000D01*
X6201898Y-28495226D01*
X6390256Y-28417205D01*
X6559774Y-28303937D01*
X6703937Y-28159774D01*
X6817205Y-27990256D01*
X6895226Y-27801898D01*
X6935000Y-27601939D01*
X6935000Y-27398061D01*
X6895226Y-27198102D01*
X6817205Y-27009744D01*
X6703937Y-26840226D01*
X6559774Y-26696063D01*
X6390256Y-26582795D01*
X6201898Y-26504774D01*
X6001939Y-26465000D01*
X5798061Y-26465000D01*
X5598102Y-26504774D01*
X5409744Y-26582795D01*
X5240226Y-26696063D01*
X5096063Y-26840226D01*
X4982795Y-27009744D01*
X4904774Y-27198102D01*
X4865000Y-27398061D01*
X2613473Y-27398061D01*
X2585656Y-27346020D01*
X2345565Y-27279040D01*
X1559605Y-28065000D01*
X1200395Y-28065000D01*
X1186253Y-28050858D01*
X1365858Y-27871253D01*
X1380000Y-27885395D01*
X2165960Y-27099435D01*
X2098980Y-26859344D01*
X1963240Y-26795515D01*
X2041727Y-26763005D01*
X2270535Y-26610120D01*
X2465120Y-26415535D01*
X2618005Y-26186727D01*
X2723314Y-25932490D01*
X2777000Y-25662592D01*
X2777000Y-25387408D01*
X2723314Y-25117510D01*
X2632415Y-24898061D01*
X6665000Y-24898061D01*
X6665000Y-25101939D01*
X6704774Y-25301898D01*
X6782795Y-25490256D01*
X6896063Y-25659774D01*
X7040226Y-25803937D01*
X7209744Y-25917205D01*
X7398102Y-25995226D01*
X7598061Y-26035000D01*
X7714990Y-26035000D01*
X7714990Y-27752888D01*
X7671053Y-27796825D01*
X7557785Y-27966343D01*
X7479764Y-28154701D01*
X7439990Y-28354660D01*
X7439990Y-28558538D01*
X7479764Y-28758497D01*
X7557785Y-28946855D01*
X7671053Y-29116373D01*
X7815216Y-29260536D01*
X7984734Y-29373804D01*
X8165000Y-29448473D01*
X8165000Y-29601939D01*
X8204774Y-29801898D01*
X8282795Y-29990256D01*
X8396063Y-30159774D01*
X8540226Y-30303937D01*
X8709744Y-30417205D01*
X8898102Y-30495226D01*
X9098061Y-30535000D01*
X9301939Y-30535000D01*
X9501898Y-30495226D01*
X9690256Y-30417205D01*
X9859774Y-30303937D01*
X10003937Y-30159774D01*
X10117205Y-29990256D01*
X10195226Y-29801898D01*
X10235000Y-29601939D01*
X10235000Y-29398061D01*
X10195226Y-29198102D01*
X10117205Y-29009744D01*
X10003937Y-28840226D01*
X9960000Y-28796289D01*
X9960000Y-28398061D01*
X11065000Y-28398061D01*
X11065000Y-28601939D01*
X11104774Y-28801898D01*
X11182795Y-28990256D01*
X11296063Y-29159774D01*
X11440226Y-29303937D01*
X11609744Y-29417205D01*
X11798102Y-29495226D01*
X11998061Y-29535000D01*
X12201939Y-29535000D01*
X12401898Y-29495226D01*
X12590256Y-29417205D01*
X12759774Y-29303937D01*
X12903937Y-29159774D01*
X13017205Y-28990256D01*
X13095226Y-28801898D01*
X13135000Y-28601939D01*
X13135000Y-28398061D01*
X13095226Y-28198102D01*
X13017205Y-28009744D01*
X12903937Y-27840226D01*
X12759774Y-27696063D01*
X12590256Y-27582795D01*
X12401898Y-27504774D01*
X12201939Y-27465000D01*
X11998061Y-27465000D01*
X11798102Y-27504774D01*
X11609744Y-27582795D01*
X11440226Y-27696063D01*
X11296063Y-27840226D01*
X11182795Y-28009744D01*
X11104774Y-28198102D01*
X11065000Y-28398061D01*
X9960000Y-28398061D01*
X9960000Y-25703711D01*
X10003937Y-25659774D01*
X10117205Y-25490256D01*
X10195226Y-25301898D01*
X10235000Y-25101939D01*
X10235000Y-24898061D01*
X10195226Y-24698102D01*
X10117205Y-24509744D01*
X10003937Y-24340226D01*
X9960000Y-24296289D01*
X9960000Y-23835000D01*
X10101939Y-23835000D01*
X10301898Y-23795226D01*
X10490256Y-23717205D01*
X10659774Y-23603937D01*
X10740413Y-23523298D01*
X11387969Y-23523298D01*
X11387969Y-23727176D01*
X11427743Y-23927135D01*
X11505764Y-24115493D01*
X11619032Y-24285011D01*
X11763195Y-24429174D01*
X11932713Y-24542442D01*
X12121071Y-24620463D01*
X12321030Y-24660237D01*
X12524908Y-24660237D01*
X12724867Y-24620463D01*
X12913225Y-24542442D01*
X13082743Y-24429174D01*
X13226906Y-24285011D01*
X13340174Y-24115493D01*
X13418195Y-23927135D01*
X13457969Y-23727176D01*
X13457969Y-23523298D01*
X13418195Y-23323339D01*
X13340174Y-23134981D01*
X13226906Y-22965463D01*
X13082743Y-22821300D01*
X12913225Y-22708032D01*
X12724867Y-22630011D01*
X12524908Y-22590237D01*
X12321030Y-22590237D01*
X12121071Y-22630011D01*
X11932713Y-22708032D01*
X11763195Y-22821300D01*
X11619032Y-22965463D01*
X11505764Y-23134981D01*
X11427743Y-23323339D01*
X11387969Y-23523298D01*
X10740413Y-23523298D01*
X10803937Y-23459774D01*
X10917205Y-23290256D01*
X10995226Y-23101898D01*
X11035000Y-22901939D01*
X11035000Y-22698061D01*
X10995226Y-22498102D01*
X10917205Y-22309744D01*
X10803937Y-22140226D01*
X10659774Y-21996063D01*
X10490256Y-21882795D01*
X10301898Y-21804774D01*
X10101939Y-21765000D01*
X9960000Y-21765000D01*
X9960000Y-21503711D01*
X10003937Y-21459774D01*
X10117205Y-21290256D01*
X10195226Y-21101898D01*
X10235000Y-20901939D01*
X10235000Y-20698061D01*
X10195226Y-20498102D01*
X10117205Y-20309744D01*
X10003937Y-20140226D01*
X9960000Y-20096289D01*
X9960000Y-19573051D01*
X10865000Y-19573051D01*
X10865000Y-19776929D01*
X10904774Y-19976888D01*
X10982795Y-20165246D01*
X11096063Y-20334764D01*
X11240226Y-20478927D01*
X11409744Y-20592195D01*
X11598102Y-20670216D01*
X11798061Y-20709990D01*
X12001939Y-20709990D01*
X12201898Y-20670216D01*
X12390256Y-20592195D01*
X12559774Y-20478927D01*
X12703937Y-20334764D01*
X12817205Y-20165246D01*
X12895226Y-19976888D01*
X12935000Y-19776929D01*
X12935000Y-19573051D01*
X12895226Y-19373092D01*
X12817205Y-19184734D01*
X12703937Y-19015216D01*
X12559774Y-18871053D01*
X12390256Y-18757785D01*
X12201898Y-18679764D01*
X12001939Y-18639990D01*
X11798061Y-18639990D01*
X11598102Y-18679764D01*
X11409744Y-18757785D01*
X11240226Y-18871053D01*
X11096063Y-19015216D01*
X10982795Y-19184734D01*
X10904774Y-19373092D01*
X10865000Y-19573051D01*
X9960000Y-19573051D01*
X9960000Y-13703711D01*
X10003937Y-13659774D01*
X10117205Y-13490256D01*
X10195226Y-13301898D01*
X10235000Y-13101939D01*
X10235000Y-12898061D01*
X10195226Y-12698102D01*
X10117205Y-12509744D01*
X10003937Y-12340226D01*
X9960000Y-12296289D01*
X9960000Y-11166011D01*
X10047315Y-11059617D01*
X10117887Y-10927588D01*
X10161344Y-10784327D01*
X10172341Y-10672674D01*
X10172341Y-10672673D01*
X10176018Y-10635341D01*
X10173083Y-10605541D01*
X10985501Y-10605541D01*
X10985501Y-10809419D01*
X11025275Y-11009378D01*
X11103296Y-11197736D01*
X11216564Y-11367254D01*
X11360727Y-11511417D01*
X11530245Y-11624685D01*
X11718603Y-11702706D01*
X11918562Y-11742480D01*
X12122440Y-11742480D01*
X12322399Y-11702706D01*
X12510757Y-11624685D01*
X12680275Y-11511417D01*
X12824438Y-11367254D01*
X12937706Y-11197736D01*
X13015727Y-11009378D01*
X13055501Y-10809419D01*
X13055501Y-10605541D01*
X13043149Y-10543444D01*
X13073920Y-10522884D01*
X13218083Y-10378721D01*
X13331351Y-10209203D01*
X13409372Y-10020845D01*
X13449146Y-9820886D01*
X13449146Y-9617008D01*
X13409372Y-9417049D01*
X13331351Y-9228691D01*
X13218083Y-9059173D01*
X13073920Y-8915010D01*
X12904402Y-8801742D01*
X12716044Y-8723721D01*
X12516085Y-8683947D01*
X12312207Y-8683947D01*
X12112248Y-8723721D01*
X11923890Y-8801742D01*
X11754372Y-8915010D01*
X11610209Y-9059173D01*
X11496941Y-9228691D01*
X11418920Y-9417049D01*
X11379146Y-9617008D01*
X11379146Y-9820886D01*
X11391498Y-9882983D01*
X11360727Y-9903543D01*
X11216564Y-10047706D01*
X11103296Y-10217224D01*
X11025275Y-10405582D01*
X10985501Y-10605541D01*
X10173083Y-10605541D01*
X10172341Y-10598008D01*
X10172341Y-9976672D01*
X10176018Y-9939339D01*
X10161344Y-9790353D01*
X10117887Y-9647093D01*
X10117887Y-9647092D01*
X10115453Y-9642539D01*
X10217205Y-9490256D01*
X10295226Y-9301898D01*
X10335000Y-9101939D01*
X10335000Y-8898061D01*
X10295226Y-8698102D01*
X10217205Y-8509744D01*
X10103937Y-8340226D01*
X9959774Y-8196063D01*
X9790256Y-8082795D01*
X9601898Y-8004774D01*
X9401939Y-7965000D01*
X9198061Y-7965000D01*
X8998102Y-8004774D01*
X8809744Y-8082795D01*
X8640226Y-8196063D01*
X8496063Y-8340226D01*
X8382795Y-8509744D01*
X8304774Y-8698102D01*
X8265000Y-8898061D01*
X8265000Y-9101939D01*
X8304774Y-9301898D01*
X8313129Y-9322067D01*
X8197084Y-9370135D01*
X8027566Y-9483403D01*
X7883403Y-9627566D01*
X7770135Y-9797084D01*
X7692114Y-9985442D01*
X7652340Y-10185401D01*
X7652340Y-10263114D01*
X7581795Y-10395093D01*
X7573454Y-10422592D01*
X7538339Y-10538353D01*
X7528786Y-10635341D01*
X7523665Y-10687339D01*
X7527342Y-10724671D01*
X7527341Y-13123020D01*
X7523665Y-13160343D01*
X7527341Y-13197665D01*
X7527341Y-13197675D01*
X7538338Y-13309328D01*
X7581795Y-13452589D01*
X7652367Y-13584619D01*
X7692212Y-13633169D01*
X7714991Y-13660926D01*
X7714990Y-19121299D01*
X7671053Y-19165236D01*
X7557785Y-19334754D01*
X7479764Y-19523112D01*
X7439990Y-19723071D01*
X7439990Y-19926949D01*
X7479764Y-20126908D01*
X7557785Y-20315266D01*
X7671053Y-20484784D01*
X7714991Y-20528722D01*
X7714991Y-23965000D01*
X7598061Y-23965000D01*
X7398102Y-24004774D01*
X7209744Y-24082795D01*
X7040226Y-24196063D01*
X6896063Y-24340226D01*
X6782795Y-24509744D01*
X6704774Y-24698102D01*
X6665000Y-24898061D01*
X2632415Y-24898061D01*
X2618005Y-24863273D01*
X2465120Y-24634465D01*
X2270535Y-24439880D01*
X2041727Y-24286995D01*
X1964485Y-24255000D01*
X2041727Y-24223005D01*
X2270535Y-24070120D01*
X2465120Y-23875535D01*
X2618005Y-23646727D01*
X2723314Y-23392490D01*
X2777000Y-23122592D01*
X2777000Y-22847408D01*
X2723314Y-22577510D01*
X2618005Y-22323273D01*
X2465120Y-22094465D01*
X2270535Y-21899880D01*
X2041727Y-21746995D01*
X1964485Y-21715000D01*
X2041727Y-21683005D01*
X2270535Y-21530120D01*
X2465120Y-21335535D01*
X2618005Y-21106727D01*
X2723314Y-20852490D01*
X2777000Y-20582592D01*
X2777000Y-20307408D01*
X2723314Y-20037510D01*
X2618005Y-19783273D01*
X2465120Y-19554465D01*
X2270535Y-19359880D01*
X2041727Y-19206995D01*
X1964485Y-19175000D01*
X2041727Y-19143005D01*
X2270535Y-18990120D01*
X2465120Y-18795535D01*
X2530250Y-18698061D01*
X3865000Y-18698061D01*
X3865000Y-18901939D01*
X3904774Y-19101898D01*
X3982795Y-19290256D01*
X4096063Y-19459774D01*
X4240226Y-19603937D01*
X4409744Y-19717205D01*
X4598102Y-19795226D01*
X4798061Y-19835000D01*
X5001939Y-19835000D01*
X5201898Y-19795226D01*
X5390256Y-19717205D01*
X5450000Y-19677285D01*
X5509744Y-19717205D01*
X5698102Y-19795226D01*
X5898061Y-19835000D01*
X6101939Y-19835000D01*
X6301898Y-19795226D01*
X6490256Y-19717205D01*
X6659774Y-19603937D01*
X6803937Y-19459774D01*
X6917205Y-19290256D01*
X6995226Y-19101898D01*
X7035000Y-18901939D01*
X7035000Y-18698061D01*
X6995226Y-18498102D01*
X6917205Y-18309744D01*
X6803937Y-18140226D01*
X6659774Y-17996063D01*
X6490256Y-17882795D01*
X6301898Y-17804774D01*
X6101939Y-17765000D01*
X5898061Y-17765000D01*
X5698102Y-17804774D01*
X5509744Y-17882795D01*
X5450000Y-17922715D01*
X5390256Y-17882795D01*
X5201898Y-17804774D01*
X5001939Y-17765000D01*
X4798061Y-17765000D01*
X4598102Y-17804774D01*
X4409744Y-17882795D01*
X4240226Y-17996063D01*
X4096063Y-18140226D01*
X3982795Y-18309744D01*
X3904774Y-18498102D01*
X3865000Y-18698061D01*
X2530250Y-18698061D01*
X2618005Y-18566727D01*
X2723314Y-18312490D01*
X2777000Y-18042592D01*
X2777000Y-17767408D01*
X2723314Y-17497510D01*
X2618005Y-17243273D01*
X2465120Y-17014465D01*
X2270535Y-16819880D01*
X2041727Y-16666995D01*
X1964485Y-16635000D01*
X2041727Y-16603005D01*
X2270535Y-16450120D01*
X2465120Y-16255535D01*
X2618005Y-16026727D01*
X2723314Y-15772490D01*
X2777000Y-15502592D01*
X2777000Y-15227408D01*
X2723314Y-14957510D01*
X2618005Y-14703273D01*
X2465120Y-14474465D01*
X2270535Y-14279880D01*
X2041727Y-14126995D01*
X1964485Y-14095000D01*
X2041727Y-14063005D01*
X2270535Y-13910120D01*
X2465120Y-13715535D01*
X2618005Y-13486727D01*
X2723314Y-13232490D01*
X2777000Y-12962592D01*
X2777000Y-12687408D01*
X2723314Y-12417510D01*
X2618005Y-12163273D01*
X2465120Y-11934465D01*
X2270535Y-11739880D01*
X2041727Y-11586995D01*
X1964485Y-11555000D01*
X2041727Y-11523005D01*
X2270535Y-11370120D01*
X2465120Y-11175535D01*
X2618005Y-10946727D01*
X2723314Y-10692490D01*
X2777000Y-10422592D01*
X2777000Y-10147408D01*
X2727402Y-9898061D01*
X4965000Y-9898061D01*
X4965000Y-10101939D01*
X5004774Y-10301898D01*
X5082795Y-10490256D01*
X5196063Y-10659774D01*
X5340226Y-10803937D01*
X5509744Y-10917205D01*
X5698102Y-10995226D01*
X5898061Y-11035000D01*
X6101939Y-11035000D01*
X6301898Y-10995226D01*
X6490256Y-10917205D01*
X6659774Y-10803937D01*
X6803937Y-10659774D01*
X6917205Y-10490256D01*
X6995226Y-10301898D01*
X7035000Y-10101939D01*
X7035000Y-9898061D01*
X6995226Y-9698102D01*
X6917205Y-9509744D01*
X6803937Y-9340226D01*
X6659774Y-9196063D01*
X6490256Y-9082795D01*
X6301898Y-9004774D01*
X6101939Y-8965000D01*
X5898061Y-8965000D01*
X5698102Y-9004774D01*
X5509744Y-9082795D01*
X5340226Y-9196063D01*
X5196063Y-9340226D01*
X5082795Y-9509744D01*
X5004774Y-9698102D01*
X4965000Y-9898061D01*
X2727402Y-9898061D01*
X2723314Y-9877510D01*
X2618005Y-9623273D01*
X2465120Y-9394465D01*
X2270535Y-9199880D01*
X2041727Y-9046995D01*
X1964485Y-9015000D01*
X2041727Y-8983005D01*
X2270535Y-8830120D01*
X2465120Y-8635535D01*
X2618005Y-8406727D01*
X2723314Y-8152490D01*
X2777000Y-7882592D01*
X2777000Y-7817017D01*
X15218090Y-7817017D01*
X15259078Y-8089133D01*
X15352364Y-8348023D01*
X15414344Y-8463980D01*
X15654435Y-8530960D01*
X16440395Y-7745000D01*
X15654435Y-6959040D01*
X15414344Y-7026020D01*
X15297244Y-7275048D01*
X15230977Y-7542135D01*
X15218090Y-7817017D01*
X2777000Y-7817017D01*
X2777000Y-7607408D01*
X2723314Y-7337510D01*
X2618005Y-7083273D01*
X2465120Y-6854465D01*
X2270655Y-6660000D01*
X15867360Y-6660000D01*
X15834040Y-6779435D01*
%TA.AperFunction,Conductor*%
D14*
G36*
X15834040Y-6779435D02*
G01*
X16620000Y-7565395D01*
X16634143Y-7551253D01*
X16813748Y-7730858D01*
X16799605Y-7745000D01*
X16813748Y-7759143D01*
X16634143Y-7938748D01*
X16620000Y-7924605D01*
X15834040Y-8710565D01*
X15901020Y-8950656D01*
X16036760Y-9014485D01*
X15958273Y-9046995D01*
X15729465Y-9199880D01*
X15534880Y-9394465D01*
X15381995Y-9623273D01*
X15276686Y-9877510D01*
X15223000Y-10147408D01*
X15223000Y-10422592D01*
X15276686Y-10692490D01*
X15381995Y-10946727D01*
X15534880Y-11175535D01*
X15729465Y-11370120D01*
X15958273Y-11523005D01*
X16035515Y-11555000D01*
X15958273Y-11586995D01*
X15729465Y-11739880D01*
X15534880Y-11934465D01*
X15381995Y-12163273D01*
X15276686Y-12417510D01*
X15223000Y-12687408D01*
X15223000Y-12962592D01*
X15276686Y-13232490D01*
X15381995Y-13486727D01*
X15534880Y-13715535D01*
X15729465Y-13910120D01*
X15958273Y-14063005D01*
X16035515Y-14095000D01*
X15958273Y-14126995D01*
X15729465Y-14279880D01*
X15534880Y-14474465D01*
X15381995Y-14703273D01*
X15348309Y-14784598D01*
X15259774Y-14696063D01*
X15090256Y-14582795D01*
X14901898Y-14504774D01*
X14701939Y-14465000D01*
X14498061Y-14465000D01*
X14298102Y-14504774D01*
X14109744Y-14582795D01*
X13940226Y-14696063D01*
X13796063Y-14840226D01*
X13682795Y-15009744D01*
X13604774Y-15198102D01*
X13565000Y-15398061D01*
X13565000Y-15601939D01*
X13604774Y-15801898D01*
X13682795Y-15990256D01*
X13796063Y-16159774D01*
X13940226Y-16303937D01*
X14109744Y-16417205D01*
X14298102Y-16495226D01*
X14498061Y-16535000D01*
X14701939Y-16535000D01*
X14901898Y-16495226D01*
X15090256Y-16417205D01*
X15259774Y-16303937D01*
X15403937Y-16159774D01*
X15437416Y-16109670D01*
X15534880Y-16255535D01*
X15729465Y-16450120D01*
X15958273Y-16603005D01*
X16035515Y-16635000D01*
X15958273Y-16666995D01*
X15729465Y-16819880D01*
X15534880Y-17014465D01*
X15512168Y-17048457D01*
X15459774Y-16996063D01*
X15290256Y-16882795D01*
X15101898Y-16804774D01*
X14901939Y-16765000D01*
X14698061Y-16765000D01*
X14498102Y-16804774D01*
X14309744Y-16882795D01*
X14140226Y-16996063D01*
X13996063Y-17140226D01*
X13882795Y-17309744D01*
X13804774Y-17498102D01*
X13765000Y-17698061D01*
X13765000Y-17901939D01*
X13804774Y-18101898D01*
X13882795Y-18290256D01*
X13996063Y-18459774D01*
X14140226Y-18603937D01*
X14309744Y-18717205D01*
X14498102Y-18795226D01*
X14698061Y-18835000D01*
X14901939Y-18835000D01*
X15101898Y-18795226D01*
X15290256Y-18717205D01*
X15423191Y-18628381D01*
X15534880Y-18795535D01*
X15729465Y-18990120D01*
X15958273Y-19143005D01*
X16035515Y-19175000D01*
X15958273Y-19206995D01*
X15729465Y-19359880D01*
X15534880Y-19554465D01*
X15381995Y-19783273D01*
X15276686Y-20037510D01*
X15223000Y-20307408D01*
X15223000Y-20582592D01*
X15276686Y-20852490D01*
X15381995Y-21106727D01*
X15534880Y-21335535D01*
X15729465Y-21530120D01*
X15958273Y-21683005D01*
X16035515Y-21715000D01*
X15958273Y-21746995D01*
X15729465Y-21899880D01*
X15534880Y-22094465D01*
X15381995Y-22323273D01*
X15276686Y-22577510D01*
X15223000Y-22847408D01*
X15223000Y-23122592D01*
X15276686Y-23392490D01*
X15381995Y-23646727D01*
X15534880Y-23875535D01*
X15729465Y-24070120D01*
X15958273Y-24223005D01*
X16035515Y-24255000D01*
X15958273Y-24286995D01*
X15729465Y-24439880D01*
X15534880Y-24634465D01*
X15381995Y-24863273D01*
X15276686Y-25117510D01*
X15223000Y-25387408D01*
X15223000Y-25662592D01*
X15276686Y-25932490D01*
X15381995Y-26186727D01*
X15534880Y-26415535D01*
X15729465Y-26610120D01*
X15958273Y-26763005D01*
X16035515Y-26795000D01*
X15958273Y-26826995D01*
X15729465Y-26979880D01*
X15534880Y-27174465D01*
X15381995Y-27403273D01*
X15276686Y-27657510D01*
X15223000Y-27927408D01*
X15223000Y-28202592D01*
X15276686Y-28472490D01*
X15381995Y-28726727D01*
X15534880Y-28955535D01*
X15729465Y-29150120D01*
X15958273Y-29303005D01*
X16035515Y-29335000D01*
X15958273Y-29366995D01*
X15729465Y-29519880D01*
X15534880Y-29714465D01*
X15381995Y-29943273D01*
X15276686Y-30197510D01*
X15223000Y-30467408D01*
X15223000Y-30742592D01*
X15276686Y-31012490D01*
X15381995Y-31266727D01*
X15430955Y-31340000D01*
X2569045Y-31340000D01*
X2618005Y-31266727D01*
X2723314Y-31012490D01*
X2777000Y-30742592D01*
X2777000Y-30467408D01*
X2723314Y-30197510D01*
X2618005Y-29943273D01*
X2465120Y-29714465D01*
X2270535Y-29519880D01*
X2041727Y-29366995D01*
X1970057Y-29337308D01*
X1983023Y-29332636D01*
X2098980Y-29270656D01*
X2165960Y-29030565D01*
X1380000Y-28244605D01*
X1365858Y-28258748D01*
X1186253Y-28079143D01*
X1200395Y-28065000D01*
X1559605Y-28065000D01*
X2345565Y-28850960D01*
X2585656Y-28783980D01*
X2702756Y-28534952D01*
X2769023Y-28267865D01*
X2781910Y-27992983D01*
X2740922Y-27720867D01*
X2647636Y-27461977D01*
X2613473Y-27398061D01*
X4865000Y-27398061D01*
X4865000Y-27601939D01*
X4904774Y-27801898D01*
X4982795Y-27990256D01*
X5096063Y-28159774D01*
X5240226Y-28303937D01*
X5409744Y-28417205D01*
X5598102Y-28495226D01*
X5798061Y-28535000D01*
X6001939Y-28535000D01*
X6201898Y-28495226D01*
X6390256Y-28417205D01*
X6559774Y-28303937D01*
X6703937Y-28159774D01*
X6817205Y-27990256D01*
X6895226Y-27801898D01*
X6935000Y-27601939D01*
X6935000Y-27398061D01*
X6895226Y-27198102D01*
X6817205Y-27009744D01*
X6703937Y-26840226D01*
X6559774Y-26696063D01*
X6390256Y-26582795D01*
X6201898Y-26504774D01*
X6001939Y-26465000D01*
X5798061Y-26465000D01*
X5598102Y-26504774D01*
X5409744Y-26582795D01*
X5240226Y-26696063D01*
X5096063Y-26840226D01*
X4982795Y-27009744D01*
X4904774Y-27198102D01*
X4865000Y-27398061D01*
X2613473Y-27398061D01*
X2585656Y-27346020D01*
X2345565Y-27279040D01*
X1559605Y-28065000D01*
X1200395Y-28065000D01*
X1186253Y-28050858D01*
X1365858Y-27871253D01*
X1380000Y-27885395D01*
X2165960Y-27099435D01*
X2098980Y-26859344D01*
X1963240Y-26795515D01*
X2041727Y-26763005D01*
X2270535Y-26610120D01*
X2465120Y-26415535D01*
X2618005Y-26186727D01*
X2723314Y-25932490D01*
X2777000Y-25662592D01*
X2777000Y-25387408D01*
X2723314Y-25117510D01*
X2632415Y-24898061D01*
X6665000Y-24898061D01*
X6665000Y-25101939D01*
X6704774Y-25301898D01*
X6782795Y-25490256D01*
X6896063Y-25659774D01*
X7040226Y-25803937D01*
X7209744Y-25917205D01*
X7398102Y-25995226D01*
X7598061Y-26035000D01*
X7714990Y-26035000D01*
X7714990Y-27752888D01*
X7671053Y-27796825D01*
X7557785Y-27966343D01*
X7479764Y-28154701D01*
X7439990Y-28354660D01*
X7439990Y-28558538D01*
X7479764Y-28758497D01*
X7557785Y-28946855D01*
X7671053Y-29116373D01*
X7815216Y-29260536D01*
X7984734Y-29373804D01*
X8165000Y-29448473D01*
X8165000Y-29601939D01*
X8204774Y-29801898D01*
X8282795Y-29990256D01*
X8396063Y-30159774D01*
X8540226Y-30303937D01*
X8709744Y-30417205D01*
X8898102Y-30495226D01*
X9098061Y-30535000D01*
X9301939Y-30535000D01*
X9501898Y-30495226D01*
X9690256Y-30417205D01*
X9859774Y-30303937D01*
X10003937Y-30159774D01*
X10117205Y-29990256D01*
X10195226Y-29801898D01*
X10235000Y-29601939D01*
X10235000Y-29398061D01*
X10195226Y-29198102D01*
X10117205Y-29009744D01*
X10003937Y-28840226D01*
X9960000Y-28796289D01*
X9960000Y-28398061D01*
X11065000Y-28398061D01*
X11065000Y-28601939D01*
X11104774Y-28801898D01*
X11182795Y-28990256D01*
X11296063Y-29159774D01*
X11440226Y-29303937D01*
X11609744Y-29417205D01*
X11798102Y-29495226D01*
X11998061Y-29535000D01*
X12201939Y-29535000D01*
X12401898Y-29495226D01*
X12590256Y-29417205D01*
X12759774Y-29303937D01*
X12903937Y-29159774D01*
X13017205Y-28990256D01*
X13095226Y-28801898D01*
X13135000Y-28601939D01*
X13135000Y-28398061D01*
X13095226Y-28198102D01*
X13017205Y-28009744D01*
X12903937Y-27840226D01*
X12759774Y-27696063D01*
X12590256Y-27582795D01*
X12401898Y-27504774D01*
X12201939Y-27465000D01*
X11998061Y-27465000D01*
X11798102Y-27504774D01*
X11609744Y-27582795D01*
X11440226Y-27696063D01*
X11296063Y-27840226D01*
X11182795Y-28009744D01*
X11104774Y-28198102D01*
X11065000Y-28398061D01*
X9960000Y-28398061D01*
X9960000Y-25703711D01*
X10003937Y-25659774D01*
X10117205Y-25490256D01*
X10195226Y-25301898D01*
X10235000Y-25101939D01*
X10235000Y-24898061D01*
X10195226Y-24698102D01*
X10117205Y-24509744D01*
X10003937Y-24340226D01*
X9960000Y-24296289D01*
X9960000Y-23835000D01*
X10101939Y-23835000D01*
X10301898Y-23795226D01*
X10490256Y-23717205D01*
X10659774Y-23603937D01*
X10740413Y-23523298D01*
X11387969Y-23523298D01*
X11387969Y-23727176D01*
X11427743Y-23927135D01*
X11505764Y-24115493D01*
X11619032Y-24285011D01*
X11763195Y-24429174D01*
X11932713Y-24542442D01*
X12121071Y-24620463D01*
X12321030Y-24660237D01*
X12524908Y-24660237D01*
X12724867Y-24620463D01*
X12913225Y-24542442D01*
X13082743Y-24429174D01*
X13226906Y-24285011D01*
X13340174Y-24115493D01*
X13418195Y-23927135D01*
X13457969Y-23727176D01*
X13457969Y-23523298D01*
X13418195Y-23323339D01*
X13340174Y-23134981D01*
X13226906Y-22965463D01*
X13082743Y-22821300D01*
X12913225Y-22708032D01*
X12724867Y-22630011D01*
X12524908Y-22590237D01*
X12321030Y-22590237D01*
X12121071Y-22630011D01*
X11932713Y-22708032D01*
X11763195Y-22821300D01*
X11619032Y-22965463D01*
X11505764Y-23134981D01*
X11427743Y-23323339D01*
X11387969Y-23523298D01*
X10740413Y-23523298D01*
X10803937Y-23459774D01*
X10917205Y-23290256D01*
X10995226Y-23101898D01*
X11035000Y-22901939D01*
X11035000Y-22698061D01*
X10995226Y-22498102D01*
X10917205Y-22309744D01*
X10803937Y-22140226D01*
X10659774Y-21996063D01*
X10490256Y-21882795D01*
X10301898Y-21804774D01*
X10101939Y-21765000D01*
X9960000Y-21765000D01*
X9960000Y-21503711D01*
X10003937Y-21459774D01*
X10117205Y-21290256D01*
X10195226Y-21101898D01*
X10235000Y-20901939D01*
X10235000Y-20698061D01*
X10195226Y-20498102D01*
X10117205Y-20309744D01*
X10003937Y-20140226D01*
X9960000Y-20096289D01*
X9960000Y-19573051D01*
X10865000Y-19573051D01*
X10865000Y-19776929D01*
X10904774Y-19976888D01*
X10982795Y-20165246D01*
X11096063Y-20334764D01*
X11240226Y-20478927D01*
X11409744Y-20592195D01*
X11598102Y-20670216D01*
X11798061Y-20709990D01*
X12001939Y-20709990D01*
X12201898Y-20670216D01*
X12390256Y-20592195D01*
X12559774Y-20478927D01*
X12703937Y-20334764D01*
X12817205Y-20165246D01*
X12895226Y-19976888D01*
X12935000Y-19776929D01*
X12935000Y-19573051D01*
X12895226Y-19373092D01*
X12817205Y-19184734D01*
X12703937Y-19015216D01*
X12559774Y-18871053D01*
X12390256Y-18757785D01*
X12201898Y-18679764D01*
X12001939Y-18639990D01*
X11798061Y-18639990D01*
X11598102Y-18679764D01*
X11409744Y-18757785D01*
X11240226Y-18871053D01*
X11096063Y-19015216D01*
X10982795Y-19184734D01*
X10904774Y-19373092D01*
X10865000Y-19573051D01*
X9960000Y-19573051D01*
X9960000Y-13703711D01*
X10003937Y-13659774D01*
X10117205Y-13490256D01*
X10195226Y-13301898D01*
X10235000Y-13101939D01*
X10235000Y-12898061D01*
X10195226Y-12698102D01*
X10117205Y-12509744D01*
X10003937Y-12340226D01*
X9960000Y-12296289D01*
X9960000Y-11166011D01*
X10047315Y-11059617D01*
X10117887Y-10927588D01*
X10161344Y-10784327D01*
X10172341Y-10672674D01*
X10172341Y-10672673D01*
X10176018Y-10635341D01*
X10173083Y-10605541D01*
X10985501Y-10605541D01*
X10985501Y-10809419D01*
X11025275Y-11009378D01*
X11103296Y-11197736D01*
X11216564Y-11367254D01*
X11360727Y-11511417D01*
X11530245Y-11624685D01*
X11718603Y-11702706D01*
X11918562Y-11742480D01*
X12122440Y-11742480D01*
X12322399Y-11702706D01*
X12510757Y-11624685D01*
X12680275Y-11511417D01*
X12824438Y-11367254D01*
X12937706Y-11197736D01*
X13015727Y-11009378D01*
X13055501Y-10809419D01*
X13055501Y-10605541D01*
X13043149Y-10543444D01*
X13073920Y-10522884D01*
X13218083Y-10378721D01*
X13331351Y-10209203D01*
X13409372Y-10020845D01*
X13449146Y-9820886D01*
X13449146Y-9617008D01*
X13409372Y-9417049D01*
X13331351Y-9228691D01*
X13218083Y-9059173D01*
X13073920Y-8915010D01*
X12904402Y-8801742D01*
X12716044Y-8723721D01*
X12516085Y-8683947D01*
X12312207Y-8683947D01*
X12112248Y-8723721D01*
X11923890Y-8801742D01*
X11754372Y-8915010D01*
X11610209Y-9059173D01*
X11496941Y-9228691D01*
X11418920Y-9417049D01*
X11379146Y-9617008D01*
X11379146Y-9820886D01*
X11391498Y-9882983D01*
X11360727Y-9903543D01*
X11216564Y-10047706D01*
X11103296Y-10217224D01*
X11025275Y-10405582D01*
X10985501Y-10605541D01*
X10173083Y-10605541D01*
X10172341Y-10598008D01*
X10172341Y-9976672D01*
X10176018Y-9939339D01*
X10161344Y-9790353D01*
X10117887Y-9647093D01*
X10117887Y-9647092D01*
X10115453Y-9642539D01*
X10217205Y-9490256D01*
X10295226Y-9301898D01*
X10335000Y-9101939D01*
X10335000Y-8898061D01*
X10295226Y-8698102D01*
X10217205Y-8509744D01*
X10103937Y-8340226D01*
X9959774Y-8196063D01*
X9790256Y-8082795D01*
X9601898Y-8004774D01*
X9401939Y-7965000D01*
X9198061Y-7965000D01*
X8998102Y-8004774D01*
X8809744Y-8082795D01*
X8640226Y-8196063D01*
X8496063Y-8340226D01*
X8382795Y-8509744D01*
X8304774Y-8698102D01*
X8265000Y-8898061D01*
X8265000Y-9101939D01*
X8304774Y-9301898D01*
X8313129Y-9322067D01*
X8197084Y-9370135D01*
X8027566Y-9483403D01*
X7883403Y-9627566D01*
X7770135Y-9797084D01*
X7692114Y-9985442D01*
X7652340Y-10185401D01*
X7652340Y-10263114D01*
X7581795Y-10395093D01*
X7573454Y-10422592D01*
X7538339Y-10538353D01*
X7528786Y-10635341D01*
X7523665Y-10687339D01*
X7527342Y-10724671D01*
X7527341Y-13123020D01*
X7523665Y-13160343D01*
X7527341Y-13197665D01*
X7527341Y-13197675D01*
X7538338Y-13309328D01*
X7581795Y-13452589D01*
X7652367Y-13584619D01*
X7692212Y-13633169D01*
X7714991Y-13660926D01*
X7714990Y-19121299D01*
X7671053Y-19165236D01*
X7557785Y-19334754D01*
X7479764Y-19523112D01*
X7439990Y-19723071D01*
X7439990Y-19926949D01*
X7479764Y-20126908D01*
X7557785Y-20315266D01*
X7671053Y-20484784D01*
X7714991Y-20528722D01*
X7714991Y-23965000D01*
X7598061Y-23965000D01*
X7398102Y-24004774D01*
X7209744Y-24082795D01*
X7040226Y-24196063D01*
X6896063Y-24340226D01*
X6782795Y-24509744D01*
X6704774Y-24698102D01*
X6665000Y-24898061D01*
X2632415Y-24898061D01*
X2618005Y-24863273D01*
X2465120Y-24634465D01*
X2270535Y-24439880D01*
X2041727Y-24286995D01*
X1964485Y-24255000D01*
X2041727Y-24223005D01*
X2270535Y-24070120D01*
X2465120Y-23875535D01*
X2618005Y-23646727D01*
X2723314Y-23392490D01*
X2777000Y-23122592D01*
X2777000Y-22847408D01*
X2723314Y-22577510D01*
X2618005Y-22323273D01*
X2465120Y-22094465D01*
X2270535Y-21899880D01*
X2041727Y-21746995D01*
X1964485Y-21715000D01*
X2041727Y-21683005D01*
X2270535Y-21530120D01*
X2465120Y-21335535D01*
X2618005Y-21106727D01*
X2723314Y-20852490D01*
X2777000Y-20582592D01*
X2777000Y-20307408D01*
X2723314Y-20037510D01*
X2618005Y-19783273D01*
X2465120Y-19554465D01*
X2270535Y-19359880D01*
X2041727Y-19206995D01*
X1964485Y-19175000D01*
X2041727Y-19143005D01*
X2270535Y-18990120D01*
X2465120Y-18795535D01*
X2530250Y-18698061D01*
X3865000Y-18698061D01*
X3865000Y-18901939D01*
X3904774Y-19101898D01*
X3982795Y-19290256D01*
X4096063Y-19459774D01*
X4240226Y-19603937D01*
X4409744Y-19717205D01*
X4598102Y-19795226D01*
X4798061Y-19835000D01*
X5001939Y-19835000D01*
X5201898Y-19795226D01*
X5390256Y-19717205D01*
X5450000Y-19677285D01*
X5509744Y-19717205D01*
X5698102Y-19795226D01*
X5898061Y-19835000D01*
X6101939Y-19835000D01*
X6301898Y-19795226D01*
X6490256Y-19717205D01*
X6659774Y-19603937D01*
X6803937Y-19459774D01*
X6917205Y-19290256D01*
X6995226Y-19101898D01*
X7035000Y-18901939D01*
X7035000Y-18698061D01*
X6995226Y-18498102D01*
X6917205Y-18309744D01*
X6803937Y-18140226D01*
X6659774Y-17996063D01*
X6490256Y-17882795D01*
X6301898Y-17804774D01*
X6101939Y-17765000D01*
X5898061Y-17765000D01*
X5698102Y-17804774D01*
X5509744Y-17882795D01*
X5450000Y-17922715D01*
X5390256Y-17882795D01*
X5201898Y-17804774D01*
X5001939Y-17765000D01*
X4798061Y-17765000D01*
X4598102Y-17804774D01*
X4409744Y-17882795D01*
X4240226Y-17996063D01*
X4096063Y-18140226D01*
X3982795Y-18309744D01*
X3904774Y-18498102D01*
X3865000Y-18698061D01*
X2530250Y-18698061D01*
X2618005Y-18566727D01*
X2723314Y-18312490D01*
X2777000Y-18042592D01*
X2777000Y-17767408D01*
X2723314Y-17497510D01*
X2618005Y-17243273D01*
X2465120Y-17014465D01*
X2270535Y-16819880D01*
X2041727Y-16666995D01*
X1964485Y-16635000D01*
X2041727Y-16603005D01*
X2270535Y-16450120D01*
X2465120Y-16255535D01*
X2618005Y-16026727D01*
X2723314Y-15772490D01*
X2777000Y-15502592D01*
X2777000Y-15227408D01*
X2723314Y-14957510D01*
X2618005Y-14703273D01*
X2465120Y-14474465D01*
X2270535Y-14279880D01*
X2041727Y-14126995D01*
X1964485Y-14095000D01*
X2041727Y-14063005D01*
X2270535Y-13910120D01*
X2465120Y-13715535D01*
X2618005Y-13486727D01*
X2723314Y-13232490D01*
X2777000Y-12962592D01*
X2777000Y-12687408D01*
X2723314Y-12417510D01*
X2618005Y-12163273D01*
X2465120Y-11934465D01*
X2270535Y-11739880D01*
X2041727Y-11586995D01*
X1964485Y-11555000D01*
X2041727Y-11523005D01*
X2270535Y-11370120D01*
X2465120Y-11175535D01*
X2618005Y-10946727D01*
X2723314Y-10692490D01*
X2777000Y-10422592D01*
X2777000Y-10147408D01*
X2727402Y-9898061D01*
X4965000Y-9898061D01*
X4965000Y-10101939D01*
X5004774Y-10301898D01*
X5082795Y-10490256D01*
X5196063Y-10659774D01*
X5340226Y-10803937D01*
X5509744Y-10917205D01*
X5698102Y-10995226D01*
X5898061Y-11035000D01*
X6101939Y-11035000D01*
X6301898Y-10995226D01*
X6490256Y-10917205D01*
X6659774Y-10803937D01*
X6803937Y-10659774D01*
X6917205Y-10490256D01*
X6995226Y-10301898D01*
X7035000Y-10101939D01*
X7035000Y-9898061D01*
X6995226Y-9698102D01*
X6917205Y-9509744D01*
X6803937Y-9340226D01*
X6659774Y-9196063D01*
X6490256Y-9082795D01*
X6301898Y-9004774D01*
X6101939Y-8965000D01*
X5898061Y-8965000D01*
X5698102Y-9004774D01*
X5509744Y-9082795D01*
X5340226Y-9196063D01*
X5196063Y-9340226D01*
X5082795Y-9509744D01*
X5004774Y-9698102D01*
X4965000Y-9898061D01*
X2727402Y-9898061D01*
X2723314Y-9877510D01*
X2618005Y-9623273D01*
X2465120Y-9394465D01*
X2270535Y-9199880D01*
X2041727Y-9046995D01*
X1964485Y-9015000D01*
X2041727Y-8983005D01*
X2270535Y-8830120D01*
X2465120Y-8635535D01*
X2618005Y-8406727D01*
X2723314Y-8152490D01*
X2777000Y-7882592D01*
X2777000Y-7817017D01*
X15218090Y-7817017D01*
X15259078Y-8089133D01*
X15352364Y-8348023D01*
X15414344Y-8463980D01*
X15654435Y-8530960D01*
X16440395Y-7745000D01*
X15654435Y-6959040D01*
X15414344Y-7026020D01*
X15297244Y-7275048D01*
X15230977Y-7542135D01*
X15218090Y-7817017D01*
X2777000Y-7817017D01*
X2777000Y-7607408D01*
X2723314Y-7337510D01*
X2618005Y-7083273D01*
X2465120Y-6854465D01*
X2270655Y-6660000D01*
X15867360Y-6660000D01*
X15834040Y-6779435D01*
G37*
%TD.AperFunction*%
%TD*%
M02*
