%TF.GenerationSoftware,KiCad,Pcbnew,(5.1.9-0-10_14)*%
%TF.CreationDate,2022-01-13T23:21:40+01:00*%
%TF.ProjectId,tinypico_shield,74696e79-7069-4636-9f5f-736869656c64,rev?*%
%TF.SameCoordinates,Original*%
%TF.FileFunction,Legend,Bot*%
%TF.FilePolarity,Positive*%
%FSLAX46Y46*%
G04 Gerber Fmt 4.6, Leading zero omitted, Abs format (unit mm)*
G04 Created by KiCad (PCBNEW (5.1.9-0-10_14)) date 2022-01-13 23:21:40*
%MOMM*%
%LPD*%
G01*
G04 APERTURE LIST*
%ADD10C,0.150000*%
%ADD11C,0.120000*%
G04 APERTURE END LIST*
D10*
X14352380Y-14580952D02*
X15066666Y-14580952D01*
X15209523Y-14533333D01*
X15304761Y-14438095D01*
X15352380Y-14295238D01*
X15352380Y-14200000D01*
X15352380Y-15533333D02*
X15352380Y-15057142D01*
X14352380Y-15057142D01*
X15257142Y-16438095D02*
X15304761Y-16390476D01*
X15352380Y-16247619D01*
X15352380Y-16152380D01*
X15304761Y-16009523D01*
X15209523Y-15914285D01*
X15114285Y-15866666D01*
X14923809Y-15819047D01*
X14780952Y-15819047D01*
X14590476Y-15866666D01*
X14495238Y-15914285D01*
X14400000Y-16009523D01*
X14352380Y-16152380D01*
X14352380Y-16247619D01*
X14400000Y-16390476D01*
X14447619Y-16438095D01*
X14352380Y-17152380D02*
X15066666Y-17152380D01*
X15209523Y-17104761D01*
X15304761Y-17009523D01*
X15352380Y-16866666D01*
X15352380Y-16771428D01*
X15352380Y-18104761D02*
X15352380Y-17628571D01*
X14352380Y-17628571D01*
X15257142Y-19009523D02*
X15304761Y-18961904D01*
X15352380Y-18819047D01*
X15352380Y-18723809D01*
X15304761Y-18580952D01*
X15209523Y-18485714D01*
X15114285Y-18438095D01*
X14923809Y-18390476D01*
X14780952Y-18390476D01*
X14590476Y-18438095D01*
X14495238Y-18485714D01*
X14400000Y-18580952D01*
X14352380Y-18723809D01*
X14352380Y-18819047D01*
X14400000Y-18961904D01*
X14447619Y-19009523D01*
X14352380Y-19723809D02*
X15066666Y-19723809D01*
X15209523Y-19676190D01*
X15304761Y-19580952D01*
X15352380Y-19438095D01*
X15352380Y-19342857D01*
X15352380Y-20676190D02*
X15352380Y-20200000D01*
X14352380Y-20200000D01*
X15257142Y-21580952D02*
X15304761Y-21533333D01*
X15352380Y-21390476D01*
X15352380Y-21295238D01*
X15304761Y-21152380D01*
X15209523Y-21057142D01*
X15114285Y-21009523D01*
X14923809Y-20961904D01*
X14780952Y-20961904D01*
X14590476Y-21009523D01*
X14495238Y-21057142D01*
X14400000Y-21152380D01*
X14352380Y-21295238D01*
X14352380Y-21390476D01*
X14400000Y-21533333D01*
X14447619Y-21580952D01*
X14352380Y-22295238D02*
X15066666Y-22295238D01*
X15209523Y-22247619D01*
X15304761Y-22152380D01*
X15352380Y-22009523D01*
X15352380Y-21914285D01*
X15352380Y-23247619D02*
X15352380Y-22771428D01*
X14352380Y-22771428D01*
X15257142Y-24152380D02*
X15304761Y-24104761D01*
X15352380Y-23961904D01*
X15352380Y-23866666D01*
X15304761Y-23723809D01*
X15209523Y-23628571D01*
X15114285Y-23580952D01*
X14923809Y-23533333D01*
X14780952Y-23533333D01*
X14590476Y-23580952D01*
X14495238Y-23628571D01*
X14400000Y-23723809D01*
X14352380Y-23866666D01*
X14352380Y-23961904D01*
X14400000Y-24104761D01*
X14447619Y-24152380D01*
D11*
%TO.C,J6*%
X3990000Y-26060000D02*
X3990000Y-29940000D01*
X7110000Y-31110000D02*
X7110000Y-30060000D01*
X5960000Y-31110000D02*
X7110000Y-31110000D01*
X7110000Y-25940000D02*
X8100000Y-25940000D01*
X7110000Y-24890000D02*
X7110000Y-25940000D01*
X5960000Y-24890000D02*
X7110000Y-24890000D01*
%TO.C,J5*%
X14010000Y-29940000D02*
X14010000Y-26060000D01*
X10890000Y-24890000D02*
X10890000Y-25940000D01*
X12040000Y-24890000D02*
X10890000Y-24890000D01*
X10890000Y-30060000D02*
X9900000Y-30060000D01*
X10890000Y-31110000D02*
X10890000Y-30060000D01*
X12040000Y-31110000D02*
X10890000Y-31110000D01*
%TO.C,J4*%
X3990000Y-17360000D02*
X3990000Y-21240000D01*
X7110000Y-22410000D02*
X7110000Y-21360000D01*
X5960000Y-22410000D02*
X7110000Y-22410000D01*
X7110000Y-17240000D02*
X8100000Y-17240000D01*
X7110000Y-16190000D02*
X7110000Y-17240000D01*
X5960000Y-16190000D02*
X7110000Y-16190000D01*
%TO.C,J3*%
X14010000Y-21240000D02*
X14010000Y-17360000D01*
X10890000Y-16190000D02*
X10890000Y-17240000D01*
X12040000Y-16190000D02*
X10890000Y-16190000D01*
X10890000Y-21360000D02*
X9900000Y-21360000D01*
X10890000Y-22410000D02*
X10890000Y-21360000D01*
X12040000Y-22410000D02*
X10890000Y-22410000D01*
%TO.C,J2*%
X14010000Y-12440000D02*
X14010000Y-8560000D01*
X10890000Y-7390000D02*
X10890000Y-8440000D01*
X12040000Y-7390000D02*
X10890000Y-7390000D01*
X10890000Y-12560000D02*
X9900000Y-12560000D01*
X10890000Y-13610000D02*
X10890000Y-12560000D01*
X12040000Y-13610000D02*
X10890000Y-13610000D01*
%TO.C,J1*%
X3990000Y-8560000D02*
X3990000Y-12440000D01*
X7110000Y-13610000D02*
X7110000Y-12560000D01*
X5960000Y-13610000D02*
X7110000Y-13610000D01*
X7110000Y-8440000D02*
X8100000Y-8440000D01*
X7110000Y-7390000D02*
X7110000Y-8440000D01*
X5960000Y-7390000D02*
X7110000Y-7390000D01*
%TD*%
M02*
