%TF.GenerationSoftware,KiCad,Pcbnew,(5.1.9-0-10_14)*%
%TF.CreationDate,2022-01-13T23:21:40+01:00*%
%TF.ProjectId,tinypico_shield,74696e79-7069-4636-9f5f-736869656c64,rev?*%
%TF.SameCoordinates,Original*%
%TF.FileFunction,Copper,L4,Bot*%
%TF.FilePolarity,Positive*%
%FSLAX46Y46*%
G04 Gerber Fmt 4.6, Leading zero omitted, Abs format (unit mm)*
G04 Created by KiCad (PCBNEW (5.1.9-0-10_14)) date 2022-01-13 23:21:40*
%MOMM*%
%LPD*%
G01*
G04 APERTURE LIST*
%TA.AperFunction,ComponentPad*%
%ADD10C,1.524000*%
%TD*%
%TA.AperFunction,ViaPad*%
%ADD11C,0.800000*%
%TD*%
%TA.AperFunction,Conductor*%
%ADD12C,0.250000*%
%TD*%
%TA.AperFunction,Conductor*%
%ADD13C,0.254000*%
%TD*%
%TA.AperFunction,Conductor*%
%ADD14C,0.100000*%
%TD*%
G04 APERTURE END LIST*
D10*
%TO.P,J7,20*%
%TO.N,GND*%
X16620000Y-7745000D03*
%TO.P,J7,19*%
%TO.N,Net-(J7-Pad19)*%
X16620000Y-10285000D03*
%TO.P,J7,18*%
%TO.N,Net-(J7-Pad18)*%
X16620000Y-12825000D03*
%TO.P,J7,17*%
%TO.N,Net-(J7-Pad17)*%
X16620000Y-15365000D03*
%TO.P,J7,16*%
%TO.N,SDA*%
X16620000Y-17905000D03*
%TO.P,J7,15*%
%TO.N,SCL*%
X16620000Y-20445000D03*
%TO.P,J7,14*%
%TO.N,Net-(J7-Pad14)*%
X16620000Y-22985000D03*
%TO.P,J7,13*%
%TO.N,Net-(J7-Pad13)*%
X16620000Y-25525000D03*
%TO.P,J7,12*%
%TO.N,Net-(J7-Pad12)*%
X16620000Y-28065000D03*
%TO.P,J7,11*%
%TO.N,Net-(J7-Pad11)*%
X16620000Y-30605000D03*
%TO.P,J7,10*%
%TO.N,Net-(C2-Pad1)*%
X1380000Y-30605000D03*
%TO.P,J7,9*%
%TO.N,GND*%
X1380000Y-28065000D03*
%TO.P,J7,8*%
%TO.N,Net-(J7-Pad8)*%
X1380000Y-25525000D03*
%TO.P,J7,7*%
%TO.N,Net-(J7-Pad7)*%
X1380000Y-22985000D03*
%TO.P,J7,6*%
%TO.N,Net-(J7-Pad6)*%
X1380000Y-20445000D03*
%TO.P,J7,5*%
%TO.N,Net-(J7-Pad5)*%
X1380000Y-17905000D03*
%TO.P,J7,4*%
%TO.N,Net-(J7-Pad4)*%
X1380000Y-15365000D03*
%TO.P,J7,3*%
%TO.N,Net-(J7-Pad3)*%
X1380000Y-12825000D03*
%TO.P,J7,2*%
%TO.N,Net-(J7-Pad2)*%
X1380000Y-10285000D03*
%TO.P,J7,1*%
%TO.N,Net-(J7-Pad1)*%
X1380000Y-7745000D03*
%TD*%
%TO.P,J6,MP*%
%TO.N,N/C*%
%TA.AperFunction,SMDPad,CuDef*%
G36*
G01*
X4149999Y-30200000D02*
X5450001Y-30200000D01*
G75*
G02*
X5700000Y-30449999I0J-249999D01*
G01*
X5700000Y-31150001D01*
G75*
G02*
X5450001Y-31400000I-249999J0D01*
G01*
X4149999Y-31400000D01*
G75*
G02*
X3900000Y-31150001I0J249999D01*
G01*
X3900000Y-30449999D01*
G75*
G02*
X4149999Y-30200000I249999J0D01*
G01*
G37*
%TD.AperFunction*%
%TA.AperFunction,SMDPad,CuDef*%
G36*
G01*
X4149999Y-24600000D02*
X5450001Y-24600000D01*
G75*
G02*
X5700000Y-24849999I0J-249999D01*
G01*
X5700000Y-25550001D01*
G75*
G02*
X5450001Y-25800000I-249999J0D01*
G01*
X4149999Y-25800000D01*
G75*
G02*
X3900000Y-25550001I0J249999D01*
G01*
X3900000Y-24849999D01*
G75*
G02*
X4149999Y-24600000I249999J0D01*
G01*
G37*
%TD.AperFunction*%
%TO.P,J6,4*%
%TO.N,SCL*%
%TA.AperFunction,SMDPad,CuDef*%
G36*
G01*
X6700000Y-29200000D02*
X7950000Y-29200000D01*
G75*
G02*
X8100000Y-29350000I0J-150000D01*
G01*
X8100000Y-29650000D01*
G75*
G02*
X7950000Y-29800000I-150000J0D01*
G01*
X6700000Y-29800000D01*
G75*
G02*
X6550000Y-29650000I0J150000D01*
G01*
X6550000Y-29350000D01*
G75*
G02*
X6700000Y-29200000I150000J0D01*
G01*
G37*
%TD.AperFunction*%
%TO.P,J6,3*%
%TO.N,SDA*%
%TA.AperFunction,SMDPad,CuDef*%
G36*
G01*
X6700000Y-28200000D02*
X7950000Y-28200000D01*
G75*
G02*
X8100000Y-28350000I0J-150000D01*
G01*
X8100000Y-28650000D01*
G75*
G02*
X7950000Y-28800000I-150000J0D01*
G01*
X6700000Y-28800000D01*
G75*
G02*
X6550000Y-28650000I0J150000D01*
G01*
X6550000Y-28350000D01*
G75*
G02*
X6700000Y-28200000I150000J0D01*
G01*
G37*
%TD.AperFunction*%
%TO.P,J6,2*%
%TO.N,VCC*%
%TA.AperFunction,SMDPad,CuDef*%
G36*
G01*
X6700000Y-27200000D02*
X7950000Y-27200000D01*
G75*
G02*
X8100000Y-27350000I0J-150000D01*
G01*
X8100000Y-27650000D01*
G75*
G02*
X7950000Y-27800000I-150000J0D01*
G01*
X6700000Y-27800000D01*
G75*
G02*
X6550000Y-27650000I0J150000D01*
G01*
X6550000Y-27350000D01*
G75*
G02*
X6700000Y-27200000I150000J0D01*
G01*
G37*
%TD.AperFunction*%
%TO.P,J6,1*%
%TO.N,GND*%
%TA.AperFunction,SMDPad,CuDef*%
G36*
G01*
X6700000Y-26200000D02*
X7950000Y-26200000D01*
G75*
G02*
X8100000Y-26350000I0J-150000D01*
G01*
X8100000Y-26650000D01*
G75*
G02*
X7950000Y-26800000I-150000J0D01*
G01*
X6700000Y-26800000D01*
G75*
G02*
X6550000Y-26650000I0J150000D01*
G01*
X6550000Y-26350000D01*
G75*
G02*
X6700000Y-26200000I150000J0D01*
G01*
G37*
%TD.AperFunction*%
%TD*%
%TO.P,J5,MP*%
%TO.N,N/C*%
%TA.AperFunction,SMDPad,CuDef*%
G36*
G01*
X13850001Y-25800000D02*
X12549999Y-25800000D01*
G75*
G02*
X12300000Y-25550001I0J249999D01*
G01*
X12300000Y-24849999D01*
G75*
G02*
X12549999Y-24600000I249999J0D01*
G01*
X13850001Y-24600000D01*
G75*
G02*
X14100000Y-24849999I0J-249999D01*
G01*
X14100000Y-25550001D01*
G75*
G02*
X13850001Y-25800000I-249999J0D01*
G01*
G37*
%TD.AperFunction*%
%TA.AperFunction,SMDPad,CuDef*%
G36*
G01*
X13850001Y-31400000D02*
X12549999Y-31400000D01*
G75*
G02*
X12300000Y-31150001I0J249999D01*
G01*
X12300000Y-30449999D01*
G75*
G02*
X12549999Y-30200000I249999J0D01*
G01*
X13850001Y-30200000D01*
G75*
G02*
X14100000Y-30449999I0J-249999D01*
G01*
X14100000Y-31150001D01*
G75*
G02*
X13850001Y-31400000I-249999J0D01*
G01*
G37*
%TD.AperFunction*%
%TO.P,J5,4*%
%TO.N,SCL*%
%TA.AperFunction,SMDPad,CuDef*%
G36*
G01*
X11300000Y-26800000D02*
X10050000Y-26800000D01*
G75*
G02*
X9900000Y-26650000I0J150000D01*
G01*
X9900000Y-26350000D01*
G75*
G02*
X10050000Y-26200000I150000J0D01*
G01*
X11300000Y-26200000D01*
G75*
G02*
X11450000Y-26350000I0J-150000D01*
G01*
X11450000Y-26650000D01*
G75*
G02*
X11300000Y-26800000I-150000J0D01*
G01*
G37*
%TD.AperFunction*%
%TO.P,J5,3*%
%TO.N,SDA*%
%TA.AperFunction,SMDPad,CuDef*%
G36*
G01*
X11300000Y-27800000D02*
X10050000Y-27800000D01*
G75*
G02*
X9900000Y-27650000I0J150000D01*
G01*
X9900000Y-27350000D01*
G75*
G02*
X10050000Y-27200000I150000J0D01*
G01*
X11300000Y-27200000D01*
G75*
G02*
X11450000Y-27350000I0J-150000D01*
G01*
X11450000Y-27650000D01*
G75*
G02*
X11300000Y-27800000I-150000J0D01*
G01*
G37*
%TD.AperFunction*%
%TO.P,J5,2*%
%TO.N,VCC*%
%TA.AperFunction,SMDPad,CuDef*%
G36*
G01*
X11300000Y-28800000D02*
X10050000Y-28800000D01*
G75*
G02*
X9900000Y-28650000I0J150000D01*
G01*
X9900000Y-28350000D01*
G75*
G02*
X10050000Y-28200000I150000J0D01*
G01*
X11300000Y-28200000D01*
G75*
G02*
X11450000Y-28350000I0J-150000D01*
G01*
X11450000Y-28650000D01*
G75*
G02*
X11300000Y-28800000I-150000J0D01*
G01*
G37*
%TD.AperFunction*%
%TO.P,J5,1*%
%TO.N,GND*%
%TA.AperFunction,SMDPad,CuDef*%
G36*
G01*
X11300000Y-29800000D02*
X10050000Y-29800000D01*
G75*
G02*
X9900000Y-29650000I0J150000D01*
G01*
X9900000Y-29350000D01*
G75*
G02*
X10050000Y-29200000I150000J0D01*
G01*
X11300000Y-29200000D01*
G75*
G02*
X11450000Y-29350000I0J-150000D01*
G01*
X11450000Y-29650000D01*
G75*
G02*
X11300000Y-29800000I-150000J0D01*
G01*
G37*
%TD.AperFunction*%
%TD*%
%TO.P,J4,MP*%
%TO.N,N/C*%
%TA.AperFunction,SMDPad,CuDef*%
G36*
G01*
X4149999Y-21500000D02*
X5450001Y-21500000D01*
G75*
G02*
X5700000Y-21749999I0J-249999D01*
G01*
X5700000Y-22450001D01*
G75*
G02*
X5450001Y-22700000I-249999J0D01*
G01*
X4149999Y-22700000D01*
G75*
G02*
X3900000Y-22450001I0J249999D01*
G01*
X3900000Y-21749999D01*
G75*
G02*
X4149999Y-21500000I249999J0D01*
G01*
G37*
%TD.AperFunction*%
%TA.AperFunction,SMDPad,CuDef*%
G36*
G01*
X4149999Y-15900000D02*
X5450001Y-15900000D01*
G75*
G02*
X5700000Y-16149999I0J-249999D01*
G01*
X5700000Y-16850001D01*
G75*
G02*
X5450001Y-17100000I-249999J0D01*
G01*
X4149999Y-17100000D01*
G75*
G02*
X3900000Y-16850001I0J249999D01*
G01*
X3900000Y-16149999D01*
G75*
G02*
X4149999Y-15900000I249999J0D01*
G01*
G37*
%TD.AperFunction*%
%TO.P,J4,4*%
%TO.N,SCL*%
%TA.AperFunction,SMDPad,CuDef*%
G36*
G01*
X6700000Y-20500000D02*
X7950000Y-20500000D01*
G75*
G02*
X8100000Y-20650000I0J-150000D01*
G01*
X8100000Y-20950000D01*
G75*
G02*
X7950000Y-21100000I-150000J0D01*
G01*
X6700000Y-21100000D01*
G75*
G02*
X6550000Y-20950000I0J150000D01*
G01*
X6550000Y-20650000D01*
G75*
G02*
X6700000Y-20500000I150000J0D01*
G01*
G37*
%TD.AperFunction*%
%TO.P,J4,3*%
%TO.N,SDA*%
%TA.AperFunction,SMDPad,CuDef*%
G36*
G01*
X6700000Y-19500000D02*
X7950000Y-19500000D01*
G75*
G02*
X8100000Y-19650000I0J-150000D01*
G01*
X8100000Y-19950000D01*
G75*
G02*
X7950000Y-20100000I-150000J0D01*
G01*
X6700000Y-20100000D01*
G75*
G02*
X6550000Y-19950000I0J150000D01*
G01*
X6550000Y-19650000D01*
G75*
G02*
X6700000Y-19500000I150000J0D01*
G01*
G37*
%TD.AperFunction*%
%TO.P,J4,2*%
%TO.N,VCC*%
%TA.AperFunction,SMDPad,CuDef*%
G36*
G01*
X6700000Y-18500000D02*
X7950000Y-18500000D01*
G75*
G02*
X8100000Y-18650000I0J-150000D01*
G01*
X8100000Y-18950000D01*
G75*
G02*
X7950000Y-19100000I-150000J0D01*
G01*
X6700000Y-19100000D01*
G75*
G02*
X6550000Y-18950000I0J150000D01*
G01*
X6550000Y-18650000D01*
G75*
G02*
X6700000Y-18500000I150000J0D01*
G01*
G37*
%TD.AperFunction*%
%TO.P,J4,1*%
%TO.N,GND*%
%TA.AperFunction,SMDPad,CuDef*%
G36*
G01*
X6700000Y-17500000D02*
X7950000Y-17500000D01*
G75*
G02*
X8100000Y-17650000I0J-150000D01*
G01*
X8100000Y-17950000D01*
G75*
G02*
X7950000Y-18100000I-150000J0D01*
G01*
X6700000Y-18100000D01*
G75*
G02*
X6550000Y-17950000I0J150000D01*
G01*
X6550000Y-17650000D01*
G75*
G02*
X6700000Y-17500000I150000J0D01*
G01*
G37*
%TD.AperFunction*%
%TD*%
%TO.P,J3,MP*%
%TO.N,N/C*%
%TA.AperFunction,SMDPad,CuDef*%
G36*
G01*
X13850001Y-17100000D02*
X12549999Y-17100000D01*
G75*
G02*
X12300000Y-16850001I0J249999D01*
G01*
X12300000Y-16149999D01*
G75*
G02*
X12549999Y-15900000I249999J0D01*
G01*
X13850001Y-15900000D01*
G75*
G02*
X14100000Y-16149999I0J-249999D01*
G01*
X14100000Y-16850001D01*
G75*
G02*
X13850001Y-17100000I-249999J0D01*
G01*
G37*
%TD.AperFunction*%
%TA.AperFunction,SMDPad,CuDef*%
G36*
G01*
X13850001Y-22700000D02*
X12549999Y-22700000D01*
G75*
G02*
X12300000Y-22450001I0J249999D01*
G01*
X12300000Y-21749999D01*
G75*
G02*
X12549999Y-21500000I249999J0D01*
G01*
X13850001Y-21500000D01*
G75*
G02*
X14100000Y-21749999I0J-249999D01*
G01*
X14100000Y-22450001D01*
G75*
G02*
X13850001Y-22700000I-249999J0D01*
G01*
G37*
%TD.AperFunction*%
%TO.P,J3,4*%
%TO.N,SCL*%
%TA.AperFunction,SMDPad,CuDef*%
G36*
G01*
X11300000Y-18100000D02*
X10050000Y-18100000D01*
G75*
G02*
X9900000Y-17950000I0J150000D01*
G01*
X9900000Y-17650000D01*
G75*
G02*
X10050000Y-17500000I150000J0D01*
G01*
X11300000Y-17500000D01*
G75*
G02*
X11450000Y-17650000I0J-150000D01*
G01*
X11450000Y-17950000D01*
G75*
G02*
X11300000Y-18100000I-150000J0D01*
G01*
G37*
%TD.AperFunction*%
%TO.P,J3,3*%
%TO.N,SDA*%
%TA.AperFunction,SMDPad,CuDef*%
G36*
G01*
X11300000Y-19100000D02*
X10050000Y-19100000D01*
G75*
G02*
X9900000Y-18950000I0J150000D01*
G01*
X9900000Y-18650000D01*
G75*
G02*
X10050000Y-18500000I150000J0D01*
G01*
X11300000Y-18500000D01*
G75*
G02*
X11450000Y-18650000I0J-150000D01*
G01*
X11450000Y-18950000D01*
G75*
G02*
X11300000Y-19100000I-150000J0D01*
G01*
G37*
%TD.AperFunction*%
%TO.P,J3,2*%
%TO.N,VCC*%
%TA.AperFunction,SMDPad,CuDef*%
G36*
G01*
X11300000Y-20100000D02*
X10050000Y-20100000D01*
G75*
G02*
X9900000Y-19950000I0J150000D01*
G01*
X9900000Y-19650000D01*
G75*
G02*
X10050000Y-19500000I150000J0D01*
G01*
X11300000Y-19500000D01*
G75*
G02*
X11450000Y-19650000I0J-150000D01*
G01*
X11450000Y-19950000D01*
G75*
G02*
X11300000Y-20100000I-150000J0D01*
G01*
G37*
%TD.AperFunction*%
%TO.P,J3,1*%
%TO.N,GND*%
%TA.AperFunction,SMDPad,CuDef*%
G36*
G01*
X11300000Y-21100000D02*
X10050000Y-21100000D01*
G75*
G02*
X9900000Y-20950000I0J150000D01*
G01*
X9900000Y-20650000D01*
G75*
G02*
X10050000Y-20500000I150000J0D01*
G01*
X11300000Y-20500000D01*
G75*
G02*
X11450000Y-20650000I0J-150000D01*
G01*
X11450000Y-20950000D01*
G75*
G02*
X11300000Y-21100000I-150000J0D01*
G01*
G37*
%TD.AperFunction*%
%TD*%
%TO.P,J2,MP*%
%TO.N,N/C*%
%TA.AperFunction,SMDPad,CuDef*%
G36*
G01*
X13850001Y-8300000D02*
X12549999Y-8300000D01*
G75*
G02*
X12300000Y-8050001I0J249999D01*
G01*
X12300000Y-7349999D01*
G75*
G02*
X12549999Y-7100000I249999J0D01*
G01*
X13850001Y-7100000D01*
G75*
G02*
X14100000Y-7349999I0J-249999D01*
G01*
X14100000Y-8050001D01*
G75*
G02*
X13850001Y-8300000I-249999J0D01*
G01*
G37*
%TD.AperFunction*%
%TA.AperFunction,SMDPad,CuDef*%
G36*
G01*
X13850001Y-13900000D02*
X12549999Y-13900000D01*
G75*
G02*
X12300000Y-13650001I0J249999D01*
G01*
X12300000Y-12949999D01*
G75*
G02*
X12549999Y-12700000I249999J0D01*
G01*
X13850001Y-12700000D01*
G75*
G02*
X14100000Y-12949999I0J-249999D01*
G01*
X14100000Y-13650001D01*
G75*
G02*
X13850001Y-13900000I-249999J0D01*
G01*
G37*
%TD.AperFunction*%
%TO.P,J2,4*%
%TO.N,SCL*%
%TA.AperFunction,SMDPad,CuDef*%
G36*
G01*
X11300000Y-9300000D02*
X10050000Y-9300000D01*
G75*
G02*
X9900000Y-9150000I0J150000D01*
G01*
X9900000Y-8850000D01*
G75*
G02*
X10050000Y-8700000I150000J0D01*
G01*
X11300000Y-8700000D01*
G75*
G02*
X11450000Y-8850000I0J-150000D01*
G01*
X11450000Y-9150000D01*
G75*
G02*
X11300000Y-9300000I-150000J0D01*
G01*
G37*
%TD.AperFunction*%
%TO.P,J2,3*%
%TO.N,SDA*%
%TA.AperFunction,SMDPad,CuDef*%
G36*
G01*
X11300000Y-10300000D02*
X10050000Y-10300000D01*
G75*
G02*
X9900000Y-10150000I0J150000D01*
G01*
X9900000Y-9850000D01*
G75*
G02*
X10050000Y-9700000I150000J0D01*
G01*
X11300000Y-9700000D01*
G75*
G02*
X11450000Y-9850000I0J-150000D01*
G01*
X11450000Y-10150000D01*
G75*
G02*
X11300000Y-10300000I-150000J0D01*
G01*
G37*
%TD.AperFunction*%
%TO.P,J2,2*%
%TO.N,VCC*%
%TA.AperFunction,SMDPad,CuDef*%
G36*
G01*
X11300000Y-11300000D02*
X10050000Y-11300000D01*
G75*
G02*
X9900000Y-11150000I0J150000D01*
G01*
X9900000Y-10850000D01*
G75*
G02*
X10050000Y-10700000I150000J0D01*
G01*
X11300000Y-10700000D01*
G75*
G02*
X11450000Y-10850000I0J-150000D01*
G01*
X11450000Y-11150000D01*
G75*
G02*
X11300000Y-11300000I-150000J0D01*
G01*
G37*
%TD.AperFunction*%
%TO.P,J2,1*%
%TO.N,GND*%
%TA.AperFunction,SMDPad,CuDef*%
G36*
G01*
X11300000Y-12300000D02*
X10050000Y-12300000D01*
G75*
G02*
X9900000Y-12150000I0J150000D01*
G01*
X9900000Y-11850000D01*
G75*
G02*
X10050000Y-11700000I150000J0D01*
G01*
X11300000Y-11700000D01*
G75*
G02*
X11450000Y-11850000I0J-150000D01*
G01*
X11450000Y-12150000D01*
G75*
G02*
X11300000Y-12300000I-150000J0D01*
G01*
G37*
%TD.AperFunction*%
%TD*%
%TO.P,J1,MP*%
%TO.N,N/C*%
%TA.AperFunction,SMDPad,CuDef*%
G36*
G01*
X4149999Y-12700000D02*
X5450001Y-12700000D01*
G75*
G02*
X5700000Y-12949999I0J-249999D01*
G01*
X5700000Y-13650001D01*
G75*
G02*
X5450001Y-13900000I-249999J0D01*
G01*
X4149999Y-13900000D01*
G75*
G02*
X3900000Y-13650001I0J249999D01*
G01*
X3900000Y-12949999D01*
G75*
G02*
X4149999Y-12700000I249999J0D01*
G01*
G37*
%TD.AperFunction*%
%TA.AperFunction,SMDPad,CuDef*%
G36*
G01*
X4149999Y-7100000D02*
X5450001Y-7100000D01*
G75*
G02*
X5700000Y-7349999I0J-249999D01*
G01*
X5700000Y-8050001D01*
G75*
G02*
X5450001Y-8300000I-249999J0D01*
G01*
X4149999Y-8300000D01*
G75*
G02*
X3900000Y-8050001I0J249999D01*
G01*
X3900000Y-7349999D01*
G75*
G02*
X4149999Y-7100000I249999J0D01*
G01*
G37*
%TD.AperFunction*%
%TO.P,J1,4*%
%TO.N,SCL*%
%TA.AperFunction,SMDPad,CuDef*%
G36*
G01*
X6700000Y-11700000D02*
X7950000Y-11700000D01*
G75*
G02*
X8100000Y-11850000I0J-150000D01*
G01*
X8100000Y-12150000D01*
G75*
G02*
X7950000Y-12300000I-150000J0D01*
G01*
X6700000Y-12300000D01*
G75*
G02*
X6550000Y-12150000I0J150000D01*
G01*
X6550000Y-11850000D01*
G75*
G02*
X6700000Y-11700000I150000J0D01*
G01*
G37*
%TD.AperFunction*%
%TO.P,J1,3*%
%TO.N,SDA*%
%TA.AperFunction,SMDPad,CuDef*%
G36*
G01*
X6700000Y-10700000D02*
X7950000Y-10700000D01*
G75*
G02*
X8100000Y-10850000I0J-150000D01*
G01*
X8100000Y-11150000D01*
G75*
G02*
X7950000Y-11300000I-150000J0D01*
G01*
X6700000Y-11300000D01*
G75*
G02*
X6550000Y-11150000I0J150000D01*
G01*
X6550000Y-10850000D01*
G75*
G02*
X6700000Y-10700000I150000J0D01*
G01*
G37*
%TD.AperFunction*%
%TO.P,J1,2*%
%TO.N,VCC*%
%TA.AperFunction,SMDPad,CuDef*%
G36*
G01*
X6700000Y-9700000D02*
X7950000Y-9700000D01*
G75*
G02*
X8100000Y-9850000I0J-150000D01*
G01*
X8100000Y-10150000D01*
G75*
G02*
X7950000Y-10300000I-150000J0D01*
G01*
X6700000Y-10300000D01*
G75*
G02*
X6550000Y-10150000I0J150000D01*
G01*
X6550000Y-9850000D01*
G75*
G02*
X6700000Y-9700000I150000J0D01*
G01*
G37*
%TD.AperFunction*%
%TO.P,J1,1*%
%TO.N,GND*%
%TA.AperFunction,SMDPad,CuDef*%
G36*
G01*
X6700000Y-8700000D02*
X7950000Y-8700000D01*
G75*
G02*
X8100000Y-8850000I0J-150000D01*
G01*
X8100000Y-9150000D01*
G75*
G02*
X7950000Y-9300000I-150000J0D01*
G01*
X6700000Y-9300000D01*
G75*
G02*
X6550000Y-9150000I0J150000D01*
G01*
X6550000Y-8850000D01*
G75*
G02*
X6700000Y-8700000I150000J0D01*
G01*
G37*
%TD.AperFunction*%
%TD*%
D11*
%TO.N,GND*%
X4500000Y-20500000D03*
X6600000Y-23000000D03*
X7900000Y-7800000D03*
X9300000Y-7800000D03*
X10500000Y-7800000D03*
X10500000Y-30900000D03*
X5900000Y-26500000D03*
X13600000Y-10700000D03*
X12600000Y-14700000D03*
X13600000Y-14700000D03*
X12200000Y-20800000D03*
%TO.N,SCL*%
X9200000Y-29500000D03*
X9300000Y-9000000D03*
X9200000Y-13000000D03*
X9200000Y-25000000D03*
X9200000Y-20800000D03*
X14800000Y-17800000D03*
%TO.N,SDA*%
X8474990Y-28456599D03*
X8687340Y-10287340D03*
X8474990Y-19825010D03*
%TO.N,VCC*%
X6000000Y-10000000D03*
X6000000Y-18800000D03*
X12422969Y-23625237D03*
X5900000Y-27500000D03*
X12100000Y-28500000D03*
X12414146Y-9718947D03*
X11900000Y-19674990D03*
X10000000Y-22800000D03*
X7700000Y-25000000D03*
X12020501Y-10707480D03*
X4900000Y-18800000D03*
X14600000Y-15500000D03*
%TD*%
D12*
%TO.N,GND*%
X7325000Y-8375000D02*
X7900000Y-7800000D01*
X7325000Y-9000000D02*
X7325000Y-8375000D01*
X10675000Y-30725000D02*
X10500000Y-30900000D01*
X10675000Y-29500000D02*
X10675000Y-30725000D01*
X7325000Y-26500000D02*
X5900000Y-26500000D01*
X12600000Y-14700000D02*
X13600000Y-14700000D01*
%TO.N,SCL*%
X7325000Y-29500000D02*
X9200000Y-29500000D01*
X10675000Y-9000000D02*
X9300000Y-9000000D01*
X8200000Y-12000000D02*
X9200000Y-13000000D01*
X7325000Y-12000000D02*
X8200000Y-12000000D01*
X10675000Y-26500000D02*
X10675000Y-26475000D01*
X10675000Y-26500000D02*
X10675000Y-25475000D01*
X10200000Y-25000000D02*
X9200000Y-25000000D01*
X10675000Y-25475000D02*
X10200000Y-25000000D01*
X7325000Y-20800000D02*
X9200000Y-20800000D01*
X10675000Y-14475000D02*
X9200000Y-13000000D01*
X10675000Y-17800000D02*
X10675000Y-14475000D01*
X14800000Y-17800000D02*
X10675000Y-17800000D01*
%TO.N,SDA*%
X8431589Y-28500000D02*
X8474990Y-28456599D01*
X7325000Y-28500000D02*
X8431589Y-28500000D01*
X8974680Y-10000000D02*
X8687340Y-10287340D01*
X10675000Y-10000000D02*
X8974680Y-10000000D01*
X7974680Y-11000000D02*
X8687340Y-10287340D01*
X7325000Y-11000000D02*
X7974680Y-11000000D01*
X9431589Y-27500000D02*
X8474990Y-28456599D01*
X10675000Y-27500000D02*
X9431589Y-27500000D01*
X7325000Y-19800000D02*
X8474990Y-19800000D01*
X9500000Y-18800000D02*
X8474990Y-19825010D01*
X10675000Y-18800000D02*
X9500000Y-18800000D01*
X16620000Y-17905000D02*
X15725000Y-18800000D01*
X15725000Y-18800000D02*
X10675000Y-18800000D01*
%TO.N,VCC*%
X7325000Y-10000000D02*
X6000000Y-10000000D01*
X7325000Y-18800000D02*
X6000000Y-18800000D01*
X7325000Y-27500000D02*
X5900000Y-27500000D01*
X10675000Y-28500000D02*
X12100000Y-28500000D01*
X10675000Y-19800000D02*
X11774990Y-19800000D01*
X11774990Y-19800000D02*
X11900000Y-19674990D01*
X11727981Y-11000000D02*
X12020501Y-10707480D01*
X10675000Y-11000000D02*
X11727981Y-11000000D01*
X4900000Y-18800000D02*
X6000000Y-18800000D01*
%TD*%
D13*
%TO.N,GND*%
X10822000Y-29627000D02*
X10802000Y-29627000D01*
X10802000Y-30276250D01*
X10960750Y-30435000D01*
X11450000Y-30438072D01*
X11574482Y-30425812D01*
X11667077Y-30397724D01*
X11661928Y-30449999D01*
X11661928Y-31150001D01*
X11678992Y-31323255D01*
X11684072Y-31340000D01*
X6315928Y-31340000D01*
X6321008Y-31323255D01*
X6338072Y-31150001D01*
X6338072Y-30449999D01*
X6327242Y-30340039D01*
X6398418Y-30378084D01*
X6546255Y-30422929D01*
X6700000Y-30438072D01*
X7950000Y-30438072D01*
X8103745Y-30422929D01*
X8251582Y-30378084D01*
X8387829Y-30305258D01*
X8442976Y-30260000D01*
X8496289Y-30260000D01*
X8540226Y-30303937D01*
X8709744Y-30417205D01*
X8898102Y-30495226D01*
X9098061Y-30535000D01*
X9301939Y-30535000D01*
X9501898Y-30495226D01*
X9690256Y-30417205D01*
X9708019Y-30405336D01*
X9775518Y-30425812D01*
X9900000Y-30438072D01*
X10389250Y-30435000D01*
X10548000Y-30276250D01*
X10548000Y-29627000D01*
X10528000Y-29627000D01*
X10528000Y-29438072D01*
X10822000Y-29438072D01*
X10822000Y-29627000D01*
%TA.AperFunction,Conductor*%
D14*
G36*
X10822000Y-29627000D02*
G01*
X10802000Y-29627000D01*
X10802000Y-30276250D01*
X10960750Y-30435000D01*
X11450000Y-30438072D01*
X11574482Y-30425812D01*
X11667077Y-30397724D01*
X11661928Y-30449999D01*
X11661928Y-31150001D01*
X11678992Y-31323255D01*
X11684072Y-31340000D01*
X6315928Y-31340000D01*
X6321008Y-31323255D01*
X6338072Y-31150001D01*
X6338072Y-30449999D01*
X6327242Y-30340039D01*
X6398418Y-30378084D01*
X6546255Y-30422929D01*
X6700000Y-30438072D01*
X7950000Y-30438072D01*
X8103745Y-30422929D01*
X8251582Y-30378084D01*
X8387829Y-30305258D01*
X8442976Y-30260000D01*
X8496289Y-30260000D01*
X8540226Y-30303937D01*
X8709744Y-30417205D01*
X8898102Y-30495226D01*
X9098061Y-30535000D01*
X9301939Y-30535000D01*
X9501898Y-30495226D01*
X9690256Y-30417205D01*
X9708019Y-30405336D01*
X9775518Y-30425812D01*
X9900000Y-30438072D01*
X10389250Y-30435000D01*
X10548000Y-30276250D01*
X10548000Y-29627000D01*
X10528000Y-29627000D01*
X10528000Y-29438072D01*
X10822000Y-29438072D01*
X10822000Y-29627000D01*
G37*
%TD.AperFunction*%
D13*
X3522038Y-6722038D02*
X3411595Y-6856613D01*
X3329528Y-7010149D01*
X3278992Y-7176745D01*
X3261928Y-7349999D01*
X3261928Y-8050001D01*
X3278992Y-8223255D01*
X3329528Y-8389851D01*
X3411595Y-8543387D01*
X3522038Y-8677962D01*
X3656613Y-8788405D01*
X3810149Y-8870472D01*
X3976745Y-8921008D01*
X4149999Y-8938072D01*
X5450001Y-8938072D01*
X5623255Y-8921008D01*
X5789851Y-8870472D01*
X5943387Y-8788405D01*
X5968525Y-8767775D01*
X6073748Y-8872998D01*
X5915000Y-8872998D01*
X5915000Y-8965000D01*
X5898061Y-8965000D01*
X5698102Y-9004774D01*
X5509744Y-9082795D01*
X5340226Y-9196063D01*
X5196063Y-9340226D01*
X5082795Y-9509744D01*
X5004774Y-9698102D01*
X4965000Y-9898061D01*
X4965000Y-10101939D01*
X5004774Y-10301898D01*
X5082795Y-10490256D01*
X5196063Y-10659774D01*
X5340226Y-10803937D01*
X5509744Y-10917205D01*
X5698102Y-10995226D01*
X5898061Y-11035000D01*
X5911928Y-11035000D01*
X5911928Y-11150000D01*
X5927071Y-11303745D01*
X5971916Y-11451582D01*
X5997796Y-11500000D01*
X5971916Y-11548418D01*
X5927071Y-11696255D01*
X5911928Y-11850000D01*
X5911928Y-12150000D01*
X5916584Y-12197268D01*
X5789851Y-12129528D01*
X5623255Y-12078992D01*
X5450001Y-12061928D01*
X4149999Y-12061928D01*
X3976745Y-12078992D01*
X3810149Y-12129528D01*
X3656613Y-12211595D01*
X3522038Y-12322038D01*
X3411595Y-12456613D01*
X3329528Y-12610149D01*
X3278992Y-12776745D01*
X3261928Y-12949999D01*
X3261928Y-13650001D01*
X3278992Y-13823255D01*
X3329528Y-13989851D01*
X3411595Y-14143387D01*
X3522038Y-14277962D01*
X3656613Y-14388405D01*
X3810149Y-14470472D01*
X3976745Y-14521008D01*
X4149999Y-14538072D01*
X5450001Y-14538072D01*
X5623255Y-14521008D01*
X5789851Y-14470472D01*
X5943387Y-14388405D01*
X6077962Y-14277962D01*
X6188405Y-14143387D01*
X6270472Y-13989851D01*
X6321008Y-13823255D01*
X6338072Y-13650001D01*
X6338072Y-12949999D01*
X6327242Y-12840039D01*
X6398418Y-12878084D01*
X6546255Y-12922929D01*
X6700000Y-12938072D01*
X7950000Y-12938072D01*
X8053114Y-12927916D01*
X8165000Y-13039802D01*
X8165000Y-13101939D01*
X8204774Y-13301898D01*
X8282795Y-13490256D01*
X8396063Y-13659774D01*
X8540226Y-13803937D01*
X8709744Y-13917205D01*
X8898102Y-13995226D01*
X9098061Y-14035000D01*
X9160199Y-14035000D01*
X9915001Y-14789803D01*
X9915000Y-16875225D01*
X9896255Y-16877071D01*
X9748418Y-16921916D01*
X9612171Y-16994742D01*
X9492749Y-17092749D01*
X9394742Y-17212171D01*
X9321916Y-17348418D01*
X9277071Y-17496255D01*
X9261928Y-17650000D01*
X9261928Y-17950000D01*
X9274171Y-18074307D01*
X9236447Y-18085750D01*
X9207753Y-18094454D01*
X9075723Y-18165026D01*
X8992083Y-18233668D01*
X8959999Y-18259999D01*
X8936201Y-18288997D01*
X8723468Y-18501730D01*
X8722929Y-18496255D01*
X8681398Y-18359342D01*
X8689502Y-18344180D01*
X8725812Y-18224482D01*
X8738072Y-18100000D01*
X8735000Y-18085750D01*
X8576250Y-17927000D01*
X8261093Y-17927000D01*
X8251582Y-17921916D01*
X8103745Y-17877071D01*
X7950000Y-17861928D01*
X7178000Y-17861928D01*
X7178000Y-17673000D01*
X7198000Y-17673000D01*
X7198000Y-17023750D01*
X7452000Y-17023750D01*
X7452000Y-17673000D01*
X8576250Y-17673000D01*
X8735000Y-17514250D01*
X8738072Y-17500000D01*
X8725812Y-17375518D01*
X8689502Y-17255820D01*
X8630537Y-17145506D01*
X8551185Y-17048815D01*
X8454494Y-16969463D01*
X8344180Y-16910498D01*
X8224482Y-16874188D01*
X8100000Y-16861928D01*
X7610750Y-16865000D01*
X7452000Y-17023750D01*
X7198000Y-17023750D01*
X7039250Y-16865000D01*
X6550000Y-16861928D01*
X6425518Y-16874188D01*
X6332923Y-16902276D01*
X6338072Y-16850001D01*
X6338072Y-16149999D01*
X6321008Y-15976745D01*
X6270472Y-15810149D01*
X6188405Y-15656613D01*
X6077962Y-15522038D01*
X5943387Y-15411595D01*
X5789851Y-15329528D01*
X5623255Y-15278992D01*
X5450001Y-15261928D01*
X4149999Y-15261928D01*
X3976745Y-15278992D01*
X3810149Y-15329528D01*
X3656613Y-15411595D01*
X3522038Y-15522038D01*
X3411595Y-15656613D01*
X3329528Y-15810149D01*
X3278992Y-15976745D01*
X3261928Y-16149999D01*
X3261928Y-16850001D01*
X3278992Y-17023255D01*
X3329528Y-17189851D01*
X3411595Y-17343387D01*
X3522038Y-17477962D01*
X3656613Y-17588405D01*
X3810149Y-17670472D01*
X3976745Y-17721008D01*
X4149999Y-17738072D01*
X5450001Y-17738072D01*
X5623255Y-17721008D01*
X5789851Y-17670472D01*
X5943387Y-17588405D01*
X5968525Y-17567775D01*
X6073748Y-17672998D01*
X5915000Y-17672998D01*
X5915000Y-17765000D01*
X5898061Y-17765000D01*
X5698102Y-17804774D01*
X5509744Y-17882795D01*
X5450000Y-17922715D01*
X5390256Y-17882795D01*
X5201898Y-17804774D01*
X5001939Y-17765000D01*
X4798061Y-17765000D01*
X4598102Y-17804774D01*
X4409744Y-17882795D01*
X4240226Y-17996063D01*
X4096063Y-18140226D01*
X3982795Y-18309744D01*
X3904774Y-18498102D01*
X3865000Y-18698061D01*
X3865000Y-18901939D01*
X3904774Y-19101898D01*
X3982795Y-19290256D01*
X4096063Y-19459774D01*
X4240226Y-19603937D01*
X4409744Y-19717205D01*
X4598102Y-19795226D01*
X4798061Y-19835000D01*
X5001939Y-19835000D01*
X5201898Y-19795226D01*
X5390256Y-19717205D01*
X5450000Y-19677285D01*
X5509744Y-19717205D01*
X5698102Y-19795226D01*
X5898061Y-19835000D01*
X5911928Y-19835000D01*
X5911928Y-19950000D01*
X5927071Y-20103745D01*
X5971916Y-20251582D01*
X5997796Y-20300000D01*
X5971916Y-20348418D01*
X5927071Y-20496255D01*
X5911928Y-20650000D01*
X5911928Y-20950000D01*
X5916584Y-20997268D01*
X5789851Y-20929528D01*
X5623255Y-20878992D01*
X5450001Y-20861928D01*
X4149999Y-20861928D01*
X3976745Y-20878992D01*
X3810149Y-20929528D01*
X3656613Y-21011595D01*
X3522038Y-21122038D01*
X3411595Y-21256613D01*
X3329528Y-21410149D01*
X3278992Y-21576745D01*
X3261928Y-21749999D01*
X3261928Y-22450001D01*
X3278992Y-22623255D01*
X3329528Y-22789851D01*
X3411595Y-22943387D01*
X3522038Y-23077962D01*
X3656613Y-23188405D01*
X3810149Y-23270472D01*
X3976745Y-23321008D01*
X4149999Y-23338072D01*
X5450001Y-23338072D01*
X5623255Y-23321008D01*
X5789851Y-23270472D01*
X5943387Y-23188405D01*
X6077962Y-23077962D01*
X6188405Y-22943387D01*
X6270472Y-22789851D01*
X6298316Y-22698061D01*
X8965000Y-22698061D01*
X8965000Y-22901939D01*
X9004774Y-23101898D01*
X9082795Y-23290256D01*
X9196063Y-23459774D01*
X9340226Y-23603937D01*
X9509744Y-23717205D01*
X9698102Y-23795226D01*
X9898061Y-23835000D01*
X10101939Y-23835000D01*
X10301898Y-23795226D01*
X10490256Y-23717205D01*
X10659774Y-23603937D01*
X10803937Y-23459774D01*
X10917205Y-23290256D01*
X10995226Y-23101898D01*
X11035000Y-22901939D01*
X11035000Y-22698061D01*
X10995226Y-22498102D01*
X10917205Y-22309744D01*
X10803937Y-22140226D01*
X10659774Y-21996063D01*
X10490256Y-21882795D01*
X10301898Y-21804774D01*
X10101939Y-21765000D01*
X9898061Y-21765000D01*
X9698102Y-21804774D01*
X9509744Y-21882795D01*
X9340226Y-21996063D01*
X9196063Y-22140226D01*
X9082795Y-22309744D01*
X9004774Y-22498102D01*
X8965000Y-22698061D01*
X6298316Y-22698061D01*
X6321008Y-22623255D01*
X6338072Y-22450001D01*
X6338072Y-21749999D01*
X6327242Y-21640039D01*
X6398418Y-21678084D01*
X6546255Y-21722929D01*
X6700000Y-21738072D01*
X7950000Y-21738072D01*
X8103745Y-21722929D01*
X8251582Y-21678084D01*
X8387829Y-21605258D01*
X8442976Y-21560000D01*
X8496289Y-21560000D01*
X8540226Y-21603937D01*
X8709744Y-21717205D01*
X8898102Y-21795226D01*
X9098061Y-21835000D01*
X9301939Y-21835000D01*
X9501898Y-21795226D01*
X9690256Y-21717205D01*
X9708019Y-21705336D01*
X9775518Y-21725812D01*
X9900000Y-21738072D01*
X10389250Y-21735000D01*
X10548000Y-21576250D01*
X10548000Y-20927000D01*
X10528000Y-20927000D01*
X10528000Y-20738072D01*
X11300000Y-20738072D01*
X11453745Y-20722929D01*
X11601582Y-20678084D01*
X11611093Y-20673000D01*
X11612098Y-20673000D01*
X11798061Y-20709990D01*
X12001939Y-20709990D01*
X12201898Y-20670216D01*
X12390256Y-20592195D01*
X12559774Y-20478927D01*
X12703937Y-20334764D01*
X12817205Y-20165246D01*
X12895226Y-19976888D01*
X12935000Y-19776929D01*
X12935000Y-19573051D01*
X12932404Y-19560000D01*
X15531182Y-19560000D01*
X15381995Y-19783273D01*
X15276686Y-20037510D01*
X15223000Y-20307408D01*
X15223000Y-20582592D01*
X15276686Y-20852490D01*
X15381995Y-21106727D01*
X15534880Y-21335535D01*
X15729465Y-21530120D01*
X15958273Y-21683005D01*
X16035515Y-21715000D01*
X15958273Y-21746995D01*
X15729465Y-21899880D01*
X15534880Y-22094465D01*
X15381995Y-22323273D01*
X15276686Y-22577510D01*
X15223000Y-22847408D01*
X15223000Y-23122592D01*
X15276686Y-23392490D01*
X15381995Y-23646727D01*
X15534880Y-23875535D01*
X15729465Y-24070120D01*
X15958273Y-24223005D01*
X16035515Y-24255000D01*
X15958273Y-24286995D01*
X15729465Y-24439880D01*
X15534880Y-24634465D01*
X15381995Y-24863273D01*
X15276686Y-25117510D01*
X15223000Y-25387408D01*
X15223000Y-25662592D01*
X15276686Y-25932490D01*
X15381995Y-26186727D01*
X15534880Y-26415535D01*
X15729465Y-26610120D01*
X15958273Y-26763005D01*
X16035515Y-26795000D01*
X15958273Y-26826995D01*
X15729465Y-26979880D01*
X15534880Y-27174465D01*
X15381995Y-27403273D01*
X15276686Y-27657510D01*
X15223000Y-27927408D01*
X15223000Y-28202592D01*
X15276686Y-28472490D01*
X15381995Y-28726727D01*
X15534880Y-28955535D01*
X15729465Y-29150120D01*
X15958273Y-29303005D01*
X16035515Y-29335000D01*
X15958273Y-29366995D01*
X15729465Y-29519880D01*
X15534880Y-29714465D01*
X15381995Y-29943273D01*
X15276686Y-30197510D01*
X15223000Y-30467408D01*
X15223000Y-30742592D01*
X15276686Y-31012490D01*
X15381995Y-31266727D01*
X15430955Y-31340000D01*
X14715928Y-31340000D01*
X14721008Y-31323255D01*
X14738072Y-31150001D01*
X14738072Y-30449999D01*
X14721008Y-30276745D01*
X14670472Y-30110149D01*
X14588405Y-29956613D01*
X14477962Y-29822038D01*
X14343387Y-29711595D01*
X14189851Y-29629528D01*
X14023255Y-29578992D01*
X13850001Y-29561928D01*
X12549999Y-29561928D01*
X12376745Y-29578992D01*
X12210149Y-29629528D01*
X12056613Y-29711595D01*
X12031475Y-29732225D01*
X11926252Y-29627002D01*
X12085000Y-29627002D01*
X12085000Y-29535000D01*
X12201939Y-29535000D01*
X12401898Y-29495226D01*
X12590256Y-29417205D01*
X12759774Y-29303937D01*
X12903937Y-29159774D01*
X13017205Y-28990256D01*
X13095226Y-28801898D01*
X13135000Y-28601939D01*
X13135000Y-28398061D01*
X13095226Y-28198102D01*
X13017205Y-28009744D01*
X12903937Y-27840226D01*
X12759774Y-27696063D01*
X12590256Y-27582795D01*
X12401898Y-27504774D01*
X12201939Y-27465000D01*
X12088072Y-27465000D01*
X12088072Y-27350000D01*
X12072929Y-27196255D01*
X12028084Y-27048418D01*
X12002204Y-27000000D01*
X12028084Y-26951582D01*
X12072929Y-26803745D01*
X12088072Y-26650000D01*
X12088072Y-26350000D01*
X12083416Y-26302732D01*
X12210149Y-26370472D01*
X12376745Y-26421008D01*
X12549999Y-26438072D01*
X13850001Y-26438072D01*
X14023255Y-26421008D01*
X14189851Y-26370472D01*
X14343387Y-26288405D01*
X14477962Y-26177962D01*
X14588405Y-26043387D01*
X14670472Y-25889851D01*
X14721008Y-25723255D01*
X14738072Y-25550001D01*
X14738072Y-24849999D01*
X14721008Y-24676745D01*
X14670472Y-24510149D01*
X14588405Y-24356613D01*
X14477962Y-24222038D01*
X14343387Y-24111595D01*
X14189851Y-24029528D01*
X14023255Y-23978992D01*
X13850001Y-23961928D01*
X13403783Y-23961928D01*
X13418195Y-23927135D01*
X13457969Y-23727176D01*
X13457969Y-23523298D01*
X13421126Y-23338072D01*
X13850001Y-23338072D01*
X14023255Y-23321008D01*
X14189851Y-23270472D01*
X14343387Y-23188405D01*
X14477962Y-23077962D01*
X14588405Y-22943387D01*
X14670472Y-22789851D01*
X14721008Y-22623255D01*
X14738072Y-22450001D01*
X14738072Y-21749999D01*
X14721008Y-21576745D01*
X14670472Y-21410149D01*
X14588405Y-21256613D01*
X14477962Y-21122038D01*
X14343387Y-21011595D01*
X14189851Y-20929528D01*
X14023255Y-20878992D01*
X13850001Y-20861928D01*
X12549999Y-20861928D01*
X12376745Y-20878992D01*
X12210149Y-20929528D01*
X12056613Y-21011595D01*
X12031475Y-21032225D01*
X11926250Y-20927000D01*
X10802000Y-20927000D01*
X10802000Y-21576250D01*
X10960750Y-21735000D01*
X11450000Y-21738072D01*
X11574482Y-21725812D01*
X11667077Y-21697724D01*
X11661928Y-21749999D01*
X11661928Y-22450001D01*
X11678992Y-22623255D01*
X11729528Y-22789851D01*
X11752210Y-22832285D01*
X11619032Y-22965463D01*
X11505764Y-23134981D01*
X11427743Y-23323339D01*
X11387969Y-23523298D01*
X11387969Y-23727176D01*
X11427743Y-23927135D01*
X11505764Y-24115493D01*
X11619032Y-24285011D01*
X11763195Y-24429174D01*
X11770280Y-24433908D01*
X11729528Y-24510149D01*
X11678992Y-24676745D01*
X11661928Y-24849999D01*
X11661928Y-25550001D01*
X11672758Y-25659961D01*
X11601582Y-25621916D01*
X11453745Y-25577071D01*
X11435000Y-25575225D01*
X11435000Y-25512322D01*
X11438676Y-25474999D01*
X11435000Y-25437676D01*
X11435000Y-25437667D01*
X11424003Y-25326014D01*
X11380546Y-25182753D01*
X11309974Y-25050724D01*
X11215001Y-24934999D01*
X11186002Y-24911200D01*
X10763803Y-24489002D01*
X10740001Y-24459999D01*
X10624276Y-24365026D01*
X10492247Y-24294454D01*
X10348986Y-24250997D01*
X10237333Y-24240000D01*
X10237322Y-24240000D01*
X10200000Y-24236324D01*
X10162678Y-24240000D01*
X9903711Y-24240000D01*
X9859774Y-24196063D01*
X9690256Y-24082795D01*
X9501898Y-24004774D01*
X9301939Y-23965000D01*
X9098061Y-23965000D01*
X8898102Y-24004774D01*
X8709744Y-24082795D01*
X8540226Y-24196063D01*
X8450000Y-24286289D01*
X8359774Y-24196063D01*
X8190256Y-24082795D01*
X8001898Y-24004774D01*
X7801939Y-23965000D01*
X7598061Y-23965000D01*
X7398102Y-24004774D01*
X7209744Y-24082795D01*
X7040226Y-24196063D01*
X6896063Y-24340226D01*
X6782795Y-24509744D01*
X6704774Y-24698102D01*
X6665000Y-24898061D01*
X6665000Y-25101939D01*
X6704774Y-25301898D01*
X6782795Y-25490256D01*
X6831867Y-25563698D01*
X6550000Y-25561928D01*
X6425518Y-25574188D01*
X6332923Y-25602276D01*
X6338072Y-25550001D01*
X6338072Y-24849999D01*
X6321008Y-24676745D01*
X6270472Y-24510149D01*
X6188405Y-24356613D01*
X6077962Y-24222038D01*
X5943387Y-24111595D01*
X5789851Y-24029528D01*
X5623255Y-23978992D01*
X5450001Y-23961928D01*
X4149999Y-23961928D01*
X3976745Y-23978992D01*
X3810149Y-24029528D01*
X3656613Y-24111595D01*
X3522038Y-24222038D01*
X3411595Y-24356613D01*
X3329528Y-24510149D01*
X3278992Y-24676745D01*
X3261928Y-24849999D01*
X3261928Y-25550001D01*
X3278992Y-25723255D01*
X3329528Y-25889851D01*
X3411595Y-26043387D01*
X3522038Y-26177962D01*
X3656613Y-26288405D01*
X3810149Y-26370472D01*
X3976745Y-26421008D01*
X4149999Y-26438072D01*
X5450001Y-26438072D01*
X5623255Y-26421008D01*
X5789851Y-26370472D01*
X5943387Y-26288405D01*
X5968525Y-26267775D01*
X6073748Y-26372998D01*
X5915000Y-26372998D01*
X5915000Y-26465000D01*
X5798061Y-26465000D01*
X5598102Y-26504774D01*
X5409744Y-26582795D01*
X5240226Y-26696063D01*
X5096063Y-26840226D01*
X4982795Y-27009744D01*
X4904774Y-27198102D01*
X4865000Y-27398061D01*
X4865000Y-27601939D01*
X4904774Y-27801898D01*
X4982795Y-27990256D01*
X5096063Y-28159774D01*
X5240226Y-28303937D01*
X5409744Y-28417205D01*
X5598102Y-28495226D01*
X5798061Y-28535000D01*
X5911928Y-28535000D01*
X5911928Y-28650000D01*
X5927071Y-28803745D01*
X5971916Y-28951582D01*
X5997796Y-29000000D01*
X5971916Y-29048418D01*
X5927071Y-29196255D01*
X5911928Y-29350000D01*
X5911928Y-29650000D01*
X5916584Y-29697268D01*
X5789851Y-29629528D01*
X5623255Y-29578992D01*
X5450001Y-29561928D01*
X4149999Y-29561928D01*
X3976745Y-29578992D01*
X3810149Y-29629528D01*
X3656613Y-29711595D01*
X3522038Y-29822038D01*
X3411595Y-29956613D01*
X3329528Y-30110149D01*
X3278992Y-30276745D01*
X3261928Y-30449999D01*
X3261928Y-31150001D01*
X3278992Y-31323255D01*
X3284072Y-31340000D01*
X2569045Y-31340000D01*
X2618005Y-31266727D01*
X2723314Y-31012490D01*
X2777000Y-30742592D01*
X2777000Y-30467408D01*
X2723314Y-30197510D01*
X2618005Y-29943273D01*
X2465120Y-29714465D01*
X2270535Y-29519880D01*
X2041727Y-29366995D01*
X1970057Y-29337308D01*
X1983023Y-29332636D01*
X2098980Y-29270656D01*
X2165960Y-29030565D01*
X1380000Y-28244605D01*
X1365858Y-28258748D01*
X1186253Y-28079143D01*
X1200395Y-28065000D01*
X1559605Y-28065000D01*
X2345565Y-28850960D01*
X2585656Y-28783980D01*
X2702756Y-28534952D01*
X2769023Y-28267865D01*
X2781910Y-27992983D01*
X2740922Y-27720867D01*
X2647636Y-27461977D01*
X2585656Y-27346020D01*
X2345565Y-27279040D01*
X1559605Y-28065000D01*
X1200395Y-28065000D01*
X1186253Y-28050858D01*
X1365858Y-27871253D01*
X1380000Y-27885395D01*
X2165960Y-27099435D01*
X2098980Y-26859344D01*
X1963240Y-26795515D01*
X2041727Y-26763005D01*
X2270535Y-26610120D01*
X2465120Y-26415535D01*
X2618005Y-26186727D01*
X2723314Y-25932490D01*
X2777000Y-25662592D01*
X2777000Y-25387408D01*
X2723314Y-25117510D01*
X2618005Y-24863273D01*
X2465120Y-24634465D01*
X2270535Y-24439880D01*
X2041727Y-24286995D01*
X1964485Y-24255000D01*
X2041727Y-24223005D01*
X2270535Y-24070120D01*
X2465120Y-23875535D01*
X2618005Y-23646727D01*
X2723314Y-23392490D01*
X2777000Y-23122592D01*
X2777000Y-22847408D01*
X2723314Y-22577510D01*
X2618005Y-22323273D01*
X2465120Y-22094465D01*
X2270535Y-21899880D01*
X2041727Y-21746995D01*
X1964485Y-21715000D01*
X2041727Y-21683005D01*
X2270535Y-21530120D01*
X2465120Y-21335535D01*
X2618005Y-21106727D01*
X2723314Y-20852490D01*
X2777000Y-20582592D01*
X2777000Y-20307408D01*
X2723314Y-20037510D01*
X2618005Y-19783273D01*
X2465120Y-19554465D01*
X2270535Y-19359880D01*
X2041727Y-19206995D01*
X1964485Y-19175000D01*
X2041727Y-19143005D01*
X2270535Y-18990120D01*
X2465120Y-18795535D01*
X2618005Y-18566727D01*
X2723314Y-18312490D01*
X2777000Y-18042592D01*
X2777000Y-17767408D01*
X2723314Y-17497510D01*
X2618005Y-17243273D01*
X2465120Y-17014465D01*
X2270535Y-16819880D01*
X2041727Y-16666995D01*
X1964485Y-16635000D01*
X2041727Y-16603005D01*
X2270535Y-16450120D01*
X2465120Y-16255535D01*
X2618005Y-16026727D01*
X2723314Y-15772490D01*
X2777000Y-15502592D01*
X2777000Y-15227408D01*
X2723314Y-14957510D01*
X2618005Y-14703273D01*
X2465120Y-14474465D01*
X2270535Y-14279880D01*
X2041727Y-14126995D01*
X1964485Y-14095000D01*
X2041727Y-14063005D01*
X2270535Y-13910120D01*
X2465120Y-13715535D01*
X2618005Y-13486727D01*
X2723314Y-13232490D01*
X2777000Y-12962592D01*
X2777000Y-12687408D01*
X2723314Y-12417510D01*
X2618005Y-12163273D01*
X2465120Y-11934465D01*
X2270535Y-11739880D01*
X2041727Y-11586995D01*
X1964485Y-11555000D01*
X2041727Y-11523005D01*
X2270535Y-11370120D01*
X2465120Y-11175535D01*
X2618005Y-10946727D01*
X2723314Y-10692490D01*
X2777000Y-10422592D01*
X2777000Y-10147408D01*
X2723314Y-9877510D01*
X2618005Y-9623273D01*
X2465120Y-9394465D01*
X2270535Y-9199880D01*
X2041727Y-9046995D01*
X1964485Y-9015000D01*
X2041727Y-8983005D01*
X2270535Y-8830120D01*
X2465120Y-8635535D01*
X2618005Y-8406727D01*
X2723314Y-8152490D01*
X2777000Y-7882592D01*
X2777000Y-7607408D01*
X2723314Y-7337510D01*
X2618005Y-7083273D01*
X2465120Y-6854465D01*
X2270655Y-6660000D01*
X3597631Y-6660000D01*
X3522038Y-6722038D01*
%TA.AperFunction,Conductor*%
D14*
G36*
X3522038Y-6722038D02*
G01*
X3411595Y-6856613D01*
X3329528Y-7010149D01*
X3278992Y-7176745D01*
X3261928Y-7349999D01*
X3261928Y-8050001D01*
X3278992Y-8223255D01*
X3329528Y-8389851D01*
X3411595Y-8543387D01*
X3522038Y-8677962D01*
X3656613Y-8788405D01*
X3810149Y-8870472D01*
X3976745Y-8921008D01*
X4149999Y-8938072D01*
X5450001Y-8938072D01*
X5623255Y-8921008D01*
X5789851Y-8870472D01*
X5943387Y-8788405D01*
X5968525Y-8767775D01*
X6073748Y-8872998D01*
X5915000Y-8872998D01*
X5915000Y-8965000D01*
X5898061Y-8965000D01*
X5698102Y-9004774D01*
X5509744Y-9082795D01*
X5340226Y-9196063D01*
X5196063Y-9340226D01*
X5082795Y-9509744D01*
X5004774Y-9698102D01*
X4965000Y-9898061D01*
X4965000Y-10101939D01*
X5004774Y-10301898D01*
X5082795Y-10490256D01*
X5196063Y-10659774D01*
X5340226Y-10803937D01*
X5509744Y-10917205D01*
X5698102Y-10995226D01*
X5898061Y-11035000D01*
X5911928Y-11035000D01*
X5911928Y-11150000D01*
X5927071Y-11303745D01*
X5971916Y-11451582D01*
X5997796Y-11500000D01*
X5971916Y-11548418D01*
X5927071Y-11696255D01*
X5911928Y-11850000D01*
X5911928Y-12150000D01*
X5916584Y-12197268D01*
X5789851Y-12129528D01*
X5623255Y-12078992D01*
X5450001Y-12061928D01*
X4149999Y-12061928D01*
X3976745Y-12078992D01*
X3810149Y-12129528D01*
X3656613Y-12211595D01*
X3522038Y-12322038D01*
X3411595Y-12456613D01*
X3329528Y-12610149D01*
X3278992Y-12776745D01*
X3261928Y-12949999D01*
X3261928Y-13650001D01*
X3278992Y-13823255D01*
X3329528Y-13989851D01*
X3411595Y-14143387D01*
X3522038Y-14277962D01*
X3656613Y-14388405D01*
X3810149Y-14470472D01*
X3976745Y-14521008D01*
X4149999Y-14538072D01*
X5450001Y-14538072D01*
X5623255Y-14521008D01*
X5789851Y-14470472D01*
X5943387Y-14388405D01*
X6077962Y-14277962D01*
X6188405Y-14143387D01*
X6270472Y-13989851D01*
X6321008Y-13823255D01*
X6338072Y-13650001D01*
X6338072Y-12949999D01*
X6327242Y-12840039D01*
X6398418Y-12878084D01*
X6546255Y-12922929D01*
X6700000Y-12938072D01*
X7950000Y-12938072D01*
X8053114Y-12927916D01*
X8165000Y-13039802D01*
X8165000Y-13101939D01*
X8204774Y-13301898D01*
X8282795Y-13490256D01*
X8396063Y-13659774D01*
X8540226Y-13803937D01*
X8709744Y-13917205D01*
X8898102Y-13995226D01*
X9098061Y-14035000D01*
X9160199Y-14035000D01*
X9915001Y-14789803D01*
X9915000Y-16875225D01*
X9896255Y-16877071D01*
X9748418Y-16921916D01*
X9612171Y-16994742D01*
X9492749Y-17092749D01*
X9394742Y-17212171D01*
X9321916Y-17348418D01*
X9277071Y-17496255D01*
X9261928Y-17650000D01*
X9261928Y-17950000D01*
X9274171Y-18074307D01*
X9236447Y-18085750D01*
X9207753Y-18094454D01*
X9075723Y-18165026D01*
X8992083Y-18233668D01*
X8959999Y-18259999D01*
X8936201Y-18288997D01*
X8723468Y-18501730D01*
X8722929Y-18496255D01*
X8681398Y-18359342D01*
X8689502Y-18344180D01*
X8725812Y-18224482D01*
X8738072Y-18100000D01*
X8735000Y-18085750D01*
X8576250Y-17927000D01*
X8261093Y-17927000D01*
X8251582Y-17921916D01*
X8103745Y-17877071D01*
X7950000Y-17861928D01*
X7178000Y-17861928D01*
X7178000Y-17673000D01*
X7198000Y-17673000D01*
X7198000Y-17023750D01*
X7452000Y-17023750D01*
X7452000Y-17673000D01*
X8576250Y-17673000D01*
X8735000Y-17514250D01*
X8738072Y-17500000D01*
X8725812Y-17375518D01*
X8689502Y-17255820D01*
X8630537Y-17145506D01*
X8551185Y-17048815D01*
X8454494Y-16969463D01*
X8344180Y-16910498D01*
X8224482Y-16874188D01*
X8100000Y-16861928D01*
X7610750Y-16865000D01*
X7452000Y-17023750D01*
X7198000Y-17023750D01*
X7039250Y-16865000D01*
X6550000Y-16861928D01*
X6425518Y-16874188D01*
X6332923Y-16902276D01*
X6338072Y-16850001D01*
X6338072Y-16149999D01*
X6321008Y-15976745D01*
X6270472Y-15810149D01*
X6188405Y-15656613D01*
X6077962Y-15522038D01*
X5943387Y-15411595D01*
X5789851Y-15329528D01*
X5623255Y-15278992D01*
X5450001Y-15261928D01*
X4149999Y-15261928D01*
X3976745Y-15278992D01*
X3810149Y-15329528D01*
X3656613Y-15411595D01*
X3522038Y-15522038D01*
X3411595Y-15656613D01*
X3329528Y-15810149D01*
X3278992Y-15976745D01*
X3261928Y-16149999D01*
X3261928Y-16850001D01*
X3278992Y-17023255D01*
X3329528Y-17189851D01*
X3411595Y-17343387D01*
X3522038Y-17477962D01*
X3656613Y-17588405D01*
X3810149Y-17670472D01*
X3976745Y-17721008D01*
X4149999Y-17738072D01*
X5450001Y-17738072D01*
X5623255Y-17721008D01*
X5789851Y-17670472D01*
X5943387Y-17588405D01*
X5968525Y-17567775D01*
X6073748Y-17672998D01*
X5915000Y-17672998D01*
X5915000Y-17765000D01*
X5898061Y-17765000D01*
X5698102Y-17804774D01*
X5509744Y-17882795D01*
X5450000Y-17922715D01*
X5390256Y-17882795D01*
X5201898Y-17804774D01*
X5001939Y-17765000D01*
X4798061Y-17765000D01*
X4598102Y-17804774D01*
X4409744Y-17882795D01*
X4240226Y-17996063D01*
X4096063Y-18140226D01*
X3982795Y-18309744D01*
X3904774Y-18498102D01*
X3865000Y-18698061D01*
X3865000Y-18901939D01*
X3904774Y-19101898D01*
X3982795Y-19290256D01*
X4096063Y-19459774D01*
X4240226Y-19603937D01*
X4409744Y-19717205D01*
X4598102Y-19795226D01*
X4798061Y-19835000D01*
X5001939Y-19835000D01*
X5201898Y-19795226D01*
X5390256Y-19717205D01*
X5450000Y-19677285D01*
X5509744Y-19717205D01*
X5698102Y-19795226D01*
X5898061Y-19835000D01*
X5911928Y-19835000D01*
X5911928Y-19950000D01*
X5927071Y-20103745D01*
X5971916Y-20251582D01*
X5997796Y-20300000D01*
X5971916Y-20348418D01*
X5927071Y-20496255D01*
X5911928Y-20650000D01*
X5911928Y-20950000D01*
X5916584Y-20997268D01*
X5789851Y-20929528D01*
X5623255Y-20878992D01*
X5450001Y-20861928D01*
X4149999Y-20861928D01*
X3976745Y-20878992D01*
X3810149Y-20929528D01*
X3656613Y-21011595D01*
X3522038Y-21122038D01*
X3411595Y-21256613D01*
X3329528Y-21410149D01*
X3278992Y-21576745D01*
X3261928Y-21749999D01*
X3261928Y-22450001D01*
X3278992Y-22623255D01*
X3329528Y-22789851D01*
X3411595Y-22943387D01*
X3522038Y-23077962D01*
X3656613Y-23188405D01*
X3810149Y-23270472D01*
X3976745Y-23321008D01*
X4149999Y-23338072D01*
X5450001Y-23338072D01*
X5623255Y-23321008D01*
X5789851Y-23270472D01*
X5943387Y-23188405D01*
X6077962Y-23077962D01*
X6188405Y-22943387D01*
X6270472Y-22789851D01*
X6298316Y-22698061D01*
X8965000Y-22698061D01*
X8965000Y-22901939D01*
X9004774Y-23101898D01*
X9082795Y-23290256D01*
X9196063Y-23459774D01*
X9340226Y-23603937D01*
X9509744Y-23717205D01*
X9698102Y-23795226D01*
X9898061Y-23835000D01*
X10101939Y-23835000D01*
X10301898Y-23795226D01*
X10490256Y-23717205D01*
X10659774Y-23603937D01*
X10803937Y-23459774D01*
X10917205Y-23290256D01*
X10995226Y-23101898D01*
X11035000Y-22901939D01*
X11035000Y-22698061D01*
X10995226Y-22498102D01*
X10917205Y-22309744D01*
X10803937Y-22140226D01*
X10659774Y-21996063D01*
X10490256Y-21882795D01*
X10301898Y-21804774D01*
X10101939Y-21765000D01*
X9898061Y-21765000D01*
X9698102Y-21804774D01*
X9509744Y-21882795D01*
X9340226Y-21996063D01*
X9196063Y-22140226D01*
X9082795Y-22309744D01*
X9004774Y-22498102D01*
X8965000Y-22698061D01*
X6298316Y-22698061D01*
X6321008Y-22623255D01*
X6338072Y-22450001D01*
X6338072Y-21749999D01*
X6327242Y-21640039D01*
X6398418Y-21678084D01*
X6546255Y-21722929D01*
X6700000Y-21738072D01*
X7950000Y-21738072D01*
X8103745Y-21722929D01*
X8251582Y-21678084D01*
X8387829Y-21605258D01*
X8442976Y-21560000D01*
X8496289Y-21560000D01*
X8540226Y-21603937D01*
X8709744Y-21717205D01*
X8898102Y-21795226D01*
X9098061Y-21835000D01*
X9301939Y-21835000D01*
X9501898Y-21795226D01*
X9690256Y-21717205D01*
X9708019Y-21705336D01*
X9775518Y-21725812D01*
X9900000Y-21738072D01*
X10389250Y-21735000D01*
X10548000Y-21576250D01*
X10548000Y-20927000D01*
X10528000Y-20927000D01*
X10528000Y-20738072D01*
X11300000Y-20738072D01*
X11453745Y-20722929D01*
X11601582Y-20678084D01*
X11611093Y-20673000D01*
X11612098Y-20673000D01*
X11798061Y-20709990D01*
X12001939Y-20709990D01*
X12201898Y-20670216D01*
X12390256Y-20592195D01*
X12559774Y-20478927D01*
X12703937Y-20334764D01*
X12817205Y-20165246D01*
X12895226Y-19976888D01*
X12935000Y-19776929D01*
X12935000Y-19573051D01*
X12932404Y-19560000D01*
X15531182Y-19560000D01*
X15381995Y-19783273D01*
X15276686Y-20037510D01*
X15223000Y-20307408D01*
X15223000Y-20582592D01*
X15276686Y-20852490D01*
X15381995Y-21106727D01*
X15534880Y-21335535D01*
X15729465Y-21530120D01*
X15958273Y-21683005D01*
X16035515Y-21715000D01*
X15958273Y-21746995D01*
X15729465Y-21899880D01*
X15534880Y-22094465D01*
X15381995Y-22323273D01*
X15276686Y-22577510D01*
X15223000Y-22847408D01*
X15223000Y-23122592D01*
X15276686Y-23392490D01*
X15381995Y-23646727D01*
X15534880Y-23875535D01*
X15729465Y-24070120D01*
X15958273Y-24223005D01*
X16035515Y-24255000D01*
X15958273Y-24286995D01*
X15729465Y-24439880D01*
X15534880Y-24634465D01*
X15381995Y-24863273D01*
X15276686Y-25117510D01*
X15223000Y-25387408D01*
X15223000Y-25662592D01*
X15276686Y-25932490D01*
X15381995Y-26186727D01*
X15534880Y-26415535D01*
X15729465Y-26610120D01*
X15958273Y-26763005D01*
X16035515Y-26795000D01*
X15958273Y-26826995D01*
X15729465Y-26979880D01*
X15534880Y-27174465D01*
X15381995Y-27403273D01*
X15276686Y-27657510D01*
X15223000Y-27927408D01*
X15223000Y-28202592D01*
X15276686Y-28472490D01*
X15381995Y-28726727D01*
X15534880Y-28955535D01*
X15729465Y-29150120D01*
X15958273Y-29303005D01*
X16035515Y-29335000D01*
X15958273Y-29366995D01*
X15729465Y-29519880D01*
X15534880Y-29714465D01*
X15381995Y-29943273D01*
X15276686Y-30197510D01*
X15223000Y-30467408D01*
X15223000Y-30742592D01*
X15276686Y-31012490D01*
X15381995Y-31266727D01*
X15430955Y-31340000D01*
X14715928Y-31340000D01*
X14721008Y-31323255D01*
X14738072Y-31150001D01*
X14738072Y-30449999D01*
X14721008Y-30276745D01*
X14670472Y-30110149D01*
X14588405Y-29956613D01*
X14477962Y-29822038D01*
X14343387Y-29711595D01*
X14189851Y-29629528D01*
X14023255Y-29578992D01*
X13850001Y-29561928D01*
X12549999Y-29561928D01*
X12376745Y-29578992D01*
X12210149Y-29629528D01*
X12056613Y-29711595D01*
X12031475Y-29732225D01*
X11926252Y-29627002D01*
X12085000Y-29627002D01*
X12085000Y-29535000D01*
X12201939Y-29535000D01*
X12401898Y-29495226D01*
X12590256Y-29417205D01*
X12759774Y-29303937D01*
X12903937Y-29159774D01*
X13017205Y-28990256D01*
X13095226Y-28801898D01*
X13135000Y-28601939D01*
X13135000Y-28398061D01*
X13095226Y-28198102D01*
X13017205Y-28009744D01*
X12903937Y-27840226D01*
X12759774Y-27696063D01*
X12590256Y-27582795D01*
X12401898Y-27504774D01*
X12201939Y-27465000D01*
X12088072Y-27465000D01*
X12088072Y-27350000D01*
X12072929Y-27196255D01*
X12028084Y-27048418D01*
X12002204Y-27000000D01*
X12028084Y-26951582D01*
X12072929Y-26803745D01*
X12088072Y-26650000D01*
X12088072Y-26350000D01*
X12083416Y-26302732D01*
X12210149Y-26370472D01*
X12376745Y-26421008D01*
X12549999Y-26438072D01*
X13850001Y-26438072D01*
X14023255Y-26421008D01*
X14189851Y-26370472D01*
X14343387Y-26288405D01*
X14477962Y-26177962D01*
X14588405Y-26043387D01*
X14670472Y-25889851D01*
X14721008Y-25723255D01*
X14738072Y-25550001D01*
X14738072Y-24849999D01*
X14721008Y-24676745D01*
X14670472Y-24510149D01*
X14588405Y-24356613D01*
X14477962Y-24222038D01*
X14343387Y-24111595D01*
X14189851Y-24029528D01*
X14023255Y-23978992D01*
X13850001Y-23961928D01*
X13403783Y-23961928D01*
X13418195Y-23927135D01*
X13457969Y-23727176D01*
X13457969Y-23523298D01*
X13421126Y-23338072D01*
X13850001Y-23338072D01*
X14023255Y-23321008D01*
X14189851Y-23270472D01*
X14343387Y-23188405D01*
X14477962Y-23077962D01*
X14588405Y-22943387D01*
X14670472Y-22789851D01*
X14721008Y-22623255D01*
X14738072Y-22450001D01*
X14738072Y-21749999D01*
X14721008Y-21576745D01*
X14670472Y-21410149D01*
X14588405Y-21256613D01*
X14477962Y-21122038D01*
X14343387Y-21011595D01*
X14189851Y-20929528D01*
X14023255Y-20878992D01*
X13850001Y-20861928D01*
X12549999Y-20861928D01*
X12376745Y-20878992D01*
X12210149Y-20929528D01*
X12056613Y-21011595D01*
X12031475Y-21032225D01*
X11926250Y-20927000D01*
X10802000Y-20927000D01*
X10802000Y-21576250D01*
X10960750Y-21735000D01*
X11450000Y-21738072D01*
X11574482Y-21725812D01*
X11667077Y-21697724D01*
X11661928Y-21749999D01*
X11661928Y-22450001D01*
X11678992Y-22623255D01*
X11729528Y-22789851D01*
X11752210Y-22832285D01*
X11619032Y-22965463D01*
X11505764Y-23134981D01*
X11427743Y-23323339D01*
X11387969Y-23523298D01*
X11387969Y-23727176D01*
X11427743Y-23927135D01*
X11505764Y-24115493D01*
X11619032Y-24285011D01*
X11763195Y-24429174D01*
X11770280Y-24433908D01*
X11729528Y-24510149D01*
X11678992Y-24676745D01*
X11661928Y-24849999D01*
X11661928Y-25550001D01*
X11672758Y-25659961D01*
X11601582Y-25621916D01*
X11453745Y-25577071D01*
X11435000Y-25575225D01*
X11435000Y-25512322D01*
X11438676Y-25474999D01*
X11435000Y-25437676D01*
X11435000Y-25437667D01*
X11424003Y-25326014D01*
X11380546Y-25182753D01*
X11309974Y-25050724D01*
X11215001Y-24934999D01*
X11186002Y-24911200D01*
X10763803Y-24489002D01*
X10740001Y-24459999D01*
X10624276Y-24365026D01*
X10492247Y-24294454D01*
X10348986Y-24250997D01*
X10237333Y-24240000D01*
X10237322Y-24240000D01*
X10200000Y-24236324D01*
X10162678Y-24240000D01*
X9903711Y-24240000D01*
X9859774Y-24196063D01*
X9690256Y-24082795D01*
X9501898Y-24004774D01*
X9301939Y-23965000D01*
X9098061Y-23965000D01*
X8898102Y-24004774D01*
X8709744Y-24082795D01*
X8540226Y-24196063D01*
X8450000Y-24286289D01*
X8359774Y-24196063D01*
X8190256Y-24082795D01*
X8001898Y-24004774D01*
X7801939Y-23965000D01*
X7598061Y-23965000D01*
X7398102Y-24004774D01*
X7209744Y-24082795D01*
X7040226Y-24196063D01*
X6896063Y-24340226D01*
X6782795Y-24509744D01*
X6704774Y-24698102D01*
X6665000Y-24898061D01*
X6665000Y-25101939D01*
X6704774Y-25301898D01*
X6782795Y-25490256D01*
X6831867Y-25563698D01*
X6550000Y-25561928D01*
X6425518Y-25574188D01*
X6332923Y-25602276D01*
X6338072Y-25550001D01*
X6338072Y-24849999D01*
X6321008Y-24676745D01*
X6270472Y-24510149D01*
X6188405Y-24356613D01*
X6077962Y-24222038D01*
X5943387Y-24111595D01*
X5789851Y-24029528D01*
X5623255Y-23978992D01*
X5450001Y-23961928D01*
X4149999Y-23961928D01*
X3976745Y-23978992D01*
X3810149Y-24029528D01*
X3656613Y-24111595D01*
X3522038Y-24222038D01*
X3411595Y-24356613D01*
X3329528Y-24510149D01*
X3278992Y-24676745D01*
X3261928Y-24849999D01*
X3261928Y-25550001D01*
X3278992Y-25723255D01*
X3329528Y-25889851D01*
X3411595Y-26043387D01*
X3522038Y-26177962D01*
X3656613Y-26288405D01*
X3810149Y-26370472D01*
X3976745Y-26421008D01*
X4149999Y-26438072D01*
X5450001Y-26438072D01*
X5623255Y-26421008D01*
X5789851Y-26370472D01*
X5943387Y-26288405D01*
X5968525Y-26267775D01*
X6073748Y-26372998D01*
X5915000Y-26372998D01*
X5915000Y-26465000D01*
X5798061Y-26465000D01*
X5598102Y-26504774D01*
X5409744Y-26582795D01*
X5240226Y-26696063D01*
X5096063Y-26840226D01*
X4982795Y-27009744D01*
X4904774Y-27198102D01*
X4865000Y-27398061D01*
X4865000Y-27601939D01*
X4904774Y-27801898D01*
X4982795Y-27990256D01*
X5096063Y-28159774D01*
X5240226Y-28303937D01*
X5409744Y-28417205D01*
X5598102Y-28495226D01*
X5798061Y-28535000D01*
X5911928Y-28535000D01*
X5911928Y-28650000D01*
X5927071Y-28803745D01*
X5971916Y-28951582D01*
X5997796Y-29000000D01*
X5971916Y-29048418D01*
X5927071Y-29196255D01*
X5911928Y-29350000D01*
X5911928Y-29650000D01*
X5916584Y-29697268D01*
X5789851Y-29629528D01*
X5623255Y-29578992D01*
X5450001Y-29561928D01*
X4149999Y-29561928D01*
X3976745Y-29578992D01*
X3810149Y-29629528D01*
X3656613Y-29711595D01*
X3522038Y-29822038D01*
X3411595Y-29956613D01*
X3329528Y-30110149D01*
X3278992Y-30276745D01*
X3261928Y-30449999D01*
X3261928Y-31150001D01*
X3278992Y-31323255D01*
X3284072Y-31340000D01*
X2569045Y-31340000D01*
X2618005Y-31266727D01*
X2723314Y-31012490D01*
X2777000Y-30742592D01*
X2777000Y-30467408D01*
X2723314Y-30197510D01*
X2618005Y-29943273D01*
X2465120Y-29714465D01*
X2270535Y-29519880D01*
X2041727Y-29366995D01*
X1970057Y-29337308D01*
X1983023Y-29332636D01*
X2098980Y-29270656D01*
X2165960Y-29030565D01*
X1380000Y-28244605D01*
X1365858Y-28258748D01*
X1186253Y-28079143D01*
X1200395Y-28065000D01*
X1559605Y-28065000D01*
X2345565Y-28850960D01*
X2585656Y-28783980D01*
X2702756Y-28534952D01*
X2769023Y-28267865D01*
X2781910Y-27992983D01*
X2740922Y-27720867D01*
X2647636Y-27461977D01*
X2585656Y-27346020D01*
X2345565Y-27279040D01*
X1559605Y-28065000D01*
X1200395Y-28065000D01*
X1186253Y-28050858D01*
X1365858Y-27871253D01*
X1380000Y-27885395D01*
X2165960Y-27099435D01*
X2098980Y-26859344D01*
X1963240Y-26795515D01*
X2041727Y-26763005D01*
X2270535Y-26610120D01*
X2465120Y-26415535D01*
X2618005Y-26186727D01*
X2723314Y-25932490D01*
X2777000Y-25662592D01*
X2777000Y-25387408D01*
X2723314Y-25117510D01*
X2618005Y-24863273D01*
X2465120Y-24634465D01*
X2270535Y-24439880D01*
X2041727Y-24286995D01*
X1964485Y-24255000D01*
X2041727Y-24223005D01*
X2270535Y-24070120D01*
X2465120Y-23875535D01*
X2618005Y-23646727D01*
X2723314Y-23392490D01*
X2777000Y-23122592D01*
X2777000Y-22847408D01*
X2723314Y-22577510D01*
X2618005Y-22323273D01*
X2465120Y-22094465D01*
X2270535Y-21899880D01*
X2041727Y-21746995D01*
X1964485Y-21715000D01*
X2041727Y-21683005D01*
X2270535Y-21530120D01*
X2465120Y-21335535D01*
X2618005Y-21106727D01*
X2723314Y-20852490D01*
X2777000Y-20582592D01*
X2777000Y-20307408D01*
X2723314Y-20037510D01*
X2618005Y-19783273D01*
X2465120Y-19554465D01*
X2270535Y-19359880D01*
X2041727Y-19206995D01*
X1964485Y-19175000D01*
X2041727Y-19143005D01*
X2270535Y-18990120D01*
X2465120Y-18795535D01*
X2618005Y-18566727D01*
X2723314Y-18312490D01*
X2777000Y-18042592D01*
X2777000Y-17767408D01*
X2723314Y-17497510D01*
X2618005Y-17243273D01*
X2465120Y-17014465D01*
X2270535Y-16819880D01*
X2041727Y-16666995D01*
X1964485Y-16635000D01*
X2041727Y-16603005D01*
X2270535Y-16450120D01*
X2465120Y-16255535D01*
X2618005Y-16026727D01*
X2723314Y-15772490D01*
X2777000Y-15502592D01*
X2777000Y-15227408D01*
X2723314Y-14957510D01*
X2618005Y-14703273D01*
X2465120Y-14474465D01*
X2270535Y-14279880D01*
X2041727Y-14126995D01*
X1964485Y-14095000D01*
X2041727Y-14063005D01*
X2270535Y-13910120D01*
X2465120Y-13715535D01*
X2618005Y-13486727D01*
X2723314Y-13232490D01*
X2777000Y-12962592D01*
X2777000Y-12687408D01*
X2723314Y-12417510D01*
X2618005Y-12163273D01*
X2465120Y-11934465D01*
X2270535Y-11739880D01*
X2041727Y-11586995D01*
X1964485Y-11555000D01*
X2041727Y-11523005D01*
X2270535Y-11370120D01*
X2465120Y-11175535D01*
X2618005Y-10946727D01*
X2723314Y-10692490D01*
X2777000Y-10422592D01*
X2777000Y-10147408D01*
X2723314Y-9877510D01*
X2618005Y-9623273D01*
X2465120Y-9394465D01*
X2270535Y-9199880D01*
X2041727Y-9046995D01*
X1964485Y-9015000D01*
X2041727Y-8983005D01*
X2270535Y-8830120D01*
X2465120Y-8635535D01*
X2618005Y-8406727D01*
X2723314Y-8152490D01*
X2777000Y-7882592D01*
X2777000Y-7607408D01*
X2723314Y-7337510D01*
X2618005Y-7083273D01*
X2465120Y-6854465D01*
X2270655Y-6660000D01*
X3597631Y-6660000D01*
X3522038Y-6722038D01*
G37*
%TD.AperFunction*%
D13*
X8709744Y-25917205D02*
X8898102Y-25995226D01*
X9098061Y-26035000D01*
X9301939Y-26035000D01*
X9332318Y-26028957D01*
X9321916Y-26048418D01*
X9277071Y-26196255D01*
X9261928Y-26350000D01*
X9261928Y-26650000D01*
X9272187Y-26754157D01*
X9139342Y-26794454D01*
X9007313Y-26865026D01*
X8891588Y-26959999D01*
X8867790Y-26988997D01*
X8708407Y-27148381D01*
X8681398Y-27059342D01*
X8689502Y-27044180D01*
X8725812Y-26924482D01*
X8738072Y-26800000D01*
X8735000Y-26785750D01*
X8576250Y-26627000D01*
X8261093Y-26627000D01*
X8251582Y-26621916D01*
X8103745Y-26577071D01*
X7950000Y-26561928D01*
X7178000Y-26561928D01*
X7178000Y-26373000D01*
X7198000Y-26373000D01*
X7198000Y-26353000D01*
X7452000Y-26353000D01*
X7452000Y-26373000D01*
X8576250Y-26373000D01*
X8735000Y-26214250D01*
X8738072Y-26200000D01*
X8725812Y-26075518D01*
X8689502Y-25955820D01*
X8646148Y-25874712D01*
X8709744Y-25917205D01*
%TA.AperFunction,Conductor*%
D14*
G36*
X8709744Y-25917205D02*
G01*
X8898102Y-25995226D01*
X9098061Y-26035000D01*
X9301939Y-26035000D01*
X9332318Y-26028957D01*
X9321916Y-26048418D01*
X9277071Y-26196255D01*
X9261928Y-26350000D01*
X9261928Y-26650000D01*
X9272187Y-26754157D01*
X9139342Y-26794454D01*
X9007313Y-26865026D01*
X8891588Y-26959999D01*
X8867790Y-26988997D01*
X8708407Y-27148381D01*
X8681398Y-27059342D01*
X8689502Y-27044180D01*
X8725812Y-26924482D01*
X8738072Y-26800000D01*
X8735000Y-26785750D01*
X8576250Y-26627000D01*
X8261093Y-26627000D01*
X8251582Y-26621916D01*
X8103745Y-26577071D01*
X7950000Y-26561928D01*
X7178000Y-26561928D01*
X7178000Y-26373000D01*
X7198000Y-26373000D01*
X7198000Y-26353000D01*
X7452000Y-26353000D01*
X7452000Y-26373000D01*
X8576250Y-26373000D01*
X8735000Y-26214250D01*
X8738072Y-26200000D01*
X8725812Y-26075518D01*
X8689502Y-25955820D01*
X8646148Y-25874712D01*
X8709744Y-25917205D01*
G37*
%TD.AperFunction*%
D13*
X15834040Y-6779435D02*
X16620000Y-7565395D01*
X16634143Y-7551253D01*
X16813748Y-7730858D01*
X16799605Y-7745000D01*
X16813748Y-7759143D01*
X16634143Y-7938748D01*
X16620000Y-7924605D01*
X15834040Y-8710565D01*
X15901020Y-8950656D01*
X16036760Y-9014485D01*
X15958273Y-9046995D01*
X15729465Y-9199880D01*
X15534880Y-9394465D01*
X15381995Y-9623273D01*
X15276686Y-9877510D01*
X15223000Y-10147408D01*
X15223000Y-10422592D01*
X15276686Y-10692490D01*
X15381995Y-10946727D01*
X15534880Y-11175535D01*
X15729465Y-11370120D01*
X15958273Y-11523005D01*
X16035515Y-11555000D01*
X15958273Y-11586995D01*
X15729465Y-11739880D01*
X15534880Y-11934465D01*
X15381995Y-12163273D01*
X15276686Y-12417510D01*
X15223000Y-12687408D01*
X15223000Y-12962592D01*
X15276686Y-13232490D01*
X15381995Y-13486727D01*
X15534880Y-13715535D01*
X15729465Y-13910120D01*
X15958273Y-14063005D01*
X16035515Y-14095000D01*
X15958273Y-14126995D01*
X15729465Y-14279880D01*
X15534880Y-14474465D01*
X15381995Y-14703273D01*
X15348309Y-14784598D01*
X15259774Y-14696063D01*
X15090256Y-14582795D01*
X14901898Y-14504774D01*
X14701939Y-14465000D01*
X14498061Y-14465000D01*
X14298102Y-14504774D01*
X14109744Y-14582795D01*
X13940226Y-14696063D01*
X13796063Y-14840226D01*
X13682795Y-15009744D01*
X13604774Y-15198102D01*
X13592078Y-15261928D01*
X12549999Y-15261928D01*
X12376745Y-15278992D01*
X12210149Y-15329528D01*
X12056613Y-15411595D01*
X11922038Y-15522038D01*
X11811595Y-15656613D01*
X11729528Y-15810149D01*
X11678992Y-15976745D01*
X11661928Y-16149999D01*
X11661928Y-16850001D01*
X11672758Y-16959961D01*
X11601582Y-16921916D01*
X11453745Y-16877071D01*
X11435000Y-16875225D01*
X11435000Y-14512322D01*
X11438676Y-14474999D01*
X11435000Y-14437677D01*
X11435000Y-14437667D01*
X11424003Y-14326014D01*
X11380546Y-14182753D01*
X11359504Y-14143387D01*
X11309974Y-14050723D01*
X11238799Y-13963997D01*
X11215001Y-13934999D01*
X11186003Y-13911201D01*
X10235000Y-12960199D01*
X10235000Y-12935969D01*
X10389250Y-12935000D01*
X10548000Y-12776250D01*
X10548000Y-12127000D01*
X10802000Y-12127000D01*
X10802000Y-12776250D01*
X10960750Y-12935000D01*
X11450000Y-12938072D01*
X11574482Y-12925812D01*
X11667077Y-12897724D01*
X11661928Y-12949999D01*
X11661928Y-13650001D01*
X11678992Y-13823255D01*
X11729528Y-13989851D01*
X11811595Y-14143387D01*
X11922038Y-14277962D01*
X12056613Y-14388405D01*
X12210149Y-14470472D01*
X12376745Y-14521008D01*
X12549999Y-14538072D01*
X13850001Y-14538072D01*
X14023255Y-14521008D01*
X14189851Y-14470472D01*
X14343387Y-14388405D01*
X14477962Y-14277962D01*
X14588405Y-14143387D01*
X14670472Y-13989851D01*
X14721008Y-13823255D01*
X14738072Y-13650001D01*
X14738072Y-12949999D01*
X14721008Y-12776745D01*
X14670472Y-12610149D01*
X14588405Y-12456613D01*
X14477962Y-12322038D01*
X14343387Y-12211595D01*
X14189851Y-12129528D01*
X14023255Y-12078992D01*
X13850001Y-12061928D01*
X12549999Y-12061928D01*
X12376745Y-12078992D01*
X12210149Y-12129528D01*
X12056613Y-12211595D01*
X12031475Y-12232225D01*
X11926250Y-12127000D01*
X10802000Y-12127000D01*
X10548000Y-12127000D01*
X10528000Y-12127000D01*
X10528000Y-11938072D01*
X11300000Y-11938072D01*
X11453745Y-11922929D01*
X11601582Y-11878084D01*
X11611093Y-11873000D01*
X11926250Y-11873000D01*
X12056770Y-11742480D01*
X12122440Y-11742480D01*
X12322399Y-11702706D01*
X12510757Y-11624685D01*
X12680275Y-11511417D01*
X12824438Y-11367254D01*
X12937706Y-11197736D01*
X13015727Y-11009378D01*
X13055501Y-10809419D01*
X13055501Y-10605541D01*
X13043149Y-10543444D01*
X13073920Y-10522884D01*
X13218083Y-10378721D01*
X13331351Y-10209203D01*
X13409372Y-10020845D01*
X13449146Y-9820886D01*
X13449146Y-9617008D01*
X13409372Y-9417049D01*
X13331351Y-9228691D01*
X13218083Y-9059173D01*
X13096982Y-8938072D01*
X13850001Y-8938072D01*
X14023255Y-8921008D01*
X14189851Y-8870472D01*
X14343387Y-8788405D01*
X14477962Y-8677962D01*
X14588405Y-8543387D01*
X14670472Y-8389851D01*
X14721008Y-8223255D01*
X14738072Y-8050001D01*
X14738072Y-7817017D01*
X15218090Y-7817017D01*
X15259078Y-8089133D01*
X15352364Y-8348023D01*
X15414344Y-8463980D01*
X15654435Y-8530960D01*
X16440395Y-7745000D01*
X15654435Y-6959040D01*
X15414344Y-7026020D01*
X15297244Y-7275048D01*
X15230977Y-7542135D01*
X15218090Y-7817017D01*
X14738072Y-7817017D01*
X14738072Y-7349999D01*
X14721008Y-7176745D01*
X14670472Y-7010149D01*
X14588405Y-6856613D01*
X14477962Y-6722038D01*
X14402369Y-6660000D01*
X15867360Y-6660000D01*
X15834040Y-6779435D01*
%TA.AperFunction,Conductor*%
D14*
G36*
X15834040Y-6779435D02*
G01*
X16620000Y-7565395D01*
X16634143Y-7551253D01*
X16813748Y-7730858D01*
X16799605Y-7745000D01*
X16813748Y-7759143D01*
X16634143Y-7938748D01*
X16620000Y-7924605D01*
X15834040Y-8710565D01*
X15901020Y-8950656D01*
X16036760Y-9014485D01*
X15958273Y-9046995D01*
X15729465Y-9199880D01*
X15534880Y-9394465D01*
X15381995Y-9623273D01*
X15276686Y-9877510D01*
X15223000Y-10147408D01*
X15223000Y-10422592D01*
X15276686Y-10692490D01*
X15381995Y-10946727D01*
X15534880Y-11175535D01*
X15729465Y-11370120D01*
X15958273Y-11523005D01*
X16035515Y-11555000D01*
X15958273Y-11586995D01*
X15729465Y-11739880D01*
X15534880Y-11934465D01*
X15381995Y-12163273D01*
X15276686Y-12417510D01*
X15223000Y-12687408D01*
X15223000Y-12962592D01*
X15276686Y-13232490D01*
X15381995Y-13486727D01*
X15534880Y-13715535D01*
X15729465Y-13910120D01*
X15958273Y-14063005D01*
X16035515Y-14095000D01*
X15958273Y-14126995D01*
X15729465Y-14279880D01*
X15534880Y-14474465D01*
X15381995Y-14703273D01*
X15348309Y-14784598D01*
X15259774Y-14696063D01*
X15090256Y-14582795D01*
X14901898Y-14504774D01*
X14701939Y-14465000D01*
X14498061Y-14465000D01*
X14298102Y-14504774D01*
X14109744Y-14582795D01*
X13940226Y-14696063D01*
X13796063Y-14840226D01*
X13682795Y-15009744D01*
X13604774Y-15198102D01*
X13592078Y-15261928D01*
X12549999Y-15261928D01*
X12376745Y-15278992D01*
X12210149Y-15329528D01*
X12056613Y-15411595D01*
X11922038Y-15522038D01*
X11811595Y-15656613D01*
X11729528Y-15810149D01*
X11678992Y-15976745D01*
X11661928Y-16149999D01*
X11661928Y-16850001D01*
X11672758Y-16959961D01*
X11601582Y-16921916D01*
X11453745Y-16877071D01*
X11435000Y-16875225D01*
X11435000Y-14512322D01*
X11438676Y-14474999D01*
X11435000Y-14437677D01*
X11435000Y-14437667D01*
X11424003Y-14326014D01*
X11380546Y-14182753D01*
X11359504Y-14143387D01*
X11309974Y-14050723D01*
X11238799Y-13963997D01*
X11215001Y-13934999D01*
X11186003Y-13911201D01*
X10235000Y-12960199D01*
X10235000Y-12935969D01*
X10389250Y-12935000D01*
X10548000Y-12776250D01*
X10548000Y-12127000D01*
X10802000Y-12127000D01*
X10802000Y-12776250D01*
X10960750Y-12935000D01*
X11450000Y-12938072D01*
X11574482Y-12925812D01*
X11667077Y-12897724D01*
X11661928Y-12949999D01*
X11661928Y-13650001D01*
X11678992Y-13823255D01*
X11729528Y-13989851D01*
X11811595Y-14143387D01*
X11922038Y-14277962D01*
X12056613Y-14388405D01*
X12210149Y-14470472D01*
X12376745Y-14521008D01*
X12549999Y-14538072D01*
X13850001Y-14538072D01*
X14023255Y-14521008D01*
X14189851Y-14470472D01*
X14343387Y-14388405D01*
X14477962Y-14277962D01*
X14588405Y-14143387D01*
X14670472Y-13989851D01*
X14721008Y-13823255D01*
X14738072Y-13650001D01*
X14738072Y-12949999D01*
X14721008Y-12776745D01*
X14670472Y-12610149D01*
X14588405Y-12456613D01*
X14477962Y-12322038D01*
X14343387Y-12211595D01*
X14189851Y-12129528D01*
X14023255Y-12078992D01*
X13850001Y-12061928D01*
X12549999Y-12061928D01*
X12376745Y-12078992D01*
X12210149Y-12129528D01*
X12056613Y-12211595D01*
X12031475Y-12232225D01*
X11926250Y-12127000D01*
X10802000Y-12127000D01*
X10548000Y-12127000D01*
X10528000Y-12127000D01*
X10528000Y-11938072D01*
X11300000Y-11938072D01*
X11453745Y-11922929D01*
X11601582Y-11878084D01*
X11611093Y-11873000D01*
X11926250Y-11873000D01*
X12056770Y-11742480D01*
X12122440Y-11742480D01*
X12322399Y-11702706D01*
X12510757Y-11624685D01*
X12680275Y-11511417D01*
X12824438Y-11367254D01*
X12937706Y-11197736D01*
X13015727Y-11009378D01*
X13055501Y-10809419D01*
X13055501Y-10605541D01*
X13043149Y-10543444D01*
X13073920Y-10522884D01*
X13218083Y-10378721D01*
X13331351Y-10209203D01*
X13409372Y-10020845D01*
X13449146Y-9820886D01*
X13449146Y-9617008D01*
X13409372Y-9417049D01*
X13331351Y-9228691D01*
X13218083Y-9059173D01*
X13096982Y-8938072D01*
X13850001Y-8938072D01*
X14023255Y-8921008D01*
X14189851Y-8870472D01*
X14343387Y-8788405D01*
X14477962Y-8677962D01*
X14588405Y-8543387D01*
X14670472Y-8389851D01*
X14721008Y-8223255D01*
X14738072Y-8050001D01*
X14738072Y-7817017D01*
X15218090Y-7817017D01*
X15259078Y-8089133D01*
X15352364Y-8348023D01*
X15414344Y-8463980D01*
X15654435Y-8530960D01*
X16440395Y-7745000D01*
X15654435Y-6959040D01*
X15414344Y-7026020D01*
X15297244Y-7275048D01*
X15230977Y-7542135D01*
X15218090Y-7817017D01*
X14738072Y-7817017D01*
X14738072Y-7349999D01*
X14721008Y-7176745D01*
X14670472Y-7010149D01*
X14588405Y-6856613D01*
X14477962Y-6722038D01*
X14402369Y-6660000D01*
X15867360Y-6660000D01*
X15834040Y-6779435D01*
G37*
%TD.AperFunction*%
D13*
X11922038Y-6722038D02*
X11811595Y-6856613D01*
X11729528Y-7010149D01*
X11678992Y-7176745D01*
X11661928Y-7349999D01*
X11661928Y-8050001D01*
X11672758Y-8159961D01*
X11601582Y-8121916D01*
X11453745Y-8077071D01*
X11300000Y-8061928D01*
X10050000Y-8061928D01*
X9896255Y-8077071D01*
X9817461Y-8100973D01*
X9790256Y-8082795D01*
X9601898Y-8004774D01*
X9401939Y-7965000D01*
X9198061Y-7965000D01*
X8998102Y-8004774D01*
X8809744Y-8082795D01*
X8640226Y-8196063D01*
X8567542Y-8268747D01*
X8551185Y-8248815D01*
X8454494Y-8169463D01*
X8344180Y-8110498D01*
X8224482Y-8074188D01*
X8100000Y-8061928D01*
X7610750Y-8065000D01*
X7452000Y-8223750D01*
X7452000Y-8873000D01*
X7472000Y-8873000D01*
X7472000Y-9061928D01*
X7178000Y-9061928D01*
X7178000Y-8873000D01*
X7198000Y-8873000D01*
X7198000Y-8223750D01*
X7039250Y-8065000D01*
X6550000Y-8061928D01*
X6425518Y-8074188D01*
X6332923Y-8102276D01*
X6338072Y-8050001D01*
X6338072Y-7349999D01*
X6321008Y-7176745D01*
X6270472Y-7010149D01*
X6188405Y-6856613D01*
X6077962Y-6722038D01*
X6002369Y-6660000D01*
X11997631Y-6660000D01*
X11922038Y-6722038D01*
%TA.AperFunction,Conductor*%
D14*
G36*
X11922038Y-6722038D02*
G01*
X11811595Y-6856613D01*
X11729528Y-7010149D01*
X11678992Y-7176745D01*
X11661928Y-7349999D01*
X11661928Y-8050001D01*
X11672758Y-8159961D01*
X11601582Y-8121916D01*
X11453745Y-8077071D01*
X11300000Y-8061928D01*
X10050000Y-8061928D01*
X9896255Y-8077071D01*
X9817461Y-8100973D01*
X9790256Y-8082795D01*
X9601898Y-8004774D01*
X9401939Y-7965000D01*
X9198061Y-7965000D01*
X8998102Y-8004774D01*
X8809744Y-8082795D01*
X8640226Y-8196063D01*
X8567542Y-8268747D01*
X8551185Y-8248815D01*
X8454494Y-8169463D01*
X8344180Y-8110498D01*
X8224482Y-8074188D01*
X8100000Y-8061928D01*
X7610750Y-8065000D01*
X7452000Y-8223750D01*
X7452000Y-8873000D01*
X7472000Y-8873000D01*
X7472000Y-9061928D01*
X7178000Y-9061928D01*
X7178000Y-8873000D01*
X7198000Y-8873000D01*
X7198000Y-8223750D01*
X7039250Y-8065000D01*
X6550000Y-8061928D01*
X6425518Y-8074188D01*
X6332923Y-8102276D01*
X6338072Y-8050001D01*
X6338072Y-7349999D01*
X6321008Y-7176745D01*
X6270472Y-7010149D01*
X6188405Y-6856613D01*
X6077962Y-6722038D01*
X6002369Y-6660000D01*
X11997631Y-6660000D01*
X11922038Y-6722038D01*
G37*
%TD.AperFunction*%
%TD*%
M02*
