%TF.GenerationSoftware,KiCad,Pcbnew,(5.1.9-0-10_14)*%
%TF.CreationDate,2022-01-13T23:21:40+01:00*%
%TF.ProjectId,tinypico_shield,74696e79-7069-4636-9f5f-736869656c64,rev?*%
%TF.SameCoordinates,Original*%
%TF.FileFunction,Legend,Top*%
%TF.FilePolarity,Positive*%
%FSLAX46Y46*%
G04 Gerber Fmt 4.6, Leading zero omitted, Abs format (unit mm)*
G04 Created by KiCad (PCBNEW (5.1.9-0-10_14)) date 2022-01-13 23:21:40*
%MOMM*%
%LPD*%
G01*
G04 APERTURE LIST*
%ADD10C,0.150000*%
%ADD11C,0.120000*%
G04 APERTURE END LIST*
D10*
X4347619Y-12890476D02*
X4300000Y-12842857D01*
X4252380Y-12747619D01*
X4252380Y-12509523D01*
X4300000Y-12414285D01*
X4347619Y-12366666D01*
X4442857Y-12319047D01*
X4538095Y-12319047D01*
X4680952Y-12366666D01*
X5252380Y-12938095D01*
X5252380Y-12319047D01*
X4252380Y-11700000D02*
X4252380Y-11604761D01*
X4300000Y-11509523D01*
X4347619Y-11461904D01*
X4442857Y-11414285D01*
X4633333Y-11366666D01*
X4871428Y-11366666D01*
X5061904Y-11414285D01*
X5157142Y-11461904D01*
X5204761Y-11509523D01*
X5252380Y-11604761D01*
X5252380Y-11700000D01*
X5204761Y-11795238D01*
X5157142Y-11842857D01*
X5061904Y-11890476D01*
X4871428Y-11938095D01*
X4633333Y-11938095D01*
X4442857Y-11890476D01*
X4347619Y-11842857D01*
X4300000Y-11795238D01*
X4252380Y-11700000D01*
X4347619Y-10985714D02*
X4300000Y-10938095D01*
X4252380Y-10842857D01*
X4252380Y-10604761D01*
X4300000Y-10509523D01*
X4347619Y-10461904D01*
X4442857Y-10414285D01*
X4538095Y-10414285D01*
X4680952Y-10461904D01*
X5252380Y-11033333D01*
X5252380Y-10414285D01*
X4347619Y-10033333D02*
X4300000Y-9985714D01*
X4252380Y-9890476D01*
X4252380Y-9652380D01*
X4300000Y-9557142D01*
X4347619Y-9509523D01*
X4442857Y-9461904D01*
X4538095Y-9461904D01*
X4680952Y-9509523D01*
X5252380Y-10080952D01*
X5252380Y-9461904D01*
X4204761Y-8319047D02*
X5490476Y-9176190D01*
X4252380Y-7795238D02*
X4252380Y-7700000D01*
X4300000Y-7604761D01*
X4347619Y-7557142D01*
X4442857Y-7509523D01*
X4633333Y-7461904D01*
X4871428Y-7461904D01*
X5061904Y-7509523D01*
X5157142Y-7557142D01*
X5204761Y-7604761D01*
X5252380Y-7700000D01*
X5252380Y-7795238D01*
X5204761Y-7890476D01*
X5157142Y-7938095D01*
X5061904Y-7985714D01*
X4871428Y-8033333D01*
X4633333Y-8033333D01*
X4442857Y-7985714D01*
X4347619Y-7938095D01*
X4300000Y-7890476D01*
X4252380Y-7795238D01*
X5252380Y-6509523D02*
X5252380Y-7080952D01*
X5252380Y-6795238D02*
X4252380Y-6795238D01*
X4395238Y-6890476D01*
X4490476Y-6985714D01*
X4538095Y-7080952D01*
X3076190Y-14471428D02*
X3028571Y-14519047D01*
X2980952Y-14614285D01*
X2980952Y-14709523D01*
X3028571Y-14804761D01*
X3076190Y-14852380D01*
X3171428Y-14900000D01*
X3266666Y-14900000D01*
X3361904Y-14852380D01*
X3409523Y-14804761D01*
X3457142Y-14709523D01*
X3457142Y-14614285D01*
X3409523Y-14519047D01*
X3361904Y-14471428D01*
X2980952Y-14471428D02*
X3361904Y-14471428D01*
X3409523Y-14423809D01*
X3409523Y-14376190D01*
X3361904Y-14280952D01*
X3266666Y-14233333D01*
X3028571Y-14233333D01*
X2885714Y-14328571D01*
X2790476Y-14471428D01*
X2742857Y-14661904D01*
X2790476Y-14852380D01*
X2885714Y-14995238D01*
X3028571Y-15090476D01*
X3219047Y-15138095D01*
X3409523Y-15090476D01*
X3552380Y-14995238D01*
X3647619Y-14852380D01*
X3695238Y-14661904D01*
X3647619Y-14471428D01*
X3552380Y-14328571D01*
X3552380Y-13376190D02*
X2552380Y-13376190D01*
X3504761Y-13376190D02*
X3552380Y-13471428D01*
X3552380Y-13661904D01*
X3504761Y-13757142D01*
X3457142Y-13804761D01*
X3361904Y-13852380D01*
X3076190Y-13852380D01*
X2980952Y-13804761D01*
X2933333Y-13757142D01*
X2885714Y-13661904D01*
X2885714Y-13471428D01*
X2933333Y-13376190D01*
X3552380Y-12471428D02*
X3028571Y-12471428D01*
X2933333Y-12519047D01*
X2885714Y-12614285D01*
X2885714Y-12804761D01*
X2933333Y-12900000D01*
X3504761Y-12471428D02*
X3552380Y-12566666D01*
X3552380Y-12804761D01*
X3504761Y-12900000D01*
X3409523Y-12947619D01*
X3314285Y-12947619D01*
X3219047Y-12900000D01*
X3171428Y-12804761D01*
X3171428Y-12566666D01*
X3123809Y-12471428D01*
X2885714Y-12090476D02*
X3552380Y-11852380D01*
X2885714Y-11614285D01*
X3504761Y-10852380D02*
X3552380Y-10947619D01*
X3552380Y-11138095D01*
X3504761Y-11233333D01*
X3409523Y-11280952D01*
X3028571Y-11280952D01*
X2933333Y-11233333D01*
X2885714Y-11138095D01*
X2885714Y-10947619D01*
X2933333Y-10852380D01*
X3028571Y-10804761D01*
X3123809Y-10804761D01*
X3219047Y-11280952D01*
X3552380Y-9947619D02*
X2552380Y-9947619D01*
X3504761Y-9947619D02*
X3552380Y-10042857D01*
X3552380Y-10233333D01*
X3504761Y-10328571D01*
X3457142Y-10376190D01*
X3361904Y-10423809D01*
X3076190Y-10423809D01*
X2980952Y-10376190D01*
X2933333Y-10328571D01*
X2885714Y-10233333D01*
X2885714Y-10042857D01*
X2933333Y-9947619D01*
X3552380Y-9042857D02*
X3028571Y-9042857D01*
X2933333Y-9090476D01*
X2885714Y-9185714D01*
X2885714Y-9376190D01*
X2933333Y-9471428D01*
X3504761Y-9042857D02*
X3552380Y-9138095D01*
X3552380Y-9376190D01*
X3504761Y-9471428D01*
X3409523Y-9519047D01*
X3314285Y-9519047D01*
X3219047Y-9471428D01*
X3171428Y-9376190D01*
X3171428Y-9138095D01*
X3123809Y-9042857D01*
X3552380Y-8566666D02*
X2885714Y-8566666D01*
X3076190Y-8566666D02*
X2980952Y-8519047D01*
X2933333Y-8471428D01*
X2885714Y-8376190D01*
X2885714Y-8280952D01*
X3552380Y-7947619D02*
X2552380Y-7947619D01*
X3171428Y-7852380D02*
X3552380Y-7566666D01*
X2885714Y-7566666D02*
X3266666Y-7947619D01*
X3552380Y-6995238D02*
X3504761Y-7090476D01*
X3457142Y-7138095D01*
X3361904Y-7185714D01*
X3076190Y-7185714D01*
X2980952Y-7138095D01*
X2933333Y-7090476D01*
X2885714Y-6995238D01*
X2885714Y-6852380D01*
X2933333Y-6757142D01*
X2980952Y-6709523D01*
X3076190Y-6661904D01*
X3361904Y-6661904D01*
X3457142Y-6709523D01*
X3504761Y-6757142D01*
X3552380Y-6852380D01*
X3552380Y-6995238D01*
D11*
X6200000Y-14800000D02*
X5900000Y-14600000D01*
X5500000Y-14800000D02*
X6200000Y-14800000D01*
%TO.C,C4*%
X12984165Y-13860000D02*
X13215835Y-13860000D01*
X12984165Y-13140000D02*
X13215835Y-13140000D01*
%TO.C,TP1*%
X15150000Y-19300000D02*
G75*
G03*
X15150000Y-19300000I-950000J0D01*
G01*
%TO.C,J8*%
X7260000Y-31310000D02*
X11140000Y-31310000D01*
X12310000Y-26840000D02*
X11260000Y-26840000D01*
X12310000Y-29340000D02*
X12310000Y-26840000D01*
X7140000Y-26840000D02*
X7140000Y-25850000D01*
X6090000Y-26840000D02*
X7140000Y-26840000D01*
X6090000Y-29340000D02*
X6090000Y-26840000D01*
%TO.C,U2*%
X9800000Y-21340000D02*
X7350000Y-21340000D01*
X8000000Y-24560000D02*
X9800000Y-24560000D01*
%TO.C,R1*%
X5265121Y-23315000D02*
X4929879Y-23315000D01*
X5265121Y-24075000D02*
X4929879Y-24075000D01*
%TO.C,C3*%
X10340000Y-19751665D02*
X10340000Y-19983335D01*
X11060000Y-19751665D02*
X11060000Y-19983335D01*
%TO.C,C2*%
X5183335Y-21640000D02*
X4951665Y-21640000D01*
X5183335Y-22360000D02*
X4951665Y-22360000D01*
%TO.C,C1*%
X12451665Y-22360000D02*
X12683335Y-22360000D01*
X12451665Y-21640000D02*
X12683335Y-21640000D01*
%TO.C,J9*%
X10940000Y-6815000D02*
X7060000Y-6815000D01*
X5890000Y-11285000D02*
X6940000Y-11285000D01*
X5890000Y-8785000D02*
X5890000Y-11285000D01*
X11060000Y-11285000D02*
X11060000Y-12275000D01*
X12110000Y-11285000D02*
X11060000Y-11285000D01*
X12110000Y-8785000D02*
X12110000Y-11285000D01*
D10*
%TO.C,U1*%
X11150000Y-13850000D02*
X10625000Y-13850000D01*
X11150000Y-18150000D02*
X10625000Y-18150000D01*
X6850000Y-18150000D02*
X7375000Y-18150000D01*
X6850000Y-13850000D02*
X7375000Y-13850000D01*
X11150000Y-18150000D02*
X11150000Y-17625000D01*
X6850000Y-18150000D02*
X6850000Y-17625000D01*
X11150000Y-13850000D02*
X11150000Y-14375000D01*
%TO.C,C4*%
X13833333Y-12789642D02*
X13785714Y-12837261D01*
X13642857Y-12884880D01*
X13547619Y-12884880D01*
X13404761Y-12837261D01*
X13309523Y-12742023D01*
X13261904Y-12646785D01*
X13214285Y-12456309D01*
X13214285Y-12313452D01*
X13261904Y-12122976D01*
X13309523Y-12027738D01*
X13404761Y-11932500D01*
X13547619Y-11884880D01*
X13642857Y-11884880D01*
X13785714Y-11932500D01*
X13833333Y-11980119D01*
X14690476Y-12218214D02*
X14690476Y-12884880D01*
X14452380Y-11837261D02*
X14214285Y-12551547D01*
X14833333Y-12551547D01*
%TO.C,U2*%
X11038095Y-23252380D02*
X11038095Y-24061904D01*
X11085714Y-24157142D01*
X11133333Y-24204761D01*
X11228571Y-24252380D01*
X11419047Y-24252380D01*
X11514285Y-24204761D01*
X11561904Y-24157142D01*
X11609523Y-24061904D01*
X11609523Y-23252380D01*
X12038095Y-23347619D02*
X12085714Y-23300000D01*
X12180952Y-23252380D01*
X12419047Y-23252380D01*
X12514285Y-23300000D01*
X12561904Y-23347619D01*
X12609523Y-23442857D01*
X12609523Y-23538095D01*
X12561904Y-23680952D01*
X11990476Y-24252380D01*
X12609523Y-24252380D01*
%TO.C,R1*%
X3033333Y-24052380D02*
X2700000Y-23576190D01*
X2461904Y-24052380D02*
X2461904Y-23052380D01*
X2842857Y-23052380D01*
X2938095Y-23100000D01*
X2985714Y-23147619D01*
X3033333Y-23242857D01*
X3033333Y-23385714D01*
X2985714Y-23480952D01*
X2938095Y-23528571D01*
X2842857Y-23576190D01*
X2461904Y-23576190D01*
X3985714Y-24052380D02*
X3414285Y-24052380D01*
X3700000Y-24052380D02*
X3700000Y-23052380D01*
X3604761Y-23195238D01*
X3509523Y-23290476D01*
X3414285Y-23338095D01*
%TO.C,C3*%
X9033333Y-19857142D02*
X8985714Y-19904761D01*
X8842857Y-19952380D01*
X8747619Y-19952380D01*
X8604761Y-19904761D01*
X8509523Y-19809523D01*
X8461904Y-19714285D01*
X8414285Y-19523809D01*
X8414285Y-19380952D01*
X8461904Y-19190476D01*
X8509523Y-19095238D01*
X8604761Y-19000000D01*
X8747619Y-18952380D01*
X8842857Y-18952380D01*
X8985714Y-19000000D01*
X9033333Y-19047619D01*
X9366666Y-18952380D02*
X9985714Y-18952380D01*
X9652380Y-19333333D01*
X9795238Y-19333333D01*
X9890476Y-19380952D01*
X9938095Y-19428571D01*
X9985714Y-19523809D01*
X9985714Y-19761904D01*
X9938095Y-19857142D01*
X9890476Y-19904761D01*
X9795238Y-19952380D01*
X9509523Y-19952380D01*
X9414285Y-19904761D01*
X9366666Y-19857142D01*
%TO.C,C2*%
X3033333Y-22357142D02*
X2985714Y-22404761D01*
X2842857Y-22452380D01*
X2747619Y-22452380D01*
X2604761Y-22404761D01*
X2509523Y-22309523D01*
X2461904Y-22214285D01*
X2414285Y-22023809D01*
X2414285Y-21880952D01*
X2461904Y-21690476D01*
X2509523Y-21595238D01*
X2604761Y-21500000D01*
X2747619Y-21452380D01*
X2842857Y-21452380D01*
X2985714Y-21500000D01*
X3033333Y-21547619D01*
X3414285Y-21547619D02*
X3461904Y-21500000D01*
X3557142Y-21452380D01*
X3795238Y-21452380D01*
X3890476Y-21500000D01*
X3938095Y-21547619D01*
X3985714Y-21642857D01*
X3985714Y-21738095D01*
X3938095Y-21880952D01*
X3366666Y-22452380D01*
X3985714Y-22452380D01*
%TO.C,C1*%
X12400833Y-21197142D02*
X12353214Y-21244761D01*
X12210357Y-21292380D01*
X12115119Y-21292380D01*
X11972261Y-21244761D01*
X11877023Y-21149523D01*
X11829404Y-21054285D01*
X11781785Y-20863809D01*
X11781785Y-20720952D01*
X11829404Y-20530476D01*
X11877023Y-20435238D01*
X11972261Y-20340000D01*
X12115119Y-20292380D01*
X12210357Y-20292380D01*
X12353214Y-20340000D01*
X12400833Y-20387619D01*
X13353214Y-21292380D02*
X12781785Y-21292380D01*
X13067500Y-21292380D02*
X13067500Y-20292380D01*
X12972261Y-20435238D01*
X12877023Y-20530476D01*
X12781785Y-20578095D01*
%TO.C,U1*%
X11838095Y-14252380D02*
X11838095Y-15061904D01*
X11885714Y-15157142D01*
X11933333Y-15204761D01*
X12028571Y-15252380D01*
X12219047Y-15252380D01*
X12314285Y-15204761D01*
X12361904Y-15157142D01*
X12409523Y-15061904D01*
X12409523Y-14252380D01*
X13409523Y-15252380D02*
X12838095Y-15252380D01*
X13123809Y-15252380D02*
X13123809Y-14252380D01*
X13028571Y-14395238D01*
X12933333Y-14490476D01*
X12838095Y-14538095D01*
%TD*%
M02*
