M48
; DRILL file {KiCad (5.1.9-0-10_14)} date Thursday, January 13, 2022 at 11:21:42 PM
; FORMAT={-:-/ absolute / inch / decimal}
; #@! TF.CreationDate,2022-01-13T23:21:42+01:00
; #@! TF.GenerationSoftware,Kicad,Pcbnew,(5.1.9-0-10_14)
; #@! TF.FileFunction,Plated,1,4,PTH
FMAT,2
INCH
T1C0.0157
T2C0.0300
%
G90
G05
T1
X0.1772Y-0.8071
X0.1929Y-0.7402
X0.2323Y-1.0433
X0.2323Y-1.0827
X0.2362Y-0.3937
X0.2362Y-0.7402
X0.2598Y-0.9055
X0.3031Y-0.9843
X0.311Y-0.3071
X0.3337Y-0.7805
X0.3337Y-1.1203
X0.342Y-0.405
X0.3622Y-0.5118
X0.3622Y-0.8189
X0.3622Y-0.9843
X0.3622Y-1.1614
X0.3661Y-0.3071
X0.3661Y-0.3543
X0.3937Y-0.8976
X0.4134Y-0.3071
X0.4134Y-1.2165
X0.4685Y-0.7746
X0.4732Y-0.4216
X0.4764Y-1.122
X0.4803Y-0.8189
X0.4887Y-0.3826
X0.4891Y-0.9301
X0.4961Y-0.5787
X0.5354Y-0.4213
X0.5354Y-0.5787
X0.5748Y-0.6102
X0.5827Y-0.7008
T2
X0.0543Y-0.3049
X0.0543Y-0.4049
X0.0543Y-0.5049
X0.0543Y-0.6049
X0.0543Y-0.7049
X0.0543Y-0.8049
X0.0543Y-0.9049
X0.0543Y-1.0049
X0.0543Y-1.1049
X0.0543Y-1.2049
X0.6543Y-0.3049
X0.6543Y-0.4049
X0.6543Y-0.5049
X0.6543Y-0.6049
X0.6543Y-0.7049
X0.6543Y-0.8049
X0.6543Y-0.9049
X0.6543Y-1.0049
X0.6543Y-1.1049
X0.6543Y-1.2049
T0
M30
