%TF.GenerationSoftware,KiCad,Pcbnew,(6.0.6-0)*%
%TF.CreationDate,2022-09-06T19:20:28+02:00*%
%TF.ProjectId,pwrBrd,70777242-7264-42e6-9b69-6361645f7063,rev?*%
%TF.SameCoordinates,Original*%
%TF.FileFunction,Copper,L1,Top*%
%TF.FilePolarity,Positive*%
%FSLAX46Y46*%
G04 Gerber Fmt 4.6, Leading zero omitted, Abs format (unit mm)*
G04 Created by KiCad (PCBNEW (6.0.6-0)) date 2022-09-06 19:20:28*
%MOMM*%
%LPD*%
G01*
G04 APERTURE LIST*
G04 Aperture macros list*
%AMRoundRect*
0 Rectangle with rounded corners*
0 $1 Rounding radius*
0 $2 $3 $4 $5 $6 $7 $8 $9 X,Y pos of 4 corners*
0 Add a 4 corners polygon primitive as box body*
4,1,4,$2,$3,$4,$5,$6,$7,$8,$9,$2,$3,0*
0 Add four circle primitives for the rounded corners*
1,1,$1+$1,$2,$3*
1,1,$1+$1,$4,$5*
1,1,$1+$1,$6,$7*
1,1,$1+$1,$8,$9*
0 Add four rect primitives between the rounded corners*
20,1,$1+$1,$2,$3,$4,$5,0*
20,1,$1+$1,$4,$5,$6,$7,0*
20,1,$1+$1,$6,$7,$8,$9,0*
20,1,$1+$1,$8,$9,$2,$3,0*%
G04 Aperture macros list end*
%TA.AperFunction,SMDPad,CuDef*%
%ADD10RoundRect,0.237500X-0.250000X-0.237500X0.250000X-0.237500X0.250000X0.237500X-0.250000X0.237500X0*%
%TD*%
%TA.AperFunction,SMDPad,CuDef*%
%ADD11C,1.500000*%
%TD*%
%TA.AperFunction,SMDPad,CuDef*%
%ADD12RoundRect,0.250000X-0.250000X-1.500000X0.250000X-1.500000X0.250000X1.500000X-0.250000X1.500000X0*%
%TD*%
%TA.AperFunction,SMDPad,CuDef*%
%ADD13RoundRect,0.250001X-0.499999X-1.449999X0.499999X-1.449999X0.499999X1.449999X-0.499999X1.449999X0*%
%TD*%
%TA.AperFunction,SMDPad,CuDef*%
%ADD14R,0.900000X0.800000*%
%TD*%
%TA.AperFunction,SMDPad,CuDef*%
%ADD15R,0.800000X1.000000*%
%TD*%
%TA.AperFunction,SMDPad,CuDef*%
%ADD16R,1.500000X0.700000*%
%TD*%
%TA.AperFunction,ViaPad*%
%ADD17C,0.800000*%
%TD*%
%TA.AperFunction,Conductor*%
%ADD18C,0.250000*%
%TD*%
%TA.AperFunction,Conductor*%
%ADD19C,0.400000*%
%TD*%
G04 APERTURE END LIST*
D10*
%TO.P,R3,1*%
%TO.N,/vbat*%
X6387500Y-9200000D03*
%TO.P,R3,2*%
%TO.N,Net-(Q1-Pad1)*%
X8212500Y-9200000D03*
%TD*%
D11*
%TO.P,TP3,1,1*%
%TO.N,GND*%
X6200000Y-2500000D03*
%TD*%
D12*
%TO.P,J1,1,Pin_1*%
%TO.N,/vbat*%
X4000000Y-13150000D03*
%TO.P,J1,2,Pin_2*%
%TO.N,GND*%
X6000000Y-13150000D03*
D13*
%TO.P,J1,MP*%
%TO.N,N/C*%
X8350000Y-18900000D03*
X1650000Y-18900000D03*
%TD*%
D14*
%TO.P,Q1,1,G*%
%TO.N,Net-(Q1-Pad1)*%
X6500000Y-5250000D03*
%TO.P,Q1,2,S*%
%TO.N,/vbat*%
X6500000Y-7150000D03*
%TO.P,Q1,3,D*%
%TO.N,/BOUT*%
X8500000Y-6200000D03*
%TD*%
D15*
%TO.P,SW1,*%
%TO.N,*%
X3280000Y-2450000D03*
X1070000Y-9750000D03*
X1070000Y-2450000D03*
X3280000Y-9750000D03*
D16*
%TO.P,SW1,1,A*%
%TO.N,Net-(Q1-Pad1)*%
X3930000Y-3850000D03*
%TO.P,SW1,2,B*%
%TO.N,GND*%
X3930000Y-6850000D03*
%TO.P,SW1,3,C*%
X3930000Y-8350000D03*
%TD*%
D11*
%TO.P,TP2,1,1*%
%TO.N,/BOUT*%
X8800000Y-2500000D03*
%TD*%
D17*
%TO.N,GND*%
X5600000Y-16500000D03*
X7700000Y-11500000D03*
X4600000Y-1900000D03*
X4800000Y-5400000D03*
X7300000Y-3900000D03*
X5300000Y-7600000D03*
X7700000Y-14900000D03*
X7700000Y-13100000D03*
X7000000Y-16100000D03*
X3600000Y-5400000D03*
%TD*%
D18*
%TO.N,Net-(Q1-Pad1)*%
X8212500Y-9200000D02*
X7600000Y-8587500D01*
X5800000Y-3900000D02*
X3900000Y-3900000D01*
X7600000Y-8587500D02*
X7600000Y-5600000D01*
X7600000Y-5600000D02*
X7200000Y-5200000D01*
X7200000Y-5200000D02*
X6500000Y-5200000D01*
X6500000Y-4600000D02*
X5800000Y-3900000D01*
X6500000Y-5250000D02*
X6500000Y-4600000D01*
D19*
%TO.N,/vbat*%
X4600000Y-10500000D02*
X5900000Y-9200000D01*
X5900000Y-9200000D02*
X6400000Y-9200000D01*
X6500000Y-7150000D02*
X6500000Y-9000000D01*
X6500000Y-9000000D02*
X6400000Y-9100000D01*
X4000000Y-11100000D02*
X4600000Y-10500000D01*
X4000000Y-13150000D02*
X4000000Y-11100000D01*
%TO.N,/BOUT*%
X8500000Y-2800000D02*
X8800000Y-2500000D01*
X8500000Y-6200000D02*
X8500000Y-2800000D01*
%TD*%
%TA.AperFunction,Conductor*%
%TO.N,GND*%
G36*
X2319426Y-1735609D02*
G01*
X2365919Y-1789265D01*
X2376568Y-1855214D01*
X2371500Y-1901866D01*
X2371500Y-2998134D01*
X2378255Y-3060316D01*
X2429385Y-3196705D01*
X2516739Y-3313261D01*
X2523919Y-3318642D01*
X2621065Y-3391449D01*
X2663580Y-3448308D01*
X2671500Y-3492275D01*
X2671500Y-3580793D01*
X2651498Y-3648914D01*
X2597842Y-3695407D01*
X2527568Y-3705511D01*
X2495461Y-3696431D01*
X2493095Y-3695407D01*
X2461316Y-3681655D01*
X2455069Y-3680350D01*
X2455066Y-3680349D01*
X2275443Y-3642824D01*
X2275438Y-3642823D01*
X2270707Y-3641835D01*
X2264315Y-3641500D01*
X2121337Y-3641500D01*
X2052049Y-3648538D01*
X1982622Y-3655590D01*
X1982621Y-3655590D01*
X1976273Y-3656235D01*
X1950892Y-3664189D01*
X1796549Y-3712556D01*
X1796544Y-3712558D01*
X1790459Y-3714465D01*
X1710137Y-3758989D01*
X1625729Y-3805777D01*
X1625726Y-3805779D01*
X1620150Y-3808870D01*
X1615309Y-3813019D01*
X1615305Y-3813022D01*
X1477145Y-3931440D01*
X1472302Y-3935591D01*
X1352954Y-4089453D01*
X1350138Y-4095176D01*
X1350136Y-4095179D01*
X1294308Y-4208637D01*
X1266982Y-4264171D01*
X1265373Y-4270349D01*
X1265372Y-4270351D01*
X1252327Y-4320434D01*
X1217898Y-4452607D01*
X1217564Y-4458986D01*
X1208577Y-4630467D01*
X1207707Y-4647064D01*
X1236825Y-4839599D01*
X1239028Y-4845585D01*
X1239029Y-4845591D01*
X1301860Y-5016360D01*
X1301862Y-5016365D01*
X1304063Y-5022346D01*
X1406674Y-5187840D01*
X1540466Y-5329322D01*
X1699975Y-5441011D01*
X1705838Y-5443548D01*
X1872825Y-5515810D01*
X1872829Y-5515811D01*
X1878684Y-5518345D01*
X1884931Y-5519650D01*
X1884934Y-5519651D01*
X2064557Y-5557176D01*
X2064562Y-5557177D01*
X2069293Y-5558165D01*
X2075685Y-5558500D01*
X2218663Y-5558500D01*
X2287951Y-5551462D01*
X2357378Y-5544410D01*
X2357379Y-5544410D01*
X2363727Y-5543765D01*
X2444843Y-5518345D01*
X2543451Y-5487444D01*
X2543456Y-5487442D01*
X2549541Y-5485535D01*
X2644234Y-5433045D01*
X2714271Y-5394223D01*
X2714274Y-5394221D01*
X2719850Y-5391130D01*
X2724691Y-5386981D01*
X2724695Y-5386978D01*
X2862855Y-5268560D01*
X2867698Y-5264409D01*
X2987046Y-5110547D01*
X3027779Y-5027768D01*
X3070200Y-4941556D01*
X3073018Y-4935829D01*
X3074627Y-4929653D01*
X3074629Y-4929647D01*
X3107685Y-4802740D01*
X3144212Y-4741860D01*
X3207854Y-4710394D01*
X3229616Y-4708500D01*
X4728134Y-4708500D01*
X4790316Y-4701745D01*
X4926705Y-4650615D01*
X5043261Y-4563261D01*
X5044463Y-4564865D01*
X5096630Y-4536379D01*
X5123413Y-4533500D01*
X5443752Y-4533500D01*
X5511873Y-4553502D01*
X5558366Y-4607158D01*
X5568470Y-4677432D01*
X5561736Y-4703724D01*
X5548255Y-4739684D01*
X5541500Y-4801866D01*
X5541500Y-5698134D01*
X5548255Y-5760316D01*
X5599385Y-5896705D01*
X5686739Y-6013261D01*
X5693919Y-6018642D01*
X5693920Y-6018643D01*
X5801372Y-6099174D01*
X5843887Y-6156033D01*
X5848913Y-6226852D01*
X5814853Y-6289145D01*
X5801372Y-6300826D01*
X5686739Y-6386739D01*
X5599385Y-6503295D01*
X5548255Y-6639684D01*
X5541500Y-6701866D01*
X5541500Y-7598134D01*
X5548255Y-7660316D01*
X5599385Y-7796705D01*
X5686739Y-7913261D01*
X5733772Y-7948510D01*
X5741065Y-7953976D01*
X5783580Y-8010835D01*
X5791500Y-8054802D01*
X5791500Y-8229095D01*
X5771498Y-8297216D01*
X5731807Y-8336236D01*
X5670969Y-8373884D01*
X5665796Y-8379066D01*
X5553242Y-8491816D01*
X5553238Y-8491821D01*
X5548071Y-8496997D01*
X5544232Y-8503225D01*
X5544228Y-8503230D01*
X5470979Y-8622061D01*
X5439672Y-8654967D01*
X5439979Y-8655315D01*
X5436021Y-8658805D01*
X5435093Y-8659780D01*
X5434284Y-8660336D01*
X5434278Y-8660341D01*
X5428019Y-8664643D01*
X5407900Y-8687224D01*
X5347651Y-8724779D01*
X5276661Y-8723799D01*
X5217471Y-8684594D01*
X5192929Y-8638902D01*
X5183525Y-8606876D01*
X5182135Y-8605671D01*
X5174452Y-8604000D01*
X3802000Y-8604000D01*
X3733879Y-8583998D01*
X3687386Y-8530342D01*
X3676000Y-8478000D01*
X3676000Y-8077885D01*
X4184000Y-8077885D01*
X4188475Y-8093124D01*
X4189865Y-8094329D01*
X4197548Y-8096000D01*
X5169884Y-8096000D01*
X5185123Y-8091525D01*
X5186328Y-8090135D01*
X5187999Y-8082452D01*
X5187999Y-7955331D01*
X5187629Y-7948510D01*
X5182105Y-7897648D01*
X5178479Y-7882396D01*
X5133324Y-7761946D01*
X5124789Y-7746356D01*
X5071734Y-7675565D01*
X5046887Y-7609058D01*
X5061940Y-7539676D01*
X5071734Y-7524435D01*
X5124789Y-7453644D01*
X5133324Y-7438054D01*
X5178478Y-7317606D01*
X5182105Y-7302351D01*
X5187631Y-7251486D01*
X5188000Y-7244672D01*
X5188000Y-7122115D01*
X5183525Y-7106876D01*
X5182135Y-7105671D01*
X5174452Y-7104000D01*
X4202115Y-7104000D01*
X4186876Y-7108475D01*
X4185671Y-7109865D01*
X4184000Y-7117548D01*
X4184000Y-8077885D01*
X3676000Y-8077885D01*
X3676000Y-6577885D01*
X4184000Y-6577885D01*
X4188475Y-6593124D01*
X4189865Y-6594329D01*
X4197548Y-6596000D01*
X5169884Y-6596000D01*
X5185123Y-6591525D01*
X5186328Y-6590135D01*
X5187999Y-6582452D01*
X5187999Y-6455331D01*
X5187629Y-6448510D01*
X5182105Y-6397648D01*
X5178479Y-6382396D01*
X5133324Y-6261946D01*
X5124786Y-6246351D01*
X5048285Y-6144276D01*
X5035724Y-6131715D01*
X4933649Y-6055214D01*
X4918054Y-6046676D01*
X4797606Y-6001522D01*
X4782351Y-5997895D01*
X4731486Y-5992369D01*
X4724672Y-5992000D01*
X4202115Y-5992000D01*
X4186876Y-5996475D01*
X4185671Y-5997865D01*
X4184000Y-6005548D01*
X4184000Y-6577885D01*
X3676000Y-6577885D01*
X3676000Y-6010116D01*
X3671525Y-5994877D01*
X3670135Y-5993672D01*
X3662452Y-5992001D01*
X3135331Y-5992001D01*
X3128510Y-5992371D01*
X3077648Y-5997895D01*
X3062396Y-6001521D01*
X2941946Y-6046676D01*
X2926351Y-6055214D01*
X2824276Y-6131715D01*
X2811715Y-6144276D01*
X2735214Y-6246351D01*
X2726676Y-6261946D01*
X2681522Y-6382394D01*
X2677895Y-6397649D01*
X2672369Y-6448514D01*
X2672000Y-6455328D01*
X2672000Y-6581010D01*
X2651998Y-6649131D01*
X2598342Y-6695624D01*
X2528068Y-6705728D01*
X2495964Y-6696648D01*
X2461316Y-6681655D01*
X2455069Y-6680350D01*
X2455066Y-6680349D01*
X2275443Y-6642824D01*
X2275438Y-6642823D01*
X2270707Y-6641835D01*
X2264315Y-6641500D01*
X2121337Y-6641500D01*
X2061874Y-6647540D01*
X1982622Y-6655590D01*
X1982621Y-6655590D01*
X1976273Y-6656235D01*
X1919939Y-6673889D01*
X1796549Y-6712556D01*
X1796544Y-6712558D01*
X1790459Y-6714465D01*
X1710137Y-6758989D01*
X1625729Y-6805777D01*
X1625726Y-6805779D01*
X1620150Y-6808870D01*
X1615309Y-6813019D01*
X1615305Y-6813022D01*
X1576007Y-6846705D01*
X1472302Y-6935591D01*
X1468391Y-6940633D01*
X1468390Y-6940634D01*
X1450839Y-6963261D01*
X1352954Y-7089453D01*
X1350138Y-7095176D01*
X1350136Y-7095179D01*
X1281582Y-7234500D01*
X1266982Y-7264171D01*
X1265373Y-7270349D01*
X1265372Y-7270351D01*
X1221689Y-7438054D01*
X1217898Y-7452607D01*
X1207707Y-7647064D01*
X1236825Y-7839599D01*
X1239028Y-7845585D01*
X1239029Y-7845591D01*
X1301860Y-8016360D01*
X1301862Y-8016365D01*
X1304063Y-8022346D01*
X1406674Y-8187840D01*
X1540466Y-8329322D01*
X1699975Y-8441011D01*
X1705838Y-8443548D01*
X1872825Y-8515810D01*
X1872829Y-8515811D01*
X1878684Y-8518345D01*
X1884931Y-8519650D01*
X1884934Y-8519651D01*
X2064557Y-8557176D01*
X2064562Y-8557177D01*
X2069293Y-8558165D01*
X2075685Y-8558500D01*
X2218663Y-8558500D01*
X2287951Y-8551462D01*
X2357378Y-8544410D01*
X2357379Y-8544410D01*
X2363727Y-8543765D01*
X2508322Y-8498452D01*
X2579307Y-8497168D01*
X2639718Y-8534465D01*
X2670374Y-8598502D01*
X2672001Y-8618686D01*
X2672001Y-8707349D01*
X2651999Y-8775470D01*
X2621566Y-8808175D01*
X2611439Y-8815765D01*
X2516739Y-8886739D01*
X2429385Y-9003295D01*
X2378255Y-9139684D01*
X2371500Y-9201866D01*
X2371500Y-10298134D01*
X2378255Y-10360316D01*
X2429385Y-10496705D01*
X2516739Y-10613261D01*
X2633295Y-10700615D01*
X2769684Y-10751745D01*
X2831866Y-10758500D01*
X3189332Y-10758500D01*
X3257453Y-10778502D01*
X3303946Y-10832158D01*
X3314050Y-10902432D01*
X3311430Y-10915553D01*
X3308718Y-10922509D01*
X3307727Y-10930039D01*
X3300379Y-10985849D01*
X3299347Y-10992364D01*
X3298404Y-10997452D01*
X3263687Y-11063508D01*
X3150695Y-11176697D01*
X3057885Y-11327262D01*
X3002203Y-11495139D01*
X2991500Y-11599600D01*
X2991500Y-14700400D01*
X2991837Y-14703646D01*
X2991837Y-14703650D01*
X3001618Y-14797914D01*
X3002474Y-14806166D01*
X3058450Y-14973946D01*
X3151522Y-15124348D01*
X3276697Y-15249305D01*
X3282927Y-15253145D01*
X3282928Y-15253146D01*
X3420288Y-15337816D01*
X3427262Y-15342115D01*
X3507005Y-15368564D01*
X3588611Y-15395632D01*
X3588613Y-15395632D01*
X3595139Y-15397797D01*
X3601975Y-15398497D01*
X3601978Y-15398498D01*
X3645031Y-15402909D01*
X3699600Y-15408500D01*
X4300400Y-15408500D01*
X4303646Y-15408163D01*
X4303650Y-15408163D01*
X4399308Y-15398238D01*
X4399312Y-15398237D01*
X4406166Y-15397526D01*
X4412702Y-15395345D01*
X4412704Y-15395345D01*
X4544806Y-15351272D01*
X4573946Y-15341550D01*
X4724348Y-15248478D01*
X4849305Y-15123303D01*
X4893040Y-15052352D01*
X4945811Y-15004860D01*
X5015883Y-14993436D01*
X5081006Y-15021710D01*
X5107443Y-15052166D01*
X5148063Y-15117807D01*
X5157099Y-15129208D01*
X5271829Y-15243739D01*
X5283240Y-15252751D01*
X5421243Y-15337816D01*
X5434424Y-15343963D01*
X5588710Y-15395138D01*
X5602086Y-15398005D01*
X5696438Y-15407672D01*
X5702854Y-15408000D01*
X5727885Y-15408000D01*
X5743124Y-15403525D01*
X5744329Y-15402135D01*
X5746000Y-15394452D01*
X5746000Y-15389884D01*
X6254000Y-15389884D01*
X6258475Y-15405123D01*
X6259865Y-15406328D01*
X6267548Y-15407999D01*
X6297095Y-15407999D01*
X6303614Y-15407662D01*
X6399206Y-15397743D01*
X6412600Y-15394851D01*
X6566784Y-15343412D01*
X6579962Y-15337239D01*
X6717807Y-15251937D01*
X6729208Y-15242901D01*
X6843739Y-15128171D01*
X6852751Y-15116760D01*
X6937816Y-14978757D01*
X6943963Y-14965576D01*
X6995138Y-14811290D01*
X6998005Y-14797914D01*
X7007672Y-14703562D01*
X7008000Y-14697146D01*
X7008000Y-13422115D01*
X7003525Y-13406876D01*
X7002135Y-13405671D01*
X6994452Y-13404000D01*
X6272115Y-13404000D01*
X6256876Y-13408475D01*
X6255671Y-13409865D01*
X6254000Y-13417548D01*
X6254000Y-15389884D01*
X5746000Y-15389884D01*
X5746000Y-12877885D01*
X6254000Y-12877885D01*
X6258475Y-12893124D01*
X6259865Y-12894329D01*
X6267548Y-12896000D01*
X6989884Y-12896000D01*
X7005123Y-12891525D01*
X7006328Y-12890135D01*
X7007999Y-12882452D01*
X7007999Y-11602905D01*
X7007662Y-11596386D01*
X6997743Y-11500794D01*
X6994851Y-11487400D01*
X6943412Y-11333216D01*
X6937239Y-11320038D01*
X6851937Y-11182193D01*
X6842901Y-11170792D01*
X6728171Y-11056261D01*
X6716760Y-11047249D01*
X6578757Y-10962184D01*
X6565576Y-10956037D01*
X6411290Y-10904862D01*
X6397914Y-10901995D01*
X6303562Y-10892328D01*
X6297145Y-10892000D01*
X6272115Y-10892000D01*
X6256876Y-10896475D01*
X6255671Y-10897865D01*
X6254000Y-10905548D01*
X6254000Y-12877885D01*
X5746000Y-12877885D01*
X5746000Y-10910116D01*
X5741525Y-10894877D01*
X5740135Y-10893672D01*
X5732452Y-10892001D01*
X5702905Y-10892001D01*
X5696386Y-10892338D01*
X5600794Y-10902257D01*
X5587400Y-10905149D01*
X5507882Y-10931678D01*
X5436932Y-10934262D01*
X5375849Y-10898078D01*
X5344024Y-10834614D01*
X5351563Y-10764019D01*
X5378911Y-10723059D01*
X5891865Y-10210105D01*
X5954177Y-10176079D01*
X5993801Y-10173856D01*
X6087928Y-10183500D01*
X6687072Y-10183500D01*
X6690318Y-10183163D01*
X6690322Y-10183163D01*
X6784235Y-10173419D01*
X6784239Y-10173418D01*
X6791093Y-10172707D01*
X6797629Y-10170526D01*
X6797631Y-10170526D01*
X6930395Y-10126232D01*
X6956107Y-10117654D01*
X7104031Y-10026116D01*
X7109204Y-10020934D01*
X7210747Y-9919214D01*
X7273030Y-9885135D01*
X7343850Y-9890138D01*
X7388937Y-9919059D01*
X7491812Y-10021754D01*
X7491817Y-10021758D01*
X7496997Y-10026929D01*
X7645080Y-10118209D01*
X7810191Y-10172974D01*
X7817027Y-10173674D01*
X7817030Y-10173675D01*
X7868526Y-10178951D01*
X7912928Y-10183500D01*
X8512072Y-10183500D01*
X8515318Y-10183163D01*
X8515322Y-10183163D01*
X8609235Y-10173419D01*
X8609239Y-10173418D01*
X8616093Y-10172707D01*
X8622629Y-10170526D01*
X8622631Y-10170526D01*
X8755395Y-10126232D01*
X8781107Y-10117654D01*
X8929031Y-10026116D01*
X8934204Y-10020934D01*
X9046758Y-9908184D01*
X9046762Y-9908179D01*
X9051929Y-9903003D01*
X9143209Y-9754920D01*
X9197974Y-9589809D01*
X9208500Y-9487072D01*
X9208500Y-8912928D01*
X9205783Y-8886739D01*
X9198419Y-8815765D01*
X9198418Y-8815761D01*
X9197707Y-8808907D01*
X9178398Y-8751029D01*
X9144972Y-8650841D01*
X9142654Y-8643893D01*
X9051116Y-8495969D01*
X9033116Y-8478000D01*
X8933184Y-8378242D01*
X8933179Y-8378238D01*
X8928003Y-8373071D01*
X8921772Y-8369230D01*
X8786150Y-8285631D01*
X8786148Y-8285630D01*
X8779920Y-8281791D01*
X8614809Y-8227026D01*
X8607973Y-8226326D01*
X8607970Y-8226325D01*
X8556474Y-8221049D01*
X8512072Y-8216500D01*
X8359500Y-8216500D01*
X8291379Y-8196498D01*
X8244886Y-8142842D01*
X8233500Y-8090500D01*
X8233500Y-7234500D01*
X8253502Y-7166379D01*
X8307158Y-7119886D01*
X8359500Y-7108500D01*
X8998134Y-7108500D01*
X9060316Y-7101745D01*
X9196705Y-7050615D01*
X9289935Y-6980743D01*
X9356441Y-6955895D01*
X9425824Y-6970948D01*
X9476054Y-7021122D01*
X9491500Y-7081569D01*
X9491500Y-16728691D01*
X9471498Y-16796812D01*
X9417842Y-16843305D01*
X9347568Y-16853409D01*
X9299384Y-16835951D01*
X9178968Y-16761725D01*
X9178966Y-16761724D01*
X9172738Y-16757885D01*
X9012254Y-16704655D01*
X9011389Y-16704368D01*
X9011387Y-16704368D01*
X9004861Y-16702203D01*
X8998025Y-16701503D01*
X8998022Y-16701502D01*
X8954969Y-16697091D01*
X8900400Y-16691500D01*
X7799600Y-16691500D01*
X7796354Y-16691837D01*
X7796350Y-16691837D01*
X7700693Y-16701762D01*
X7700689Y-16701763D01*
X7693835Y-16702474D01*
X7687299Y-16704655D01*
X7687297Y-16704655D01*
X7555195Y-16748728D01*
X7526055Y-16758450D01*
X7375652Y-16851522D01*
X7250695Y-16976697D01*
X7157885Y-17127262D01*
X7102203Y-17295139D01*
X7091500Y-17399600D01*
X7091500Y-20400400D01*
X7091837Y-20403646D01*
X7091837Y-20403650D01*
X7098046Y-20463487D01*
X7102474Y-20506165D01*
X7158450Y-20673945D01*
X7162306Y-20680176D01*
X7235958Y-20799197D01*
X7254796Y-20867649D01*
X7233635Y-20935419D01*
X7179194Y-20980990D01*
X7128814Y-20991500D01*
X2871309Y-20991500D01*
X2803188Y-20971498D01*
X2756695Y-20917842D01*
X2746591Y-20847568D01*
X2764049Y-20799384D01*
X2838275Y-20678968D01*
X2838276Y-20678966D01*
X2842115Y-20672738D01*
X2897797Y-20504861D01*
X2908500Y-20400400D01*
X2908500Y-17399600D01*
X2897526Y-17293835D01*
X2841550Y-17126055D01*
X2748478Y-16975652D01*
X2623303Y-16850695D01*
X2611314Y-16843305D01*
X2478968Y-16761725D01*
X2478966Y-16761724D01*
X2472738Y-16757885D01*
X2312254Y-16704655D01*
X2311389Y-16704368D01*
X2311387Y-16704368D01*
X2304861Y-16702203D01*
X2298025Y-16701503D01*
X2298022Y-16701502D01*
X2254969Y-16697091D01*
X2200400Y-16691500D01*
X1099600Y-16691500D01*
X1096354Y-16691837D01*
X1096350Y-16691837D01*
X1000693Y-16701762D01*
X1000689Y-16701763D01*
X993835Y-16702474D01*
X987299Y-16704655D01*
X987297Y-16704655D01*
X855195Y-16748728D01*
X826055Y-16758450D01*
X819823Y-16762306D01*
X819824Y-16762306D01*
X700803Y-16835958D01*
X632351Y-16854796D01*
X564581Y-16833635D01*
X519010Y-16779194D01*
X508500Y-16728814D01*
X508500Y-10884500D01*
X528502Y-10816379D01*
X582158Y-10769886D01*
X634500Y-10758500D01*
X1518134Y-10758500D01*
X1580316Y-10751745D01*
X1716705Y-10700615D01*
X1833261Y-10613261D01*
X1920615Y-10496705D01*
X1971745Y-10360316D01*
X1978500Y-10298134D01*
X1978500Y-9201866D01*
X1971745Y-9139684D01*
X1920615Y-9003295D01*
X1833261Y-8886739D01*
X1716705Y-8799385D01*
X1580316Y-8748255D01*
X1518134Y-8741500D01*
X634500Y-8741500D01*
X566379Y-8721498D01*
X519886Y-8667842D01*
X508500Y-8615500D01*
X508500Y-3584500D01*
X528502Y-3516379D01*
X582158Y-3469886D01*
X634500Y-3458500D01*
X1518134Y-3458500D01*
X1580316Y-3451745D01*
X1716705Y-3400615D01*
X1833261Y-3313261D01*
X1920615Y-3196705D01*
X1971745Y-3060316D01*
X1978500Y-2998134D01*
X1978500Y-1901866D01*
X1973432Y-1855214D01*
X1985960Y-1785333D01*
X2034280Y-1733317D01*
X2098695Y-1715607D01*
X2251305Y-1715607D01*
X2319426Y-1735609D01*
G37*
%TD.AperFunction*%
%TA.AperFunction,Conductor*%
G36*
X6244032Y-2200924D02*
G01*
X6289095Y-2229884D01*
X7238389Y-3179178D01*
X7250162Y-3185606D01*
X7262176Y-3176311D01*
X7290466Y-3135907D01*
X7295946Y-3126417D01*
X7385530Y-2934305D01*
X7432448Y-2881020D01*
X7500725Y-2861559D01*
X7568685Y-2882101D01*
X7613919Y-2934305D01*
X7705944Y-3131653D01*
X7751494Y-3196705D01*
X7768713Y-3221297D01*
X7791500Y-3293567D01*
X7791500Y-4595251D01*
X7771498Y-4663372D01*
X7717842Y-4709865D01*
X7647568Y-4719969D01*
X7588816Y-4691703D01*
X7587511Y-4693499D01*
X7581100Y-4688841D01*
X7575321Y-4683414D01*
X7568375Y-4679595D01*
X7568372Y-4679593D01*
X7557566Y-4673652D01*
X7541047Y-4662801D01*
X7540583Y-4662441D01*
X7525041Y-4650386D01*
X7517772Y-4647241D01*
X7517768Y-4647238D01*
X7484463Y-4632826D01*
X7473813Y-4627609D01*
X7435060Y-4606305D01*
X7427377Y-4604332D01*
X7423527Y-4602808D01*
X7369082Y-4561221D01*
X7313261Y-4486739D01*
X7267719Y-4452607D01*
X7203887Y-4404767D01*
X7203884Y-4404765D01*
X7196705Y-4399385D01*
X7137740Y-4377280D01*
X7080975Y-4334639D01*
X7064817Y-4305681D01*
X7062472Y-4299757D01*
X7062470Y-4299754D01*
X7059552Y-4292383D01*
X7033571Y-4256623D01*
X7027053Y-4246701D01*
X7008578Y-4215460D01*
X7008574Y-4215455D01*
X7004542Y-4208637D01*
X6990218Y-4194313D01*
X6977376Y-4179278D01*
X6965472Y-4162893D01*
X6931406Y-4134711D01*
X6922627Y-4126722D01*
X6657291Y-3861386D01*
X6623265Y-3799074D01*
X6628330Y-3728259D01*
X6670877Y-3671423D01*
X6693136Y-3658096D01*
X6826416Y-3595947D01*
X6835912Y-3590464D01*
X6877148Y-3561590D01*
X6885523Y-3551113D01*
X6878455Y-3537667D01*
X5929884Y-2589095D01*
X5895859Y-2526783D01*
X5900924Y-2455967D01*
X5929885Y-2410905D01*
X6110905Y-2229885D01*
X6173217Y-2195859D01*
X6244032Y-2200924D01*
G37*
%TD.AperFunction*%
%TA.AperFunction,Conductor*%
G36*
X5048060Y-1735609D02*
G01*
X5094553Y-1789265D01*
X5104657Y-1859539D01*
X5094134Y-1894857D01*
X5015674Y-2063113D01*
X5011928Y-2073405D01*
X4957804Y-2275401D01*
X4955901Y-2286196D01*
X4937674Y-2494525D01*
X4937674Y-2505475D01*
X4955901Y-2713804D01*
X4957804Y-2724599D01*
X4994634Y-2862050D01*
X4992944Y-2933026D01*
X4953150Y-2991822D01*
X4887886Y-3019770D01*
X4828699Y-3012643D01*
X4797721Y-3001030D01*
X4797714Y-3001028D01*
X4790316Y-2998255D01*
X4728134Y-2991500D01*
X4314500Y-2991500D01*
X4246379Y-2971498D01*
X4199886Y-2917842D01*
X4188500Y-2865500D01*
X4188500Y-1901866D01*
X4183432Y-1855214D01*
X4195960Y-1785333D01*
X4244280Y-1733317D01*
X4308695Y-1715607D01*
X4979939Y-1715607D01*
X5048060Y-1735609D01*
G37*
%TD.AperFunction*%
%TD*%
M02*
