%TF.GenerationSoftware,KiCad,Pcbnew,(6.0.6-0)*%
%TF.CreationDate,2022-09-06T19:20:28+02:00*%
%TF.ProjectId,pwrBrd,70777242-7264-42e6-9b69-6361645f7063,rev?*%
%TF.SameCoordinates,Original*%
%TF.FileFunction,Copper,L2,Bot*%
%TF.FilePolarity,Positive*%
%FSLAX46Y46*%
G04 Gerber Fmt 4.6, Leading zero omitted, Abs format (unit mm)*
G04 Created by KiCad (PCBNEW (6.0.6-0)) date 2022-09-06 19:20:28*
%MOMM*%
%LPD*%
G01*
G04 APERTURE LIST*
%TA.AperFunction,ViaPad*%
%ADD10C,0.800000*%
%TD*%
G04 APERTURE END LIST*
D10*
%TO.N,GND*%
X5600000Y-16500000D03*
X7700000Y-11500000D03*
X4600000Y-1900000D03*
X4800000Y-5400000D03*
X7300000Y-3900000D03*
X5300000Y-7600000D03*
X7700000Y-14900000D03*
X7700000Y-13100000D03*
X7000000Y-16100000D03*
X3600000Y-5400000D03*
%TD*%
%TA.AperFunction,Conductor*%
%TO.N,GND*%
G36*
X8970018Y-1717107D02*
G01*
X8984851Y-1719417D01*
X8984855Y-1719417D01*
X8993724Y-1720798D01*
X9002626Y-1719634D01*
X9002631Y-1719634D01*
X9002750Y-1719618D01*
X9033187Y-1719347D01*
X9095261Y-1726341D01*
X9122769Y-1732620D01*
X9199853Y-1759593D01*
X9225274Y-1771835D01*
X9294420Y-1815282D01*
X9316479Y-1832874D01*
X9374228Y-1890623D01*
X9391816Y-1912677D01*
X9435269Y-1981832D01*
X9447508Y-2007248D01*
X9474482Y-2084336D01*
X9480761Y-2111845D01*
X9487017Y-2167376D01*
X9487800Y-2183025D01*
X9487691Y-2191956D01*
X9486309Y-2200827D01*
X9487473Y-2209730D01*
X9487473Y-2209736D01*
X9490436Y-2232397D01*
X9491500Y-2248733D01*
X9491500Y-20450633D01*
X9490000Y-20470018D01*
X9486309Y-20493724D01*
X9487473Y-20502626D01*
X9487489Y-20502750D01*
X9487760Y-20533192D01*
X9485430Y-20553870D01*
X9480766Y-20595264D01*
X9474487Y-20622771D01*
X9447515Y-20699853D01*
X9435273Y-20725274D01*
X9391822Y-20794426D01*
X9374230Y-20816485D01*
X9316485Y-20874230D01*
X9294426Y-20891822D01*
X9225274Y-20935273D01*
X9199853Y-20947515D01*
X9122772Y-20974487D01*
X9095264Y-20980766D01*
X9039774Y-20987018D01*
X9024132Y-20986923D01*
X9024121Y-20987800D01*
X9015149Y-20987690D01*
X9006276Y-20986309D01*
X8997374Y-20987473D01*
X8997372Y-20987473D01*
X8986385Y-20988910D01*
X8974714Y-20990436D01*
X8958379Y-20991500D01*
X1049367Y-20991500D01*
X1029982Y-20990000D01*
X1015148Y-20987690D01*
X1015145Y-20987690D01*
X1006276Y-20986309D01*
X997374Y-20987473D01*
X997250Y-20987489D01*
X966808Y-20987760D01*
X946130Y-20985430D01*
X904736Y-20980766D01*
X877229Y-20974487D01*
X800147Y-20947515D01*
X774726Y-20935273D01*
X705574Y-20891822D01*
X683515Y-20874230D01*
X625770Y-20816485D01*
X608178Y-20794426D01*
X564727Y-20725274D01*
X552485Y-20699853D01*
X525513Y-20622772D01*
X519234Y-20595266D01*
X513170Y-20541451D01*
X512888Y-20516640D01*
X513576Y-20512552D01*
X513729Y-20500000D01*
X509773Y-20472376D01*
X508500Y-20454514D01*
X508500Y-7647064D01*
X1207707Y-7647064D01*
X1236825Y-7839599D01*
X1239028Y-7845585D01*
X1239029Y-7845591D01*
X1301860Y-8016360D01*
X1301862Y-8016365D01*
X1304063Y-8022346D01*
X1406674Y-8187840D01*
X1540466Y-8329322D01*
X1699975Y-8441011D01*
X1705838Y-8443548D01*
X1872825Y-8515810D01*
X1872829Y-8515811D01*
X1878684Y-8518345D01*
X1884931Y-8519650D01*
X1884934Y-8519651D01*
X2064557Y-8557176D01*
X2064562Y-8557177D01*
X2069293Y-8558165D01*
X2075685Y-8558500D01*
X2218663Y-8558500D01*
X2287951Y-8551462D01*
X2357378Y-8544410D01*
X2357379Y-8544410D01*
X2363727Y-8543765D01*
X2444843Y-8518345D01*
X2543451Y-8487444D01*
X2543456Y-8487442D01*
X2549541Y-8485535D01*
X2636475Y-8437346D01*
X2714271Y-8394223D01*
X2714274Y-8394221D01*
X2719850Y-8391130D01*
X2724691Y-8386981D01*
X2724695Y-8386978D01*
X2862855Y-8268560D01*
X2867698Y-8264409D01*
X2987046Y-8110547D01*
X3027779Y-8027768D01*
X3070200Y-7941556D01*
X3073018Y-7935829D01*
X3074628Y-7929649D01*
X3120492Y-7753575D01*
X3120492Y-7753572D01*
X3122102Y-7747393D01*
X3132293Y-7552936D01*
X3103175Y-7360401D01*
X3100972Y-7354415D01*
X3100971Y-7354409D01*
X3038140Y-7183640D01*
X3038138Y-7183635D01*
X3035937Y-7177654D01*
X2933326Y-7012160D01*
X2799534Y-6870678D01*
X2640025Y-6758989D01*
X2592013Y-6738212D01*
X2467175Y-6684190D01*
X2467171Y-6684189D01*
X2461316Y-6681655D01*
X2455069Y-6680350D01*
X2455066Y-6680349D01*
X2275443Y-6642824D01*
X2275438Y-6642823D01*
X2270707Y-6641835D01*
X2264315Y-6641500D01*
X2121337Y-6641500D01*
X2052049Y-6648538D01*
X1982622Y-6655590D01*
X1982621Y-6655590D01*
X1976273Y-6656235D01*
X1919939Y-6673889D01*
X1796549Y-6712556D01*
X1796544Y-6712558D01*
X1790459Y-6714465D01*
X1714713Y-6756452D01*
X1625729Y-6805777D01*
X1625726Y-6805779D01*
X1620150Y-6808870D01*
X1615309Y-6813019D01*
X1615305Y-6813022D01*
X1552311Y-6867015D01*
X1472302Y-6935591D01*
X1352954Y-7089453D01*
X1350138Y-7095176D01*
X1350136Y-7095179D01*
X1306608Y-7183640D01*
X1266982Y-7264171D01*
X1265373Y-7270349D01*
X1265372Y-7270351D01*
X1243477Y-7354409D01*
X1217898Y-7452607D01*
X1207707Y-7647064D01*
X508500Y-7647064D01*
X508500Y-4647064D01*
X1207707Y-4647064D01*
X1236825Y-4839599D01*
X1239028Y-4845585D01*
X1239029Y-4845591D01*
X1301860Y-5016360D01*
X1301862Y-5016365D01*
X1304063Y-5022346D01*
X1406674Y-5187840D01*
X1540466Y-5329322D01*
X1699975Y-5441011D01*
X1705838Y-5443548D01*
X1872825Y-5515810D01*
X1872829Y-5515811D01*
X1878684Y-5518345D01*
X1884931Y-5519650D01*
X1884934Y-5519651D01*
X2064557Y-5557176D01*
X2064562Y-5557177D01*
X2069293Y-5558165D01*
X2075685Y-5558500D01*
X2218663Y-5558500D01*
X2287951Y-5551462D01*
X2357378Y-5544410D01*
X2357379Y-5544410D01*
X2363727Y-5543765D01*
X2444843Y-5518345D01*
X2543451Y-5487444D01*
X2543456Y-5487442D01*
X2549541Y-5485535D01*
X2636475Y-5437346D01*
X2714271Y-5394223D01*
X2714274Y-5394221D01*
X2719850Y-5391130D01*
X2724691Y-5386981D01*
X2724695Y-5386978D01*
X2862855Y-5268560D01*
X2867698Y-5264409D01*
X2987046Y-5110547D01*
X3027779Y-5027768D01*
X3070200Y-4941556D01*
X3073018Y-4935829D01*
X3074628Y-4929649D01*
X3120492Y-4753575D01*
X3120492Y-4753572D01*
X3122102Y-4747393D01*
X3132293Y-4552936D01*
X3103175Y-4360401D01*
X3100972Y-4354415D01*
X3100971Y-4354409D01*
X3038140Y-4183640D01*
X3038138Y-4183635D01*
X3035937Y-4177654D01*
X2933326Y-4012160D01*
X2799534Y-3870678D01*
X2640025Y-3758989D01*
X2592013Y-3738212D01*
X2467175Y-3684190D01*
X2467171Y-3684189D01*
X2461316Y-3681655D01*
X2455069Y-3680350D01*
X2455066Y-3680349D01*
X2275443Y-3642824D01*
X2275438Y-3642823D01*
X2270707Y-3641835D01*
X2264315Y-3641500D01*
X2121337Y-3641500D01*
X2052049Y-3648538D01*
X1982622Y-3655590D01*
X1982621Y-3655590D01*
X1976273Y-3656235D01*
X1919939Y-3673889D01*
X1796549Y-3712556D01*
X1796544Y-3712558D01*
X1790459Y-3714465D01*
X1714713Y-3756452D01*
X1625729Y-3805777D01*
X1625726Y-3805779D01*
X1620150Y-3808870D01*
X1615309Y-3813019D01*
X1615305Y-3813022D01*
X1552311Y-3867015D01*
X1472302Y-3935591D01*
X1352954Y-4089453D01*
X1350138Y-4095176D01*
X1350136Y-4095179D01*
X1306608Y-4183640D01*
X1266982Y-4264171D01*
X1265373Y-4270349D01*
X1265372Y-4270351D01*
X1243477Y-4354409D01*
X1217898Y-4452607D01*
X1207707Y-4647064D01*
X508500Y-4647064D01*
X508500Y-2256473D01*
X510000Y-2237088D01*
X512310Y-2222255D01*
X512310Y-2222251D01*
X513691Y-2213382D01*
X512527Y-2204480D01*
X512527Y-2204475D01*
X512511Y-2204356D01*
X512240Y-2173919D01*
X519234Y-2111844D01*
X525512Y-2084337D01*
X552487Y-2007248D01*
X564727Y-1981832D01*
X608178Y-1912680D01*
X625770Y-1890621D01*
X683514Y-1832877D01*
X705573Y-1815285D01*
X760093Y-1781028D01*
X774727Y-1771833D01*
X800141Y-1759594D01*
X877232Y-1732619D01*
X904736Y-1726341D01*
X960224Y-1720089D01*
X975867Y-1720184D01*
X975878Y-1719307D01*
X984850Y-1719417D01*
X993723Y-1720798D01*
X1002625Y-1719634D01*
X1002628Y-1719634D01*
X1025284Y-1716671D01*
X1041621Y-1715607D01*
X8950633Y-1715607D01*
X8970018Y-1717107D01*
G37*
%TD.AperFunction*%
%TD*%
M02*
