%TF.GenerationSoftware,KiCad,Pcbnew,(6.0.6-0)*%
%TF.CreationDate,2022-09-06T19:20:28+02:00*%
%TF.ProjectId,pwrBrd,70777242-7264-42e6-9b69-6361645f7063,rev?*%
%TF.SameCoordinates,Original*%
%TF.FileFunction,Legend,Bot*%
%TF.FilePolarity,Positive*%
%FSLAX46Y46*%
G04 Gerber Fmt 4.6, Leading zero omitted, Abs format (unit mm)*
G04 Created by KiCad (PCBNEW (6.0.6-0)) date 2022-09-06 19:20:28*
%MOMM*%
%LPD*%
G01*
G04 APERTURE LIST*
%ADD10C,0.150000*%
G04 APERTURE END LIST*
D10*
X8633809Y-20045357D02*
X8681428Y-20092976D01*
X8729047Y-20188214D01*
X8729047Y-20283452D01*
X8681428Y-20378690D01*
X8633809Y-20426309D01*
X8538571Y-20473928D01*
X8443333Y-20473928D01*
X8348095Y-20426309D01*
X8300476Y-20378690D01*
X8252857Y-20283452D01*
X8252857Y-20188214D01*
X8300476Y-20092976D01*
X8348095Y-20045357D01*
X8729047Y-20045357D02*
X8348095Y-20045357D01*
X8300476Y-19997738D01*
X8300476Y-19950119D01*
X8348095Y-19854880D01*
X8443333Y-19807261D01*
X8681428Y-19807261D01*
X8824285Y-19902500D01*
X8919523Y-20045357D01*
X8967142Y-20235833D01*
X8919523Y-20426309D01*
X8824285Y-20569166D01*
X8681428Y-20664404D01*
X8490952Y-20712023D01*
X8300476Y-20664404D01*
X8157619Y-20569166D01*
X8062380Y-20426309D01*
X8014761Y-20235833D01*
X8062380Y-20045357D01*
X8157619Y-19902500D01*
X8157619Y-18950119D02*
X9157619Y-18950119D01*
X8205238Y-18950119D02*
X8157619Y-19045357D01*
X8157619Y-19235833D01*
X8205238Y-19331071D01*
X8252857Y-19378690D01*
X8348095Y-19426309D01*
X8633809Y-19426309D01*
X8729047Y-19378690D01*
X8776666Y-19331071D01*
X8824285Y-19235833D01*
X8824285Y-19045357D01*
X8776666Y-18950119D01*
X8157619Y-18045357D02*
X8681428Y-18045357D01*
X8776666Y-18092976D01*
X8824285Y-18188214D01*
X8824285Y-18378690D01*
X8776666Y-18473928D01*
X8205238Y-18045357D02*
X8157619Y-18140595D01*
X8157619Y-18378690D01*
X8205238Y-18473928D01*
X8300476Y-18521547D01*
X8395714Y-18521547D01*
X8490952Y-18473928D01*
X8538571Y-18378690D01*
X8538571Y-18140595D01*
X8586190Y-18045357D01*
X8824285Y-17664404D02*
X8157619Y-17426309D01*
X8824285Y-17188214D01*
X8205238Y-16426309D02*
X8157619Y-16521547D01*
X8157619Y-16712023D01*
X8205238Y-16807261D01*
X8300476Y-16854880D01*
X8681428Y-16854880D01*
X8776666Y-16807261D01*
X8824285Y-16712023D01*
X8824285Y-16521547D01*
X8776666Y-16426309D01*
X8681428Y-16378690D01*
X8586190Y-16378690D01*
X8490952Y-16854880D01*
X8157619Y-15521547D02*
X9157619Y-15521547D01*
X8205238Y-15521547D02*
X8157619Y-15616785D01*
X8157619Y-15807261D01*
X8205238Y-15902500D01*
X8252857Y-15950119D01*
X8348095Y-15997738D01*
X8633809Y-15997738D01*
X8729047Y-15950119D01*
X8776666Y-15902500D01*
X8824285Y-15807261D01*
X8824285Y-15616785D01*
X8776666Y-15521547D01*
X8157619Y-14616785D02*
X8681428Y-14616785D01*
X8776666Y-14664404D01*
X8824285Y-14759642D01*
X8824285Y-14950119D01*
X8776666Y-15045357D01*
X8205238Y-14616785D02*
X8157619Y-14712023D01*
X8157619Y-14950119D01*
X8205238Y-15045357D01*
X8300476Y-15092976D01*
X8395714Y-15092976D01*
X8490952Y-15045357D01*
X8538571Y-14950119D01*
X8538571Y-14712023D01*
X8586190Y-14616785D01*
X8157619Y-14140595D02*
X8824285Y-14140595D01*
X8633809Y-14140595D02*
X8729047Y-14092976D01*
X8776666Y-14045357D01*
X8824285Y-13950119D01*
X8824285Y-13854880D01*
X8157619Y-13521547D02*
X9157619Y-13521547D01*
X8538571Y-13426309D02*
X8157619Y-13140595D01*
X8824285Y-13140595D02*
X8443333Y-13521547D01*
X8157619Y-12569166D02*
X8205238Y-12664404D01*
X8252857Y-12712023D01*
X8348095Y-12759642D01*
X8633809Y-12759642D01*
X8729047Y-12712023D01*
X8776666Y-12664404D01*
X8824285Y-12569166D01*
X8824285Y-12426309D01*
X8776666Y-12331071D01*
X8729047Y-12283452D01*
X8633809Y-12235833D01*
X8348095Y-12235833D01*
X8252857Y-12283452D01*
X8205238Y-12331071D01*
X8157619Y-12426309D01*
X8157619Y-12569166D01*
X9062380Y-11092976D02*
X9110000Y-11045357D01*
X9157619Y-10950119D01*
X9157619Y-10712023D01*
X9110000Y-10616785D01*
X9062380Y-10569166D01*
X8967142Y-10521547D01*
X8871904Y-10521547D01*
X8729047Y-10569166D01*
X8157619Y-11140595D01*
X8157619Y-10521547D01*
X9062380Y-10140595D02*
X9110000Y-10092976D01*
X9157619Y-9997738D01*
X9157619Y-9759642D01*
X9110000Y-9664404D01*
X9062380Y-9616785D01*
X8967142Y-9569166D01*
X8871904Y-9569166D01*
X8729047Y-9616785D01*
X8157619Y-10188214D01*
X8157619Y-9569166D01*
X9205238Y-8426309D02*
X7919523Y-9283452D01*
X9157619Y-7902500D02*
X9157619Y-7807261D01*
X9110000Y-7712023D01*
X9062380Y-7664404D01*
X8967142Y-7616785D01*
X8776666Y-7569166D01*
X8538571Y-7569166D01*
X8348095Y-7616785D01*
X8252857Y-7664404D01*
X8205238Y-7712023D01*
X8157619Y-7807261D01*
X8157619Y-7902500D01*
X8205238Y-7997738D01*
X8252857Y-8045357D01*
X8348095Y-8092976D01*
X8538571Y-8140595D01*
X8776666Y-8140595D01*
X8967142Y-8092976D01*
X9062380Y-8045357D01*
X9110000Y-7997738D01*
X9157619Y-7902500D01*
X8157619Y-7092976D02*
X8157619Y-6902500D01*
X8205238Y-6807261D01*
X8252857Y-6759642D01*
X8395714Y-6664404D01*
X8586190Y-6616785D01*
X8967142Y-6616785D01*
X9062380Y-6664404D01*
X9110000Y-6712023D01*
X9157619Y-6807261D01*
X9157619Y-6997738D01*
X9110000Y-7092976D01*
X9062380Y-7140595D01*
X8967142Y-7188214D01*
X8729047Y-7188214D01*
X8633809Y-7140595D01*
X8586190Y-7092976D01*
X8538571Y-6997738D01*
X8538571Y-6807261D01*
X8586190Y-6712023D01*
X8633809Y-6664404D01*
X8729047Y-6616785D01*
X7214285Y-20664404D02*
X6214285Y-20664404D01*
X7166666Y-20664404D02*
X7214285Y-20569166D01*
X7214285Y-20378690D01*
X7166666Y-20283452D01*
X7119047Y-20235833D01*
X7023809Y-20188214D01*
X6738095Y-20188214D01*
X6642857Y-20235833D01*
X6595238Y-20283452D01*
X6547619Y-20378690D01*
X6547619Y-20569166D01*
X6595238Y-20664404D01*
X6928571Y-19759642D02*
X6928571Y-18997738D01*
X6595238Y-18092976D02*
X6547619Y-18188214D01*
X6547619Y-18378690D01*
X6595238Y-18473928D01*
X6642857Y-18521547D01*
X6738095Y-18569166D01*
X7023809Y-18569166D01*
X7119047Y-18521547D01*
X7166666Y-18473928D01*
X7214285Y-18378690D01*
X7214285Y-18188214D01*
X7166666Y-18092976D01*
X6547619Y-17664404D02*
X7547619Y-17664404D01*
X6547619Y-17235833D02*
X7071428Y-17235833D01*
X7166666Y-17283452D01*
X7214285Y-17378690D01*
X7214285Y-17521547D01*
X7166666Y-17616785D01*
X7119047Y-17664404D01*
X6547619Y-16331071D02*
X7071428Y-16331071D01*
X7166666Y-16378690D01*
X7214285Y-16473928D01*
X7214285Y-16664404D01*
X7166666Y-16759642D01*
X6595238Y-16331071D02*
X6547619Y-16426309D01*
X6547619Y-16664404D01*
X6595238Y-16759642D01*
X6690476Y-16807261D01*
X6785714Y-16807261D01*
X6880952Y-16759642D01*
X6928571Y-16664404D01*
X6928571Y-16426309D01*
X6976190Y-16331071D01*
X7214285Y-15854880D02*
X6547619Y-15854880D01*
X7119047Y-15854880D02*
X7166666Y-15807261D01*
X7214285Y-15712023D01*
X7214285Y-15569166D01*
X7166666Y-15473928D01*
X7071428Y-15426309D01*
X6547619Y-15426309D01*
X7214285Y-14950119D02*
X6547619Y-14950119D01*
X7119047Y-14950119D02*
X7166666Y-14902500D01*
X7214285Y-14807261D01*
X7214285Y-14664404D01*
X7166666Y-14569166D01*
X7071428Y-14521547D01*
X6547619Y-14521547D01*
X6595238Y-13664404D02*
X6547619Y-13759642D01*
X6547619Y-13950119D01*
X6595238Y-14045357D01*
X6690476Y-14092976D01*
X7071428Y-14092976D01*
X7166666Y-14045357D01*
X7214285Y-13950119D01*
X7214285Y-13759642D01*
X7166666Y-13664404D01*
X7071428Y-13616785D01*
X6976190Y-13616785D01*
X6880952Y-14092976D01*
X6547619Y-13045357D02*
X6595238Y-13140595D01*
X6690476Y-13188214D01*
X7547619Y-13188214D01*
X6595238Y-11950119D02*
X6547619Y-11854880D01*
X6547619Y-11664404D01*
X6595238Y-11569166D01*
X6690476Y-11521547D01*
X6738095Y-11521547D01*
X6833333Y-11569166D01*
X6880952Y-11664404D01*
X6880952Y-11807261D01*
X6928571Y-11902500D01*
X7023809Y-11950119D01*
X7071428Y-11950119D01*
X7166666Y-11902500D01*
X7214285Y-11807261D01*
X7214285Y-11664404D01*
X7166666Y-11569166D01*
X7214285Y-11188214D02*
X6547619Y-10997738D01*
X7023809Y-10807261D01*
X6547619Y-10616785D01*
X7214285Y-10426309D01*
X6547619Y-10045357D02*
X7214285Y-10045357D01*
X7547619Y-10045357D02*
X7500000Y-10092976D01*
X7452380Y-10045357D01*
X7500000Y-9997738D01*
X7547619Y-10045357D01*
X7452380Y-10045357D01*
X7214285Y-9712023D02*
X7214285Y-9331071D01*
X7547619Y-9569166D02*
X6690476Y-9569166D01*
X6595238Y-9521547D01*
X6547619Y-9426309D01*
X6547619Y-9331071D01*
X6595238Y-8569166D02*
X6547619Y-8664404D01*
X6547619Y-8854880D01*
X6595238Y-8950119D01*
X6642857Y-8997738D01*
X6738095Y-9045357D01*
X7023809Y-9045357D01*
X7119047Y-8997738D01*
X7166666Y-8950119D01*
X7214285Y-8854880D01*
X7214285Y-8664404D01*
X7166666Y-8569166D01*
X6547619Y-8140595D02*
X7547619Y-8140595D01*
X6547619Y-7712023D02*
X7071428Y-7712023D01*
X7166666Y-7759642D01*
X7214285Y-7854880D01*
X7214285Y-7997738D01*
X7166666Y-8092976D01*
X7119047Y-8140595D01*
X5937619Y-20807261D02*
X5937619Y-20235833D01*
X4937619Y-20521547D02*
X5937619Y-20521547D01*
X4985238Y-19950119D02*
X4937619Y-19807261D01*
X4937619Y-19569166D01*
X4985238Y-19473928D01*
X5032857Y-19426309D01*
X5128095Y-19378690D01*
X5223333Y-19378690D01*
X5318571Y-19426309D01*
X5366190Y-19473928D01*
X5413809Y-19569166D01*
X5461428Y-19759642D01*
X5509047Y-19854880D01*
X5556666Y-19902500D01*
X5651904Y-19950119D01*
X5747142Y-19950119D01*
X5842380Y-19902500D01*
X5890000Y-19854880D01*
X5937619Y-19759642D01*
X5937619Y-19521547D01*
X5890000Y-19378690D01*
X4937619Y-18950119D02*
X5937619Y-18950119D01*
X5223333Y-18616785D01*
X5937619Y-18283452D01*
X4937619Y-18283452D01*
X5842380Y-17854880D02*
X5890000Y-17807261D01*
X5937619Y-17712023D01*
X5937619Y-17473928D01*
X5890000Y-17378690D01*
X5842380Y-17331071D01*
X5747142Y-17283452D01*
X5651904Y-17283452D01*
X5509047Y-17331071D01*
X4937619Y-17902500D01*
X4937619Y-17283452D01*
X5937619Y-16950119D02*
X5937619Y-16331071D01*
X5556666Y-16664404D01*
X5556666Y-16521547D01*
X5509047Y-16426309D01*
X5461428Y-16378690D01*
X5366190Y-16331071D01*
X5128095Y-16331071D01*
X5032857Y-16378690D01*
X4985238Y-16426309D01*
X4937619Y-16521547D01*
X4937619Y-16807261D01*
X4985238Y-16902500D01*
X5032857Y-16950119D01*
X5937619Y-15712023D02*
X5937619Y-15616785D01*
X5890000Y-15521547D01*
X5842380Y-15473928D01*
X5747142Y-15426309D01*
X5556666Y-15378690D01*
X5318571Y-15378690D01*
X5128095Y-15426309D01*
X5032857Y-15473928D01*
X4985238Y-15521547D01*
X4937619Y-15616785D01*
X4937619Y-15712023D01*
X4985238Y-15807261D01*
X5032857Y-15854880D01*
X5128095Y-15902500D01*
X5318571Y-15950119D01*
X5556666Y-15950119D01*
X5747142Y-15902500D01*
X5842380Y-15854880D01*
X5890000Y-15807261D01*
X5937619Y-15712023D01*
X4937619Y-14426309D02*
X4937619Y-14997738D01*
X4937619Y-14712023D02*
X5937619Y-14712023D01*
X5794761Y-14807261D01*
X5699523Y-14902500D01*
X5651904Y-14997738D01*
X5223333Y-14045357D02*
X5223333Y-13569166D01*
X4937619Y-14140595D02*
X5937619Y-13807261D01*
X4937619Y-13473928D01*
X5032857Y-12569166D02*
X4985238Y-12616785D01*
X4937619Y-12759642D01*
X4937619Y-12854880D01*
X4985238Y-12997738D01*
X5080476Y-13092976D01*
X5175714Y-13140595D01*
X5366190Y-13188214D01*
X5509047Y-13188214D01*
X5699523Y-13140595D01*
X5794761Y-13092976D01*
X5890000Y-12997738D01*
X5937619Y-12854880D01*
X5937619Y-12759642D01*
X5890000Y-12616785D01*
X5842380Y-12569166D01*
X5937619Y-12235833D02*
X4937619Y-11569166D01*
X5937619Y-11569166D02*
X4937619Y-12235833D01*
M02*
